<?xml version="1.0" encoding="utf-8"?>
<svg xmlns="http://www.w3.org/2000/svg" xmlns:xlink="http://www.w3.org/1999/xlink" width="600" height="400" viewBox="0 0 2400 1600">
<defs>
  <clipPath id="clip990">
    <rect x="0" y="0" width="2400" height="1600"/>
  </clipPath>
</defs>
<path clip-path="url(#clip990)" d="M0 1600 L2400 1600 L2400 0 L0 0  Z" fill="#ffffff" fill-rule="evenodd" fill-opacity="1"/>
<defs>
  <clipPath id="clip991">
    <rect x="480" y="0" width="1681" height="1600"/>
  </clipPath>
</defs>
<path clip-path="url(#clip990)" d="M194.422 1486.45 L2352.76 1486.45 L2352.76 47.2441 L194.422 47.2441  Z" fill="#ffffff" fill-rule="evenodd" fill-opacity="1"/>
<defs>
  <clipPath id="clip992">
    <rect x="194" y="47" width="2159" height="1440"/>
  </clipPath>
</defs>
<polyline clip-path="url(#clip992)" style="stroke:#000000; stroke-linecap:round; stroke-linejoin:round; stroke-width:2; stroke-opacity:0.1; fill:none" points="254.998,1486.45 254.998,47.2441 "/>
<polyline clip-path="url(#clip992)" style="stroke:#000000; stroke-linecap:round; stroke-linejoin:round; stroke-width:2; stroke-opacity:0.1; fill:none" points="764.166,1486.45 764.166,47.2441 "/>
<polyline clip-path="url(#clip992)" style="stroke:#000000; stroke-linecap:round; stroke-linejoin:round; stroke-width:2; stroke-opacity:0.1; fill:none" points="1273.33,1486.45 1273.33,47.2441 "/>
<polyline clip-path="url(#clip992)" style="stroke:#000000; stroke-linecap:round; stroke-linejoin:round; stroke-width:2; stroke-opacity:0.1; fill:none" points="1782.5,1486.45 1782.5,47.2441 "/>
<polyline clip-path="url(#clip992)" style="stroke:#000000; stroke-linecap:round; stroke-linejoin:round; stroke-width:2; stroke-opacity:0.1; fill:none" points="2291.67,1486.45 2291.67,47.2441 "/>
<polyline clip-path="url(#clip992)" style="stroke:#000000; stroke-linecap:round; stroke-linejoin:round; stroke-width:2; stroke-opacity:0.1; fill:none" points="194.422,1364.56 2352.76,1364.56 "/>
<polyline clip-path="url(#clip992)" style="stroke:#000000; stroke-linecap:round; stroke-linejoin:round; stroke-width:2; stroke-opacity:0.1; fill:none" points="194.422,1182.19 2352.76,1182.19 "/>
<polyline clip-path="url(#clip992)" style="stroke:#000000; stroke-linecap:round; stroke-linejoin:round; stroke-width:2; stroke-opacity:0.1; fill:none" points="194.422,999.818 2352.76,999.818 "/>
<polyline clip-path="url(#clip992)" style="stroke:#000000; stroke-linecap:round; stroke-linejoin:round; stroke-width:2; stroke-opacity:0.1; fill:none" points="194.422,817.45 2352.76,817.45 "/>
<polyline clip-path="url(#clip992)" style="stroke:#000000; stroke-linecap:round; stroke-linejoin:round; stroke-width:2; stroke-opacity:0.1; fill:none" points="194.422,635.081 2352.76,635.081 "/>
<polyline clip-path="url(#clip992)" style="stroke:#000000; stroke-linecap:round; stroke-linejoin:round; stroke-width:2; stroke-opacity:0.1; fill:none" points="194.422,452.713 2352.76,452.713 "/>
<polyline clip-path="url(#clip992)" style="stroke:#000000; stroke-linecap:round; stroke-linejoin:round; stroke-width:2; stroke-opacity:0.1; fill:none" points="194.422,270.345 2352.76,270.345 "/>
<polyline clip-path="url(#clip992)" style="stroke:#000000; stroke-linecap:round; stroke-linejoin:round; stroke-width:2; stroke-opacity:0.1; fill:none" points="194.422,87.9763 2352.76,87.9763 "/>
<polyline clip-path="url(#clip990)" style="stroke:#000000; stroke-linecap:round; stroke-linejoin:round; stroke-width:4; stroke-opacity:1; fill:none" points="194.422,1486.45 2352.76,1486.45 "/>
<polyline clip-path="url(#clip990)" style="stroke:#000000; stroke-linecap:round; stroke-linejoin:round; stroke-width:4; stroke-opacity:1; fill:none" points="254.998,1486.45 254.998,1467.55 "/>
<polyline clip-path="url(#clip990)" style="stroke:#000000; stroke-linecap:round; stroke-linejoin:round; stroke-width:4; stroke-opacity:1; fill:none" points="764.166,1486.45 764.166,1467.55 "/>
<polyline clip-path="url(#clip990)" style="stroke:#000000; stroke-linecap:round; stroke-linejoin:round; stroke-width:4; stroke-opacity:1; fill:none" points="1273.33,1486.45 1273.33,1467.55 "/>
<polyline clip-path="url(#clip990)" style="stroke:#000000; stroke-linecap:round; stroke-linejoin:round; stroke-width:4; stroke-opacity:1; fill:none" points="1782.5,1486.45 1782.5,1467.55 "/>
<polyline clip-path="url(#clip990)" style="stroke:#000000; stroke-linecap:round; stroke-linejoin:round; stroke-width:4; stroke-opacity:1; fill:none" points="2291.67,1486.45 2291.67,1467.55 "/>
<path clip-path="url(#clip990)" d="M254.998 1517.37 Q251.387 1517.37 249.558 1520.93 Q247.753 1524.47 247.753 1531.6 Q247.753 1538.71 249.558 1542.27 Q251.387 1545.82 254.998 1545.82 Q258.632 1545.82 260.438 1542.27 Q262.266 1538.71 262.266 1531.6 Q262.266 1524.47 260.438 1520.93 Q258.632 1517.37 254.998 1517.37 M254.998 1513.66 Q260.808 1513.66 263.864 1518.27 Q266.942 1522.85 266.942 1531.6 Q266.942 1540.33 263.864 1544.94 Q260.808 1549.52 254.998 1549.52 Q249.188 1549.52 246.109 1544.94 Q243.053 1540.33 243.053 1531.6 Q243.053 1522.85 246.109 1518.27 Q249.188 1513.66 254.998 1513.66 Z" fill="#000000" fill-rule="nonzero" fill-opacity="1" /><path clip-path="url(#clip990)" d="M708.692 1544.91 L716.331 1544.91 L716.331 1518.55 L708.021 1520.21 L708.021 1515.95 L716.284 1514.29 L720.96 1514.29 L720.96 1544.91 L728.599 1544.91 L728.599 1548.85 L708.692 1548.85 L708.692 1544.91 Z" fill="#000000" fill-rule="nonzero" fill-opacity="1" /><path clip-path="url(#clip990)" d="M748.044 1517.37 Q744.432 1517.37 742.604 1520.93 Q740.798 1524.47 740.798 1531.6 Q740.798 1538.71 742.604 1542.27 Q744.432 1545.82 748.044 1545.82 Q751.678 1545.82 753.483 1542.27 Q755.312 1538.71 755.312 1531.6 Q755.312 1524.47 753.483 1520.93 Q751.678 1517.37 748.044 1517.37 M748.044 1513.66 Q753.854 1513.66 756.909 1518.27 Q759.988 1522.85 759.988 1531.6 Q759.988 1540.33 756.909 1544.94 Q753.854 1549.52 748.044 1549.52 Q742.233 1549.52 739.155 1544.94 Q736.099 1540.33 736.099 1531.6 Q736.099 1522.85 739.155 1518.27 Q742.233 1513.66 748.044 1513.66 Z" fill="#000000" fill-rule="nonzero" fill-opacity="1" /><path clip-path="url(#clip990)" d="M778.205 1517.37 Q774.594 1517.37 772.766 1520.93 Q770.96 1524.47 770.96 1531.6 Q770.96 1538.71 772.766 1542.27 Q774.594 1545.82 778.205 1545.82 Q781.84 1545.82 783.645 1542.27 Q785.474 1538.71 785.474 1531.6 Q785.474 1524.47 783.645 1520.93 Q781.84 1517.37 778.205 1517.37 M778.205 1513.66 Q784.016 1513.66 787.071 1518.27 Q790.15 1522.85 790.15 1531.6 Q790.15 1540.33 787.071 1544.94 Q784.016 1549.52 778.205 1549.52 Q772.395 1549.52 769.317 1544.94 Q766.261 1540.33 766.261 1531.6 Q766.261 1522.85 769.317 1518.27 Q772.395 1513.66 778.205 1513.66 Z" fill="#000000" fill-rule="nonzero" fill-opacity="1" /><path clip-path="url(#clip990)" d="M808.367 1517.37 Q804.756 1517.37 802.928 1520.93 Q801.122 1524.47 801.122 1531.6 Q801.122 1538.71 802.928 1542.27 Q804.756 1545.82 808.367 1545.82 Q812.002 1545.82 813.807 1542.27 Q815.636 1538.71 815.636 1531.6 Q815.636 1524.47 813.807 1520.93 Q812.002 1517.37 808.367 1517.37 M808.367 1513.66 Q814.177 1513.66 817.233 1518.27 Q820.312 1522.85 820.312 1531.6 Q820.312 1540.33 817.233 1544.94 Q814.177 1549.52 808.367 1549.52 Q802.557 1549.52 799.478 1544.94 Q796.423 1540.33 796.423 1531.6 Q796.423 1522.85 799.478 1518.27 Q802.557 1513.66 808.367 1513.66 Z" fill="#000000" fill-rule="nonzero" fill-opacity="1" /><path clip-path="url(#clip990)" d="M1221.95 1544.91 L1238.27 1544.91 L1238.27 1548.85 L1216.32 1548.85 L1216.32 1544.91 Q1218.98 1542.16 1223.57 1537.53 Q1228.17 1532.88 1229.35 1531.53 Q1231.6 1529.01 1232.48 1527.27 Q1233.38 1525.51 1233.38 1523.82 Q1233.38 1521.07 1231.44 1519.33 Q1229.52 1517.6 1226.41 1517.6 Q1224.21 1517.6 1221.76 1518.36 Q1219.33 1519.13 1216.55 1520.68 L1216.55 1515.95 Q1219.38 1514.82 1221.83 1514.24 Q1224.28 1513.66 1226.32 1513.66 Q1231.69 1513.66 1234.89 1516.35 Q1238.08 1519.03 1238.08 1523.52 Q1238.08 1525.65 1237.27 1527.57 Q1236.48 1529.47 1234.38 1532.07 Q1233.8 1532.74 1230.7 1535.95 Q1227.59 1539.15 1221.95 1544.91 Z" fill="#000000" fill-rule="nonzero" fill-opacity="1" /><path clip-path="url(#clip990)" d="M1258.08 1517.37 Q1254.47 1517.37 1252.64 1520.93 Q1250.83 1524.47 1250.83 1531.6 Q1250.83 1538.71 1252.64 1542.27 Q1254.47 1545.82 1258.08 1545.82 Q1261.71 1545.82 1263.52 1542.27 Q1265.35 1538.71 1265.35 1531.6 Q1265.35 1524.47 1263.52 1520.93 Q1261.71 1517.37 1258.08 1517.37 M1258.08 1513.66 Q1263.89 1513.66 1266.95 1518.27 Q1270.02 1522.85 1270.02 1531.6 Q1270.02 1540.33 1266.95 1544.94 Q1263.89 1549.52 1258.08 1549.52 Q1252.27 1549.52 1249.19 1544.94 Q1246.14 1540.33 1246.14 1531.6 Q1246.14 1522.85 1249.19 1518.27 Q1252.27 1513.66 1258.08 1513.66 Z" fill="#000000" fill-rule="nonzero" fill-opacity="1" /><path clip-path="url(#clip990)" d="M1288.24 1517.37 Q1284.63 1517.37 1282.8 1520.93 Q1281 1524.47 1281 1531.6 Q1281 1538.71 1282.8 1542.27 Q1284.63 1545.82 1288.24 1545.82 Q1291.88 1545.82 1293.68 1542.27 Q1295.51 1538.71 1295.51 1531.6 Q1295.51 1524.47 1293.68 1520.93 Q1291.88 1517.37 1288.24 1517.37 M1288.24 1513.66 Q1294.05 1513.66 1297.11 1518.27 Q1300.19 1522.85 1300.19 1531.6 Q1300.19 1540.33 1297.11 1544.94 Q1294.05 1549.52 1288.24 1549.52 Q1282.43 1549.52 1279.35 1544.94 Q1276.3 1540.33 1276.3 1531.6 Q1276.3 1522.85 1279.35 1518.27 Q1282.43 1513.66 1288.24 1513.66 Z" fill="#000000" fill-rule="nonzero" fill-opacity="1" /><path clip-path="url(#clip990)" d="M1318.4 1517.37 Q1314.79 1517.37 1312.96 1520.93 Q1311.16 1524.47 1311.16 1531.6 Q1311.16 1538.71 1312.96 1542.27 Q1314.79 1545.82 1318.4 1545.82 Q1322.04 1545.82 1323.84 1542.27 Q1325.67 1538.71 1325.67 1531.6 Q1325.67 1524.47 1323.84 1520.93 Q1322.04 1517.37 1318.4 1517.37 M1318.4 1513.66 Q1324.21 1513.66 1327.27 1518.27 Q1330.35 1522.85 1330.35 1531.6 Q1330.35 1540.33 1327.27 1544.94 Q1324.21 1549.52 1318.4 1549.52 Q1312.59 1549.52 1309.51 1544.94 Q1306.46 1540.33 1306.46 1531.6 Q1306.46 1522.85 1309.51 1518.27 Q1312.59 1513.66 1318.4 1513.66 Z" fill="#000000" fill-rule="nonzero" fill-opacity="1" /><path clip-path="url(#clip990)" d="M1741.18 1530.21 Q1744.54 1530.93 1746.41 1533.2 Q1748.31 1535.47 1748.31 1538.8 Q1748.31 1543.92 1744.79 1546.72 Q1741.28 1549.52 1734.79 1549.52 Q1732.62 1549.52 1730.3 1549.08 Q1728.01 1548.66 1725.56 1547.81 L1725.56 1543.29 Q1727.5 1544.43 1729.82 1545.01 Q1732.13 1545.58 1734.66 1545.58 Q1739.05 1545.58 1741.35 1543.85 Q1743.66 1542.11 1743.66 1538.8 Q1743.66 1535.75 1741.51 1534.03 Q1739.38 1532.3 1735.56 1532.3 L1731.53 1532.3 L1731.53 1528.45 L1735.74 1528.45 Q1739.19 1528.45 1741.02 1527.09 Q1742.85 1525.7 1742.85 1523.11 Q1742.85 1520.45 1740.95 1519.03 Q1739.08 1517.6 1735.56 1517.6 Q1733.64 1517.6 1731.44 1518.01 Q1729.24 1518.43 1726.6 1519.31 L1726.6 1515.14 Q1729.26 1514.4 1731.58 1514.03 Q1733.92 1513.66 1735.98 1513.66 Q1741.3 1513.66 1744.4 1516.09 Q1747.5 1518.5 1747.5 1522.62 Q1747.5 1525.49 1745.86 1527.48 Q1744.22 1529.45 1741.18 1530.21 Z" fill="#000000" fill-rule="nonzero" fill-opacity="1" /><path clip-path="url(#clip990)" d="M1767.18 1517.37 Q1763.57 1517.37 1761.74 1520.93 Q1759.93 1524.47 1759.93 1531.6 Q1759.93 1538.71 1761.74 1542.27 Q1763.57 1545.82 1767.18 1545.82 Q1770.81 1545.82 1772.62 1542.27 Q1774.45 1538.71 1774.45 1531.6 Q1774.45 1524.47 1772.62 1520.93 Q1770.81 1517.37 1767.18 1517.37 M1767.18 1513.66 Q1772.99 1513.66 1776.04 1518.27 Q1779.12 1522.85 1779.12 1531.6 Q1779.12 1540.33 1776.04 1544.94 Q1772.99 1549.52 1767.18 1549.52 Q1761.37 1549.52 1758.29 1544.94 Q1755.23 1540.33 1755.23 1531.6 Q1755.23 1522.85 1758.29 1518.27 Q1761.37 1513.66 1767.18 1513.66 Z" fill="#000000" fill-rule="nonzero" fill-opacity="1" /><path clip-path="url(#clip990)" d="M1797.34 1517.37 Q1793.73 1517.37 1791.9 1520.93 Q1790.1 1524.47 1790.1 1531.6 Q1790.1 1538.71 1791.9 1542.27 Q1793.73 1545.82 1797.34 1545.82 Q1800.97 1545.82 1802.78 1542.27 Q1804.61 1538.71 1804.61 1531.6 Q1804.61 1524.47 1802.78 1520.93 Q1800.97 1517.37 1797.34 1517.37 M1797.34 1513.66 Q1803.15 1513.66 1806.21 1518.27 Q1809.28 1522.85 1809.28 1531.6 Q1809.28 1540.33 1806.21 1544.94 Q1803.15 1549.52 1797.34 1549.52 Q1791.53 1549.52 1788.45 1544.94 Q1785.4 1540.33 1785.4 1531.6 Q1785.4 1522.85 1788.45 1518.27 Q1791.53 1513.66 1797.34 1513.66 Z" fill="#000000" fill-rule="nonzero" fill-opacity="1" /><path clip-path="url(#clip990)" d="M1827.5 1517.37 Q1823.89 1517.37 1822.06 1520.93 Q1820.26 1524.47 1820.26 1531.6 Q1820.26 1538.71 1822.06 1542.27 Q1823.89 1545.82 1827.5 1545.82 Q1831.14 1545.82 1832.94 1542.27 Q1834.77 1538.71 1834.77 1531.6 Q1834.77 1524.47 1832.94 1520.93 Q1831.14 1517.37 1827.5 1517.37 M1827.5 1513.66 Q1833.31 1513.66 1836.37 1518.27 Q1839.45 1522.85 1839.45 1531.6 Q1839.45 1540.33 1836.37 1544.94 Q1833.31 1549.52 1827.5 1549.52 Q1821.69 1549.52 1818.61 1544.94 Q1815.56 1540.33 1815.56 1531.6 Q1815.56 1522.85 1818.61 1518.27 Q1821.69 1513.66 1827.5 1513.66 Z" fill="#000000" fill-rule="nonzero" fill-opacity="1" /><path clip-path="url(#clip990)" d="M2249.68 1518.36 L2237.87 1536.81 L2249.68 1536.81 L2249.68 1518.36 M2248.45 1514.29 L2254.33 1514.29 L2254.33 1536.81 L2259.26 1536.81 L2259.26 1540.7 L2254.33 1540.7 L2254.33 1548.85 L2249.68 1548.85 L2249.68 1540.7 L2234.08 1540.7 L2234.08 1536.19 L2248.45 1514.29 Z" fill="#000000" fill-rule="nonzero" fill-opacity="1" /><path clip-path="url(#clip990)" d="M2277 1517.37 Q2273.38 1517.37 2271.56 1520.93 Q2269.75 1524.47 2269.75 1531.6 Q2269.75 1538.71 2271.56 1542.27 Q2273.38 1545.82 2277 1545.82 Q2280.63 1545.82 2282.43 1542.27 Q2284.26 1538.71 2284.26 1531.6 Q2284.26 1524.47 2282.43 1520.93 Q2280.63 1517.37 2277 1517.37 M2277 1513.66 Q2282.81 1513.66 2285.86 1518.27 Q2288.94 1522.85 2288.94 1531.6 Q2288.94 1540.33 2285.86 1544.94 Q2282.81 1549.52 2277 1549.52 Q2271.18 1549.52 2268.11 1544.94 Q2265.05 1540.33 2265.05 1531.6 Q2265.05 1522.85 2268.11 1518.27 Q2271.18 1513.66 2277 1513.66 Z" fill="#000000" fill-rule="nonzero" fill-opacity="1" /><path clip-path="url(#clip990)" d="M2307.16 1517.37 Q2303.55 1517.37 2301.72 1520.93 Q2299.91 1524.47 2299.91 1531.6 Q2299.91 1538.71 2301.72 1542.27 Q2303.55 1545.82 2307.16 1545.82 Q2310.79 1545.82 2312.6 1542.27 Q2314.43 1538.71 2314.43 1531.6 Q2314.43 1524.47 2312.6 1520.93 Q2310.79 1517.37 2307.16 1517.37 M2307.16 1513.66 Q2312.97 1513.66 2316.02 1518.27 Q2319.1 1522.85 2319.1 1531.6 Q2319.1 1540.33 2316.02 1544.94 Q2312.97 1549.52 2307.16 1549.52 Q2301.35 1549.52 2298.27 1544.94 Q2295.21 1540.33 2295.21 1531.6 Q2295.21 1522.85 2298.27 1518.27 Q2301.35 1513.66 2307.16 1513.66 Z" fill="#000000" fill-rule="nonzero" fill-opacity="1" /><path clip-path="url(#clip990)" d="M2337.32 1517.37 Q2333.71 1517.37 2331.88 1520.93 Q2330.07 1524.47 2330.07 1531.6 Q2330.07 1538.71 2331.88 1542.27 Q2333.71 1545.82 2337.32 1545.82 Q2340.95 1545.82 2342.76 1542.27 Q2344.59 1538.71 2344.59 1531.6 Q2344.59 1524.47 2342.76 1520.93 Q2340.95 1517.37 2337.32 1517.37 M2337.32 1513.66 Q2343.13 1513.66 2346.18 1518.27 Q2349.26 1522.85 2349.26 1531.6 Q2349.26 1540.33 2346.18 1544.94 Q2343.13 1549.52 2337.32 1549.52 Q2331.51 1549.52 2328.43 1544.94 Q2325.37 1540.33 2325.37 1531.6 Q2325.37 1522.85 2328.43 1518.27 Q2331.51 1513.66 2337.32 1513.66 Z" fill="#000000" fill-rule="nonzero" fill-opacity="1" /><polyline clip-path="url(#clip990)" style="stroke:#000000; stroke-linecap:round; stroke-linejoin:round; stroke-width:4; stroke-opacity:1; fill:none" points="194.422,1486.45 194.422,47.2441 "/>
<polyline clip-path="url(#clip990)" style="stroke:#000000; stroke-linecap:round; stroke-linejoin:round; stroke-width:4; stroke-opacity:1; fill:none" points="194.422,1364.56 213.32,1364.56 "/>
<polyline clip-path="url(#clip990)" style="stroke:#000000; stroke-linecap:round; stroke-linejoin:round; stroke-width:4; stroke-opacity:1; fill:none" points="194.422,1182.19 213.32,1182.19 "/>
<polyline clip-path="url(#clip990)" style="stroke:#000000; stroke-linecap:round; stroke-linejoin:round; stroke-width:4; stroke-opacity:1; fill:none" points="194.422,999.818 213.32,999.818 "/>
<polyline clip-path="url(#clip990)" style="stroke:#000000; stroke-linecap:round; stroke-linejoin:round; stroke-width:4; stroke-opacity:1; fill:none" points="194.422,817.45 213.32,817.45 "/>
<polyline clip-path="url(#clip990)" style="stroke:#000000; stroke-linecap:round; stroke-linejoin:round; stroke-width:4; stroke-opacity:1; fill:none" points="194.422,635.081 213.32,635.081 "/>
<polyline clip-path="url(#clip990)" style="stroke:#000000; stroke-linecap:round; stroke-linejoin:round; stroke-width:4; stroke-opacity:1; fill:none" points="194.422,452.713 213.32,452.713 "/>
<polyline clip-path="url(#clip990)" style="stroke:#000000; stroke-linecap:round; stroke-linejoin:round; stroke-width:4; stroke-opacity:1; fill:none" points="194.422,270.345 213.32,270.345 "/>
<polyline clip-path="url(#clip990)" style="stroke:#000000; stroke-linecap:round; stroke-linejoin:round; stroke-width:4; stroke-opacity:1; fill:none" points="194.422,87.9763 213.32,87.9763 "/>
<path clip-path="url(#clip990)" d="M50.9921 1365.01 L80.6679 1365.01 L80.6679 1368.94 L50.9921 1368.94 L50.9921 1365.01 Z" fill="#000000" fill-rule="nonzero" fill-opacity="1" /><path clip-path="url(#clip990)" d="M100.76 1350.35 Q97.1493 1350.35 95.3206 1353.92 Q93.515 1357.46 93.515 1364.59 Q93.515 1371.7 95.3206 1375.26 Q97.1493 1378.8 100.76 1378.8 Q104.395 1378.8 106.2 1375.26 Q108.029 1371.7 108.029 1364.59 Q108.029 1357.46 106.2 1353.92 Q104.395 1350.35 100.76 1350.35 M100.76 1346.65 Q106.571 1346.65 109.626 1351.26 Q112.705 1355.84 112.705 1364.59 Q112.705 1373.32 109.626 1377.92 Q106.571 1382.51 100.76 1382.51 Q94.9502 1382.51 91.8715 1377.92 Q88.816 1373.32 88.816 1364.59 Q88.816 1355.84 91.8715 1351.26 Q94.9502 1346.65 100.76 1346.65 Z" fill="#000000" fill-rule="nonzero" fill-opacity="1" /><path clip-path="url(#clip990)" d="M120.922 1375.96 L125.807 1375.96 L125.807 1381.84 L120.922 1381.84 L120.922 1375.96 Z" fill="#000000" fill-rule="nonzero" fill-opacity="1" /><path clip-path="url(#clip990)" d="M148.839 1351.35 L137.033 1369.8 L148.839 1369.8 L148.839 1351.35 M147.612 1347.28 L153.492 1347.28 L153.492 1369.8 L158.422 1369.8 L158.422 1373.69 L153.492 1373.69 L153.492 1381.84 L148.839 1381.84 L148.839 1373.69 L133.237 1373.69 L133.237 1369.17 L147.612 1347.28 Z" fill="#000000" fill-rule="nonzero" fill-opacity="1" /><path clip-path="url(#clip990)" d="M53.0754 1182.64 L82.7512 1182.64 L82.7512 1186.57 L53.0754 1186.57 L53.0754 1182.64 Z" fill="#000000" fill-rule="nonzero" fill-opacity="1" /><path clip-path="url(#clip990)" d="M102.844 1167.99 Q99.2326 1167.99 97.4039 1171.55 Q95.5984 1175.09 95.5984 1182.22 Q95.5984 1189.33 97.4039 1192.89 Q99.2326 1196.43 102.844 1196.43 Q106.478 1196.43 108.283 1192.89 Q110.112 1189.33 110.112 1182.22 Q110.112 1175.09 108.283 1171.55 Q106.478 1167.99 102.844 1167.99 M102.844 1164.28 Q108.654 1164.28 111.709 1168.89 Q114.788 1173.47 114.788 1182.22 Q114.788 1190.95 111.709 1195.55 Q108.654 1200.14 102.844 1200.14 Q97.0335 1200.14 93.9549 1195.55 Q90.8993 1190.95 90.8993 1182.22 Q90.8993 1173.47 93.9549 1168.89 Q97.0335 1164.28 102.844 1164.28 Z" fill="#000000" fill-rule="nonzero" fill-opacity="1" /><path clip-path="url(#clip990)" d="M123.006 1193.59 L127.89 1193.59 L127.89 1199.47 L123.006 1199.47 L123.006 1193.59 Z" fill="#000000" fill-rule="nonzero" fill-opacity="1" /><path clip-path="url(#clip990)" d="M142.103 1195.53 L158.422 1195.53 L158.422 1199.47 L136.478 1199.47 L136.478 1195.53 Q139.14 1192.78 143.723 1188.15 Q148.33 1183.49 149.51 1182.15 Q151.755 1179.63 152.635 1177.89 Q153.538 1176.13 153.538 1174.44 Q153.538 1171.69 151.593 1169.95 Q149.672 1168.22 146.57 1168.22 Q144.371 1168.22 141.918 1168.98 Q139.487 1169.74 136.709 1171.3 L136.709 1166.57 Q139.533 1165.44 141.987 1164.86 Q144.441 1164.28 146.478 1164.28 Q151.848 1164.28 155.042 1166.97 Q158.237 1169.65 158.237 1174.14 Q158.237 1176.27 157.427 1178.19 Q156.64 1180.09 154.533 1182.68 Q153.955 1183.36 150.853 1186.57 Q147.751 1189.77 142.103 1195.53 Z" fill="#000000" fill-rule="nonzero" fill-opacity="1" /><path clip-path="url(#clip990)" d="M101.246 985.617 Q97.6354 985.617 95.8067 989.182 Q94.0012 992.723 94.0012 999.853 Q94.0012 1006.96 95.8067 1010.52 Q97.6354 1014.07 101.246 1014.07 Q104.881 1014.07 106.686 1010.52 Q108.515 1006.96 108.515 999.853 Q108.515 992.723 106.686 989.182 Q104.881 985.617 101.246 985.617 M101.246 981.913 Q107.057 981.913 110.112 986.52 Q113.191 991.103 113.191 999.853 Q113.191 1008.58 110.112 1013.19 Q107.057 1017.77 101.246 1017.77 Q95.4363 1017.77 92.3576 1013.19 Q89.3021 1008.58 89.3021 999.853 Q89.3021 991.103 92.3576 986.52 Q95.4363 981.913 101.246 981.913 Z" fill="#000000" fill-rule="nonzero" fill-opacity="1" /><path clip-path="url(#clip990)" d="M121.408 1011.22 L126.293 1011.22 L126.293 1017.1 L121.408 1017.1 L121.408 1011.22 Z" fill="#000000" fill-rule="nonzero" fill-opacity="1" /><path clip-path="url(#clip990)" d="M146.478 985.617 Q142.867 985.617 141.038 989.182 Q139.232 992.723 139.232 999.853 Q139.232 1006.96 141.038 1010.52 Q142.867 1014.07 146.478 1014.07 Q150.112 1014.07 151.918 1010.52 Q153.746 1006.96 153.746 999.853 Q153.746 992.723 151.918 989.182 Q150.112 985.617 146.478 985.617 M146.478 981.913 Q152.288 981.913 155.343 986.52 Q158.422 991.103 158.422 999.853 Q158.422 1008.58 155.343 1013.19 Q152.288 1017.77 146.478 1017.77 Q140.668 1017.77 137.589 1013.19 Q134.533 1008.58 134.533 999.853 Q134.533 991.103 137.589 986.52 Q140.668 981.913 146.478 981.913 Z" fill="#000000" fill-rule="nonzero" fill-opacity="1" /><path clip-path="url(#clip990)" d="M102.844 803.249 Q99.2326 803.249 97.4039 806.813 Q95.5984 810.355 95.5984 817.485 Q95.5984 824.591 97.4039 828.156 Q99.2326 831.697 102.844 831.697 Q106.478 831.697 108.283 828.156 Q110.112 824.591 110.112 817.485 Q110.112 810.355 108.283 806.813 Q106.478 803.249 102.844 803.249 M102.844 799.545 Q108.654 799.545 111.709 804.151 Q114.788 808.735 114.788 817.485 Q114.788 826.211 111.709 830.818 Q108.654 835.401 102.844 835.401 Q97.0335 835.401 93.9549 830.818 Q90.8993 826.211 90.8993 817.485 Q90.8993 808.735 93.9549 804.151 Q97.0335 799.545 102.844 799.545 Z" fill="#000000" fill-rule="nonzero" fill-opacity="1" /><path clip-path="url(#clip990)" d="M123.006 828.85 L127.89 828.85 L127.89 834.73 L123.006 834.73 L123.006 828.85 Z" fill="#000000" fill-rule="nonzero" fill-opacity="1" /><path clip-path="url(#clip990)" d="M142.103 830.795 L158.422 830.795 L158.422 834.73 L136.478 834.73 L136.478 830.795 Q139.14 828.04 143.723 823.41 Q148.33 818.758 149.51 817.415 Q151.755 814.892 152.635 813.156 Q153.538 811.397 153.538 809.707 Q153.538 806.952 151.593 805.216 Q149.672 803.48 146.57 803.48 Q144.371 803.48 141.918 804.244 Q139.487 805.008 136.709 806.559 L136.709 801.837 Q139.533 800.702 141.987 800.124 Q144.441 799.545 146.478 799.545 Q151.848 799.545 155.042 802.23 Q158.237 804.915 158.237 809.406 Q158.237 811.536 157.427 813.457 Q156.64 815.355 154.533 817.948 Q153.955 818.619 150.853 821.836 Q147.751 825.031 142.103 830.795 Z" fill="#000000" fill-rule="nonzero" fill-opacity="1" /><path clip-path="url(#clip990)" d="M100.76 620.88 Q97.1493 620.88 95.3206 624.445 Q93.515 627.987 93.515 635.116 Q93.515 642.223 95.3206 645.787 Q97.1493 649.329 100.76 649.329 Q104.395 649.329 106.2 645.787 Q108.029 642.223 108.029 635.116 Q108.029 627.987 106.2 624.445 Q104.395 620.88 100.76 620.88 M100.76 617.176 Q106.571 617.176 109.626 621.783 Q112.705 626.366 112.705 635.116 Q112.705 643.843 109.626 648.449 Q106.571 653.033 100.76 653.033 Q94.9502 653.033 91.8715 648.449 Q88.816 643.843 88.816 635.116 Q88.816 626.366 91.8715 621.783 Q94.9502 617.176 100.76 617.176 Z" fill="#000000" fill-rule="nonzero" fill-opacity="1" /><path clip-path="url(#clip990)" d="M120.922 646.482 L125.807 646.482 L125.807 652.361 L120.922 652.361 L120.922 646.482 Z" fill="#000000" fill-rule="nonzero" fill-opacity="1" /><path clip-path="url(#clip990)" d="M148.839 621.876 L137.033 640.324 L148.839 640.324 L148.839 621.876 M147.612 617.801 L153.492 617.801 L153.492 640.324 L158.422 640.324 L158.422 644.213 L153.492 644.213 L153.492 652.361 L148.839 652.361 L148.839 644.213 L133.237 644.213 L133.237 639.699 L147.612 617.801 Z" fill="#000000" fill-rule="nonzero" fill-opacity="1" /><path clip-path="url(#clip990)" d="M101.084 438.512 Q97.4734 438.512 95.6447 442.077 Q93.8391 445.618 93.8391 452.748 Q93.8391 459.854 95.6447 463.419 Q97.4734 466.961 101.084 466.961 Q104.719 466.961 106.524 463.419 Q108.353 459.854 108.353 452.748 Q108.353 445.618 106.524 442.077 Q104.719 438.512 101.084 438.512 M101.084 434.808 Q106.895 434.808 109.95 439.415 Q113.029 443.998 113.029 452.748 Q113.029 461.475 109.95 466.081 Q106.895 470.664 101.084 470.664 Q95.2743 470.664 92.1956 466.081 Q89.1401 461.475 89.1401 452.748 Q89.1401 443.998 92.1956 439.415 Q95.2743 434.808 101.084 434.808 Z" fill="#000000" fill-rule="nonzero" fill-opacity="1" /><path clip-path="url(#clip990)" d="M121.246 464.113 L126.131 464.113 L126.131 469.993 L121.246 469.993 L121.246 464.113 Z" fill="#000000" fill-rule="nonzero" fill-opacity="1" /><path clip-path="url(#clip990)" d="M146.894 450.85 Q143.746 450.85 141.894 453.002 Q140.066 455.155 140.066 458.905 Q140.066 462.632 141.894 464.808 Q143.746 466.961 146.894 466.961 Q150.043 466.961 151.871 464.808 Q153.723 462.632 153.723 458.905 Q153.723 455.155 151.871 453.002 Q150.043 450.85 146.894 450.85 M156.177 436.197 L156.177 440.456 Q154.417 439.623 152.612 439.183 Q150.83 438.743 149.07 438.743 Q144.441 438.743 141.987 441.868 Q139.556 444.993 139.209 451.313 Q140.575 449.299 142.635 448.234 Q144.695 447.146 147.172 447.146 Q152.38 447.146 155.39 450.317 Q158.422 453.465 158.422 458.905 Q158.422 464.229 155.274 467.447 Q152.126 470.664 146.894 470.664 Q140.899 470.664 137.728 466.081 Q134.556 461.475 134.556 452.748 Q134.556 444.553 138.445 439.692 Q142.334 434.808 148.885 434.808 Q150.644 434.808 152.427 435.155 Q154.232 435.503 156.177 436.197 Z" fill="#000000" fill-rule="nonzero" fill-opacity="1" /><path clip-path="url(#clip990)" d="M101.339 256.143 Q97.728 256.143 95.8993 259.708 Q94.0937 263.25 94.0937 270.379 Q94.0937 277.486 95.8993 281.051 Q97.728 284.592 101.339 284.592 Q104.973 284.592 106.779 281.051 Q108.608 277.486 108.608 270.379 Q108.608 263.25 106.779 259.708 Q104.973 256.143 101.339 256.143 M101.339 252.44 Q107.149 252.44 110.205 257.046 Q113.283 261.629 113.283 270.379 Q113.283 279.106 110.205 283.713 Q107.149 288.296 101.339 288.296 Q95.5289 288.296 92.4502 283.713 Q89.3947 279.106 89.3947 270.379 Q89.3947 261.629 92.4502 257.046 Q95.5289 252.44 101.339 252.44 Z" fill="#000000" fill-rule="nonzero" fill-opacity="1" /><path clip-path="url(#clip990)" d="M121.501 281.745 L126.385 281.745 L126.385 287.625 L121.501 287.625 L121.501 281.745 Z" fill="#000000" fill-rule="nonzero" fill-opacity="1" /><path clip-path="url(#clip990)" d="M146.57 271.213 Q143.237 271.213 141.316 272.995 Q139.418 274.778 139.418 277.903 Q139.418 281.027 141.316 282.81 Q143.237 284.592 146.57 284.592 Q149.904 284.592 151.825 282.81 Q153.746 281.004 153.746 277.903 Q153.746 274.778 151.825 272.995 Q149.927 271.213 146.57 271.213 M141.894 269.222 Q138.885 268.481 137.195 266.421 Q135.529 264.361 135.529 261.398 Q135.529 257.254 138.469 254.847 Q141.431 252.44 146.57 252.44 Q151.732 252.44 154.672 254.847 Q157.612 257.254 157.612 261.398 Q157.612 264.361 155.922 266.421 Q154.255 268.481 151.269 269.222 Q154.649 270.009 156.524 272.301 Q158.422 274.592 158.422 277.903 Q158.422 282.926 155.343 285.611 Q152.288 288.296 146.57 288.296 Q140.853 288.296 137.774 285.611 Q134.719 282.926 134.719 277.903 Q134.719 274.592 136.617 272.301 Q138.515 270.009 141.894 269.222 M140.181 261.838 Q140.181 264.523 141.848 266.028 Q143.538 267.532 146.57 267.532 Q149.58 267.532 151.269 266.028 Q152.982 264.523 152.982 261.838 Q152.982 259.153 151.269 257.648 Q149.58 256.143 146.57 256.143 Q143.538 256.143 141.848 257.648 Q140.181 259.153 140.181 261.838 Z" fill="#000000" fill-rule="nonzero" fill-opacity="1" /><path clip-path="url(#clip990)" d="M92.0567 101.321 L99.6956 101.321 L99.6956 74.9555 L91.3854 76.6222 L91.3854 72.3629 L99.6493 70.6963 L104.325 70.6963 L104.325 101.321 L111.964 101.321 L111.964 105.256 L92.0567 105.256 L92.0567 101.321 Z" fill="#000000" fill-rule="nonzero" fill-opacity="1" /><path clip-path="url(#clip990)" d="M121.408 99.3767 L126.293 99.3767 L126.293 105.256 L121.408 105.256 L121.408 99.3767 Z" fill="#000000" fill-rule="nonzero" fill-opacity="1" /><path clip-path="url(#clip990)" d="M146.478 73.775 Q142.867 73.775 141.038 77.3398 Q139.232 80.8814 139.232 88.011 Q139.232 95.1174 141.038 98.6822 Q142.867 102.224 146.478 102.224 Q150.112 102.224 151.918 98.6822 Q153.746 95.1174 153.746 88.011 Q153.746 80.8814 151.918 77.3398 Q150.112 73.775 146.478 73.775 M146.478 70.0713 Q152.288 70.0713 155.343 74.6777 Q158.422 79.261 158.422 88.011 Q158.422 96.7378 155.343 101.344 Q152.288 105.928 146.478 105.928 Q140.668 105.928 137.589 101.344 Q134.533 96.7378 134.533 88.011 Q134.533 79.261 137.589 74.6777 Q140.668 70.0713 146.478 70.0713 Z" fill="#000000" fill-rule="nonzero" fill-opacity="1" /><polyline clip-path="url(#clip992)" style="stroke:#f4b8e4; stroke-linecap:round; stroke-linejoin:round; stroke-width:12; stroke-opacity:1; fill:none" points="255.507,87.9763 256.016,88.1459 256.525,88.5884 257.035,89.206 257.544,89.9133 258.053,90.6577 258.562,91.4138 259.071,92.1704 259.58,92.9213 260.09,93.6653 260.599,94.4026 261.108,95.1351 261.617,95.8659 262.126,96.5994 262.635,97.3362 263.145,98.0731 263.654,98.8059 264.163,99.533 264.672,100.254 265.181,100.969 265.69,101.679 266.2,102.385 266.709,103.088 267.218,103.79 267.727,104.491 268.236,105.192 268.745,105.896 269.255,106.608 269.764,107.326 270.273,108.048 270.782,108.772 271.291,109.497 271.8,110.225 272.31,110.955 272.819,111.684 273.328,112.408 273.837,113.124 274.346,113.83 274.855,114.525 275.365,115.211 275.874,115.887 276.383,116.556 276.892,117.216 277.401,117.867 277.91,118.513 278.42,119.162 278.929,119.817 279.438,120.48 279.947,121.146 280.456,121.812 280.965,122.477 281.475,123.146 281.984,123.822 282.493,124.508 283.002,125.203 283.511,125.905 284.02,126.612 284.53,127.322 285.039,128.03 285.548,128.733 286.057,129.433 286.566,130.129 287.075,130.824 287.585,131.517 288.094,132.208 288.603,132.899 289.112,133.595 289.621,134.298 290.13,135.011 290.64,135.732 291.149,136.459 291.658,137.186 292.167,137.913 292.676,138.645 293.185,139.386 293.695,140.14 294.204,140.907 294.713,141.688 295.222,142.481 295.731,143.283 296.24,144.093 296.75,144.911 297.259,145.732 297.768,146.555 298.277,147.378 298.786,148.203 299.295,149.033 299.805,149.869 300.314,150.71 300.823,151.554 301.332,152.4 301.841,153.245 302.351,154.09 302.86,154.933 303.369,155.776 303.878,156.618 304.387,157.462 304.896,158.308 305.406,159.161 305.915,160.024 306.424,160.899 306.933,161.782 307.442,162.671 307.951,163.561 308.461,164.45 308.97,165.337 309.479,166.218 309.988,167.09 310.497,167.953 311.006,168.813 311.516,169.672 312.025,170.535 312.534,171.403 313.043,172.278 313.552,173.16 314.061,174.044 314.571,174.924 315.08,175.798 315.589,176.667 316.098,177.537 316.607,178.413 317.116,179.293 317.626,180.176 318.135,181.059 318.644,181.94 319.153,182.821 319.662,183.703 320.171,184.584 320.681,185.465 321.19,186.348 321.699,187.24 322.208,188.144 322.717,189.063 323.226,189.997 323.736,190.939 324.245,191.886 324.754,192.833 325.263,193.777 325.772,194.719 326.281,195.658 326.791,196.595 327.3,197.529 327.809,198.458 328.318,199.379 328.827,200.297 329.336,201.217 329.846,202.143 330.355,203.073 330.864,204.003 331.373,204.928 331.882,205.849 332.391,206.766 332.901,207.684 333.41,208.605 333.919,209.529 334.428,210.457 334.937,211.388 335.446,212.322 335.956,213.26 336.465,214.202 336.974,215.146 337.483,216.094 337.992,217.048 338.501,218.012 339.011,218.987 339.52,219.973 340.029,220.967 340.538,221.966 341.047,222.97 341.556,223.977 342.066,224.989 342.575,226.002 343.084,227.015 343.593,228.025 344.102,229.03 344.611,230.031 345.121,231.031 345.63,232.03 346.139,233.03 346.648,234.028 347.157,235.026 347.666,236.024 348.176,237.022 348.685,238.025 349.194,239.037 349.703,240.061 350.212,241.098 350.721,242.15 351.231,243.213 351.74,244.284 352.249,245.357 352.758,246.428 353.267,247.494 353.777,248.552 354.286,249.601 354.795,250.643 355.304,251.68 355.813,252.717 356.322,253.759 356.832,254.809 357.341,255.864 357.85,256.918 358.359,257.966 358.868,259.003 359.377,260.03 359.887,261.048 360.396,262.062 360.905,263.071 361.414,264.077 361.923,265.081 362.432,266.084 362.942,267.087 363.451,268.09 363.96,269.094 364.469,270.097 364.978,271.101 365.487,272.105 365.997,273.109 366.506,274.112 367.015,275.114 367.524,276.114 368.033,277.111 368.542,278.103 369.052,279.088 369.561,280.067 370.07,281.041 370.579,282.01 371.088,282.97 371.597,283.921 372.107,284.864 372.616,285.803 373.125,286.741 373.634,287.678 374.143,288.613 374.652,289.544 375.162,290.47 375.671,291.389 376.18,292.301 376.689,293.206 377.198,294.107 377.707,295.004 378.217,295.898 378.726,296.792 379.235,297.689 379.744,298.593 380.253,299.505 380.762,300.425 381.272,301.352 381.781,302.283 382.29,303.219 382.799,304.157 383.308,305.095 383.817,306.034 384.327,306.973 384.836,307.911 385.345,308.846 385.854,309.779 386.363,310.706 386.872,311.628 387.382,312.545 387.891,313.458 388.4,314.37 388.909,315.284 389.418,316.202 389.927,317.121 390.437,318.043 390.946,318.969 391.455,319.896 391.964,320.825 392.473,321.757 392.982,322.69 393.492,323.627 394.001,324.568 394.51,325.512 395.019,326.462 395.528,327.42 396.037,328.389 396.547,329.37 397.056,330.357 397.565,331.349 398.074,332.345 398.583,333.342 399.092,334.342 399.602,335.343 400.111,336.349 400.62,337.36 401.129,338.374 401.638,339.387 402.147,340.401 402.657,341.417 403.166,342.438 403.675,343.464 404.184,344.497 404.693,345.539 405.202,346.594 405.712,347.665 406.221,348.755 406.73,349.86 407.239,350.978 407.748,352.108 408.258,353.247 408.767,354.39 409.276,355.535 409.785,356.679 410.294,357.826 410.803,358.975 411.313,360.128 411.822,361.286 412.331,362.448 412.84,363.615 413.349,364.784 413.858,365.958 414.368,367.136 414.877,368.318 415.386,369.505 415.895,370.698 416.404,371.898 416.913,373.107 417.423,374.321 417.932,375.54 418.441,376.762 418.95,377.983 419.459,379.205 419.968,380.425 420.478,381.644 420.987,382.861 421.496,384.075 422.005,385.281 422.514,386.478 423.023,387.666 423.533,388.848 424.042,390.027 424.551,391.209 425.06,392.394 425.569,393.582 426.078,394.774 426.588,395.967 427.097,397.163 427.606,398.364 428.115,399.571 428.624,400.786 429.133,402.008 429.643,403.236 430.152,404.471 430.661,405.715 431.17,406.969 431.679,408.232 432.188,409.499 432.698,410.764 433.207,412.021 433.716,413.269 434.225,414.508 434.734,415.74 435.243,416.965 435.753,418.183 436.262,419.394 436.771,420.601 437.28,421.807 437.789,423.018 438.298,424.237 438.808,425.467 439.317,426.708 439.826,427.959 440.335,429.217 440.844,430.477 441.353,431.74 441.863,433.006 442.372,434.275 442.881,435.548 443.39,436.826 443.899,438.113 444.408,439.411 444.918,440.718 445.427,442.03 445.936,443.345 446.445,444.66 446.954,445.971 447.463,447.281 447.973,448.591 448.482,449.902 448.991,451.218 449.5,452.539 450.009,453.864 450.518,455.192 451.028,456.523 451.537,457.861 452.046,459.209 452.555,460.57 453.064,461.942 453.573,463.325 454.083,464.716 454.592,466.111 455.101,467.509 455.61,468.901 456.119,470.284 456.628,471.652 457.138,473.003 457.647,474.34 458.156,475.665 458.665,476.983 459.174,478.297 459.684,479.611 460.193,480.926 460.702,482.244 461.211,483.566 461.72,484.893 462.229,486.224 462.739,487.56 463.248,488.902 463.757,490.246 464.266,491.589 464.775,492.93 465.284,494.272 465.794,495.618 466.303,496.973 466.812,498.339 467.321,499.716 467.83,501.101 468.339,502.49 468.849,503.875 469.358,505.253 469.867,506.62 470.376,507.972 470.885,509.312 471.394,510.645 471.904,511.975 472.413,513.305 472.922,514.632 473.431,515.953 473.94,517.269 474.449,518.578 474.959,519.883 475.468,521.187 475.977,522.491 476.486,523.797 476.995,525.105 477.504,526.415 478.014,527.724 478.523,529.032 479.032,530.338 479.541,531.647 480.05,532.961 480.559,534.282 481.069,535.612 481.578,536.949 482.087,538.291 482.596,539.635 483.105,540.98 483.614,542.324 484.124,543.668 484.633,545.012 485.142,546.356 485.651,547.701 486.16,549.044 486.669,550.386 487.179,551.726 487.688,553.063 488.197,554.394 488.706,555.715 489.215,557.026 489.724,558.325 490.234,559.614 490.743,560.894 491.252,562.171 491.761,563.446 492.27,564.724 492.779,566.004 493.289,567.287 493.798,568.571 494.307,569.856 494.816,571.145 495.325,572.436 495.834,573.726 496.344,575.013 496.853,576.296 497.362,577.577 497.871,578.855 498.38,580.133 498.889,581.411 499.399,582.693 499.908,583.977 500.417,585.26 500.926,586.539 501.435,587.813 501.944,589.08 502.454,590.342 502.963,591.6 503.472,592.855 503.981,594.109 504.49,595.364 504.999,596.624 505.509,597.892 506.018,599.169 506.527,600.453 507.036,601.737 507.545,603.018 508.054,604.297 508.564,605.574 509.073,606.85 509.582,608.127 510.091,609.405 510.6,610.687 511.11,611.975 511.619,613.27 512.128,614.572 512.637,615.878 513.146,617.189 513.655,618.503 514.165,619.82 514.674,621.141 515.183,622.47 515.692,623.807 516.201,625.147 516.71,626.489 517.22,627.832 517.729,629.173 518.238,630.511 518.747,631.847 519.256,633.179 519.765,634.506 520.275,635.829 520.784,637.147 521.293,638.463 521.802,639.775 522.311,641.084 522.82,642.389 523.33,643.69 523.839,644.985 524.348,646.276 524.857,647.567 525.366,648.861 525.875,650.161 526.385,651.467 526.894,652.778 527.403,654.095 527.912,655.413 528.421,656.732 528.93,658.053 529.44,659.377 529.949,660.704 530.458,662.033 530.967,663.366 531.476,664.702 531.985,666.039 532.495,667.371 533.004,668.696 533.513,670.01 534.022,671.311 534.531,672.6 535.04,673.876 535.55,675.142 536.059,676.4 536.568,677.654 537.077,678.907 537.586,680.16 538.095,681.411 538.605,682.659 539.114,683.902 539.623,685.14 540.132,686.375 540.641,687.611 541.15,688.854 541.66,690.106 542.169,691.37 542.678,692.645 543.187,693.929 543.696,695.22 544.205,696.515 544.715,697.811 545.224,699.112 545.733,700.416 546.242,701.724 546.751,703.03 547.26,704.332 547.77,705.626 548.279,706.91 548.788,708.183 549.297,709.444 549.806,710.694 550.315,711.934 550.825,713.163 551.334,714.382 551.843,715.594 552.352,716.805 552.861,718.018 553.37,719.236 553.88,720.46 554.389,721.689 554.898,722.922 555.407,724.157 555.916,725.397 556.425,726.641 556.935,727.888 557.444,729.138 557.953,730.385 558.462,731.628 558.971,732.862 559.48,734.089 559.99,735.308 560.499,736.522 561.008,737.732 561.517,738.939 562.026,740.143 562.535,741.345 563.045,742.545 563.554,743.744 564.063,744.943 564.572,746.143 565.081,747.347 565.591,748.558 566.1,749.774 566.609,750.994 567.118,752.216 567.627,753.44 568.136,754.665 568.646,755.89 569.155,757.113 569.664,758.333 570.173,759.552 570.682,760.774 571.191,761.999 571.701,763.226 572.21,764.452 572.719,765.674 573.228,766.885 573.737,768.083 574.246,769.268 574.756,770.443 575.265,771.613 575.774,772.781 576.283,773.952 576.792,775.126 577.301,776.306 577.811,777.493 578.32,778.686 578.829,779.882 579.338,781.076 579.847,782.268 580.356,783.454 580.866,784.633 581.375,785.808 581.884,786.979 582.393,788.147 582.902,789.311 583.411,790.467 583.921,791.616 584.43,792.757 584.939,793.889 585.448,795.012 585.957,796.131 586.466,797.247 586.976,798.362 587.485,799.475 587.994,800.587 588.503,801.697 589.012,802.804 589.521,803.907 590.031,805.004 590.54,806.099 591.049,807.192 591.558,808.285 592.067,809.381 592.576,810.482 593.086,811.59 593.595,812.705 594.104,813.827 594.613,814.955 595.122,816.09 595.631,817.231 596.141,818.38 596.65,819.535 597.159,820.697 597.668,821.865 598.177,823.038 598.686,824.215 599.196,825.39 599.705,826.561 600.214,827.721 600.723,828.871 601.232,830.011 601.741,831.145 602.251,832.279 602.76,833.413 603.269,834.551 603.778,835.693 604.287,836.839 604.796,837.99 605.306,839.145 605.815,840.307 606.324,841.473 606.833,842.643 607.342,843.814 607.851,844.986 608.361,846.158 608.87,847.333 609.379,848.513 609.888,849.697 610.397,850.887 610.906,852.081 611.416,853.28 611.925,854.482 612.434,855.687 612.943,856.892 613.452,858.098 613.961,859.303 614.471,860.504 614.98,861.7 615.489,862.889 615.998,864.075 616.507,865.262 617.017,866.453 617.526,867.649 618.035,868.85 618.544,870.056 619.053,871.266 619.562,872.48 620.072,873.694 620.581,874.906 621.09,876.116 621.599,877.324 622.108,878.53 622.617,879.733 623.127,880.935 623.636,882.134 624.145,883.333 624.654,884.534 625.163,885.738 625.672,886.943 626.182,888.146 626.691,889.346 627.2,890.542 627.709,891.732 628.218,892.914 628.727,894.089 629.237,895.256 629.746,896.416 630.255,897.568 630.764,898.713 631.273,899.85 631.782,900.983 632.292,902.114 632.801,903.242 633.31,904.368 633.819,905.492 634.328,906.616 634.837,907.739 635.347,908.863 635.856,909.987 636.365,911.111 636.874,912.232 637.383,913.352 637.892,914.469 638.402,915.585 638.911,916.703 639.42,917.82 639.929,918.932 640.438,920.034 640.947,921.124 641.457,922.204 641.966,923.272 642.475,924.333 642.984,925.388 643.493,926.445 644.002,927.507 644.512,928.577 645.021,929.659 645.53,930.752 646.039,931.853 646.548,932.958 647.057,934.063 647.567,935.168 648.076,936.277 648.585,937.39 649.094,938.51 649.603,939.639 650.112,940.776 650.622,941.92 651.131,943.069 651.64,944.216 652.149,945.358 652.658,946.492 653.167,947.619 653.677,948.739 654.186,949.855 654.695,950.968 655.204,952.082 655.713,953.2 656.222,954.32 656.732,955.443 657.241,956.567 657.75,957.687 658.259,958.801 658.768,959.907 659.277,961.006 659.787,962.102 660.296,963.198 660.805,964.293 661.314,965.386 661.823,966.477 662.332,967.566 662.842,968.653 663.351,969.741 663.86,970.832 664.369,971.93 664.878,973.034 665.387,974.145 665.897,975.26 666.406,976.377 666.915,977.495 667.424,978.612 667.933,979.725 668.443,980.831 668.952,981.929 669.461,983.024 669.97,984.123 670.479,985.229 670.988,986.345 671.498,987.471 672.007,988.607 672.516,989.752 673.025,990.903 673.534,992.055 674.043,993.207 674.553,994.354 675.062,995.493 675.571,996.619 676.08,997.727 676.589,998.814 677.098,999.881 677.608,1000.93 678.117,1001.97 678.626,1003 679.135,1004.04 679.644,1005.07 680.153,1006.1 680.663,1007.13 681.172,1008.16 681.681,1009.19 682.19,1010.22 682.699,1011.25 683.208,1012.29 683.718,1013.32 684.227,1014.36 684.736,1015.38 685.245,1016.41 685.754,1017.43 686.263,1018.44 686.773,1019.45 687.282,1020.45 687.791,1021.45 688.3,1022.45 688.809,1023.46 689.318,1024.46 689.828,1025.47 690.337,1026.47 690.846,1027.48 691.355,1028.5 691.864,1029.52 692.373,1030.53 692.883,1031.55 693.392,1032.55 693.901,1033.54 694.41,1034.53 694.919,1035.51 695.428,1036.49 695.938,1037.46 696.447,1038.43 696.956,1039.39 697.465,1040.35 697.974,1041.31 698.483,1042.27 698.993,1043.22 699.502,1044.16 700.011,1045.1 700.52,1046.03 701.029,1046.96 701.538,1047.89 702.048,1048.81 702.557,1049.73 703.066,1050.65 703.575,1051.57 704.084,1052.49 704.593,1053.41 705.103,1054.33 705.612,1055.25 706.121,1056.18 706.63,1057.12 707.139,1058.06 707.648,1058.99 708.158,1059.92 708.667,1060.84 709.176,1061.75 709.685,1062.65 710.194,1063.55 710.703,1064.44 711.213,1065.33 711.722,1066.22 712.231,1067.12 712.74,1068.02 713.249,1068.92 713.758,1069.82 714.268,1070.71 714.777,1071.61 715.286,1072.51 715.795,1073.41 716.304,1074.31 716.813,1075.2 717.323,1076.09 717.832,1076.97 718.341,1077.84 718.85,1078.71 719.359,1079.58 719.868,1080.44 720.378,1081.3 720.887,1082.16 721.396,1083.01 721.905,1083.85 722.414,1084.7 722.924,1085.54 723.433,1086.38 723.942,1087.22 724.451,1088.05 724.96,1088.87 725.469,1089.67 725.979,1090.47 726.488,1091.24 726.997,1092.01 727.506,1092.76 728.015,1093.49 728.524,1094.21 729.034,1094.91 729.543,1095.6 730.052,1096.28 730.561,1096.96 731.07,1097.64 731.579,1098.32 732.089,1098.99 732.598,1099.66 733.107,1100.32 733.616,1100.97 734.125,1101.61 734.634,1102.24 735.144,1102.87 735.653,1103.49 736.162,1104.1 736.671,1104.72 737.18,1105.34 737.689,1105.96 738.199,1106.59 738.708,1107.21 739.217,1107.83 739.726,1108.45 740.235,1109.08 740.744,1109.71 741.254,1110.33 741.763,1110.95 742.272,1111.56 742.781,1112.16 743.29,1112.75 743.799,1113.33 744.309,1113.91 744.818,1114.49 745.327,1115.06 745.836,1115.64 746.345,1116.21 746.854,1116.77 747.364,1117.34 747.873,1117.89 748.382,1118.45 748.891,1119.01 749.4,1119.59 749.909,1120.17 750.419,1120.76 750.928,1121.35 751.437,1121.95 751.946,1122.55 752.455,1123.14 752.964,1123.74 753.474,1124.33 753.983,1124.92 754.492,1125.52 755.001,1126.11 755.51,1126.7 756.019,1127.29 756.529,1127.89 757.038,1128.5 757.547,1129.12 758.056,1129.73 758.565,1130.35 759.074,1130.96 759.584,1131.56 760.093,1132.14 760.602,1132.72 761.111,1133.28 761.62,1133.84 762.129,1134.4 762.639,1134.96 763.148,1135.54 763.657,1136.12 764.166,1136.71 764.675,1137.3 765.184,1137.91 765.694,1138.51 766.203,1139.13 766.712,1139.75 767.221,1140.37 767.73,1140.99 768.239,1141.62 768.749,1142.25 769.258,1142.87 769.767,1143.48 770.276,1144.09 770.785,1144.68 771.294,1145.27 771.804,1145.85 772.313,1146.43 772.822,1147 773.331,1147.57 773.84,1148.14 774.35,1148.71 774.859,1149.29 775.368,1149.86 775.877,1150.44 776.386,1151.02 776.895,1151.59 777.405,1152.15 777.914,1152.7 778.423,1153.24 778.932,1153.78 779.441,1154.33 779.95,1154.87 780.46,1155.42 780.969,1155.98 781.478,1156.54 781.987,1157.1 782.496,1157.66 783.005,1158.21 783.515,1158.75 784.024,1159.27 784.533,1159.79 785.042,1160.3 785.551,1160.81 786.06,1161.32 786.57,1161.82 787.079,1162.32 787.588,1162.82 788.097,1163.3 788.606,1163.78 789.115,1164.26 789.625,1164.72 790.134,1165.19 790.643,1165.64 791.152,1166.1 791.661,1166.55 792.17,1167.02 792.68,1167.48 793.189,1167.96 793.698,1168.45 794.207,1168.94 794.716,1169.44 795.225,1169.94 795.735,1170.45 796.244,1170.97 796.753,1171.49 797.262,1172.02 797.771,1172.56 798.28,1173.1 798.79,1173.65 799.299,1174.19 799.808,1174.74 800.317,1175.3 800.826,1175.87 801.335,1176.45 801.845,1177.03 802.354,1177.63 802.863,1178.24 803.372,1178.87 803.881,1179.5 804.39,1180.13 804.9,1180.77 805.409,1181.4 805.918,1182.04 806.427,1182.67 806.936,1183.32 807.445,1183.97 807.955,1184.63 808.464,1185.29 808.973,1185.94 809.482,1186.59 809.991,1187.23 810.5,1187.85 811.01,1188.46 811.519,1189.04 812.028,1189.61 812.537,1190.16 813.046,1190.71 813.555,1191.24 814.065,1191.78 814.574,1192.31 815.083,1192.85 815.592,1193.39 816.101,1193.94 816.61,1194.48 817.12,1195.02 817.629,1195.56 818.138,1196.09 818.647,1196.63 819.156,1197.17 819.665,1197.7 820.175,1198.23 820.684,1198.75 821.193,1199.26 821.702,1199.76 822.211,1200.26 822.72,1200.76 823.23,1201.26 823.739,1201.76 824.248,1202.26 824.757,1202.76 825.266,1203.25 825.776,1203.74 826.285,1204.22 826.794,1204.71 827.303,1205.19 827.812,1205.67 828.321,1206.15 828.831,1206.62 829.34,1207.1 829.849,1207.59 830.358,1208.1 830.867,1208.63 831.376,1209.17 831.886,1209.72 832.395,1210.28 832.904,1210.84 833.413,1211.41 833.922,1211.98 834.431,1212.54 834.941,1213.1 835.45,1213.66 835.959,1214.22 836.468,1214.78 836.977,1215.33 837.486,1215.89 837.996,1216.46 838.505,1217.02 839.014,1217.58 839.523,1218.15 840.032,1218.72 840.541,1219.28 841.051,1219.85 841.56,1220.42 842.069,1220.99 842.578,1221.55 843.087,1222.12 843.596,1222.68 844.106,1223.25 844.615,1223.8 845.124,1224.35 845.633,1224.89 846.142,1225.43 846.651,1225.97 847.161,1226.51 847.67,1227.04 848.179,1227.58 848.688,1228.11 849.197,1228.62 849.706,1229.13 850.216,1229.62 850.725,1230.1 851.234,1230.56 851.743,1231 852.252,1231.44 852.761,1231.86 853.271,1232.28 853.78,1232.7 854.289,1233.11 854.798,1233.52 855.307,1233.93 855.816,1234.35 856.326,1234.78 856.835,1235.21 857.344,1235.64 857.853,1236.09 858.362,1236.54 858.871,1237 859.381,1237.46 859.89,1237.93 860.399,1238.4 860.908,1238.87 861.417,1239.33 861.926,1239.79 862.436,1240.25 862.945,1240.71 863.454,1241.16 863.963,1241.61 864.472,1242.05 864.981,1242.48 865.491,1242.9 866,1243.33 866.509,1243.75 867.018,1244.17 867.527,1244.6 868.036,1245.03 868.546,1245.47 869.055,1245.92 869.564,1246.38 870.073,1246.84 870.582,1247.32 871.091,1247.79 871.601,1248.27 872.11,1248.74 872.619,1249.2 873.128,1249.66 873.637,1250.11 874.146,1250.56 874.656,1251.01 875.165,1251.45 875.674,1251.9 876.183,1252.34 876.692,1252.78 877.201,1253.22 877.711,1253.66 878.22,1254.08 878.729,1254.49 879.238,1254.9 879.747,1255.3 880.257,1255.71 880.766,1256.14 881.275,1256.57 881.784,1257.01 882.293,1257.46 882.802,1257.92 883.312,1258.38 883.821,1258.83 884.33,1259.27 884.839,1259.69 885.348,1260.09 885.857,1260.47 886.367,1260.84 886.876,1261.2 887.385,1261.56 887.894,1261.92 888.403,1262.28 888.912,1262.62 889.422,1262.95 889.931,1263.27 890.44,1263.57 890.949,1263.85 891.458,1264.13 891.967,1264.39 892.477,1264.64 892.986,1264.89 893.495,1265.13 894.004,1265.38 894.513,1265.62 895.022,1265.86 895.532,1266.1 896.041,1266.34 896.55,1266.57 897.059,1266.8 897.568,1267.03 898.077,1267.26 898.587,1267.48 899.096,1267.7 899.605,1267.9 900.114,1268.1 900.623,1268.28 901.132,1268.45 901.642,1268.61 902.151,1268.76 902.66,1268.9 903.169,1269.04 903.678,1269.17 904.187,1269.31 904.697,1269.45 905.206,1269.6 905.715,1269.77 906.224,1269.94 906.733,1270.13 907.242,1270.33 907.752,1270.54 908.261,1270.76 908.77,1270.98 909.279,1271.19 909.788,1271.39 910.297,1271.58 910.807,1271.75 911.316,1271.91 911.825,1272.05 912.334,1272.17 912.843,1272.27 913.352,1272.36 913.862,1272.44 914.371,1272.51 914.88,1272.59 915.389,1272.66 915.898,1272.73 916.407,1272.8 916.917,1272.87 917.426,1272.92 917.935,1272.97 918.444,1273.02 918.953,1273.07 919.462,1273.13 919.972,1273.19 920.481,1273.26 920.99,1273.33 921.499,1273.39 922.008,1273.45 922.517,1273.49 923.027,1273.52 923.536,1273.55 924.045,1273.56 924.554,1273.57 925.063,1273.57 925.572,1273.57 926.082,1273.57 926.591,1273.56 927.1,1273.56 927.609,1273.55 928.118,1273.53 928.627,1273.5 929.137,1273.46 929.646,1273.41 930.155,1273.35 930.664,1273.29 931.173,1273.22 931.683,1273.15 932.192,1273.09 932.701,1273.04 933.21,1273 933.719,1272.97 934.228,1272.93 934.738,1272.9 935.247,1272.87 935.756,1272.83 936.265,1272.79 936.774,1272.75 937.283,1272.7 937.793,1272.65 938.302,1272.6 938.811,1272.55 939.32,1272.5 939.829,1272.45 940.338,1272.41 940.848,1272.38 941.357,1272.35 941.866,1272.33 942.375,1272.3 942.884,1272.27 943.393,1272.24 943.903,1272.22 944.412,1272.19 944.921,1272.16 945.43,1272.13 945.939,1272.09 946.448,1272.05 946.958,1272.01 947.467,1271.98 947.976,1271.94 948.485,1271.92 948.994,1271.9 949.503,1271.89 950.013,1271.88 950.522,1271.88 951.031,1271.88 951.54,1271.88 952.049,1271.88 952.558,1271.88 953.068,1271.87 953.577,1271.86 954.086,1271.84 954.595,1271.82 955.104,1271.8 955.613,1271.77 956.123,1271.74 956.632,1271.71 957.141,1271.68 957.65,1271.65 958.159,1271.62 958.668,1271.59 959.178,1271.57 959.687,1271.54 960.196,1271.51 960.705,1271.48 961.214,1271.45 961.723,1271.41 962.233,1271.36 962.742,1271.31 963.251,1271.24 963.76,1271.16 964.269,1271.07 964.778,1270.99 965.288,1270.91 965.797,1270.82 966.306,1270.72 966.815,1270.62 967.324,1270.52 967.833,1270.4 968.343,1270.27 968.852,1270.13 969.361,1269.98 969.87,1269.83 970.379,1269.68 970.888,1269.53 971.398,1269.37 971.907,1269.22 972.416,1269.06 972.925,1268.89 973.434,1268.71 973.943,1268.53 974.453,1268.34 974.962,1268.15 975.471,1267.95 975.98,1267.76 976.489,1267.57 976.998,1267.38 977.508,1267.18 978.017,1266.99 978.526,1266.79 979.035,1266.59 979.544,1266.4 980.053,1266.19 980.563,1265.99 981.072,1265.78 981.581,1265.56 982.09,1265.33 982.599,1265.11 983.109,1264.87 983.618,1264.63 984.127,1264.37 984.636,1264.1 985.145,1263.82 985.654,1263.53 986.164,1263.24 986.673,1262.94 987.182,1262.65 987.691,1262.35 988.2,1262.05 988.709,1261.75 989.219,1261.45 989.728,1261.16 990.237,1260.87 990.746,1260.58 991.255,1260.28 991.764,1259.98 992.274,1259.66 992.783,1259.34 993.292,1258.99 993.801,1258.63 994.31,1258.25 994.819,1257.85 995.329,1257.43 995.838,1256.99 996.347,1256.56 996.856,1256.11 997.365,1255.67 997.874,1255.22 998.384,1254.76 998.893,1254.3 999.402,1253.84 999.911,1253.37 1000.42,1252.9 1000.93,1252.42 1001.44,1251.94 1001.95,1251.46 1002.46,1250.99 1002.97,1250.52 1003.48,1250.05 1003.98,1249.58 1004.49,1249.11 1005,1248.65 1005.51,1248.2 1006.02,1247.74 1006.53,1247.28 1007.04,1246.82 1007.55,1246.36 1008.06,1245.89 1008.57,1245.42 1009.08,1244.94 1009.59,1244.47 1010.09,1244 1010.6,1243.54 1011.11,1243.08 1011.62,1242.62 1012.13,1242.18 1012.64,1241.73 1013.15,1241.29 1013.66,1240.85 1014.17,1240.41 1014.68,1239.96 1015.19,1239.51 1015.7,1239.05 1016.2,1238.6 1016.71,1238.15 1017.22,1237.71 1017.73,1237.26 1018.24,1236.81 1018.75,1236.37 1019.26,1235.92 1019.77,1235.47 1020.28,1235.03 1020.79,1234.59 1021.3,1234.16 1021.81,1233.73 1022.31,1233.32 1022.82,1232.91 1023.33,1232.5 1023.84,1232.09 1024.35,1231.69 1024.86,1231.29 1025.37,1230.9 1025.88,1230.51 1026.39,1230.12 1026.9,1229.73 1027.41,1229.35 1027.92,1228.97 1028.42,1228.6 1028.93,1228.23 1029.44,1227.87 1029.95,1227.5 1030.46,1227.14 1030.97,1226.78 1031.48,1226.42 1031.99,1226.08 1032.5,1225.73 1033.01,1225.39 1033.52,1225.05 1034.03,1224.7 1034.53,1224.35 1035.04,1223.98 1035.55,1223.61 1036.06,1223.22 1036.57,1222.83 1037.08,1222.42 1037.59,1222.01 1038.1,1221.58 1038.61,1221.15 1039.12,1220.7 1039.63,1220.23 1040.14,1219.76 1040.64,1219.27 1041.15,1218.78 1041.66,1218.29 1042.17,1217.79 1042.68,1217.29 1043.19,1216.8 1043.7,1216.3 1044.21,1215.82 1044.72,1215.33 1045.23,1214.84 1045.74,1214.35 1046.25,1213.86 1046.75,1213.37 1047.26,1212.88 1047.77,1212.39 1048.28,1211.89 1048.79,1211.4 1049.3,1210.89 1049.81,1210.39 1050.32,1209.87 1050.83,1209.35 1051.34,1208.81 1051.85,1208.27 1052.36,1207.72 1052.86,1207.18 1053.37,1206.65 1053.88,1206.13 1054.39,1205.61 1054.9,1205.11 1055.41,1204.61 1055.92,1204.11 1056.43,1203.62 1056.94,1203.12 1057.45,1202.61 1057.96,1202.08 1058.47,1201.55 1058.97,1201.02 1059.48,1200.49 1059.99,1199.97 1060.5,1199.44 1061.01,1198.91 1061.52,1198.37 1062.03,1197.83 1062.54,1197.29 1063.05,1196.75 1063.56,1196.2 1064.07,1195.63 1064.58,1195.05 1065.08,1194.46 1065.59,1193.86 1066.1,1193.27 1066.61,1192.67 1067.12,1192.08 1067.63,1191.48 1068.14,1190.88 1068.65,1190.28 1069.16,1189.67 1069.67,1189.06 1070.18,1188.44 1070.69,1187.81 1071.19,1187.17 1071.7,1186.53 1072.21,1185.88 1072.72,1185.23 1073.23,1184.58 1073.74,1183.92 1074.25,1183.27 1074.76,1182.6 1075.27,1181.94 1075.78,1181.27 1076.29,1180.6 1076.8,1179.92 1077.3,1179.25 1077.81,1178.57 1078.32,1177.89 1078.83,1177.19 1079.34,1176.49 1079.85,1175.78 1080.36,1175.05 1080.87,1174.32 1081.38,1173.58 1081.89,1172.83 1082.4,1172.07 1082.91,1171.32 1083.41,1170.56 1083.92,1169.81 1084.43,1169.06 1084.94,1168.31 1085.45,1167.58 1085.96,1166.85 1086.47,1166.13 1086.98,1165.42 1087.49,1164.7 1088,1163.99 1088.51,1163.27 1089.02,1162.56 1089.52,1161.85 1090.03,1161.15 1090.54,1160.46 1091.05,1159.78 1091.56,1159.11 1092.07,1158.45 1092.58,1157.79 1093.09,1157.14 1093.6,1156.5 1094.11,1155.86 1094.62,1155.22 1095.13,1154.59 1095.63,1153.95 1096.14,1153.32 1096.65,1152.69 1097.16,1152.06 1097.67,1151.43 1098.18,1150.8 1098.69,1150.17 1099.2,1149.55 1099.71,1148.93 1100.22,1148.32 1100.73,1147.71 1101.24,1147.1 1101.74,1146.49 1102.25,1145.88 1102.76,1145.28 1103.27,1144.69 1103.78,1144.11 1104.29,1143.55 1104.8,1142.99 1105.31,1142.43 1105.82,1141.88 1106.33,1141.33 1106.84,1140.78 1107.35,1140.22 1107.85,1139.64 1108.36,1139.05 1108.87,1138.45 1109.38,1137.85 1109.89,1137.24 1110.4,1136.64 1110.91,1136.04 1111.42,1135.44 1111.93,1134.84 1112.44,1134.24 1112.95,1133.65 1113.46,1133.06 1113.96,1132.47 1114.47,1131.89 1114.98,1131.3 1115.49,1130.71 1116,1130.13 1116.51,1129.55 1117.02,1128.98 1117.53,1128.4 1118.04,1127.83 1118.55,1127.24 1119.06,1126.65 1119.57,1126.05 1120.07,1125.45 1120.58,1124.85 1121.09,1124.23 1121.6,1123.6 1122.11,1122.96 1122.62,1122.3 1123.13,1121.64 1123.64,1120.97 1124.15,1120.29 1124.66,1119.6 1125.17,1118.89 1125.68,1118.18 1126.18,1117.46 1126.69,1116.74 1127.2,1116.02 1127.71,1115.31 1128.22,1114.6 1128.73,1113.89 1129.24,1113.19 1129.75,1112.5 1130.26,1111.82 1130.77,1111.14 1131.28,1110.46 1131.79,1109.77 1132.29,1109.07 1132.8,1108.36 1133.31,1107.64 1133.82,1106.92 1134.33,1106.19 1134.84,1105.45 1135.35,1104.71 1135.86,1103.97 1136.37,1103.23 1136.88,1102.49 1137.39,1101.75 1137.9,1101.01 1138.4,1100.27 1138.91,1099.54 1139.42,1098.8 1139.93,1098.08 1140.44,1097.36 1140.95,1096.64 1141.46,1095.93 1141.97,1095.21 1142.48,1094.49 1142.99,1093.78 1143.5,1093.07 1144.01,1092.36 1144.51,1091.66 1145.02,1090.96 1145.53,1090.27 1146.04,1089.59 1146.55,1088.92 1147.06,1088.26 1147.57,1087.59 1148.08,1086.92 1148.59,1086.24 1149.1,1085.55 1149.61,1084.86 1150.12,1084.16 1150.62,1083.47 1151.13,1082.78 1151.64,1082.09 1152.15,1081.4 1152.66,1080.7 1153.17,1080.02 1153.68,1079.34 1154.19,1078.66 1154.7,1078 1155.21,1077.35 1155.72,1076.72 1156.23,1076.09 1156.73,1075.47 1157.24,1074.86 1157.75,1074.25 1158.26,1073.66 1158.77,1073.06 1159.28,1072.46 1159.79,1071.87 1160.3,1071.27 1160.81,1070.67 1161.32,1070.06 1161.83,1069.46 1162.34,1068.85 1162.84,1068.25 1163.35,1067.65 1163.86,1067.06 1164.37,1066.47 1164.88,1065.89 1165.39,1065.31 1165.9,1064.73 1166.41,1064.14 1166.92,1063.55 1167.43,1062.96 1167.94,1062.37 1168.45,1061.77 1168.95,1061.18 1169.46,1060.59 1169.97,1060.01 1170.48,1059.43 1170.99,1058.84 1171.5,1058.26 1172.01,1057.68 1172.52,1057.09 1173.03,1056.5 1173.54,1055.9 1174.05,1055.29 1174.56,1054.67 1175.06,1054.04 1175.57,1053.41 1176.08,1052.78 1176.59,1052.15 1177.1,1051.54 1177.61,1050.93 1178.12,1050.33 1178.63,1049.74 1179.14,1049.15 1179.65,1048.56 1180.16,1047.97 1180.67,1047.38 1181.17,1046.8 1181.68,1046.22 1182.19,1045.64 1182.7,1045.07 1183.21,1044.48 1183.72,1043.9 1184.23,1043.33 1184.74,1042.75 1185.25,1042.17 1185.76,1041.6 1186.27,1041.02 1186.78,1040.43 1187.28,1039.84 1187.79,1039.24 1188.3,1038.63 1188.81,1038.01 1189.32,1037.4 1189.83,1036.79 1190.34,1036.19 1190.85,1035.59 1191.36,1035 1191.87,1034.41 1192.38,1033.83 1192.89,1033.24 1193.4,1032.67 1193.9,1032.1 1194.41,1031.54 1194.92,1030.98 1195.43,1030.42 1195.94,1029.87 1196.45,1029.32 1196.96,1028.78 1197.47,1028.23 1197.98,1027.69 1198.49,1027.14 1199,1026.59 1199.51,1026.03 1200.01,1025.47 1200.52,1024.9 1201.03,1024.32 1201.54,1023.74 1202.05,1023.16 1202.56,1022.58 1203.07,1022 1203.58,1021.42 1204.09,1020.84 1204.6,1020.27 1205.11,1019.69 1205.62,1019.12 1206.12,1018.54 1206.63,1017.97 1207.14,1017.4 1207.65,1016.85 1208.16,1016.3 1208.67,1015.76 1209.18,1015.23 1209.69,1014.71 1210.2,1014.19 1210.71,1013.68 1211.22,1013.17 1211.73,1012.66 1212.23,1012.15 1212.74,1011.64 1213.25,1011.14 1213.76,1010.64 1214.27,1010.15 1214.78,1009.66 1215.29,1009.17 1215.8,1008.68 1216.31,1008.2 1216.82,1007.72 1217.33,1007.25 1217.84,1006.78 1218.34,1006.32 1218.85,1005.86 1219.36,1005.4 1219.87,1004.95 1220.38,1004.51 1220.89,1004.07 1221.4,1003.64 1221.91,1003.2 1222.42,1002.76 1222.93,1002.32 1223.44,1001.88 1223.95,1001.43 1224.45,1000.97 1224.96,1000.51 1225.47,1000.04 1225.98,999.561 1226.49,999.076 1227,998.586 1227.51,998.093 1228.02,997.599 1228.53,997.104 1229.04,996.61 1229.55,996.118 1230.06,995.629 1230.56,995.142 1231.07,994.658 1231.58,994.174 1232.09,993.691 1232.6,993.204 1233.11,992.715 1233.62,992.222 1234.13,991.728 1234.64,991.23 1235.15,990.729 1235.66,990.224 1236.17,989.718 1236.67,989.211 1237.18,988.706 1237.69,988.205 1238.2,987.71 1238.71,987.221 1239.22,986.738 1239.73,986.26 1240.24,985.785 1240.75,985.313 1241.26,984.843 1241.77,984.375 1242.28,983.906 1242.78,983.437 1243.29,982.967 1243.8,982.497 1244.31,982.028 1244.82,981.555 1245.33,981.079 1245.84,980.597 1246.35,980.109 1246.86,979.614 1247.37,979.113 1247.88,978.606 1248.39,978.098 1248.89,977.589 1249.4,977.081 1249.91,976.569 1250.42,976.052 1250.93,975.529 1251.44,974.996 1251.95,974.457 1252.46,973.908 1252.97,973.35 1253.48,972.779 1253.99,972.196 1254.5,971.605 1255,971.013 1255.51,970.423 1256.02,969.84 1256.53,969.264 1257.04,968.695 1257.55,968.135 1258.06,967.578 1258.57,967.022 1259.08,966.462 1259.59,965.898 1260.1,965.329 1260.61,964.758 1261.11,964.183 1261.62,963.606 1262.13,963.032 1262.64,962.462 1263.15,961.898 1263.66,961.341 1264.17,960.79 1264.68,960.245 1265.19,959.704 1265.7,959.165 1266.21,958.626 1266.72,958.083 1267.22,957.533 1267.73,956.976 1268.24,956.413 1268.75,955.845 1269.26,955.277 1269.77,954.715 1270.28,954.164 1270.79,953.632 1271.3,953.12 1271.81,952.626 1272.32,952.142 1272.83,951.662 1273.33,951.176 1273.84,950.682 1274.35,950.177 1274.86,949.661 1275.37,949.135 1275.88,948.598 1276.39,948.051 1276.9,947.492 1277.41,946.927 1277.92,946.354 1278.43,945.772 1278.94,945.178 1279.44,944.57 1279.95,943.949 1280.46,943.317 1280.97,942.674 1281.48,942.023 1281.99,941.363 1282.5,940.7 1283.01,940.033 1283.52,939.364 1284.03,938.694 1284.54,938.028 1285.05,937.367 1285.55,936.712 1286.06,936.065 1286.57,935.428 1287.08,934.799 1287.59,934.176 1288.1,933.554 1288.61,932.933 1289.12,932.315 1289.63,931.698 1290.14,931.084 1290.65,930.472 1291.16,929.862 1291.66,929.252 1292.17,928.642 1292.68,928.031 1293.19,927.415 1293.7,926.795 1294.21,926.167 1294.72,925.532 1295.23,924.891 1295.74,924.249 1296.25,923.609 1296.76,922.978 1297.27,922.362 1297.77,921.764 1298.28,921.187 1298.79,920.629 1299.3,920.079 1299.81,919.534 1300.32,918.989 1300.83,918.444 1301.34,917.902 1301.85,917.366 1302.36,916.835 1302.87,916.311 1303.38,915.792 1303.88,915.277 1304.39,914.765 1304.9,914.258 1305.41,913.757 1305.92,913.261 1306.43,912.768 1306.94,912.278 1307.45,911.787 1307.96,911.297 1308.47,910.807 1308.98,910.317 1309.49,909.831 1309.99,909.353 1310.5,908.882 1311.01,908.413 1311.52,907.944 1312.03,907.473 1312.54,907.003 1313.05,906.538 1313.56,906.082 1314.07,905.633 1314.58,905.192 1315.09,904.76 1315.6,904.339 1316.1,903.927 1316.61,903.522 1317.12,903.122 1317.63,902.725 1318.14,902.329 1318.65,901.935 1319.16,901.542 1319.67,901.15 1320.18,900.758 1320.69,900.362 1321.2,899.961 1321.71,899.552 1322.21,899.138 1322.72,898.722 1323.23,898.304 1323.74,897.884 1324.25,897.46 1324.76,897.031 1325.27,896.596 1325.78,896.157 1326.29,895.713 1326.8,895.263 1327.31,894.812 1327.82,894.359 1328.32,893.909 1328.83,893.462 1329.34,893.019 1329.85,892.581 1330.36,892.15 1330.87,891.725 1331.38,891.307 1331.89,890.898 1332.4,890.498 1332.91,890.106 1333.42,889.721 1333.93,889.339 1334.43,888.959 1334.94,888.583 1335.45,888.211 1335.96,887.844 1336.47,887.48 1336.98,887.115 1337.49,886.75 1338,886.387 1338.51,886.025 1339.02,885.666 1339.53,885.303 1340.04,884.935 1340.54,884.564 1341.05,884.192 1341.56,883.825 1342.07,883.467 1342.58,883.117 1343.09,882.774 1343.6,882.438 1344.11,882.111 1344.62,881.796 1345.13,881.493 1345.64,881.198 1346.15,880.907 1346.65,880.616 1347.16,880.326 1347.67,880.037 1348.18,879.753 1348.69,879.476 1349.2,879.206 1349.71,878.94 1350.22,878.675 1350.73,878.41 1351.24,878.146 1351.75,877.885 1352.26,877.625 1352.76,877.366 1353.27,877.108 1353.78,876.851 1354.29,876.596 1354.8,876.342 1355.31,876.091 1355.82,875.845 1356.33,875.603 1356.84,875.364 1357.35,875.126 1357.86,874.893 1358.37,874.663 1358.87,874.437 1359.38,874.215 1359.89,873.995 1360.4,873.775 1360.91,873.55 1361.42,873.32 1361.93,873.086 1362.44,872.853 1362.95,872.627 1363.46,872.409 1363.97,872.199 1364.48,871.995 1364.98,871.797 1365.49,871.604 1366,871.42 1366.51,871.246 1367.02,871.086 1367.53,870.939 1368.04,870.802 1368.55,870.673 1369.06,870.55 1369.57,870.432 1370.08,870.318 1370.59,870.208 1371.09,870.102 1371.6,870 1372.11,869.899 1372.62,869.798 1373.13,869.697 1373.64,869.596 1374.15,869.497 1374.66,869.404 1375.17,869.319 1375.68,869.242 1376.19,869.169 1376.7,869.097 1377.2,869.022 1377.71,868.943 1378.22,868.864 1378.73,868.791 1379.24,868.722 1379.75,868.654 1380.26,868.584 1380.77,868.512 1381.28,868.438 1381.79,868.367 1382.3,868.304 1382.81,868.254 1383.31,868.217 1383.82,868.19 1384.33,868.164 1384.84,868.134 1385.35,868.096 1385.86,868.051 1386.37,868 1386.88,867.949 1387.39,867.9 1387.9,867.856 1388.41,867.818 1388.92,867.786 1389.42,867.758 1389.93,867.73 1390.44,867.7 1390.95,867.662 1391.46,867.616 1391.97,867.565 1392.48,867.509 1392.99,867.452 1393.5,867.395 1394.01,867.341 1394.52,867.29 1395.03,867.241 1395.53,867.194 1396.04,867.146 1396.55,867.096 1397.06,867.044 1397.57,866.989 1398.08,866.935 1398.59,866.884 1399.1,866.84 1399.61,866.805 1400.12,866.779 1400.63,866.764 1401.14,866.757 1401.64,866.757 1402.15,866.76 1402.66,866.764 1403.17,866.768 1403.68,866.772 1404.19,866.777 1404.7,866.783 1405.21,866.792 1405.72,866.807 1406.23,866.83 1406.74,866.857 1407.25,866.89 1407.75,866.927 1408.26,866.967 1408.77,867.011 1409.28,867.059 1409.79,867.109 1410.3,867.159 1410.81,867.209 1411.32,867.259 1411.83,867.311 1412.34,867.366 1412.85,867.426 1413.36,867.493 1413.86,867.564 1414.37,867.642 1414.88,867.727 1415.39,867.821 1415.9,867.921 1416.41,868.027 1416.92,868.131 1417.43,868.233 1417.94,868.328 1418.45,868.415 1418.96,868.489 1419.47,868.551 1419.97,868.601 1420.48,868.639 1420.99,868.67 1421.5,868.7 1422.01,868.733 1422.52,868.772 1423.03,868.817 1423.54,868.863 1424.05,868.911 1424.56,868.965 1425.07,869.026 1425.58,869.097 1426.08,869.178 1426.59,869.269 1427.1,869.372 1427.61,869.483 1428.12,869.599 1428.63,869.715 1429.14,869.827 1429.65,869.932 1430.16,870.031 1430.67,870.122 1431.18,870.204 1431.69,870.275 1432.19,870.336 1432.7,870.385 1433.21,870.425 1433.72,870.457 1434.23,870.481 1434.74,870.498 1435.25,870.508 1435.76,870.512 1436.27,870.511 1436.78,870.507 1437.29,870.503 1437.8,870.498 1438.3,870.494 1438.81,870.496 1439.32,870.504 1439.83,870.519 1440.34,870.54 1440.85,870.568 1441.36,870.602 1441.87,870.643 1442.38,870.692 1442.89,870.75 1443.4,870.816 1443.91,870.894 1444.41,870.985 1444.92,871.089 1445.43,871.205 1445.94,871.332 1446.45,871.468 1446.96,871.61 1447.47,871.757 1447.98,871.907 1448.49,872.061 1449,872.219 1449.51,872.379 1450.02,872.541 1450.52,872.708 1451.03,872.879 1451.54,873.057 1452.05,873.24 1452.56,873.427 1453.07,873.617 1453.58,873.813 1454.09,874.017 1454.6,874.228 1455.11,874.446 1455.62,874.672 1456.13,874.905 1456.64,875.139 1457.14,875.373 1457.65,875.6 1458.16,875.82 1458.67,876.031 1459.18,876.234 1459.69,876.43 1460.2,876.622 1460.71,876.813 1461.22,877.002 1461.73,877.19 1462.24,877.376 1462.75,877.562 1463.25,877.746 1463.76,877.93 1464.27,878.115 1464.78,878.299 1465.29,878.483 1465.8,878.67 1466.31,878.86 1466.82,879.058 1467.33,879.266 1467.84,879.484 1468.35,879.71 1468.86,879.944 1469.36,880.183 1469.87,880.426 1470.38,880.669 1470.89,880.908 1471.4,881.142 1471.91,881.37 1472.42,881.596 1472.93,881.821 1473.44,882.042 1473.95,882.259 1474.46,882.469 1474.97,882.672 1475.47,882.866 1475.98,883.055 1476.49,883.242 1477,883.433 1477.51,883.629 1478.02,883.831 1478.53,884.04 1479.04,884.257 1479.55,884.481 1480.06,884.712 1480.57,884.95 1481.08,885.192 1481.58,885.44 1482.09,885.696 1482.6,885.962 1483.11,886.239 1483.62,886.521 1484.13,886.802 1484.64,887.081 1485.15,887.358 1485.66,887.638 1486.17,887.917 1486.68,888.196 1487.19,888.474 1487.69,888.753 1488.2,889.034 1488.71,889.317 1489.22,889.601 1489.73,889.884 1490.24,890.163 1490.75,890.439 1491.26,890.715 1491.77,890.992 1492.28,891.275 1492.79,891.565 1493.3,891.865 1493.8,892.176 1494.31,892.5 1494.82,892.836 1495.33,893.185 1495.84,893.544 1496.35,893.915 1496.86,894.294 1497.37,894.678 1497.88,895.064 1498.39,895.448 1498.9,895.83 1499.41,896.209 1499.91,896.584 1500.42,896.957 1500.93,897.326 1501.44,897.693 1501.95,898.055 1502.46,898.413 1502.97,898.765 1503.48,899.11 1503.99,899.447 1504.5,899.78 1505.01,900.111 1505.52,900.444 1506.02,900.778 1506.53,901.115 1507.04,901.455 1507.55,901.799 1508.06,902.147 1508.57,902.498 1509.08,902.854 1509.59,903.214 1510.1,903.579 1510.61,903.949 1511.12,904.325 1511.63,904.705 1512.13,905.088 1512.64,905.469 1513.15,905.846 1513.66,906.217 1514.17,906.583 1514.68,906.946 1515.19,907.309 1515.7,907.679 1516.21,908.059 1516.72,908.45 1517.23,908.851 1517.74,909.262 1518.24,909.681 1518.75,910.111 1519.26,910.549 1519.77,910.994 1520.28,911.442 1520.79,911.888 1521.3,912.328 1521.81,912.766 1522.32,913.202 1522.83,913.64 1523.34,914.081 1523.85,914.524 1524.35,914.966 1524.86,915.406 1525.37,915.843 1525.88,916.279 1526.39,916.716 1526.9,917.155 1527.41,917.6 1527.92,918.053 1528.43,918.513 1528.94,918.974 1529.45,919.434 1529.96,919.893 1530.46,920.349 1530.97,920.806 1531.48,921.262 1531.99,921.718 1532.5,922.174 1533.01,922.63 1533.52,923.086 1534.03,923.544 1534.54,924.001 1535.05,924.454 1535.56,924.9 1536.07,925.337 1536.57,925.761 1537.08,926.172 1537.59,926.569 1538.1,926.958 1538.61,927.344 1539.12,927.735 1539.63,928.135 1540.14,928.545 1540.65,928.963 1541.16,929.386 1541.67,929.813 1542.18,930.241 1542.68,930.673 1543.19,931.107 1543.7,931.547 1544.21,931.993 1544.72,932.443 1545.23,932.895 1545.74,933.351 1546.25,933.812 1546.76,934.28 1547.27,934.758 1547.78,935.239 1548.29,935.72 1548.79,936.2 1549.3,936.682 1549.81,937.169 1550.32,937.665 1550.83,938.171 1551.34,938.688 1551.85,939.214 1552.36,939.749 1552.87,940.294 1553.38,940.847 1553.89,941.404 1554.4,941.963 1554.9,942.522 1555.41,943.083 1555.92,943.645 1556.43,944.209 1556.94,944.778 1557.45,945.353 1557.96,945.935 1558.47,946.524 1558.98,947.118 1559.49,947.715 1560,948.31 1560.51,948.899 1561.01,949.482 1561.52,950.06 1562.03,950.631 1562.54,951.198 1563.05,951.758 1563.56,952.306 1564.07,952.844 1564.58,953.377 1565.09,953.911 1565.6,954.451 1566.11,954.999 1566.62,955.556 1567.12,956.122 1567.63,956.694 1568.14,957.27 1568.65,957.848 1569.16,958.431 1569.67,959.018 1570.18,959.61 1570.69,960.209 1571.2,960.816 1571.71,961.433 1572.22,962.057 1572.73,962.688 1573.23,963.319 1573.74,963.946 1574.25,964.567 1574.76,965.179 1575.27,965.78 1575.78,966.374 1576.29,966.963 1576.8,967.549 1577.31,968.13 1577.82,968.708 1578.33,969.283 1578.84,969.858 1579.34,970.433 1579.85,971.005 1580.36,971.57 1580.87,972.125 1581.38,972.665 1581.89,973.189 1582.4,973.699 1582.91,974.201 1583.42,974.696 1583.93,975.189 1584.44,975.683 1584.95,976.182 1585.45,976.687 1585.96,977.199 1586.47,977.714 1586.98,978.231 1587.49,978.749 1588,979.268 1588.51,979.787 1589.02,980.302 1589.53,980.816 1590.04,981.326 1590.55,981.835 1591.06,982.343 1591.56,982.854 1592.07,983.372 1592.58,983.896 1593.09,984.428 1593.6,984.966 1594.11,985.513 1594.62,986.067 1595.13,986.626 1595.64,987.188 1596.15,987.752 1596.66,988.319 1597.17,988.889 1597.67,989.459 1598.18,990.028 1598.69,990.596 1599.2,991.166 1599.71,991.744 1600.22,992.332 1600.73,992.928 1601.24,993.53 1601.75,994.135 1602.26,994.744 1602.77,995.356 1603.28,995.971 1603.78,996.588 1604.29,997.205 1604.8,997.821 1605.31,998.438 1605.82,999.055 1606.33,999.672 1606.84,1000.28 1607.35,1000.89 1607.86,1001.49 1608.37,1002.07 1608.88,1002.65 1609.39,1003.23 1609.89,1003.8 1610.4,1004.38 1610.91,1004.95 1611.42,1005.53 1611.93,1006.11 1612.44,1006.7 1612.95,1007.3 1613.46,1007.9 1613.97,1008.49 1614.48,1009.08 1614.99,1009.65 1615.5,1010.22 1616,1010.77 1616.51,1011.32 1617.02,1011.86 1617.53,1012.4 1618.04,1012.93 1618.55,1013.47 1619.06,1014.01 1619.57,1014.55 1620.08,1015.09 1620.59,1015.63 1621.1,1016.18 1621.61,1016.72 1622.11,1017.28 1622.62,1017.85 1623.13,1018.43 1623.64,1019.02 1624.15,1019.62 1624.66,1020.22 1625.17,1020.82 1625.68,1021.42 1626.19,1022.01 1626.7,1022.6 1627.21,1023.19 1627.72,1023.79 1628.22,1024.4 1628.73,1025.01 1629.24,1025.64 1629.75,1026.26 1630.26,1026.89 1630.77,1027.5 1631.28,1028.11 1631.79,1028.72 1632.3,1029.33 1632.81,1029.94 1633.32,1030.56 1633.83,1031.2 1634.33,1031.84 1634.84,1032.49 1635.35,1033.15 1635.86,1033.81 1636.37,1034.48 1636.88,1035.15 1637.39,1035.82 1637.9,1036.49 1638.41,1037.17 1638.92,1037.85 1639.43,1038.54 1639.94,1039.24 1640.44,1039.96 1640.95,1040.67 1641.46,1041.39 1641.97,1042.11 1642.48,1042.82 1642.99,1043.53 1643.5,1044.24 1644.01,1044.94 1644.52,1045.64 1645.03,1046.34 1645.54,1047.03 1646.05,1047.73 1646.55,1048.42 1647.06,1049.12 1647.57,1049.83 1648.08,1050.54 1648.59,1051.25 1649.1,1051.96 1649.61,1052.68 1650.12,1053.41 1650.63,1054.15 1651.14,1054.89 1651.65,1055.64 1652.16,1056.4 1652.66,1057.16 1653.17,1057.93 1653.68,1058.71 1654.19,1059.5 1654.7,1060.29 1655.21,1061.09 1655.72,1061.88 1656.23,1062.67 1656.74,1063.47 1657.25,1064.27 1657.76,1065.08 1658.27,1065.9 1658.77,1066.72 1659.28,1067.54 1659.79,1068.37 1660.3,1069.2 1660.81,1070.04 1661.32,1070.89 1661.83,1071.73 1662.34,1072.57 1662.85,1073.4 1663.36,1074.22 1663.87,1075.05 1664.38,1075.87 1664.88,1076.7 1665.39,1077.54 1665.9,1078.39 1666.41,1079.25 1666.92,1080.13 1667.43,1081 1667.94,1081.88 1668.45,1082.75 1668.96,1083.61 1669.47,1084.46 1669.98,1085.3 1670.49,1086.14 1670.99,1086.97 1671.5,1087.81 1672.01,1088.64 1672.52,1089.48 1673.03,1090.32 1673.54,1091.16 1674.05,1092.01 1674.56,1092.85 1675.07,1093.69 1675.58,1094.52 1676.09,1095.36 1676.6,1096.2 1677.1,1097.03 1677.61,1097.87 1678.12,1098.7 1678.63,1099.52 1679.14,1100.35 1679.65,1101.17 1680.16,1101.99 1680.67,1102.8 1681.18,1103.6 1681.69,1104.4 1682.2,1105.17 1682.71,1105.92 1683.21,1106.66 1683.72,1107.38 1684.23,1108.09 1684.74,1108.81 1685.25,1109.52 1685.76,1110.24 1686.27,1110.96 1686.78,1111.68 1687.29,1112.39 1687.8,1113.09 1688.31,1113.79 1688.82,1114.47 1689.32,1115.14 1689.83,1115.82 1690.34,1116.5 1690.85,1117.18 1691.36,1117.87 1691.87,1118.56 1692.38,1119.27 1692.89,1119.97 1693.4,1120.68 1693.91,1121.4 1694.42,1122.13 1694.93,1122.86 1695.43,1123.6 1695.94,1124.35 1696.45,1125.1 1696.96,1125.86 1697.47,1126.62 1697.98,1127.4 1698.49,1128.18 1699,1128.98 1699.51,1129.79 1700.02,1130.61 1700.53,1131.44 1701.04,1132.28 1701.54,1133.13 1702.05,1133.99 1702.56,1134.87 1703.07,1135.77 1703.58,1136.68 1704.09,1137.6 1704.6,1138.54 1705.11,1139.5 1705.62,1140.46 1706.13,1141.43 1706.64,1142.4 1707.15,1143.38 1707.65,1144.36 1708.16,1145.36 1708.67,1146.38 1709.18,1147.41 1709.69,1148.45 1710.2,1149.5 1710.71,1150.54 1711.22,1151.59 1711.73,1152.63 1712.24,1153.66 1712.75,1154.7 1713.26,1155.74 1713.76,1156.77 1714.27,1157.81 1714.78,1158.85 1715.29,1159.89 1715.8,1160.94 1716.31,1161.99 1716.82,1163.04 1717.33,1164.09 1717.84,1165.13 1718.35,1166.17 1718.86,1167.19 1719.37,1168.21 1719.88,1169.21 1720.38,1170.2 1720.89,1171.19 1721.4,1172.18 1721.91,1173.17 1722.42,1174.16 1722.93,1175.16 1723.44,1176.14 1723.95,1177.12 1724.46,1178.09 1724.97,1179.07 1725.48,1180.04 1725.99,1181.02 1726.49,1181.99 1727,1182.96 1727.51,1183.93 1728.02,1184.9 1728.53,1185.86 1729.04,1186.83 1729.55,1187.79 1730.06,1188.74 1730.57,1189.69 1731.08,1190.62 1731.59,1191.54 1732.1,1192.44 1732.6,1193.32 1733.11,1194.2 1733.62,1195.07 1734.13,1195.94 1734.64,1196.79 1735.15,1197.64 1735.66,1198.5 1736.17,1199.35 1736.68,1200.2 1737.19,1201.06 1737.7,1201.91 1738.21,1202.76 1738.71,1203.6 1739.22,1204.43 1739.73,1205.26 1740.24,1206.1 1740.75,1206.93 1741.26,1207.77 1741.77,1208.62 1742.28,1209.48 1742.79,1210.34 1743.3,1211.21 1743.81,1212.07 1744.32,1212.93 1744.82,1213.79 1745.33,1214.64 1745.84,1215.49 1746.35,1216.33 1746.86,1217.16 1747.37,1217.98 1747.88,1218.81 1748.39,1219.62 1748.9,1220.44 1749.41,1221.25 1749.92,1222.07 1750.43,1222.9 1750.93,1223.73 1751.44,1224.57 1751.95,1225.43 1752.46,1226.29 1752.97,1227.16 1753.48,1228.02 1753.99,1228.88 1754.5,1229.74 1755.01,1230.61 1755.52,1231.47 1756.03,1232.34 1756.54,1233.21 1757.04,1234.07 1757.55,1234.92 1758.06,1235.76 1758.57,1236.59 1759.08,1237.41 1759.59,1238.2 1760.1,1238.99 1760.61,1239.77 1761.12,1240.55 1761.63,1241.34 1762.14,1242.12 1762.65,1242.91 1763.15,1243.7 1763.66,1244.5 1764.17,1245.3 1764.68,1246.1 1765.19,1246.91 1765.7,1247.72 1766.21,1248.54 1766.72,1249.36 1767.23,1250.18 1767.74,1251.01 1768.25,1251.83 1768.76,1252.65 1769.26,1253.47 1769.77,1254.29 1770.28,1255.09 1770.79,1255.89 1771.3,1256.66 1771.81,1257.43 1772.32,1258.17 1772.83,1258.91 1773.34,1259.63 1773.85,1260.36 1774.36,1261.1 1774.87,1261.84 1775.37,1262.59 1775.88,1263.33 1776.39,1264.08 1776.9,1264.83 1777.41,1265.59 1777.92,1266.34 1778.43,1267.09 1778.94,1267.84 1779.45,1268.59 1779.96,1269.33 1780.47,1270.07 1780.98,1270.81 1781.48,1271.56 1781.99,1272.32 1782.5,1273.08 1783.01,1273.84 1783.52,1274.6 1784.03,1275.35 1784.54,1276.09 1785.05,1276.82 1785.56,1277.54 1786.07,1278.25 1786.58,1278.96 1787.09,1279.66 1787.59,1280.36 1788.1,1281.06 1788.61,1281.75 1789.12,1282.46 1789.63,1283.16 1790.14,1283.87 1790.65,1284.57 1791.16,1285.28 1791.67,1285.99 1792.18,1286.71 1792.69,1287.44 1793.2,1288.18 1793.7,1288.92 1794.21,1289.67 1794.72,1290.44 1795.23,1291.21 1795.74,1292 1796.25,1292.8 1796.76,1293.6 1797.27,1294.42 1797.78,1295.23 1798.29,1296.04 1798.8,1296.83 1799.31,1297.62 1799.81,1298.4 1800.32,1299.19 1800.83,1299.97 1801.34,1300.75 1801.85,1301.52 1802.36,1302.28 1802.87,1303.05 1803.38,1303.8 1803.89,1304.54 1804.4,1305.28 1804.91,1306.02 1805.42,1306.74 1805.92,1307.47 1806.43,1308.18 1806.94,1308.88 1807.45,1309.59 1807.96,1310.29 1808.47,1311.01 1808.98,1311.73 1809.49,1312.44 1810,1313.17 1810.51,1313.89 1811.02,1314.6 1811.53,1315.31 1812.03,1316 1812.54,1316.69 1813.05,1317.36 1813.56,1318.02 1814.07,1318.67 1814.58,1319.3 1815.09,1319.91 1815.6,1320.51 1816.11,1321.11 1816.62,1321.69 1817.13,1322.26 1817.64,1322.81 1818.14,1323.36 1818.65,1323.91 1819.16,1324.45 1819.67,1324.98 1820.18,1325.51 1820.69,1326.02 1821.2,1326.53 1821.71,1327.02 1822.22,1327.52 1822.73,1328.01 1823.24,1328.51 1823.75,1329 1824.25,1329.5 1824.76,1329.99 1825.27,1330.49 1825.78,1330.99 1826.29,1331.47 1826.8,1331.94 1827.31,1332.41 1827.82,1332.87 1828.33,1333.33 1828.84,1333.78 1829.35,1334.22 1829.86,1334.65 1830.36,1335.06 1830.87,1335.47 1831.38,1335.87 1831.89,1336.26 1832.4,1336.64 1832.91,1337.01 1833.42,1337.39 1833.93,1337.76 1834.44,1338.14 1834.95,1338.53 1835.46,1338.91 1835.97,1339.28 1836.47,1339.64 1836.98,1339.99 1837.49,1340.34 1838,1340.69 1838.51,1341.06 1839.02,1341.43 1839.53,1341.81 1840.04,1342.2 1840.55,1342.59 1841.06,1343 1841.57,1343.41 1842.08,1343.84 1842.58,1344.27 1843.09,1344.72 1843.6,1345.16 1844.11,1345.62 1844.62,1346.08 1845.13,1346.55 1845.64,1347.01 1846.15,1347.48 1846.66,1347.95 1847.17,1348.42 1847.68,1348.91 1848.19,1349.4 1848.69,1349.91 1849.2,1350.42 1849.71,1350.94 1850.22,1351.45 1850.73,1351.96 1851.24,1352.47 1851.75,1352.98 1852.26,1353.48 1852.77,1353.99 1853.28,1354.49 1853.79,1354.99 1854.3,1355.47 1854.8,1355.95 1855.31,1356.42 1855.82,1356.88 1856.33,1357.33 1856.84,1357.78 1857.35,1358.23 1857.86,1358.67 1858.37,1359.12 1858.88,1359.58 1859.39,1360.05 1859.9,1360.52 1860.41,1361.01 1860.91,1361.51 1861.42,1362.02 1861.93,1362.52 1862.44,1363.03 1862.95,1363.52 1863.46,1363.99 1863.97,1364.44 1864.48,1364.87 1864.99,1365.28 1865.5,1365.69 1866.01,1366.09 1866.52,1366.48 1867.02,1366.86 1867.53,1367.23 1868.04,1367.6 1868.55,1367.96 1869.06,1368.32 1869.57,1368.69 1870.08,1369.05 1870.59,1369.42 1871.1,1369.79 1871.61,1370.16 1872.12,1370.54 1872.63,1370.92 1873.13,1371.29 1873.64,1371.66 1874.15,1372.01 1874.66,1372.36 1875.17,1372.7 1875.68,1373.04 1876.19,1373.39 1876.7,1373.74 1877.21,1374.1 1877.72,1374.47 1878.23,1374.84 1878.74,1375.22 1879.24,1375.6 1879.75,1375.98 1880.26,1376.35 1880.77,1376.72 1881.28,1377.09 1881.79,1377.45 1882.3,1377.81 1882.81,1378.16 1883.32,1378.51 1883.83,1378.85 1884.34,1379.19 1884.85,1379.53 1885.35,1379.87 1885.86,1380.21 1886.37,1380.56 1886.88,1380.9 1887.39,1381.25 1887.9,1381.59 1888.41,1381.94 1888.92,1382.28 1889.43,1382.64 1889.94,1382.99 1890.45,1383.35 1890.96,1383.72 1891.46,1384.08 1891.97,1384.45 1892.48,1384.81 1892.99,1385.17 1893.5,1385.52 1894.01,1385.87 1894.52,1386.22 1895.03,1386.57 1895.54,1386.91 1896.05,1387.26 1896.56,1387.61 1897.07,1387.96 1897.57,1388.31 1898.08,1388.67 1898.59,1389.02 1899.1,1389.36 1899.61,1389.67 1900.12,1389.96 1900.63,1390.24 1901.14,1390.52 1901.65,1390.8 1902.16,1391.1 1902.67,1391.4 1903.18,1391.7 1903.68,1392.01 1904.19,1392.32 1904.7,1392.64 1905.21,1392.97 1905.72,1393.32 1906.23,1393.66 1906.74,1393.99 1907.25,1394.31 1907.76,1394.62 1908.27,1394.93 1908.78,1395.25 1909.29,1395.57 1909.79,1395.89 1910.3,1396.22 1910.81,1396.54 1911.32,1396.86 1911.83,1397.18 1912.34,1397.51 1912.85,1397.83 1913.36,1398.16 1913.87,1398.49 1914.38,1398.82 1914.89,1399.14 1915.4,1399.46 1915.9,1399.76 1916.41,1400.06 1916.92,1400.34 1917.43,1400.62 1917.94,1400.89 1918.45,1401.16 1918.96,1401.43 1919.47,1401.71 1919.98,1401.99 1920.49,1402.29 1921,1402.59 1921.51,1402.9 1922.01,1403.2 1922.52,1403.52 1923.03,1403.84 1923.54,1404.16 1924.05,1404.47 1924.56,1404.79 1925.07,1405.11 1925.58,1405.44 1926.09,1405.79 1926.6,1406.15 1927.11,1406.52 1927.62,1406.9 1928.12,1407.28 1928.63,1407.66 1929.14,1408.03 1929.65,1408.39 1930.16,1408.74 1930.67,1409.07 1931.18,1409.38 1931.69,1409.67 1932.2,1409.95 1932.71,1410.22 1933.22,1410.5 1933.73,1410.79 1934.23,1411.1 1934.74,1411.42 1935.25,1411.76 1935.76,1412.1 1936.27,1412.45 1936.78,1412.8 1937.29,1413.14 1937.8,1413.49 1938.31,1413.84 1938.82,1414.22 1939.33,1414.61 1939.84,1415.01 1940.34,1415.42 1940.85,1415.84 1941.36,1416.27 1941.87,1416.71 1942.38,1417.15 1942.89,1417.58 1943.4,1418 1943.91,1418.41 1944.42,1418.81 1944.93,1419.21 1945.44,1419.61 1945.95,1420.01 1946.45,1420.4 1946.96,1420.79 1947.47,1421.18 1947.98,1421.55 1948.49,1421.93 1949,1422.3 1949.51,1422.67 1950.02,1423.06 1950.53,1423.44 1951.04,1423.83 1951.55,1424.22 1952.06,1424.6 1952.56,1424.96 1953.07,1425.3 1953.58,1425.61 1954.09,1425.91 1954.6,1426.18 1955.11,1426.45 1955.62,1426.69 1956.13,1426.91 1956.64,1427.12 1957.15,1427.33 1957.66,1427.52 1958.17,1427.72 1958.67,1427.92 1959.18,1428.13 1959.69,1428.33 1960.2,1428.54 1960.71,1428.75 1961.22,1428.97 1961.73,1429.19 1962.24,1429.42 1962.75,1429.66 1963.26,1429.92 1963.77,1430.2 1964.28,1430.48 1964.78,1430.76 1965.29,1431.04 1965.8,1431.31 1966.31,1431.57 1966.82,1431.83 1967.33,1432.08 1967.84,1432.32 1968.35,1432.55 1968.86,1432.77 1969.37,1432.99 1969.88,1433.21 1970.39,1433.42 1970.89,1433.61 1971.4,1433.78 1971.91,1433.92 1972.42,1434.04 1972.93,1434.14 1973.44,1434.22 1973.95,1434.3 1974.46,1434.36 1974.97,1434.43 1975.48,1434.5 1975.99,1434.59 1976.5,1434.69 1977,1434.79 1977.51,1434.88 1978.02,1434.96 1978.53,1435.02 1979.04,1435.06 1979.55,1435.09 1980.06,1435.11 1980.57,1435.12 1981.08,1435.13 1981.59,1435.13 1982.1,1435.14 1982.61,1435.16 1983.12,1435.18 1983.62,1435.22 1984.13,1435.28 1984.64,1435.35 1985.15,1435.44 1985.66,1435.54 1986.17,1435.65 1986.68,1435.77 1987.19,1435.89 1987.7,1436.02 1988.21,1436.14 1988.72,1436.28 1989.23,1436.42 1989.73,1436.56 1990.24,1436.7 1990.75,1436.85 1991.26,1437.01 1991.77,1437.18 1992.28,1437.35 1992.79,1437.52 1993.3,1437.7 1993.81,1437.87 1994.32,1438.05 1994.83,1438.23 1995.34,1438.42 1995.84,1438.62 1996.35,1438.82 1996.86,1439.02 1997.37,1439.21 1997.88,1439.39 1998.39,1439.56 1998.9,1439.72 1999.41,1439.87 1999.92,1440.02 2000.43,1440.15 2000.94,1440.27 2001.45,1440.4 2001.95,1440.52 2002.46,1440.65 2002.97,1440.77 2003.48,1440.89 2003.99,1440.99 2004.5,1441.1 2005.01,1441.19 2005.52,1441.29 2006.03,1441.38 2006.54,1441.48 2007.05,1441.59 2007.56,1441.7 2008.06,1441.82 2008.57,1441.94 2009.08,1442.05 2009.59,1442.14 2010.1,1442.23 2010.61,1442.3 2011.12,1442.36 2011.63,1442.42 2012.14,1442.49 2012.65,1442.56 2013.16,1442.65 2013.67,1442.74 2014.17,1442.84 2014.68,1442.94 2015.19,1443.02 2015.7,1443.09 2016.21,1443.15 2016.72,1443.2 2017.23,1443.23 2017.74,1443.26 2018.25,1443.28 2018.76,1443.31 2019.27,1443.34 2019.78,1443.37 2020.28,1443.4 2020.79,1443.43 2021.3,1443.44 2021.81,1443.44 2022.32,1443.43 2022.83,1443.41 2023.34,1443.38 2023.85,1443.34 2024.36,1443.28 2024.87,1443.22 2025.38,1443.14 2025.89,1443.06 2026.39,1442.97 2026.9,1442.9 2027.41,1442.83 2027.92,1442.77 2028.43,1442.73 2028.94,1442.69 2029.45,1442.66 2029.96,1442.64 2030.47,1442.63 2030.98,1442.62 2031.49,1442.62 2032,1442.62 2032.5,1442.62 2033.01,1442.61 2033.52,1442.6 2034.03,1442.58 2034.54,1442.56 2035.05,1442.54 2035.56,1442.51 2036.07,1442.48 2036.58,1442.45 2037.09,1442.42 2037.6,1442.39 2038.11,1442.35 2038.61,1442.32 2039.12,1442.28 2039.63,1442.26 2040.14,1442.23 2040.65,1442.22 2041.16,1442.21 2041.67,1442.23 2042.18,1442.24 2042.69,1442.26 2043.2,1442.26 2043.71,1442.27 2044.22,1442.26 2044.72,1442.25 2045.23,1442.23 2045.74,1442.21 2046.25,1442.19 2046.76,1442.17 2047.27,1442.15 2047.78,1442.13 2048.29,1442.12 2048.8,1442.12 2049.31,1442.13 2049.82,1442.15 2050.33,1442.17 2050.83,1442.2 2051.34,1442.24 2051.85,1442.28 2052.36,1442.33 2052.87,1442.39 2053.38,1442.45 2053.89,1442.51 2054.4,1442.59 2054.91,1442.69 2055.42,1442.79 2055.93,1442.88 2056.44,1442.97 2056.94,1443.06 2057.45,1443.15 2057.96,1443.23 2058.47,1443.31 2058.98,1443.4 2059.49,1443.49 2060,1443.6 2060.51,1443.71 2061.02,1443.82 2061.53,1443.93 2062.04,1444.04 2062.55,1444.15 2063.05,1444.26 2063.56,1444.37 2064.07,1444.48 2064.58,1444.6 2065.09,1444.71 2065.6,1444.83 2066.11,1444.94 2066.62,1445.04 2067.13,1445.12 2067.64,1445.21 2068.15,1445.29 2068.66,1445.36 2069.16,1445.43 2069.67,1445.5 2070.18,1445.55 2070.69,1445.61 2071.2,1445.65 2071.71,1445.69 2072.22,1445.71 2072.73,1445.72 2073.24,1445.7 2073.75,1445.66 2074.26,1445.61 2074.77,1445.56 2075.27,1445.51 2075.78,1445.46 2076.29,1445.43 2076.8,1445.4 2077.31,1445.39 2077.82,1445.38 2078.33,1445.37 2078.84,1445.36 2079.35,1445.35 2079.86,1445.33 2080.37,1445.31 2080.88,1445.29 2081.38,1445.26 2081.89,1445.23 2082.4,1445.18 2082.91,1445.13 2083.42,1445.06 2083.93,1444.99 2084.44,1444.92 2084.95,1444.84 2085.46,1444.77 2085.97,1444.69 2086.48,1444.61 2086.99,1444.52 2087.49,1444.42 2088,1444.31 2088.51,1444.2 2089.02,1444.09 2089.53,1443.98 2090.04,1443.88 2090.55,1443.77 2091.06,1443.67 2091.57,1443.56 2092.08,1443.45 2092.59,1443.34 2093.1,1443.24 2093.6,1443.14 2094.11,1443.04 2094.62,1442.94 2095.13,1442.83 2095.64,1442.72 2096.15,1442.61 2096.66,1442.49 2097.17,1442.36 2097.68,1442.24 2098.19,1442.12 2098.7,1442.02 2099.21,1441.92 2099.71,1441.83 2100.22,1441.74 2100.73,1441.65 2101.24,1441.55 2101.75,1441.45 2102.26,1441.37 2102.77,1441.29 2103.28,1441.21 2103.79,1441.12 2104.3,1441.02 2104.81,1440.91 2105.32,1440.78 2105.82,1440.63 2106.33,1440.47 2106.84,1440.28 2107.35,1440.08 2107.86,1439.87 2108.37,1439.66 2108.88,1439.44 2109.39,1439.23 2109.9,1439.03 2110.41,1438.83 2110.92,1438.64 2111.43,1438.46 2111.93,1438.27 2112.44,1438.08 2112.95,1437.9 2113.46,1437.71 2113.97,1437.53 2114.48,1437.35 2114.99,1437.18 2115.5,1437.01 2116.01,1436.84 2116.52,1436.68 2117.03,1436.51 2117.54,1436.32 2118.04,1436.13 2118.55,1435.93 2119.06,1435.73 2119.57,1435.51 2120.08,1435.28 2120.59,1435.04 2121.1,1434.78 2121.61,1434.52 2122.12,1434.24 2122.63,1433.94 2123.14,1433.64 2123.65,1433.33 2124.15,1433.02 2124.66,1432.71 2125.17,1432.41 2125.68,1432.1 2126.19,1431.8 2126.7,1431.48 2127.21,1431.15 2127.72,1430.81 2128.23,1430.47 2128.74,1430.13 2129.25,1429.78 2129.76,1429.43 2130.26,1429.08 2130.77,1428.72 2131.28,1428.37 2131.79,1428.01 2132.3,1427.64 2132.81,1427.26 2133.32,1426.86 2133.83,1426.44 2134.34,1426.02 2134.85,1425.58 2135.36,1425.14 2135.87,1424.69 2136.37,1424.23 2136.88,1423.77 2137.39,1423.29 2137.9,1422.81 2138.41,1422.32 2138.92,1421.84 2139.43,1421.35 2139.94,1420.85 2140.45,1420.34 2140.96,1419.83 2141.47,1419.31 2141.98,1418.79 2142.48,1418.26 2142.99,1417.74 2143.5,1417.22 2144.01,1416.72 2144.52,1416.23 2145.03,1415.75 2145.54,1415.29 2146.05,1414.84 2146.56,1414.4 2147.07,1413.96 2147.58,1413.52 2148.09,1413.07 2148.59,1412.61 2149.1,1412.14 2149.61,1411.65 2150.12,1411.17 2150.63,1410.67 2151.14,1410.17 2151.65,1409.66 2152.16,1409.14 2152.67,1408.61 2153.18,1408.07 2153.69,1407.5 2154.2,1406.91 2154.7,1406.31 2155.21,1405.68 2155.72,1405.04 2156.23,1404.39 2156.74,1403.72 2157.25,1403.05 2157.76,1402.37 2158.27,1401.68 2158.78,1401 2159.29,1400.32 2159.8,1399.65 2160.31,1398.98 2160.81,1398.31 2161.32,1397.62 2161.83,1396.92 2162.34,1396.2 2162.85,1395.47 2163.36,1394.72 2163.87,1393.94 2164.38,1393.15 2164.89,1392.34 2165.4,1391.53 2165.91,1390.72 2166.42,1389.93 2166.92,1389.14 2167.43,1388.35 2167.94,1387.55 2168.45,1386.74 2168.96,1385.93 2169.47,1385.11 2169.98,1384.28 2170.49,1383.45 2171,1382.63 2171.51,1381.8 2172.02,1380.99 2172.53,1380.18 2173.03,1379.37 2173.54,1378.56 2174.05,1377.74 2174.56,1376.92 2175.07,1376.08 2175.58,1375.23 2176.09,1374.37 2176.6,1373.52 2177.11,1372.67 2177.62,1371.82 2178.13,1370.97 2178.64,1370.11 2179.14,1369.26 2179.65,1368.4 2180.16,1367.55 2180.67,1366.69 2181.18,1365.82 2181.69,1364.93 2182.2,1364.02 2182.71,1363.09 2183.22,1362.16 2183.73,1361.22 2184.24,1360.26 2184.75,1359.29 2185.25,1358.31 2185.76,1357.32 2186.27,1356.33 2186.78,1355.32 2187.29,1354.31 2187.8,1353.31 2188.31,1352.3 2188.82,1351.3 2189.33,1350.3 2189.84,1349.3 2190.35,1348.29 2190.86,1347.27 2191.36,1346.26 2191.87,1345.25 2192.38,1344.24 2192.89,1343.23 2193.4,1342.21 2193.91,1341.19 2194.42,1340.17 2194.93,1339.15 2195.44,1338.12 2195.95,1337.09 2196.46,1336.06 2196.97,1335.03 2197.47,1334.01 2197.98,1332.99 2198.49,1331.97 2199,1330.96 2199.51,1329.95 2200.02,1328.94 2200.53,1327.92 2201.04,1326.88 2201.55,1325.83 2202.06,1324.77 2202.57,1323.7 2203.08,1322.64 2203.58,1321.57 2204.09,1320.49 2204.6,1319.41 2205.11,1318.33 2205.62,1317.23 2206.13,1316.13 2206.64,1315.02 2207.15,1313.89 2207.66,1312.75 2208.17,1311.59 2208.68,1310.43 2209.19,1309.26 2209.69,1308.09 2210.2,1306.94 2210.71,1305.81 2211.22,1304.7 2211.73,1303.6 2212.24,1302.51 2212.75,1301.43 2213.26,1300.36 2213.77,1299.27 2214.28,1298.18 2214.79,1297.08 2215.3,1295.97 2215.8,1294.84 2216.31,1293.72 2216.82,1292.61 2217.33,1291.51 2217.84,1290.44 2218.35,1289.37 2218.86,1288.31 2219.37,1287.25 2219.88,1286.2 2220.39,1285.16 2220.9,1284.11 2221.41,1283.07 2221.91,1282.02 2222.42,1280.96 2222.93,1279.9 2223.44,1278.84 2223.95,1277.78 2224.46,1276.71 2224.97,1275.64 2225.48,1274.56 2225.99,1273.47 2226.5,1272.38 2227.01,1271.27 2227.52,1270.14 2228.02,1269 2228.53,1267.85 2229.04,1266.68 2229.55,1265.5 2230.06,1264.31 2230.57,1263.09 2231.08,1261.86 2231.59,1260.61 2232.1,1259.35 2232.61,1258.09 2233.12,1256.84 2233.63,1255.6 2234.13,1254.36 2234.64,1253.14 2235.15,1251.94 2235.66,1250.77 2236.17,1249.63 2236.68,1248.5 2237.19,1247.38 2237.7,1246.28 2238.21,1245.17 2238.72,1244.05 2239.23,1242.94 2239.74,1241.82 2240.24,1240.68 2240.75,1239.52 2241.26,1238.33 2241.77,1237.13 2242.28,1235.91 2242.79,1234.7 2243.3,1233.49 2243.81,1232.29 2244.32,1231.1 2244.83,1229.91 2245.34,1228.73 2245.85,1227.55 2246.36,1226.37 2246.86,1225.2 2247.37,1224.03 2247.88,1222.86 2248.39,1221.71 2248.9,1220.56 2249.41,1219.42 2249.92,1218.29 2250.43,1217.16 2250.94,1216.05 2251.45,1214.94 2251.96,1213.83 2252.47,1212.72 2252.97,1211.61 2253.48,1210.51 2253.99,1209.41 2254.5,1208.31 2255.01,1207.22 2255.52,1206.12 2256.03,1205.04 2256.54,1203.95 2257.05,1202.86 2257.56,1201.78 2258.07,1200.68 2258.58,1199.59 2259.08,1198.48 2259.59,1197.37 2260.1,1196.25 2260.61,1195.13 2261.12,1194 2261.63,1192.86 2262.14,1191.72 2262.65,1190.57 2263.16,1189.41 2263.67,1188.22 2264.18,1187.02 2264.69,1185.81 2265.19,1184.59 2265.7,1183.37 2266.21,1182.15 2266.72,1180.95 2267.23,1179.75 2267.74,1178.55 2268.25,1177.33 2268.76,1176.09 2269.27,1174.84 2269.78,1173.58 2270.29,1172.31 2270.8,1171.05 2271.3,1169.79 2271.81,1168.53 2272.32,1167.28 2272.83,1166.04 2273.34,1164.81 2273.85,1163.59 2274.36,1162.38 2274.87,1161.18 2275.38,1159.98 2275.89,1158.78 2276.4,1157.58 2276.91,1156.37 2277.41,1155.15 2277.92,1153.92 2278.43,1152.68 2278.94,1151.44 2279.45,1150.19 2279.96,1148.93 2280.47,1147.68 2280.98,1146.41 2281.49,1145.14 2282,1143.86 2282.51,1142.57 2283.02,1141.27 2283.52,1139.97 2284.03,1138.66 2284.54,1137.36 2285.05,1136.06 2285.56,1134.78 2286.07,1133.49 2286.58,1132.2 2287.09,1130.91 2287.6,1129.62 2288.11,1128.32 2288.62,1127.03 2289.13,1125.73 2289.63,1124.43 2290.14,1123.13 2290.65,1121.82 2291.16,1120.5 2291.67,1119.17 "/>
<polyline clip-path="url(#clip992)" style="stroke:#000000; stroke-linecap:round; stroke-linejoin:round; stroke-width:8; stroke-opacity:1; fill:none" points="-1963.91,999.818 4511.09,999.818 "/>
</svg>
