<?xml version="1.0" encoding="utf-8"?>
<svg xmlns="http://www.w3.org/2000/svg" xmlns:xlink="http://www.w3.org/1999/xlink" width="600" height="400" viewBox="0 0 2400 1600">
<defs>
  <clipPath id="clip130">
    <rect x="0" y="0" width="2400" height="1600"/>
  </clipPath>
</defs>
<path clip-path="url(#clip130)" d="M0 1600 L2400 1600 L2400 0 L0 0  Z" fill="#ffffff" fill-rule="evenodd" fill-opacity="1"/>
<defs>
  <clipPath id="clip131">
    <rect x="480" y="0" width="1681" height="1600"/>
  </clipPath>
</defs>
<path clip-path="url(#clip130)" d="M249.542 1423.18 L2352.76 1423.18 L2352.76 123.472 L249.542 123.472  Z" fill="#ffffff" fill-rule="evenodd" fill-opacity="1"/>
<defs>
  <clipPath id="clip132">
    <rect x="249" y="123" width="2104" height="1301"/>
  </clipPath>
</defs>
<polyline clip-path="url(#clip132)" style="stroke:#000000; stroke-linecap:round; stroke-linejoin:round; stroke-width:2; stroke-opacity:0.1; fill:none" points="309.067,1423.18 309.067,123.472 "/>
<polyline clip-path="url(#clip132)" style="stroke:#000000; stroke-linecap:round; stroke-linejoin:round; stroke-width:2; stroke-opacity:0.1; fill:none" points="805.108,1423.18 805.108,123.472 "/>
<polyline clip-path="url(#clip132)" style="stroke:#000000; stroke-linecap:round; stroke-linejoin:round; stroke-width:2; stroke-opacity:0.1; fill:none" points="1301.15,1423.18 1301.15,123.472 "/>
<polyline clip-path="url(#clip132)" style="stroke:#000000; stroke-linecap:round; stroke-linejoin:round; stroke-width:2; stroke-opacity:0.1; fill:none" points="1797.19,1423.18 1797.19,123.472 "/>
<polyline clip-path="url(#clip132)" style="stroke:#000000; stroke-linecap:round; stroke-linejoin:round; stroke-width:2; stroke-opacity:0.1; fill:none" points="2293.23,1423.18 2293.23,123.472 "/>
<polyline clip-path="url(#clip132)" style="stroke:#000000; stroke-linecap:round; stroke-linejoin:round; stroke-width:2; stroke-opacity:0.1; fill:none" points="249.542,1195.88 2352.76,1195.88 "/>
<polyline clip-path="url(#clip132)" style="stroke:#000000; stroke-linecap:round; stroke-linejoin:round; stroke-width:2; stroke-opacity:0.1; fill:none" points="249.542,936.971 2352.76,936.971 "/>
<polyline clip-path="url(#clip132)" style="stroke:#000000; stroke-linecap:round; stroke-linejoin:round; stroke-width:2; stroke-opacity:0.1; fill:none" points="249.542,678.066 2352.76,678.066 "/>
<polyline clip-path="url(#clip132)" style="stroke:#000000; stroke-linecap:round; stroke-linejoin:round; stroke-width:2; stroke-opacity:0.1; fill:none" points="249.542,419.161 2352.76,419.161 "/>
<polyline clip-path="url(#clip132)" style="stroke:#000000; stroke-linecap:round; stroke-linejoin:round; stroke-width:2; stroke-opacity:0.1; fill:none" points="249.542,160.256 2352.76,160.256 "/>
<polyline clip-path="url(#clip130)" style="stroke:#000000; stroke-linecap:round; stroke-linejoin:round; stroke-width:4; stroke-opacity:1; fill:none" points="249.542,1423.18 2352.76,1423.18 "/>
<polyline clip-path="url(#clip130)" style="stroke:#000000; stroke-linecap:round; stroke-linejoin:round; stroke-width:4; stroke-opacity:1; fill:none" points="309.067,1423.18 309.067,1404.28 "/>
<polyline clip-path="url(#clip130)" style="stroke:#000000; stroke-linecap:round; stroke-linejoin:round; stroke-width:4; stroke-opacity:1; fill:none" points="805.108,1423.18 805.108,1404.28 "/>
<polyline clip-path="url(#clip130)" style="stroke:#000000; stroke-linecap:round; stroke-linejoin:round; stroke-width:4; stroke-opacity:1; fill:none" points="1301.15,1423.18 1301.15,1404.28 "/>
<polyline clip-path="url(#clip130)" style="stroke:#000000; stroke-linecap:round; stroke-linejoin:round; stroke-width:4; stroke-opacity:1; fill:none" points="1797.19,1423.18 1797.19,1404.28 "/>
<polyline clip-path="url(#clip130)" style="stroke:#000000; stroke-linecap:round; stroke-linejoin:round; stroke-width:4; stroke-opacity:1; fill:none" points="2293.23,1423.18 2293.23,1404.28 "/>
<path clip-path="url(#clip130)" d="M286.451 1454.1 Q282.84 1454.1 281.012 1457.66 Q279.206 1461.2 279.206 1468.33 Q279.206 1475.44 281.012 1479.01 Q282.84 1482.55 286.451 1482.55 Q290.086 1482.55 291.891 1479.01 Q293.72 1475.44 293.72 1468.33 Q293.72 1461.2 291.891 1457.66 Q290.086 1454.1 286.451 1454.1 M286.451 1450.39 Q292.261 1450.39 295.317 1455 Q298.396 1459.58 298.396 1468.33 Q298.396 1477.06 295.317 1481.67 Q292.261 1486.25 286.451 1486.25 Q280.641 1486.25 277.562 1481.67 Q274.507 1477.06 274.507 1468.33 Q274.507 1459.58 277.562 1455 Q280.641 1450.39 286.451 1450.39 Z" fill="#000000" fill-rule="nonzero" fill-opacity="1" /><path clip-path="url(#clip130)" d="M306.613 1479.7 L311.497 1479.7 L311.497 1485.58 L306.613 1485.58 L306.613 1479.7 Z" fill="#000000" fill-rule="nonzero" fill-opacity="1" /><path clip-path="url(#clip130)" d="M331.683 1454.1 Q328.071 1454.1 326.243 1457.66 Q324.437 1461.2 324.437 1468.33 Q324.437 1475.44 326.243 1479.01 Q328.071 1482.55 331.683 1482.55 Q335.317 1482.55 337.122 1479.01 Q338.951 1475.44 338.951 1468.33 Q338.951 1461.2 337.122 1457.66 Q335.317 1454.1 331.683 1454.1 M331.683 1450.39 Q337.493 1450.39 340.548 1455 Q343.627 1459.58 343.627 1468.33 Q343.627 1477.06 340.548 1481.67 Q337.493 1486.25 331.683 1486.25 Q325.872 1486.25 322.794 1481.67 Q319.738 1477.06 319.738 1468.33 Q319.738 1459.58 322.794 1455 Q325.872 1450.39 331.683 1450.39 Z" fill="#000000" fill-rule="nonzero" fill-opacity="1" /><path clip-path="url(#clip130)" d="M776.844 1481.64 L793.164 1481.64 L793.164 1485.58 L771.219 1485.58 L771.219 1481.64 Q773.881 1478.89 778.465 1474.26 Q783.071 1469.61 784.252 1468.27 Q786.497 1465.74 787.377 1464.01 Q788.279 1462.25 788.279 1460.56 Q788.279 1457.8 786.335 1456.07 Q784.414 1454.33 781.312 1454.33 Q779.113 1454.33 776.659 1455.09 Q774.228 1455.86 771.451 1457.41 L771.451 1452.69 Q774.275 1451.55 776.728 1450.97 Q779.182 1450.39 781.219 1450.39 Q786.59 1450.39 789.784 1453.08 Q792.978 1455.77 792.978 1460.26 Q792.978 1462.39 792.168 1464.31 Q791.381 1466.2 789.275 1468.8 Q788.696 1469.47 785.594 1472.69 Q782.492 1475.88 776.844 1481.64 Z" fill="#000000" fill-rule="nonzero" fill-opacity="1" /><path clip-path="url(#clip130)" d="M802.978 1479.7 L807.863 1479.7 L807.863 1485.58 L802.978 1485.58 L802.978 1479.7 Z" fill="#000000" fill-rule="nonzero" fill-opacity="1" /><path clip-path="url(#clip130)" d="M818.094 1451.02 L836.45 1451.02 L836.45 1454.96 L822.376 1454.96 L822.376 1463.43 Q823.395 1463.08 824.413 1462.92 Q825.432 1462.73 826.45 1462.73 Q832.237 1462.73 835.617 1465.9 Q838.997 1469.08 838.997 1474.49 Q838.997 1480.07 835.524 1483.17 Q832.052 1486.25 825.733 1486.25 Q823.557 1486.25 821.288 1485.88 Q819.043 1485.51 816.636 1484.77 L816.636 1480.07 Q818.719 1481.2 820.941 1481.76 Q823.163 1482.32 825.64 1482.32 Q829.645 1482.32 831.983 1480.21 Q834.321 1478.1 834.321 1474.49 Q834.321 1470.88 831.983 1468.77 Q829.645 1466.67 825.64 1466.67 Q823.765 1466.67 821.89 1467.08 Q820.038 1467.5 818.094 1468.38 L818.094 1451.02 Z" fill="#000000" fill-rule="nonzero" fill-opacity="1" /><path clip-path="url(#clip130)" d="M1268.31 1451.02 L1286.67 1451.02 L1286.67 1454.96 L1272.6 1454.96 L1272.6 1463.43 Q1273.61 1463.08 1274.63 1462.92 Q1275.65 1462.73 1276.67 1462.73 Q1282.46 1462.73 1285.84 1465.9 Q1289.22 1469.08 1289.22 1474.49 Q1289.22 1480.07 1285.74 1483.17 Q1282.27 1486.25 1275.95 1486.25 Q1273.78 1486.25 1271.51 1485.88 Q1269.26 1485.51 1266.86 1484.77 L1266.86 1480.07 Q1268.94 1481.2 1271.16 1481.76 Q1273.38 1482.32 1275.86 1482.32 Q1279.86 1482.32 1282.2 1480.21 Q1284.54 1478.1 1284.54 1474.49 Q1284.54 1470.88 1282.2 1468.77 Q1279.86 1466.67 1275.86 1466.67 Q1273.98 1466.67 1272.11 1467.08 Q1270.26 1467.5 1268.31 1468.38 L1268.31 1451.02 Z" fill="#000000" fill-rule="nonzero" fill-opacity="1" /><path clip-path="url(#clip130)" d="M1298.43 1479.7 L1303.31 1479.7 L1303.31 1485.58 L1298.43 1485.58 L1298.43 1479.7 Z" fill="#000000" fill-rule="nonzero" fill-opacity="1" /><path clip-path="url(#clip130)" d="M1323.5 1454.1 Q1319.89 1454.1 1318.06 1457.66 Q1316.25 1461.2 1316.25 1468.33 Q1316.25 1475.44 1318.06 1479.01 Q1319.89 1482.55 1323.5 1482.55 Q1327.13 1482.55 1328.94 1479.01 Q1330.77 1475.44 1330.77 1468.33 Q1330.77 1461.2 1328.94 1457.66 Q1327.13 1454.1 1323.5 1454.1 M1323.5 1450.39 Q1329.31 1450.39 1332.36 1455 Q1335.44 1459.58 1335.44 1468.33 Q1335.44 1477.06 1332.36 1481.67 Q1329.31 1486.25 1323.5 1486.25 Q1317.69 1486.25 1314.61 1481.67 Q1311.55 1477.06 1311.55 1468.33 Q1311.55 1459.58 1314.61 1455 Q1317.69 1450.39 1323.5 1450.39 Z" fill="#000000" fill-rule="nonzero" fill-opacity="1" /><path clip-path="url(#clip130)" d="M1763.51 1451.02 L1785.73 1451.02 L1785.73 1453.01 L1773.19 1485.58 L1768.3 1485.58 L1780.11 1454.96 L1763.51 1454.96 L1763.51 1451.02 Z" fill="#000000" fill-rule="nonzero" fill-opacity="1" /><path clip-path="url(#clip130)" d="M1794.85 1479.7 L1799.74 1479.7 L1799.74 1485.58 L1794.85 1485.58 L1794.85 1479.7 Z" fill="#000000" fill-rule="nonzero" fill-opacity="1" /><path clip-path="url(#clip130)" d="M1809.97 1451.02 L1828.32 1451.02 L1828.32 1454.96 L1814.25 1454.96 L1814.25 1463.43 Q1815.27 1463.08 1816.29 1462.92 Q1817.31 1462.73 1818.32 1462.73 Q1824.11 1462.73 1827.49 1465.9 Q1830.87 1469.08 1830.87 1474.49 Q1830.87 1480.07 1827.4 1483.17 Q1823.93 1486.25 1817.61 1486.25 Q1815.43 1486.25 1813.16 1485.88 Q1810.92 1485.51 1808.51 1484.77 L1808.51 1480.07 Q1810.59 1481.2 1812.81 1481.76 Q1815.04 1482.32 1817.51 1482.32 Q1821.52 1482.32 1823.86 1480.21 Q1826.19 1478.1 1826.19 1474.49 Q1826.19 1470.88 1823.86 1468.77 Q1821.52 1466.67 1817.51 1466.67 Q1815.64 1466.67 1813.76 1467.08 Q1811.91 1467.5 1809.97 1468.38 L1809.97 1451.02 Z" fill="#000000" fill-rule="nonzero" fill-opacity="1" /><path clip-path="url(#clip130)" d="M2245.3 1481.64 L2252.94 1481.64 L2252.94 1455.28 L2244.63 1456.95 L2244.63 1452.69 L2252.9 1451.02 L2257.57 1451.02 L2257.57 1481.64 L2265.21 1481.64 L2265.21 1485.58 L2245.3 1485.58 L2245.3 1481.64 Z" fill="#000000" fill-rule="nonzero" fill-opacity="1" /><path clip-path="url(#clip130)" d="M2284.65 1454.1 Q2281.04 1454.1 2279.21 1457.66 Q2277.41 1461.2 2277.41 1468.33 Q2277.41 1475.44 2279.21 1479.01 Q2281.04 1482.55 2284.65 1482.55 Q2288.29 1482.55 2290.09 1479.01 Q2291.92 1475.44 2291.92 1468.33 Q2291.92 1461.2 2290.09 1457.66 Q2288.29 1454.1 2284.65 1454.1 M2284.65 1450.39 Q2290.46 1450.39 2293.52 1455 Q2296.6 1459.58 2296.6 1468.33 Q2296.6 1477.06 2293.52 1481.67 Q2290.46 1486.25 2284.65 1486.25 Q2278.84 1486.25 2275.77 1481.67 Q2272.71 1477.06 2272.71 1468.33 Q2272.71 1459.58 2275.77 1455 Q2278.84 1450.39 2284.65 1450.39 Z" fill="#000000" fill-rule="nonzero" fill-opacity="1" /><path clip-path="url(#clip130)" d="M2304.82 1479.7 L2309.7 1479.7 L2309.7 1485.58 L2304.82 1485.58 L2304.82 1479.7 Z" fill="#000000" fill-rule="nonzero" fill-opacity="1" /><path clip-path="url(#clip130)" d="M2329.89 1454.1 Q2326.27 1454.1 2324.45 1457.66 Q2322.64 1461.2 2322.64 1468.33 Q2322.64 1475.44 2324.45 1479.01 Q2326.27 1482.55 2329.89 1482.55 Q2333.52 1482.55 2335.33 1479.01 Q2337.15 1475.44 2337.15 1468.33 Q2337.15 1461.2 2335.33 1457.66 Q2333.52 1454.1 2329.89 1454.1 M2329.89 1450.39 Q2335.7 1450.39 2338.75 1455 Q2341.83 1459.58 2341.83 1468.33 Q2341.83 1477.06 2338.75 1481.67 Q2335.7 1486.25 2329.89 1486.25 Q2324.08 1486.25 2321 1481.67 Q2317.94 1477.06 2317.94 1468.33 Q2317.94 1459.58 2321 1455 Q2324.08 1450.39 2329.89 1450.39 Z" fill="#000000" fill-rule="nonzero" fill-opacity="1" /><path clip-path="url(#clip130)" d="M1195.56 1520.52 L1201.99 1520.52 L1201.99 1562.63 L1225.13 1562.63 L1225.13 1568.04 L1195.56 1568.04 L1195.56 1520.52 Z" fill="#000000" fill-rule="nonzero" fill-opacity="1" /><path clip-path="url(#clip130)" d="M1247.82 1550.12 Q1240.72 1550.12 1237.99 1551.75 Q1235.25 1553.37 1235.25 1557.29 Q1235.25 1560.4 1237.29 1562.25 Q1239.35 1564.07 1242.89 1564.07 Q1247.76 1564.07 1250.68 1560.63 Q1253.64 1557.16 1253.64 1551.43 L1253.64 1550.12 L1247.82 1550.12 M1259.5 1547.71 L1259.5 1568.04 L1253.64 1568.04 L1253.64 1562.63 Q1251.64 1565.88 1248.65 1567.44 Q1245.66 1568.97 1241.33 1568.97 Q1235.85 1568.97 1232.61 1565.91 Q1229.39 1562.82 1229.39 1557.67 Q1229.39 1551.65 1233.4 1548.6 Q1237.44 1545.54 1245.43 1545.54 L1253.64 1545.54 L1253.64 1544.97 Q1253.64 1540.93 1250.97 1538.73 Q1248.33 1536.5 1243.52 1536.5 Q1240.47 1536.5 1237.57 1537.23 Q1234.68 1537.97 1232 1539.43 L1232 1534.02 Q1235.22 1532.78 1238.24 1532.17 Q1241.26 1531.54 1244.13 1531.54 Q1251.86 1531.54 1255.68 1535.55 Q1259.5 1539.56 1259.5 1547.71 Z" fill="#000000" fill-rule="nonzero" fill-opacity="1" /><path clip-path="url(#clip130)" d="M1295.02 1549.81 Q1295.02 1543.44 1292.38 1539.94 Q1289.77 1536.44 1285.03 1536.44 Q1280.32 1536.44 1277.68 1539.94 Q1275.07 1543.44 1275.07 1549.81 Q1275.07 1556.14 1277.68 1559.64 Q1280.32 1563.14 1285.03 1563.14 Q1289.77 1563.14 1292.38 1559.64 Q1295.02 1556.14 1295.02 1549.81 M1300.88 1563.62 Q1300.88 1572.72 1296.84 1577.15 Q1292.79 1581.6 1284.45 1581.6 Q1281.37 1581.6 1278.63 1581.13 Q1275.89 1580.68 1273.31 1579.72 L1273.31 1574.03 Q1275.89 1575.43 1278.41 1576.1 Q1280.92 1576.76 1283.53 1576.76 Q1289.29 1576.76 1292.16 1573.74 Q1295.02 1570.75 1295.02 1564.67 L1295.02 1561.77 Q1293.21 1564.92 1290.38 1566.48 Q1287.54 1568.04 1283.6 1568.04 Q1277.04 1568.04 1273.03 1563.05 Q1269.02 1558.05 1269.02 1549.81 Q1269.02 1541.53 1273.03 1536.53 Q1277.04 1531.54 1283.6 1531.54 Q1287.54 1531.54 1290.38 1533.1 Q1293.21 1534.66 1295.02 1537.81 L1295.02 1532.4 L1300.88 1532.4 L1300.88 1563.62 Z" fill="#000000" fill-rule="nonzero" fill-opacity="1" /><path clip-path="url(#clip130)" d="M1347.73 1518.58 Q1343.47 1525.9 1341.4 1533.06 Q1339.33 1540.23 1339.33 1547.58 Q1339.33 1554.93 1341.4 1562.16 Q1343.5 1569.35 1347.73 1576.64 L1342.64 1576.64 Q1337.86 1569.16 1335.48 1561.93 Q1333.12 1554.71 1333.12 1547.58 Q1333.12 1540.48 1335.48 1533.29 Q1337.83 1526.09 1342.64 1518.58 L1347.73 1518.58 Z" fill="#000000" fill-rule="nonzero" fill-opacity="1" /><path clip-path="url(#clip130)" d="M1381.82 1533.45 L1381.82 1538.98 Q1379.34 1537.71 1376.66 1537.07 Q1373.99 1536.44 1371.12 1536.44 Q1366.76 1536.44 1364.57 1537.77 Q1362.4 1539.11 1362.4 1541.79 Q1362.4 1543.82 1363.96 1545 Q1365.52 1546.15 1370.23 1547.2 L1372.24 1547.64 Q1378.48 1548.98 1381.09 1551.43 Q1383.73 1553.85 1383.73 1558.21 Q1383.73 1563.17 1379.78 1566.07 Q1375.87 1568.97 1368.99 1568.97 Q1366.13 1568.97 1363.01 1568.39 Q1359.92 1567.85 1356.48 1566.74 L1356.48 1560.69 Q1359.73 1562.38 1362.88 1563.24 Q1366.03 1564.07 1369.12 1564.07 Q1373.26 1564.07 1375.48 1562.66 Q1377.71 1561.23 1377.71 1558.65 Q1377.71 1556.27 1376.09 1554.99 Q1374.5 1553.72 1369.06 1552.54 L1367.02 1552.07 Q1361.58 1550.92 1359.16 1548.56 Q1356.74 1546.18 1356.74 1542.04 Q1356.74 1537.01 1360.3 1534.27 Q1363.87 1531.54 1370.42 1531.54 Q1373.67 1531.54 1376.53 1532.01 Q1379.4 1532.49 1381.82 1533.45 Z" fill="#000000" fill-rule="nonzero" fill-opacity="1" /><path clip-path="url(#clip130)" d="M1392.13 1518.58 L1397.22 1518.58 Q1402 1526.09 1404.35 1533.29 Q1406.74 1540.48 1406.74 1547.58 Q1406.74 1554.71 1404.35 1561.93 Q1402 1569.16 1397.22 1576.64 L1392.13 1576.64 Q1396.36 1569.35 1398.43 1562.16 Q1400.53 1554.93 1400.53 1547.58 Q1400.53 1540.23 1398.43 1533.06 Q1396.36 1525.9 1392.13 1518.58 Z" fill="#000000" fill-rule="nonzero" fill-opacity="1" /><polyline clip-path="url(#clip130)" style="stroke:#000000; stroke-linecap:round; stroke-linejoin:round; stroke-width:4; stroke-opacity:1; fill:none" points="249.542,1423.18 249.542,123.472 "/>
<polyline clip-path="url(#clip130)" style="stroke:#000000; stroke-linecap:round; stroke-linejoin:round; stroke-width:4; stroke-opacity:1; fill:none" points="249.542,1195.88 268.44,1195.88 "/>
<polyline clip-path="url(#clip130)" style="stroke:#000000; stroke-linecap:round; stroke-linejoin:round; stroke-width:4; stroke-opacity:1; fill:none" points="249.542,936.971 268.44,936.971 "/>
<polyline clip-path="url(#clip130)" style="stroke:#000000; stroke-linecap:round; stroke-linejoin:round; stroke-width:4; stroke-opacity:1; fill:none" points="249.542,678.066 268.44,678.066 "/>
<polyline clip-path="url(#clip130)" style="stroke:#000000; stroke-linecap:round; stroke-linejoin:round; stroke-width:4; stroke-opacity:1; fill:none" points="249.542,419.161 268.44,419.161 "/>
<polyline clip-path="url(#clip130)" style="stroke:#000000; stroke-linecap:round; stroke-linejoin:round; stroke-width:4; stroke-opacity:1; fill:none" points="249.542,160.256 268.44,160.256 "/>
<path clip-path="url(#clip130)" d="M126.205 1181.67 Q122.593 1181.67 120.765 1185.24 Q118.959 1188.78 118.959 1195.91 Q118.959 1203.02 120.765 1206.58 Q122.593 1210.12 126.205 1210.12 Q129.839 1210.12 131.644 1206.58 Q133.473 1203.02 133.473 1195.91 Q133.473 1188.78 131.644 1185.24 Q129.839 1181.67 126.205 1181.67 M126.205 1177.97 Q132.015 1177.97 135.07 1182.58 Q138.149 1187.16 138.149 1195.91 Q138.149 1204.64 135.07 1209.24 Q132.015 1213.83 126.205 1213.83 Q120.394 1213.83 117.316 1209.24 Q114.26 1204.64 114.26 1195.91 Q114.26 1187.16 117.316 1182.58 Q120.394 1177.97 126.205 1177.97 Z" fill="#000000" fill-rule="nonzero" fill-opacity="1" /><path clip-path="url(#clip130)" d="M146.366 1207.28 L151.251 1207.28 L151.251 1213.16 L146.366 1213.16 L146.366 1207.28 Z" fill="#000000" fill-rule="nonzero" fill-opacity="1" /><path clip-path="url(#clip130)" d="M171.436 1181.67 Q167.825 1181.67 165.996 1185.24 Q164.19 1188.78 164.19 1195.91 Q164.19 1203.02 165.996 1206.58 Q167.825 1210.12 171.436 1210.12 Q175.07 1210.12 176.876 1206.58 Q178.704 1203.02 178.704 1195.91 Q178.704 1188.78 176.876 1185.24 Q175.07 1181.67 171.436 1181.67 M171.436 1177.97 Q177.246 1177.97 180.301 1182.58 Q183.38 1187.16 183.38 1195.91 Q183.38 1204.64 180.301 1209.24 Q177.246 1213.83 171.436 1213.83 Q165.626 1213.83 162.547 1209.24 Q159.491 1204.64 159.491 1195.91 Q159.491 1187.16 162.547 1182.58 Q165.626 1177.97 171.436 1177.97 Z" fill="#000000" fill-rule="nonzero" fill-opacity="1" /><path clip-path="url(#clip130)" d="M201.598 1181.67 Q197.987 1181.67 196.158 1185.24 Q194.352 1188.78 194.352 1195.91 Q194.352 1203.02 196.158 1206.58 Q197.987 1210.12 201.598 1210.12 Q205.232 1210.12 207.037 1206.58 Q208.866 1203.02 208.866 1195.91 Q208.866 1188.78 207.037 1185.24 Q205.232 1181.67 201.598 1181.67 M201.598 1177.97 Q207.408 1177.97 210.463 1182.58 Q213.542 1187.16 213.542 1195.91 Q213.542 1204.64 210.463 1209.24 Q207.408 1213.83 201.598 1213.83 Q195.787 1213.83 192.709 1209.24 Q189.653 1204.64 189.653 1195.91 Q189.653 1187.16 192.709 1182.58 Q195.787 1177.97 201.598 1177.97 Z" fill="#000000" fill-rule="nonzero" fill-opacity="1" /><path clip-path="url(#clip130)" d="M127.2 922.769 Q123.589 922.769 121.76 926.334 Q119.955 929.876 119.955 937.005 Q119.955 944.112 121.76 947.676 Q123.589 951.218 127.2 951.218 Q130.834 951.218 132.64 947.676 Q134.468 944.112 134.468 937.005 Q134.468 929.876 132.64 926.334 Q130.834 922.769 127.2 922.769 M127.2 919.066 Q133.01 919.066 136.066 923.672 Q139.144 928.255 139.144 937.005 Q139.144 945.732 136.066 950.339 Q133.01 954.922 127.2 954.922 Q121.39 954.922 118.311 950.339 Q115.256 945.732 115.256 937.005 Q115.256 928.255 118.311 923.672 Q121.39 919.066 127.2 919.066 Z" fill="#000000" fill-rule="nonzero" fill-opacity="1" /><path clip-path="url(#clip130)" d="M147.362 948.371 L152.246 948.371 L152.246 954.251 L147.362 954.251 L147.362 948.371 Z" fill="#000000" fill-rule="nonzero" fill-opacity="1" /><path clip-path="url(#clip130)" d="M166.459 950.315 L182.778 950.315 L182.778 954.251 L160.834 954.251 L160.834 950.315 Q163.496 947.561 168.079 942.931 Q172.686 938.278 173.866 936.936 Q176.112 934.413 176.991 932.677 Q177.894 930.917 177.894 929.228 Q177.894 926.473 175.95 924.737 Q174.028 923.001 170.927 923.001 Q168.727 923.001 166.274 923.765 Q163.843 924.528 161.065 926.079 L161.065 921.357 Q163.89 920.223 166.343 919.644 Q168.797 919.066 170.834 919.066 Q176.204 919.066 179.399 921.751 Q182.593 924.436 182.593 928.927 Q182.593 931.056 181.783 932.977 Q180.996 934.876 178.889 937.468 Q178.311 938.139 175.209 941.357 Q172.107 944.552 166.459 950.315 Z" fill="#000000" fill-rule="nonzero" fill-opacity="1" /><path clip-path="url(#clip130)" d="M192.639 919.691 L210.996 919.691 L210.996 923.626 L196.922 923.626 L196.922 932.098 Q197.94 931.751 198.959 931.589 Q199.977 931.403 200.996 931.403 Q206.783 931.403 210.162 934.575 Q213.542 937.746 213.542 943.163 Q213.542 948.741 210.07 951.843 Q206.598 954.922 200.278 954.922 Q198.102 954.922 195.834 954.551 Q193.588 954.181 191.181 953.44 L191.181 948.741 Q193.264 949.876 195.487 950.431 Q197.709 950.987 200.186 950.987 Q204.19 950.987 206.528 948.88 Q208.866 946.774 208.866 943.163 Q208.866 939.552 206.528 937.445 Q204.19 935.339 200.186 935.339 Q198.311 935.339 196.436 935.755 Q194.584 936.172 192.639 937.052 L192.639 919.691 Z" fill="#000000" fill-rule="nonzero" fill-opacity="1" /><path clip-path="url(#clip130)" d="M126.205 663.864 Q122.593 663.864 120.765 667.429 Q118.959 670.971 118.959 678.101 Q118.959 685.207 120.765 688.772 Q122.593 692.313 126.205 692.313 Q129.839 692.313 131.644 688.772 Q133.473 685.207 133.473 678.101 Q133.473 670.971 131.644 667.429 Q129.839 663.864 126.205 663.864 M126.205 660.161 Q132.015 660.161 135.07 664.767 Q138.149 669.351 138.149 678.101 Q138.149 686.827 135.07 691.434 Q132.015 696.017 126.205 696.017 Q120.394 696.017 117.316 691.434 Q114.26 686.827 114.26 678.101 Q114.26 669.351 117.316 664.767 Q120.394 660.161 126.205 660.161 Z" fill="#000000" fill-rule="nonzero" fill-opacity="1" /><path clip-path="url(#clip130)" d="M146.366 689.466 L151.251 689.466 L151.251 695.346 L146.366 695.346 L146.366 689.466 Z" fill="#000000" fill-rule="nonzero" fill-opacity="1" /><path clip-path="url(#clip130)" d="M161.482 660.786 L179.839 660.786 L179.839 664.721 L165.765 664.721 L165.765 673.193 Q166.783 672.846 167.802 672.684 Q168.82 672.499 169.839 672.499 Q175.626 672.499 179.005 675.67 Q182.385 678.841 182.385 684.258 Q182.385 689.837 178.913 692.938 Q175.44 696.017 169.121 696.017 Q166.945 696.017 164.677 695.647 Q162.431 695.276 160.024 694.536 L160.024 689.837 Q162.107 690.971 164.329 691.526 Q166.552 692.082 169.028 692.082 Q173.033 692.082 175.371 689.975 Q177.709 687.869 177.709 684.258 Q177.709 680.647 175.371 678.54 Q173.033 676.434 169.028 676.434 Q167.153 676.434 165.278 676.851 Q163.427 677.267 161.482 678.147 L161.482 660.786 Z" fill="#000000" fill-rule="nonzero" fill-opacity="1" /><path clip-path="url(#clip130)" d="M201.598 663.864 Q197.987 663.864 196.158 667.429 Q194.352 670.971 194.352 678.101 Q194.352 685.207 196.158 688.772 Q197.987 692.313 201.598 692.313 Q205.232 692.313 207.037 688.772 Q208.866 685.207 208.866 678.101 Q208.866 670.971 207.037 667.429 Q205.232 663.864 201.598 663.864 M201.598 660.161 Q207.408 660.161 210.463 664.767 Q213.542 669.351 213.542 678.101 Q213.542 686.827 210.463 691.434 Q207.408 696.017 201.598 696.017 Q195.787 696.017 192.709 691.434 Q189.653 686.827 189.653 678.101 Q189.653 669.351 192.709 664.767 Q195.787 660.161 201.598 660.161 Z" fill="#000000" fill-rule="nonzero" fill-opacity="1" /><path clip-path="url(#clip130)" d="M127.2 404.96 Q123.589 404.96 121.76 408.525 Q119.955 412.066 119.955 419.196 Q119.955 426.302 121.76 429.867 Q123.589 433.409 127.2 433.409 Q130.834 433.409 132.64 429.867 Q134.468 426.302 134.468 419.196 Q134.468 412.066 132.64 408.525 Q130.834 404.96 127.2 404.96 M127.2 401.256 Q133.01 401.256 136.066 405.863 Q139.144 410.446 139.144 419.196 Q139.144 427.923 136.066 432.529 Q133.01 437.112 127.2 437.112 Q121.39 437.112 118.311 432.529 Q115.256 427.923 115.256 419.196 Q115.256 410.446 118.311 405.863 Q121.39 401.256 127.2 401.256 Z" fill="#000000" fill-rule="nonzero" fill-opacity="1" /><path clip-path="url(#clip130)" d="M147.362 430.561 L152.246 430.561 L152.246 436.441 L147.362 436.441 L147.362 430.561 Z" fill="#000000" fill-rule="nonzero" fill-opacity="1" /><path clip-path="url(#clip130)" d="M161.251 401.881 L183.473 401.881 L183.473 403.872 L170.927 436.441 L166.042 436.441 L177.848 405.816 L161.251 405.816 L161.251 401.881 Z" fill="#000000" fill-rule="nonzero" fill-opacity="1" /><path clip-path="url(#clip130)" d="M192.639 401.881 L210.996 401.881 L210.996 405.816 L196.922 405.816 L196.922 414.288 Q197.94 413.941 198.959 413.779 Q199.977 413.594 200.996 413.594 Q206.783 413.594 210.162 416.765 Q213.542 419.937 213.542 425.353 Q213.542 430.932 210.07 434.034 Q206.598 437.112 200.278 437.112 Q198.102 437.112 195.834 436.742 Q193.588 436.372 191.181 435.631 L191.181 430.932 Q193.264 432.066 195.487 432.622 Q197.709 433.177 200.186 433.177 Q204.19 433.177 206.528 431.071 Q208.866 428.964 208.866 425.353 Q208.866 421.742 206.528 419.636 Q204.19 417.529 200.186 417.529 Q198.311 417.529 196.436 417.946 Q194.584 418.362 192.639 419.242 L192.639 401.881 Z" fill="#000000" fill-rule="nonzero" fill-opacity="1" /><path clip-path="url(#clip130)" d="M117.015 173.601 L124.654 173.601 L124.654 147.236 L116.343 148.902 L116.343 144.643 L124.607 142.976 L129.283 142.976 L129.283 173.601 L136.922 173.601 L136.922 177.536 L117.015 177.536 L117.015 173.601 Z" fill="#000000" fill-rule="nonzero" fill-opacity="1" /><path clip-path="url(#clip130)" d="M146.366 171.657 L151.251 171.657 L151.251 177.536 L146.366 177.536 L146.366 171.657 Z" fill="#000000" fill-rule="nonzero" fill-opacity="1" /><path clip-path="url(#clip130)" d="M171.436 146.055 Q167.825 146.055 165.996 149.62 Q164.19 153.161 164.19 160.291 Q164.19 167.397 165.996 170.962 Q167.825 174.504 171.436 174.504 Q175.07 174.504 176.876 170.962 Q178.704 167.397 178.704 160.291 Q178.704 153.161 176.876 149.62 Q175.07 146.055 171.436 146.055 M171.436 142.351 Q177.246 142.351 180.301 146.958 Q183.38 151.541 183.38 160.291 Q183.38 169.018 180.301 173.624 Q177.246 178.208 171.436 178.208 Q165.626 178.208 162.547 173.624 Q159.491 169.018 159.491 160.291 Q159.491 151.541 162.547 146.958 Q165.626 142.351 171.436 142.351 Z" fill="#000000" fill-rule="nonzero" fill-opacity="1" /><path clip-path="url(#clip130)" d="M201.598 146.055 Q197.987 146.055 196.158 149.62 Q194.352 153.161 194.352 160.291 Q194.352 167.397 196.158 170.962 Q197.987 174.504 201.598 174.504 Q205.232 174.504 207.037 170.962 Q208.866 167.397 208.866 160.291 Q208.866 153.161 207.037 149.62 Q205.232 146.055 201.598 146.055 M201.598 142.351 Q207.408 142.351 210.463 146.958 Q213.542 151.541 213.542 160.291 Q213.542 169.018 210.463 173.624 Q207.408 178.208 201.598 178.208 Q195.787 178.208 192.709 173.624 Q189.653 169.018 189.653 160.291 Q189.653 151.541 192.709 146.958 Q195.787 142.351 201.598 142.351 Z" fill="#000000" fill-rule="nonzero" fill-opacity="1" /><path clip-path="url(#clip130)" d="M22.818 999.086 L46.4666 1007.81 L46.4666 990.333 L22.818 999.086 M16.4842 1002.71 L16.4842 995.425 L64.0042 977.315 L64.0042 983.999 L51.8138 988.328 L51.8138 1009.75 L64.0042 1014.08 L64.0042 1020.86 L16.4842 1002.71 Z" fill="#000000" fill-rule="nonzero" fill-opacity="1" /><path clip-path="url(#clip130)" d="M49.9359 971.236 L28.3562 971.236 L28.3562 965.379 L49.7131 965.379 Q54.7739 965.379 57.3202 963.406 Q59.8346 961.433 59.8346 957.486 Q59.8346 952.743 56.8109 950.006 Q53.7872 947.237 48.5673 947.237 L28.3562 947.237 L28.3562 941.381 L64.0042 941.381 L64.0042 947.237 L58.5296 947.237 Q61.7762 949.37 63.3676 952.202 Q64.9272 955.003 64.9272 958.727 Q64.9272 964.87 61.1078 968.053 Q57.2883 971.236 49.9359 971.236 M27.4968 956.499 L27.4968 956.499 Z" fill="#000000" fill-rule="nonzero" fill-opacity="1" /><path clip-path="url(#clip130)" d="M18.2347 923.525 L28.3562 923.525 L28.3562 911.462 L32.9077 911.462 L32.9077 923.525 L52.2594 923.525 Q56.6199 923.525 57.8613 922.347 Q59.1026 921.138 59.1026 917.477 L59.1026 911.462 L64.0042 911.462 L64.0042 917.477 Q64.0042 924.257 61.4897 926.835 Q58.9434 929.413 52.2594 929.413 L32.9077 929.413 L32.9077 933.71 L28.3562 933.71 L28.3562 929.413 L18.2347 929.413 L18.2347 923.525 Z" fill="#000000" fill-rule="nonzero" fill-opacity="1" /><path clip-path="url(#clip130)" d="M32.4621 889.946 Q32.4621 894.656 36.1542 897.394 Q39.8145 900.131 46.212 900.131 Q52.6095 900.131 56.3017 897.425 Q59.9619 894.688 59.9619 889.946 Q59.9619 885.267 56.2698 882.53 Q52.5777 879.792 46.212 879.792 Q39.8781 879.792 36.186 882.53 Q32.4621 885.267 32.4621 889.946 M27.4968 889.946 Q27.4968 882.307 32.4621 877.946 Q37.4273 873.586 46.212 873.586 Q54.9649 873.586 59.9619 877.946 Q64.9272 882.307 64.9272 889.946 Q64.9272 897.616 59.9619 901.977 Q54.9649 906.306 46.212 906.306 Q37.4273 906.306 32.4621 901.977 Q27.4968 897.616 27.4968 889.946 Z" fill="#000000" fill-rule="nonzero" fill-opacity="1" /><path clip-path="url(#clip130)" d="M29.7248 838.224 L35.1993 838.224 Q33.8307 840.707 33.1623 843.221 Q32.4621 845.704 32.4621 848.25 Q32.4621 853.948 36.0905 857.099 Q39.6872 860.25 46.212 860.25 Q52.7369 860.25 56.3653 857.099 Q59.9619 853.948 59.9619 848.25 Q59.9619 845.704 59.2935 843.221 Q58.5933 840.707 57.2247 838.224 L62.6355 838.224 Q63.7814 840.675 64.3543 843.317 Q64.9272 845.927 64.9272 848.887 Q64.9272 856.94 59.8664 861.682 Q54.8057 866.424 46.212 866.424 Q37.491 866.424 32.4939 861.65 Q27.4968 856.844 27.4968 848.505 Q27.4968 845.8 28.0697 843.221 Q28.6108 840.643 29.7248 838.224 Z" fill="#000000" fill-rule="nonzero" fill-opacity="1" /><path clip-path="url(#clip130)" d="M32.4621 814.226 Q32.4621 818.936 36.1542 821.674 Q39.8145 824.411 46.212 824.411 Q52.6095 824.411 56.3017 821.705 Q59.9619 818.968 59.9619 814.226 Q59.9619 809.547 56.2698 806.81 Q52.5777 804.072 46.212 804.072 Q39.8781 804.072 36.186 806.81 Q32.4621 809.547 32.4621 814.226 M27.4968 814.226 Q27.4968 806.587 32.4621 802.226 Q37.4273 797.866 46.212 797.866 Q54.9649 797.866 59.9619 802.226 Q64.9272 806.587 64.9272 814.226 Q64.9272 821.896 59.9619 826.257 Q54.9649 830.586 46.212 830.586 Q37.4273 830.586 32.4621 826.257 Q27.4968 821.896 27.4968 814.226 Z" fill="#000000" fill-rule="nonzero" fill-opacity="1" /><path clip-path="url(#clip130)" d="M33.8307 767.501 Q33.2578 768.488 33.0032 769.666 Q32.7167 770.812 32.7167 772.212 Q32.7167 777.177 35.9632 779.851 Q39.1779 782.493 45.2253 782.493 L64.0042 782.493 L64.0042 788.381 L28.3562 788.381 L28.3562 782.493 L33.8944 782.493 Q30.6479 780.647 29.0883 777.686 Q27.4968 774.726 27.4968 770.493 Q27.4968 769.889 27.5923 769.156 Q27.656 768.424 27.8151 767.533 L33.8307 767.501 Z" fill="#000000" fill-rule="nonzero" fill-opacity="1" /><path clip-path="url(#clip130)" d="M33.8307 741.848 Q33.2578 742.834 33.0032 744.012 Q32.7167 745.158 32.7167 746.558 Q32.7167 751.523 35.9632 754.197 Q39.1779 756.839 45.2253 756.839 L64.0042 756.839 L64.0042 762.727 L28.3562 762.727 L28.3562 756.839 L33.8944 756.839 Q30.6479 754.993 29.0883 752.033 Q27.4968 749.073 27.4968 744.839 Q27.4968 744.235 27.5923 743.503 Q27.656 742.771 27.8151 741.879 L33.8307 741.848 Z" fill="#000000" fill-rule="nonzero" fill-opacity="1" /><path clip-path="url(#clip130)" d="M44.7161 706.645 L47.5806 706.645 L47.5806 733.572 Q53.6281 733.19 56.8109 729.944 Q59.9619 726.665 59.9619 720.841 Q59.9619 717.467 59.1344 714.316 Q58.3069 711.133 56.6518 708.014 L62.1899 708.014 Q63.5267 711.165 64.227 714.475 Q64.9272 717.785 64.9272 721.191 Q64.9272 729.721 59.9619 734.718 Q54.9967 739.683 46.5303 739.683 Q37.7774 739.683 32.6531 734.973 Q27.4968 730.23 27.4968 722.209 Q27.4968 715.016 32.1438 710.847 Q36.7589 706.645 44.7161 706.645 M42.9973 712.502 Q38.1912 712.565 35.3266 715.207 Q32.4621 717.817 32.4621 722.146 Q32.4621 727.047 35.2312 730.007 Q38.0002 732.936 43.0292 733.381 L42.9973 712.502 Z" fill="#000000" fill-rule="nonzero" fill-opacity="1" /><path clip-path="url(#clip130)" d="M14.479 697.033 L14.479 691.177 L64.0042 691.177 L64.0042 697.033 L14.479 697.033 Z" fill="#000000" fill-rule="nonzero" fill-opacity="1" /><path clip-path="url(#clip130)" d="M46.0847 662.722 Q46.0847 669.82 47.7079 672.557 Q49.3312 675.294 53.2461 675.294 Q56.3653 675.294 58.2114 673.257 Q60.0256 671.188 60.0256 667.655 Q60.0256 662.785 56.5881 659.857 Q53.1188 656.897 47.3897 656.897 L46.0847 656.897 L46.0847 662.722 M43.6657 651.041 L64.0042 651.041 L64.0042 656.897 L58.5933 656.897 Q61.8398 658.902 63.3994 661.894 Q64.9272 664.886 64.9272 669.215 Q64.9272 674.689 61.8716 677.936 Q58.7843 681.151 53.6281 681.151 Q47.6125 681.151 44.5569 677.14 Q41.5014 673.098 41.5014 665.109 L41.5014 656.897 L40.9285 656.897 Q36.8862 656.897 34.6901 659.571 Q32.4621 662.213 32.4621 667.019 Q32.4621 670.074 33.1941 672.971 Q33.9262 675.867 35.3903 678.541 L29.9795 678.541 Q28.7381 675.326 28.1334 672.302 Q27.4968 669.279 27.4968 666.414 Q27.4968 658.68 31.5072 654.86 Q35.5176 651.041 43.6657 651.041 Z" fill="#000000" fill-rule="nonzero" fill-opacity="1" /><path clip-path="url(#clip130)" d="M18.2347 633.185 L28.3562 633.185 L28.3562 621.122 L32.9077 621.122 L32.9077 633.185 L52.2594 633.185 Q56.6199 633.185 57.8613 632.007 Q59.1026 630.798 59.1026 627.138 L59.1026 621.122 L64.0042 621.122 L64.0042 627.138 Q64.0042 633.917 61.4897 636.495 Q58.9434 639.073 52.2594 639.073 L32.9077 639.073 L32.9077 643.37 L28.3562 643.37 L28.3562 639.073 L18.2347 639.073 L18.2347 633.185 Z" fill="#000000" fill-rule="nonzero" fill-opacity="1" /><path clip-path="url(#clip130)" d="M28.3562 613.419 L28.3562 607.563 L64.0042 607.563 L64.0042 613.419 L28.3562 613.419 M14.479 613.419 L14.479 607.563 L21.895 607.563 L21.895 613.419 L14.479 613.419 Z" fill="#000000" fill-rule="nonzero" fill-opacity="1" /><path clip-path="url(#clip130)" d="M32.4621 581.495 Q32.4621 586.206 36.1542 588.943 Q39.8145 591.681 46.212 591.681 Q52.6095 591.681 56.3017 588.975 Q59.9619 586.238 59.9619 581.495 Q59.9619 576.817 56.2698 574.079 Q52.5777 571.342 46.212 571.342 Q39.8781 571.342 36.186 574.079 Q32.4621 576.817 32.4621 581.495 M27.4968 581.495 Q27.4968 573.857 32.4621 569.496 Q37.4273 565.136 46.212 565.136 Q54.9649 565.136 59.9619 569.496 Q64.9272 573.857 64.9272 581.495 Q64.9272 589.166 59.9619 593.527 Q54.9649 597.855 46.212 597.855 Q37.4273 597.855 32.4621 593.527 Q27.4968 589.166 27.4968 581.495 Z" fill="#000000" fill-rule="nonzero" fill-opacity="1" /><path clip-path="url(#clip130)" d="M42.4881 525.795 L64.0042 525.795 L64.0042 531.652 L42.679 531.652 Q37.6183 531.652 35.1038 533.625 Q32.5894 535.599 32.5894 539.545 Q32.5894 544.288 35.6131 547.025 Q38.6368 549.762 43.8567 549.762 L64.0042 549.762 L64.0042 555.651 L28.3562 555.651 L28.3562 549.762 L33.8944 549.762 Q30.6797 547.662 29.0883 544.829 Q27.4968 541.964 27.4968 538.24 Q27.4968 532.098 31.3163 528.947 Q35.1038 525.795 42.4881 525.795 Z" fill="#000000" fill-rule="nonzero" fill-opacity="1" /><path clip-path="url(#clip130)" d="M824.196 20.1573 L813.096 50.2555 L835.335 50.2555 L824.196 20.1573 M819.577 12.096 L828.854 12.096 L851.904 72.576 L843.397 72.576 L837.888 57.061 L810.625 57.061 L805.116 72.576 L796.487 72.576 L819.577 12.096 Z" fill="#000000" fill-rule="nonzero" fill-opacity="1" /><path clip-path="url(#clip130)" d="M859.641 54.671 L859.641 27.2059 L867.095 27.2059 L867.095 54.3874 Q867.095 60.8284 869.606 64.0691 Q872.118 67.2693 877.141 67.2693 Q883.177 67.2693 886.66 63.421 Q890.185 59.5726 890.185 52.9291 L890.185 27.2059 L897.638 27.2059 L897.638 72.576 L890.185 72.576 L890.185 65.6084 Q887.471 69.7404 883.865 71.7658 Q880.301 73.7508 875.561 73.7508 Q867.743 73.7508 863.692 68.8897 Q859.641 64.0286 859.641 54.671 M878.397 26.1121 L878.397 26.1121 Z" fill="#000000" fill-rule="nonzero" fill-opacity="1" /><path clip-path="url(#clip130)" d="M920.364 14.324 L920.364 27.2059 L935.717 27.2059 L935.717 32.9987 L920.364 32.9987 L920.364 57.6282 Q920.364 63.1779 921.863 64.7578 Q923.402 66.3376 928.061 66.3376 L935.717 66.3376 L935.717 72.576 L928.061 72.576 Q919.432 72.576 916.151 69.3758 Q912.87 66.1351 912.87 57.6282 L912.87 32.9987 L907.401 32.9987 L907.401 27.2059 L912.87 27.2059 L912.87 14.324 L920.364 14.324 Z" fill="#000000" fill-rule="nonzero" fill-opacity="1" /><path clip-path="url(#clip130)" d="M963.101 32.4315 Q957.106 32.4315 953.622 37.1306 Q950.138 41.7891 950.138 49.9314 Q950.138 58.0738 953.581 62.7728 Q957.065 67.4314 963.101 67.4314 Q969.056 67.4314 972.54 62.7323 Q976.023 58.0333 976.023 49.9314 Q976.023 41.8701 972.54 37.1711 Q969.056 32.4315 963.101 32.4315 M963.101 26.1121 Q972.823 26.1121 978.373 32.4315 Q983.923 38.7509 983.923 49.9314 Q983.923 61.0714 978.373 67.4314 Q972.823 73.7508 963.101 73.7508 Q953.338 73.7508 947.789 67.4314 Q942.279 61.0714 942.279 49.9314 Q942.279 38.7509 947.789 32.4315 Q953.338 26.1121 963.101 26.1121 Z" fill="#000000" fill-rule="nonzero" fill-opacity="1" /><path clip-path="url(#clip130)" d="M1028.93 28.9478 L1028.93 35.9153 Q1025.77 34.1734 1022.57 33.3227 Q1019.41 32.4315 1016.17 32.4315 Q1008.92 32.4315 1004.91 37.0496 Q1000.9 41.6271 1000.9 49.9314 Q1000.9 58.2358 1004.91 62.8538 Q1008.92 67.4314 1016.17 67.4314 Q1019.41 67.4314 1022.57 66.5807 Q1025.77 65.6895 1028.93 63.9476 L1028.93 70.8341 Q1025.81 72.2924 1022.45 73.0216 Q1019.13 73.7508 1015.36 73.7508 Q1005.11 73.7508 999.073 67.3098 Q993.037 60.8689 993.037 49.9314 Q993.037 38.832 999.114 32.472 Q1005.23 26.1121 1015.84 26.1121 Q1019.29 26.1121 1022.57 26.8413 Q1025.85 27.5299 1028.93 28.9478 Z" fill="#000000" fill-rule="nonzero" fill-opacity="1" /><path clip-path="url(#clip130)" d="M1059.47 32.4315 Q1053.48 32.4315 1049.99 37.1306 Q1046.51 41.7891 1046.51 49.9314 Q1046.51 58.0738 1049.95 62.7728 Q1053.44 67.4314 1059.47 67.4314 Q1065.43 67.4314 1068.91 62.7323 Q1072.39 58.0333 1072.39 49.9314 Q1072.39 41.8701 1068.91 37.1711 Q1065.43 32.4315 1059.47 32.4315 M1059.47 26.1121 Q1069.19 26.1121 1074.74 32.4315 Q1080.29 38.7509 1080.29 49.9314 Q1080.29 61.0714 1074.74 67.4314 Q1069.19 73.7508 1059.47 73.7508 Q1049.71 73.7508 1044.16 67.4314 Q1038.65 61.0714 1038.65 49.9314 Q1038.65 38.7509 1044.16 32.4315 Q1049.71 26.1121 1059.47 26.1121 Z" fill="#000000" fill-rule="nonzero" fill-opacity="1" /><path clip-path="url(#clip130)" d="M1118.94 34.1734 Q1117.68 33.4443 1116.18 33.1202 Q1114.73 32.7556 1112.94 32.7556 Q1106.62 32.7556 1103.22 36.8875 Q1099.86 40.9789 1099.86 48.6757 L1099.86 72.576 L1092.37 72.576 L1092.37 27.2059 L1099.86 27.2059 L1099.86 34.2544 Q1102.21 30.1225 1105.98 28.1376 Q1109.74 26.1121 1115.13 26.1121 Q1115.9 26.1121 1116.83 26.2337 Q1117.76 26.3147 1118.9 26.5172 L1118.94 34.1734 Z" fill="#000000" fill-rule="nonzero" fill-opacity="1" /><path clip-path="url(#clip130)" d="M1151.59 34.1734 Q1150.33 33.4443 1148.83 33.1202 Q1147.38 32.7556 1145.59 32.7556 Q1139.27 32.7556 1135.87 36.8875 Q1132.51 40.9789 1132.51 48.6757 L1132.51 72.576 L1125.02 72.576 L1125.02 27.2059 L1132.51 27.2059 L1132.51 34.2544 Q1134.86 30.1225 1138.63 28.1376 Q1142.39 26.1121 1147.78 26.1121 Q1148.55 26.1121 1149.48 26.2337 Q1150.41 26.3147 1151.55 26.5172 L1151.59 34.1734 Z" fill="#000000" fill-rule="nonzero" fill-opacity="1" /><path clip-path="url(#clip130)" d="M1196.39 48.0275 L1196.39 51.6733 L1162.12 51.6733 Q1162.61 59.3701 1166.74 63.421 Q1170.91 67.4314 1178.33 67.4314 Q1182.62 67.4314 1186.63 66.3781 Q1190.68 65.3249 1194.65 63.2184 L1194.65 70.267 Q1190.64 71.9684 1186.43 72.8596 Q1182.21 73.7508 1177.88 73.7508 Q1167.02 73.7508 1160.66 67.4314 Q1154.34 61.1119 1154.34 50.3365 Q1154.34 39.1965 1160.34 32.6746 Q1166.38 26.1121 1176.58 26.1121 Q1185.74 26.1121 1191.05 32.0264 Q1196.39 37.9003 1196.39 48.0275 M1188.94 45.84 Q1188.86 39.7232 1185.5 36.0774 Q1182.17 32.4315 1176.66 32.4315 Q1170.43 32.4315 1166.66 35.9558 Q1162.93 39.4801 1162.36 45.8805 L1188.94 45.84 Z" fill="#000000" fill-rule="nonzero" fill-opacity="1" /><path clip-path="url(#clip130)" d="M1208.63 9.54393 L1216.08 9.54393 L1216.08 72.576 L1208.63 72.576 L1208.63 9.54393 Z" fill="#000000" fill-rule="nonzero" fill-opacity="1" /><path clip-path="url(#clip130)" d="M1252.3 49.7694 Q1243.26 49.7694 1239.78 51.8354 Q1236.29 53.9013 1236.29 58.8839 Q1236.29 62.8538 1238.89 65.2034 Q1241.52 67.5124 1246.02 67.5124 Q1252.21 67.5124 1255.94 63.1374 Q1259.71 58.7219 1259.71 51.4303 L1259.71 49.7694 L1252.3 49.7694 M1267.16 46.6907 L1267.16 72.576 L1259.71 72.576 L1259.71 65.6895 Q1257.16 69.8214 1253.35 71.8063 Q1249.54 73.7508 1244.03 73.7508 Q1237.06 73.7508 1232.93 69.8619 Q1228.84 65.9325 1228.84 59.3701 Q1228.84 51.7138 1233.94 47.825 Q1239.09 43.9361 1249.26 43.9361 L1259.71 43.9361 L1259.71 43.2069 Q1259.71 38.0623 1256.31 35.2672 Q1252.94 32.4315 1246.83 32.4315 Q1242.94 32.4315 1239.25 33.3632 Q1235.56 34.295 1232.16 36.1584 L1232.16 29.2718 Q1236.25 27.692 1240.1 26.9223 Q1243.95 26.1121 1247.6 26.1121 Q1257.44 26.1121 1262.3 31.2163 Q1267.16 36.3204 1267.16 46.6907 Z" fill="#000000" fill-rule="nonzero" fill-opacity="1" /><path clip-path="url(#clip130)" d="M1289.89 14.324 L1289.89 27.2059 L1305.24 27.2059 L1305.24 32.9987 L1289.89 32.9987 L1289.89 57.6282 Q1289.89 63.1779 1291.39 64.7578 Q1292.93 66.3376 1297.58 66.3376 L1305.24 66.3376 L1305.24 72.576 L1297.58 72.576 Q1288.96 72.576 1285.67 69.3758 Q1282.39 66.1351 1282.39 57.6282 L1282.39 32.9987 L1276.92 32.9987 L1276.92 27.2059 L1282.39 27.2059 L1282.39 14.324 L1289.89 14.324 Z" fill="#000000" fill-rule="nonzero" fill-opacity="1" /><path clip-path="url(#clip130)" d="M1315.04 27.2059 L1322.5 27.2059 L1322.5 72.576 L1315.04 72.576 L1315.04 27.2059 M1315.04 9.54393 L1322.5 9.54393 L1322.5 18.9825 L1315.04 18.9825 L1315.04 9.54393 Z" fill="#000000" fill-rule="nonzero" fill-opacity="1" /><path clip-path="url(#clip130)" d="M1355.67 32.4315 Q1349.68 32.4315 1346.2 37.1306 Q1342.71 41.7891 1342.71 49.9314 Q1342.71 58.0738 1346.15 62.7728 Q1349.64 67.4314 1355.67 67.4314 Q1361.63 67.4314 1365.11 62.7323 Q1368.6 58.0333 1368.6 49.9314 Q1368.6 41.8701 1365.11 37.1711 Q1361.63 32.4315 1355.67 32.4315 M1355.67 26.1121 Q1365.4 26.1121 1370.95 32.4315 Q1376.5 38.7509 1376.5 49.9314 Q1376.5 61.0714 1370.95 67.4314 Q1365.4 73.7508 1355.67 73.7508 Q1345.91 73.7508 1340.36 67.4314 Q1334.85 61.0714 1334.85 49.9314 Q1334.85 38.7509 1340.36 32.4315 Q1345.91 26.1121 1355.67 26.1121 Z" fill="#000000" fill-rule="nonzero" fill-opacity="1" /><path clip-path="url(#clip130)" d="M1426.56 45.1919 L1426.56 72.576 L1419.11 72.576 L1419.11 45.4349 Q1419.11 38.994 1416.6 35.7938 Q1414.09 32.5936 1409.07 32.5936 Q1403.03 32.5936 1399.55 36.4419 Q1396.06 40.2903 1396.06 46.9338 L1396.06 72.576 L1388.57 72.576 L1388.57 27.2059 L1396.06 27.2059 L1396.06 34.2544 Q1398.74 30.163 1402.34 28.1376 Q1405.99 26.1121 1410.73 26.1121 Q1418.54 26.1121 1422.55 30.9732 Q1426.56 35.7938 1426.56 45.1919 Z" fill="#000000" fill-rule="nonzero" fill-opacity="1" /><path clip-path="url(#clip130)" d="M1468.13 12.096 L1502.88 12.096 L1502.88 18.9825 L1476.31 18.9825 L1476.31 36.8065 L1500.29 36.8065 L1500.29 43.6931 L1476.31 43.6931 L1476.31 72.576 L1468.13 72.576 L1468.13 12.096 Z" fill="#000000" fill-rule="nonzero" fill-opacity="1" /><path clip-path="url(#clip130)" d="M1510.22 54.671 L1510.22 27.2059 L1517.67 27.2059 L1517.67 54.3874 Q1517.67 60.8284 1520.18 64.0691 Q1522.69 67.2693 1527.72 67.2693 Q1533.75 67.2693 1537.24 63.421 Q1540.76 59.5726 1540.76 52.9291 L1540.76 27.2059 L1548.21 27.2059 L1548.21 72.576 L1540.76 72.576 L1540.76 65.6084 Q1538.05 69.7404 1534.44 71.7658 Q1530.88 73.7508 1526.14 73.7508 Q1518.32 73.7508 1514.27 68.8897 Q1510.22 64.0286 1510.22 54.671 M1528.97 26.1121 L1528.97 26.1121 Z" fill="#000000" fill-rule="nonzero" fill-opacity="1" /><path clip-path="url(#clip130)" d="M1601.28 45.1919 L1601.28 72.576 L1593.83 72.576 L1593.83 45.4349 Q1593.83 38.994 1591.32 35.7938 Q1588.8 32.5936 1583.78 32.5936 Q1577.74 32.5936 1574.26 36.4419 Q1570.78 40.2903 1570.78 46.9338 L1570.78 72.576 L1563.28 72.576 L1563.28 27.2059 L1570.78 27.2059 L1570.78 34.2544 Q1573.45 30.163 1577.06 28.1376 Q1580.7 26.1121 1585.44 26.1121 Q1593.26 26.1121 1597.27 30.9732 Q1601.28 35.7938 1601.28 45.1919 Z" fill="#000000" fill-rule="nonzero" fill-opacity="1" /><path clip-path="url(#clip130)" d="M1648.8 28.9478 L1648.8 35.9153 Q1645.64 34.1734 1642.44 33.3227 Q1639.28 32.4315 1636.04 32.4315 Q1628.79 32.4315 1624.78 37.0496 Q1620.77 41.6271 1620.77 49.9314 Q1620.77 58.2358 1624.78 62.8538 Q1628.79 67.4314 1636.04 67.4314 Q1639.28 67.4314 1642.44 66.5807 Q1645.64 65.6895 1648.8 63.9476 L1648.8 70.8341 Q1645.68 72.2924 1642.32 73.0216 Q1638.99 73.7508 1635.23 73.7508 Q1624.98 73.7508 1618.94 67.3098 Q1612.91 60.8689 1612.91 49.9314 Q1612.91 38.832 1618.98 32.472 Q1625.1 26.1121 1635.71 26.1121 Q1639.16 26.1121 1642.44 26.8413 Q1645.72 27.5299 1648.8 28.9478 Z" fill="#000000" fill-rule="nonzero" fill-opacity="1" /><path clip-path="url(#clip130)" d="M1669.13 14.324 L1669.13 27.2059 L1684.49 27.2059 L1684.49 32.9987 L1669.13 32.9987 L1669.13 57.6282 Q1669.13 63.1779 1670.63 64.7578 Q1672.17 66.3376 1676.83 66.3376 L1684.49 66.3376 L1684.49 72.576 L1676.83 72.576 Q1668.2 72.576 1664.92 69.3758 Q1661.64 66.1351 1661.64 57.6282 L1661.64 32.9987 L1656.17 32.9987 L1656.17 27.2059 L1661.64 27.2059 L1661.64 14.324 L1669.13 14.324 Z" fill="#000000" fill-rule="nonzero" fill-opacity="1" /><path clip-path="url(#clip130)" d="M1694.29 27.2059 L1701.74 27.2059 L1701.74 72.576 L1694.29 72.576 L1694.29 27.2059 M1694.29 9.54393 L1701.74 9.54393 L1701.74 18.9825 L1694.29 18.9825 L1694.29 9.54393 Z" fill="#000000" fill-rule="nonzero" fill-opacity="1" /><path clip-path="url(#clip130)" d="M1734.92 32.4315 Q1728.92 32.4315 1725.44 37.1306 Q1721.96 41.7891 1721.96 49.9314 Q1721.96 58.0738 1725.4 62.7728 Q1728.88 67.4314 1734.92 67.4314 Q1740.87 67.4314 1744.36 62.7323 Q1747.84 58.0333 1747.84 49.9314 Q1747.84 41.8701 1744.36 37.1711 Q1740.87 32.4315 1734.92 32.4315 M1734.92 26.1121 Q1744.64 26.1121 1750.19 32.4315 Q1755.74 38.7509 1755.74 49.9314 Q1755.74 61.0714 1750.19 67.4314 Q1744.64 73.7508 1734.92 73.7508 Q1725.16 73.7508 1719.61 67.4314 Q1714.1 61.0714 1714.1 49.9314 Q1714.1 38.7509 1719.61 32.4315 Q1725.16 26.1121 1734.92 26.1121 Z" fill="#000000" fill-rule="nonzero" fill-opacity="1" /><path clip-path="url(#clip130)" d="M1805.81 45.1919 L1805.81 72.576 L1798.36 72.576 L1798.36 45.4349 Q1798.36 38.994 1795.85 35.7938 Q1793.33 32.5936 1788.31 32.5936 Q1782.27 32.5936 1778.79 36.4419 Q1775.31 40.2903 1775.31 46.9338 L1775.31 72.576 L1767.81 72.576 L1767.81 27.2059 L1775.31 27.2059 L1775.31 34.2544 Q1777.98 30.163 1781.59 28.1376 Q1785.23 26.1121 1789.97 26.1121 Q1797.79 26.1121 1801.8 30.9732 Q1805.81 35.7938 1805.81 45.1919 Z" fill="#000000" fill-rule="nonzero" fill-opacity="1" /><polyline clip-path="url(#clip132)" style="stroke:#cba6f7; stroke-linecap:round; stroke-linejoin:round; stroke-width:4; stroke-opacity:1; fill:none" points="309.067,160.256 705.9,1127.2 1102.73,1241.17 1499.57,1282.21 1896.4,1306.06 2293.23,1306.72 "/>
<polyline clip-path="url(#clip132)" style="stroke:#f38ba8; stroke-linecap:round; stroke-linejoin:round; stroke-width:4; stroke-opacity:1; fill:none" points="309.067,160.256 705.9,1037.95 1102.73,1188.43 1499.57,1158.59 1896.4,1281.28 2293.23,1252.78 "/>
<polyline clip-path="url(#clip132)" style="stroke:#fab387; stroke-linecap:round; stroke-linejoin:round; stroke-width:4; stroke-opacity:1; fill:none" points="309.067,160.256 705.9,1007.99 1102.73,1113.34 1499.57,1119 1896.4,1271.1 2293.23,1288.8 "/>
<polyline clip-path="url(#clip132)" style="stroke:#a6e3a1; stroke-linecap:round; stroke-linejoin:round; stroke-width:4; stroke-opacity:1; fill:none" points="309.067,160.256 705.9,1015.58 1102.73,1143.13 1499.57,1148.49 1896.4,1193.43 2293.23,1361.33 "/>
<polyline clip-path="url(#clip132)" style="stroke:#f5c2e7; stroke-linecap:round; stroke-linejoin:round; stroke-width:4; stroke-opacity:1; fill:none" points="309.067,160.256 705.9,1100.43 1102.73,1140.19 1499.57,1203.72 1896.4,1285.61 2293.23,1121.26 "/>
<polyline clip-path="url(#clip132)" style="stroke:#94e2d5; stroke-linecap:round; stroke-linejoin:round; stroke-width:4; stroke-opacity:1; fill:none" points="309.067,160.256 705.9,976.193 1102.73,1115.74 1499.57,1048.19 1896.4,1178.61 2293.23,1308.46 "/>
<polyline clip-path="url(#clip132)" style="stroke:#89b4fa; stroke-linecap:round; stroke-linejoin:round; stroke-width:4; stroke-opacity:1; fill:none" points="309.067,160.256 705.9,1097.12 1102.73,1249.3 1499.57,1300.41 1896.4,1121.98 2293.23,1169.63 "/>
<polyline clip-path="url(#clip132)" style="stroke:#cba6f7; stroke-linecap:round; stroke-linejoin:round; stroke-width:4; stroke-opacity:1; fill:none" points="309.067,160.256 705.9,1001.83 1102.73,1155.48 1499.57,1077.66 1896.4,1198.7 2293.23,1216.87 "/>
<polyline clip-path="url(#clip132)" style="stroke:#f38ba8; stroke-linecap:round; stroke-linejoin:round; stroke-width:4; stroke-opacity:1; fill:none" points="309.067,160.256 705.9,948.19 1102.73,1189.12 1499.57,1329.12 1896.4,1307.58 2293.23,1222.14 "/>
<polyline clip-path="url(#clip132)" style="stroke:#fab387; stroke-linecap:round; stroke-linejoin:round; stroke-width:4; stroke-opacity:1; fill:none" points="309.067,160.256 705.9,973.785 1102.73,1132.29 1499.57,1322.94 1896.4,1252.5 2293.23,1169.1 "/>
<polyline clip-path="url(#clip132)" style="stroke:#a6e3a1; stroke-linecap:round; stroke-linejoin:round; stroke-width:4; stroke-opacity:1; fill:none" points="309.067,160.256 705.9,1023.39 1102.73,1100.5 1499.57,1211.76 1896.4,1325.57 2293.23,1327.79 "/>
<polyline clip-path="url(#clip132)" style="stroke:#f5c2e7; stroke-linecap:round; stroke-linejoin:round; stroke-width:4; stroke-opacity:1; fill:none" points="309.067,160.256 705.9,1065.5 1102.73,1219.49 1499.57,1214.01 1896.4,1251.64 2293.23,1125.36 "/>
<polyline clip-path="url(#clip132)" style="stroke:#94e2d5; stroke-linecap:round; stroke-linejoin:round; stroke-width:4; stroke-opacity:1; fill:none" points="309.067,160.256 705.9,983.515 1102.73,1182.23 1499.57,1313.31 1896.4,1189.14 2293.23,1062.34 "/>
<polyline clip-path="url(#clip132)" style="stroke:#89b4fa; stroke-linecap:round; stroke-linejoin:round; stroke-width:4; stroke-opacity:1; fill:none" points="309.067,160.256 705.9,1134.38 1102.73,1265.62 1499.57,1097.81 1896.4,1197.11 2293.23,1149.24 "/>
<polyline clip-path="url(#clip132)" style="stroke:#cba6f7; stroke-linecap:round; stroke-linejoin:round; stroke-width:4; stroke-opacity:1; fill:none" points="309.067,160.256 705.9,1059.14 1102.73,1158.59 1499.57,1246.78 1896.4,1386.4 2293.23,1334.14 "/>
<polyline clip-path="url(#clip132)" style="stroke:#f38ba8; stroke-linecap:round; stroke-linejoin:round; stroke-width:4; stroke-opacity:1; fill:none" points="309.067,160.256 705.9,1221.3 1102.73,1263.15 1499.57,1284.54 1896.4,1220.2 2293.23,1301.89 "/>
<polyline clip-path="url(#clip132)" style="stroke:#fab387; stroke-linecap:round; stroke-linejoin:round; stroke-width:4; stroke-opacity:1; fill:none" points="309.067,160.256 705.9,1113.37 1102.73,1125.28 1499.57,1271.54 1896.4,1268.88 2293.23,1323.73 "/>
<polyline clip-path="url(#clip132)" style="stroke:#a6e3a1; stroke-linecap:round; stroke-linejoin:round; stroke-width:4; stroke-opacity:1; fill:none" points="309.067,160.256 705.9,1146 1102.73,1248.36 1499.57,1187.98 1896.4,1226.36 2293.23,1292.15 "/>
<polyline clip-path="url(#clip132)" style="stroke:#f5c2e7; stroke-linecap:round; stroke-linejoin:round; stroke-width:4; stroke-opacity:1; fill:none" points="309.067,160.256 705.9,904.404 1102.73,1227.26 1499.57,1321.92 1896.4,1277.79 2293.23,1246.73 "/>
<polyline clip-path="url(#clip132)" style="stroke:#94e2d5; stroke-linecap:round; stroke-linejoin:round; stroke-width:4; stroke-opacity:1; fill:none" points="309.067,160.256 705.9,1063.95 1102.73,1218.07 1499.57,1139.04 1896.4,1306.21 2293.23,1296.12 "/>
<polyline clip-path="url(#clip132)" style="stroke:#000000; stroke-linecap:round; stroke-linejoin:round; stroke-width:8; stroke-opacity:1; fill:none" points="309.067,160.256 705.9,1050.06 1102.73,1183.84 1499.57,1213.95 1896.4,1252.31 2293.23,1243.83 "/>
<polyline clip-path="url(#clip132)" style="stroke:#000000; stroke-linecap:round; stroke-linejoin:round; stroke-width:12; stroke-opacity:1; fill:none" points="309.067,2722.89 309.067,-1176.24 "/>
<polyline clip-path="url(#clip132)" style="stroke:#000000; stroke-linecap:round; stroke-linejoin:round; stroke-width:12; stroke-opacity:1; fill:none" points="705.9,2722.89 705.9,-1176.24 "/>
<polyline clip-path="url(#clip132)" style="stroke:#000000; stroke-linecap:round; stroke-linejoin:round; stroke-width:12; stroke-opacity:1; fill:none" points="1102.73,2722.89 1102.73,-1176.24 "/>
<polyline clip-path="url(#clip132)" style="stroke:#000000; stroke-linecap:round; stroke-linejoin:round; stroke-width:12; stroke-opacity:1; fill:none" points="1499.57,2722.89 1499.57,-1176.24 "/>
<polyline clip-path="url(#clip132)" style="stroke:#000000; stroke-linecap:round; stroke-linejoin:round; stroke-width:12; stroke-opacity:1; fill:none" points="1896.4,2722.89 1896.4,-1176.24 "/>
<polyline clip-path="url(#clip132)" style="stroke:#000000; stroke-linecap:round; stroke-linejoin:round; stroke-width:12; stroke-opacity:1; fill:none" points="2293.23,2722.89 2293.23,-1176.24 "/>
</svg>
