<?xml version="1.0" encoding="utf-8"?>
<svg xmlns="http://www.w3.org/2000/svg" xmlns:xlink="http://www.w3.org/1999/xlink" width="600" height="400" viewBox="0 0 2400 1600">
<defs>
  <clipPath id="clip210">
    <rect x="0" y="0" width="2400" height="1600"/>
  </clipPath>
</defs>
<path clip-path="url(#clip210)" d="M0 1600 L2400 1600 L2400 0 L0 0  Z" fill="#ffffff" fill-rule="evenodd" fill-opacity="1"/>
<defs>
  <clipPath id="clip211">
    <rect x="480" y="0" width="1681" height="1600"/>
  </clipPath>
</defs>
<path clip-path="url(#clip210)" d="M219.542 1423.18 L2352.76 1423.18 L2352.76 123.472 L219.542 123.472  Z" fill="#ffffff" fill-rule="evenodd" fill-opacity="1"/>
<defs>
  <clipPath id="clip212">
    <rect x="219" y="123" width="2134" height="1301"/>
  </clipPath>
</defs>
<polyline clip-path="url(#clip212)" style="stroke:#000000; stroke-linecap:round; stroke-linejoin:round; stroke-width:2; stroke-opacity:0.1; fill:none" points="279.916,1423.18 279.916,123.472 "/>
<polyline clip-path="url(#clip212)" style="stroke:#000000; stroke-linecap:round; stroke-linejoin:round; stroke-width:2; stroke-opacity:0.1; fill:none" points="783.033,1423.18 783.033,123.472 "/>
<polyline clip-path="url(#clip212)" style="stroke:#000000; stroke-linecap:round; stroke-linejoin:round; stroke-width:2; stroke-opacity:0.1; fill:none" points="1286.15,1423.18 1286.15,123.472 "/>
<polyline clip-path="url(#clip212)" style="stroke:#000000; stroke-linecap:round; stroke-linejoin:round; stroke-width:2; stroke-opacity:0.1; fill:none" points="1789.27,1423.18 1789.27,123.472 "/>
<polyline clip-path="url(#clip212)" style="stroke:#000000; stroke-linecap:round; stroke-linejoin:round; stroke-width:2; stroke-opacity:0.1; fill:none" points="2292.38,1423.18 2292.38,123.472 "/>
<polyline clip-path="url(#clip212)" style="stroke:#000000; stroke-linecap:round; stroke-linejoin:round; stroke-width:2; stroke-opacity:0.1; fill:none" points="219.542,1156.29 2352.76,1156.29 "/>
<polyline clip-path="url(#clip212)" style="stroke:#000000; stroke-linecap:round; stroke-linejoin:round; stroke-width:2; stroke-opacity:0.1; fill:none" points="219.542,857.479 2352.76,857.479 "/>
<polyline clip-path="url(#clip212)" style="stroke:#000000; stroke-linecap:round; stroke-linejoin:round; stroke-width:2; stroke-opacity:0.1; fill:none" points="219.542,558.669 2352.76,558.669 "/>
<polyline clip-path="url(#clip212)" style="stroke:#000000; stroke-linecap:round; stroke-linejoin:round; stroke-width:2; stroke-opacity:0.1; fill:none" points="219.542,259.859 2352.76,259.859 "/>
<polyline clip-path="url(#clip210)" style="stroke:#000000; stroke-linecap:round; stroke-linejoin:round; stroke-width:4; stroke-opacity:1; fill:none" points="219.542,1423.18 2352.76,1423.18 "/>
<polyline clip-path="url(#clip210)" style="stroke:#000000; stroke-linecap:round; stroke-linejoin:round; stroke-width:4; stroke-opacity:1; fill:none" points="279.916,1423.18 279.916,1404.28 "/>
<polyline clip-path="url(#clip210)" style="stroke:#000000; stroke-linecap:round; stroke-linejoin:round; stroke-width:4; stroke-opacity:1; fill:none" points="783.033,1423.18 783.033,1404.28 "/>
<polyline clip-path="url(#clip210)" style="stroke:#000000; stroke-linecap:round; stroke-linejoin:round; stroke-width:4; stroke-opacity:1; fill:none" points="1286.15,1423.18 1286.15,1404.28 "/>
<polyline clip-path="url(#clip210)" style="stroke:#000000; stroke-linecap:round; stroke-linejoin:round; stroke-width:4; stroke-opacity:1; fill:none" points="1789.27,1423.18 1789.27,1404.28 "/>
<polyline clip-path="url(#clip210)" style="stroke:#000000; stroke-linecap:round; stroke-linejoin:round; stroke-width:4; stroke-opacity:1; fill:none" points="2292.38,1423.18 2292.38,1404.28 "/>
<path clip-path="url(#clip210)" d="M279.916 1454.1 Q276.305 1454.1 274.476 1457.66 Q272.671 1461.2 272.671 1468.33 Q272.671 1475.44 274.476 1479.01 Q276.305 1482.55 279.916 1482.55 Q283.55 1482.55 285.356 1479.01 Q287.185 1475.44 287.185 1468.33 Q287.185 1461.2 285.356 1457.66 Q283.55 1454.1 279.916 1454.1 M279.916 1450.39 Q285.726 1450.39 288.782 1455 Q291.861 1459.58 291.861 1468.33 Q291.861 1477.06 288.782 1481.67 Q285.726 1486.25 279.916 1486.25 Q274.106 1486.25 271.027 1481.67 Q267.972 1477.06 267.972 1468.33 Q267.972 1459.58 271.027 1455 Q274.106 1450.39 279.916 1450.39 Z" fill="#000000" fill-rule="nonzero" fill-opacity="1" /><path clip-path="url(#clip210)" d="M773.31 1451.02 L791.667 1451.02 L791.667 1454.96 L777.593 1454.96 L777.593 1463.43 Q778.611 1463.08 779.63 1462.92 Q780.648 1462.73 781.667 1462.73 Q787.454 1462.73 790.833 1465.9 Q794.213 1469.08 794.213 1474.49 Q794.213 1480.07 790.741 1483.17 Q787.269 1486.25 780.949 1486.25 Q778.773 1486.25 776.505 1485.88 Q774.26 1485.51 771.852 1484.77 L771.852 1480.07 Q773.935 1481.2 776.158 1481.76 Q778.38 1482.32 780.857 1482.32 Q784.861 1482.32 787.199 1480.21 Q789.537 1478.1 789.537 1474.49 Q789.537 1470.88 787.199 1468.77 Q784.861 1466.67 780.857 1466.67 Q778.982 1466.67 777.107 1467.08 Q775.255 1467.5 773.31 1468.38 L773.31 1451.02 Z" fill="#000000" fill-rule="nonzero" fill-opacity="1" /><path clip-path="url(#clip210)" d="M1260.84 1481.64 L1268.48 1481.64 L1268.48 1455.28 L1260.17 1456.95 L1260.17 1452.69 L1268.43 1451.02 L1273.11 1451.02 L1273.11 1481.64 L1280.74 1481.64 L1280.74 1485.58 L1260.84 1485.58 L1260.84 1481.64 Z" fill="#000000" fill-rule="nonzero" fill-opacity="1" /><path clip-path="url(#clip210)" d="M1300.19 1454.1 Q1296.58 1454.1 1294.75 1457.66 Q1292.94 1461.2 1292.94 1468.33 Q1292.94 1475.44 1294.75 1479.01 Q1296.58 1482.55 1300.19 1482.55 Q1303.82 1482.55 1305.63 1479.01 Q1307.46 1475.44 1307.46 1468.33 Q1307.46 1461.2 1305.63 1457.66 Q1303.82 1454.1 1300.19 1454.1 M1300.19 1450.39 Q1306 1450.39 1309.05 1455 Q1312.13 1459.58 1312.13 1468.33 Q1312.13 1477.06 1309.05 1481.67 Q1306 1486.25 1300.19 1486.25 Q1294.38 1486.25 1291.3 1481.67 Q1288.24 1477.06 1288.24 1468.33 Q1288.24 1459.58 1291.3 1455 Q1294.38 1450.39 1300.19 1450.39 Z" fill="#000000" fill-rule="nonzero" fill-opacity="1" /><path clip-path="url(#clip210)" d="M1764.45 1481.64 L1772.09 1481.64 L1772.09 1455.28 L1763.78 1456.95 L1763.78 1452.69 L1772.04 1451.02 L1776.72 1451.02 L1776.72 1481.64 L1784.36 1481.64 L1784.36 1485.58 L1764.45 1485.58 L1764.45 1481.64 Z" fill="#000000" fill-rule="nonzero" fill-opacity="1" /><path clip-path="url(#clip210)" d="M1793.85 1451.02 L1812.21 1451.02 L1812.21 1454.96 L1798.13 1454.96 L1798.13 1463.43 Q1799.15 1463.08 1800.17 1462.92 Q1801.19 1462.73 1802.21 1462.73 Q1807.99 1462.73 1811.37 1465.9 Q1814.75 1469.08 1814.75 1474.49 Q1814.75 1480.07 1811.28 1483.17 Q1807.81 1486.25 1801.49 1486.25 Q1799.31 1486.25 1797.04 1485.88 Q1794.8 1485.51 1792.39 1484.77 L1792.39 1480.07 Q1794.47 1481.2 1796.7 1481.76 Q1798.92 1482.32 1801.4 1482.32 Q1805.4 1482.32 1807.74 1480.21 Q1810.08 1478.1 1810.08 1474.49 Q1810.08 1470.88 1807.74 1468.77 Q1805.4 1466.67 1801.4 1466.67 Q1799.52 1466.67 1797.65 1467.08 Q1795.79 1467.5 1793.85 1468.38 L1793.85 1451.02 Z" fill="#000000" fill-rule="nonzero" fill-opacity="1" /><path clip-path="url(#clip210)" d="M2271.16 1481.64 L2287.47 1481.64 L2287.47 1485.58 L2265.53 1485.58 L2265.53 1481.64 Q2268.19 1478.89 2272.78 1474.26 Q2277.38 1469.61 2278.56 1468.27 Q2280.81 1465.74 2281.69 1464.01 Q2282.59 1462.25 2282.59 1460.56 Q2282.59 1457.8 2280.65 1456.07 Q2278.72 1454.33 2275.62 1454.33 Q2273.42 1454.33 2270.97 1455.09 Q2268.54 1455.86 2265.76 1457.41 L2265.76 1452.69 Q2268.59 1451.55 2271.04 1450.97 Q2273.49 1450.39 2275.53 1450.39 Q2280.9 1450.39 2284.09 1453.08 Q2287.29 1455.77 2287.29 1460.26 Q2287.29 1462.39 2286.48 1464.31 Q2285.69 1466.2 2283.59 1468.8 Q2283.01 1469.47 2279.91 1472.69 Q2276.8 1475.88 2271.16 1481.64 Z" fill="#000000" fill-rule="nonzero" fill-opacity="1" /><path clip-path="url(#clip210)" d="M2307.29 1454.1 Q2303.68 1454.1 2301.85 1457.66 Q2300.04 1461.2 2300.04 1468.33 Q2300.04 1475.44 2301.85 1479.01 Q2303.68 1482.55 2307.29 1482.55 Q2310.92 1482.55 2312.73 1479.01 Q2314.56 1475.44 2314.56 1468.33 Q2314.56 1461.2 2312.73 1457.66 Q2310.92 1454.1 2307.29 1454.1 M2307.29 1450.39 Q2313.1 1450.39 2316.15 1455 Q2319.23 1459.58 2319.23 1468.33 Q2319.23 1477.06 2316.15 1481.67 Q2313.1 1486.25 2307.29 1486.25 Q2301.48 1486.25 2298.4 1481.67 Q2295.34 1477.06 2295.34 1468.33 Q2295.34 1459.58 2298.4 1455 Q2301.48 1450.39 2307.29 1450.39 Z" fill="#000000" fill-rule="nonzero" fill-opacity="1" /><path clip-path="url(#clip210)" d="M1180.56 1520.52 L1186.99 1520.52 L1186.99 1562.63 L1210.13 1562.63 L1210.13 1568.04 L1180.56 1568.04 L1180.56 1520.52 Z" fill="#000000" fill-rule="nonzero" fill-opacity="1" /><path clip-path="url(#clip210)" d="M1232.82 1550.12 Q1225.72 1550.12 1222.99 1551.75 Q1220.25 1553.37 1220.25 1557.29 Q1220.25 1560.4 1222.29 1562.25 Q1224.35 1564.07 1227.89 1564.07 Q1232.76 1564.07 1235.68 1560.63 Q1238.64 1557.16 1238.64 1551.43 L1238.64 1550.12 L1232.82 1550.12 M1244.5 1547.71 L1244.5 1568.04 L1238.64 1568.04 L1238.64 1562.63 Q1236.64 1565.88 1233.65 1567.44 Q1230.66 1568.97 1226.33 1568.97 Q1220.85 1568.97 1217.61 1565.91 Q1214.39 1562.82 1214.39 1557.67 Q1214.39 1551.65 1218.4 1548.6 Q1222.44 1545.54 1230.43 1545.54 L1238.64 1545.54 L1238.64 1544.97 Q1238.64 1540.93 1235.97 1538.73 Q1233.33 1536.5 1228.52 1536.5 Q1225.47 1536.5 1222.57 1537.23 Q1219.68 1537.97 1217 1539.43 L1217 1534.02 Q1220.22 1532.78 1223.24 1532.17 Q1226.26 1531.54 1229.13 1531.54 Q1236.86 1531.54 1240.68 1535.55 Q1244.5 1539.56 1244.5 1547.71 Z" fill="#000000" fill-rule="nonzero" fill-opacity="1" /><path clip-path="url(#clip210)" d="M1280.02 1549.81 Q1280.02 1543.44 1277.38 1539.94 Q1274.77 1536.44 1270.03 1536.44 Q1265.32 1536.44 1262.68 1539.94 Q1260.07 1543.44 1260.07 1549.81 Q1260.07 1556.14 1262.68 1559.64 Q1265.32 1563.14 1270.03 1563.14 Q1274.77 1563.14 1277.38 1559.64 Q1280.02 1556.14 1280.02 1549.81 M1285.88 1563.62 Q1285.88 1572.72 1281.84 1577.15 Q1277.79 1581.6 1269.45 1581.6 Q1266.37 1581.6 1263.63 1581.13 Q1260.89 1580.68 1258.31 1579.72 L1258.31 1574.03 Q1260.89 1575.43 1263.41 1576.1 Q1265.92 1576.76 1268.53 1576.76 Q1274.29 1576.76 1277.16 1573.74 Q1280.02 1570.75 1280.02 1564.67 L1280.02 1561.77 Q1278.21 1564.92 1275.38 1566.48 Q1272.54 1568.04 1268.6 1568.04 Q1262.04 1568.04 1258.03 1563.05 Q1254.02 1558.05 1254.02 1549.81 Q1254.02 1541.53 1258.03 1536.53 Q1262.04 1531.54 1268.6 1531.54 Q1272.54 1531.54 1275.38 1533.1 Q1278.21 1534.66 1280.02 1537.81 L1280.02 1532.4 L1285.88 1532.4 L1285.88 1563.62 Z" fill="#000000" fill-rule="nonzero" fill-opacity="1" /><path clip-path="url(#clip210)" d="M1332.73 1518.58 Q1328.47 1525.9 1326.4 1533.06 Q1324.33 1540.23 1324.33 1547.58 Q1324.33 1554.93 1326.4 1562.16 Q1328.5 1569.35 1332.73 1576.64 L1327.64 1576.64 Q1322.86 1569.16 1320.48 1561.93 Q1318.12 1554.71 1318.12 1547.58 Q1318.12 1540.48 1320.48 1533.29 Q1322.83 1526.09 1327.64 1518.58 L1332.73 1518.58 Z" fill="#000000" fill-rule="nonzero" fill-opacity="1" /><path clip-path="url(#clip210)" d="M1366.82 1533.45 L1366.82 1538.98 Q1364.34 1537.71 1361.66 1537.07 Q1358.99 1536.44 1356.12 1536.44 Q1351.76 1536.44 1349.57 1537.77 Q1347.4 1539.11 1347.4 1541.79 Q1347.4 1543.82 1348.96 1545 Q1350.52 1546.15 1355.23 1547.2 L1357.24 1547.64 Q1363.48 1548.98 1366.09 1551.43 Q1368.73 1553.85 1368.73 1558.21 Q1368.73 1563.17 1364.78 1566.07 Q1360.87 1568.97 1353.99 1568.97 Q1351.13 1568.97 1348.01 1568.39 Q1344.92 1567.85 1341.48 1566.74 L1341.48 1560.69 Q1344.73 1562.38 1347.88 1563.24 Q1351.03 1564.07 1354.12 1564.07 Q1358.26 1564.07 1360.48 1562.66 Q1362.71 1561.23 1362.71 1558.65 Q1362.71 1556.27 1361.09 1554.99 Q1359.5 1553.72 1354.06 1552.54 L1352.02 1552.07 Q1346.58 1550.92 1344.16 1548.56 Q1341.74 1546.18 1341.74 1542.04 Q1341.74 1537.01 1345.3 1534.27 Q1348.87 1531.54 1355.42 1531.54 Q1358.67 1531.54 1361.53 1532.01 Q1364.4 1532.49 1366.82 1533.45 Z" fill="#000000" fill-rule="nonzero" fill-opacity="1" /><path clip-path="url(#clip210)" d="M1377.13 1518.58 L1382.22 1518.58 Q1387 1526.09 1389.35 1533.29 Q1391.74 1540.48 1391.74 1547.58 Q1391.74 1554.71 1389.35 1561.93 Q1387 1569.16 1382.22 1576.64 L1377.13 1576.64 Q1381.36 1569.35 1383.43 1562.16 Q1385.53 1554.93 1385.53 1547.58 Q1385.53 1540.23 1383.43 1533.06 Q1381.36 1525.9 1377.13 1518.58 Z" fill="#000000" fill-rule="nonzero" fill-opacity="1" /><polyline clip-path="url(#clip210)" style="stroke:#000000; stroke-linecap:round; stroke-linejoin:round; stroke-width:4; stroke-opacity:1; fill:none" points="219.542,1423.18 219.542,123.472 "/>
<polyline clip-path="url(#clip210)" style="stroke:#000000; stroke-linecap:round; stroke-linejoin:round; stroke-width:4; stroke-opacity:1; fill:none" points="219.542,1156.29 238.44,1156.29 "/>
<polyline clip-path="url(#clip210)" style="stroke:#000000; stroke-linecap:round; stroke-linejoin:round; stroke-width:4; stroke-opacity:1; fill:none" points="219.542,857.479 238.44,857.479 "/>
<polyline clip-path="url(#clip210)" style="stroke:#000000; stroke-linecap:round; stroke-linejoin:round; stroke-width:4; stroke-opacity:1; fill:none" points="219.542,558.669 238.44,558.669 "/>
<polyline clip-path="url(#clip210)" style="stroke:#000000; stroke-linecap:round; stroke-linejoin:round; stroke-width:4; stroke-opacity:1; fill:none" points="219.542,259.859 238.44,259.859 "/>
<path clip-path="url(#clip210)" d="M126.367 1142.09 Q122.755 1142.09 120.927 1145.65 Q119.121 1149.19 119.121 1156.32 Q119.121 1163.43 120.927 1166.99 Q122.755 1170.54 126.367 1170.54 Q130.001 1170.54 131.806 1166.99 Q133.635 1163.43 133.635 1156.32 Q133.635 1149.19 131.806 1145.65 Q130.001 1142.09 126.367 1142.09 M126.367 1138.38 Q132.177 1138.38 135.232 1142.99 Q138.311 1147.57 138.311 1156.32 Q138.311 1165.05 135.232 1169.66 Q132.177 1174.24 126.367 1174.24 Q120.556 1174.24 117.478 1169.66 Q114.422 1165.05 114.422 1156.32 Q114.422 1147.57 117.478 1142.99 Q120.556 1138.38 126.367 1138.38 Z" fill="#000000" fill-rule="nonzero" fill-opacity="1" /><path clip-path="url(#clip210)" d="M146.529 1167.69 L151.413 1167.69 L151.413 1173.57 L146.529 1173.57 L146.529 1167.69 Z" fill="#000000" fill-rule="nonzero" fill-opacity="1" /><path clip-path="url(#clip210)" d="M171.598 1142.09 Q167.987 1142.09 166.158 1145.65 Q164.352 1149.19 164.352 1156.32 Q164.352 1163.43 166.158 1166.99 Q167.987 1170.54 171.598 1170.54 Q175.232 1170.54 177.038 1166.99 Q178.866 1163.43 178.866 1156.32 Q178.866 1149.19 177.038 1145.65 Q175.232 1142.09 171.598 1142.09 M171.598 1138.38 Q177.408 1138.38 180.464 1142.99 Q183.542 1147.57 183.542 1156.32 Q183.542 1165.05 180.464 1169.66 Q177.408 1174.24 171.598 1174.24 Q165.788 1174.24 162.709 1169.66 Q159.653 1165.05 159.653 1156.32 Q159.653 1147.57 162.709 1142.99 Q165.788 1138.38 171.598 1138.38 Z" fill="#000000" fill-rule="nonzero" fill-opacity="1" /><path clip-path="url(#clip210)" d="M127.015 843.277 Q123.404 843.277 121.575 846.842 Q119.769 850.384 119.769 857.513 Q119.769 864.62 121.575 868.184 Q123.404 871.726 127.015 871.726 Q130.649 871.726 132.455 868.184 Q134.283 864.62 134.283 857.513 Q134.283 850.384 132.455 846.842 Q130.649 843.277 127.015 843.277 M127.015 839.574 Q132.825 839.574 135.88 844.18 Q138.959 848.763 138.959 857.513 Q138.959 866.24 135.88 870.847 Q132.825 875.43 127.015 875.43 Q121.205 875.43 118.126 870.847 Q115.07 866.24 115.07 857.513 Q115.07 848.763 118.126 844.18 Q121.205 839.574 127.015 839.574 Z" fill="#000000" fill-rule="nonzero" fill-opacity="1" /><path clip-path="url(#clip210)" d="M147.177 868.879 L152.061 868.879 L152.061 874.759 L147.177 874.759 L147.177 868.879 Z" fill="#000000" fill-rule="nonzero" fill-opacity="1" /><path clip-path="url(#clip210)" d="M176.413 856.124 Q179.769 856.842 181.644 859.11 Q183.542 861.379 183.542 864.712 Q183.542 869.828 180.024 872.629 Q176.505 875.43 170.024 875.43 Q167.848 875.43 165.533 874.99 Q163.241 874.573 160.788 873.717 L160.788 869.203 Q162.732 870.337 165.047 870.916 Q167.362 871.495 169.885 871.495 Q174.283 871.495 176.575 869.759 Q178.889 868.022 178.889 864.712 Q178.889 861.657 176.737 859.944 Q174.607 858.208 170.788 858.208 L166.76 858.208 L166.76 854.365 L170.973 854.365 Q174.422 854.365 176.251 852.999 Q178.079 851.611 178.079 849.018 Q178.079 846.356 176.181 844.944 Q174.306 843.509 170.788 843.509 Q168.866 843.509 166.667 843.925 Q164.468 844.342 161.829 845.222 L161.829 841.055 Q164.491 840.314 166.806 839.944 Q169.144 839.574 171.204 839.574 Q176.528 839.574 179.63 842.004 Q182.732 844.411 182.732 848.532 Q182.732 851.402 181.089 853.393 Q179.445 855.36 176.413 856.124 Z" fill="#000000" fill-rule="nonzero" fill-opacity="1" /><path clip-path="url(#clip210)" d="M126.205 544.468 Q122.593 544.468 120.765 548.032 Q118.959 551.574 118.959 558.704 Q118.959 565.81 120.765 569.375 Q122.593 572.917 126.205 572.917 Q129.839 572.917 131.644 569.375 Q133.473 565.81 133.473 558.704 Q133.473 551.574 131.644 548.032 Q129.839 544.468 126.205 544.468 M126.205 540.764 Q132.015 540.764 135.07 545.37 Q138.149 549.954 138.149 558.704 Q138.149 567.431 135.07 572.037 Q132.015 576.62 126.205 576.62 Q120.394 576.62 117.316 572.037 Q114.26 567.431 114.26 558.704 Q114.26 549.954 117.316 545.37 Q120.394 540.764 126.205 540.764 Z" fill="#000000" fill-rule="nonzero" fill-opacity="1" /><path clip-path="url(#clip210)" d="M146.366 570.069 L151.251 570.069 L151.251 575.949 L146.366 575.949 L146.366 570.069 Z" fill="#000000" fill-rule="nonzero" fill-opacity="1" /><path clip-path="url(#clip210)" d="M172.014 556.806 Q168.866 556.806 167.015 558.958 Q165.186 561.111 165.186 564.861 Q165.186 568.588 167.015 570.764 Q168.866 572.917 172.014 572.917 Q175.163 572.917 176.991 570.764 Q178.843 568.588 178.843 564.861 Q178.843 561.111 176.991 558.958 Q175.163 556.806 172.014 556.806 M181.297 542.153 L181.297 546.412 Q179.538 545.579 177.732 545.139 Q175.95 544.699 174.19 544.699 Q169.561 544.699 167.107 547.824 Q164.677 550.949 164.329 557.269 Q165.695 555.255 167.755 554.19 Q169.815 553.102 172.292 553.102 Q177.501 553.102 180.51 556.273 Q183.542 559.421 183.542 564.861 Q183.542 570.185 180.394 573.403 Q177.246 576.62 172.014 576.62 Q166.019 576.62 162.848 572.037 Q159.677 567.431 159.677 558.704 Q159.677 550.509 163.565 545.648 Q167.454 540.764 174.005 540.764 Q175.764 540.764 177.547 541.111 Q179.352 541.458 181.297 542.153 Z" fill="#000000" fill-rule="nonzero" fill-opacity="1" /><path clip-path="url(#clip210)" d="M126.552 245.658 Q122.941 245.658 121.112 249.223 Q119.306 252.765 119.306 259.894 Q119.306 267.001 121.112 270.565 Q122.941 274.107 126.552 274.107 Q130.186 274.107 131.992 270.565 Q133.82 267.001 133.82 259.894 Q133.82 252.765 131.992 249.223 Q130.186 245.658 126.552 245.658 M126.552 241.954 Q132.362 241.954 135.417 246.561 Q138.496 251.144 138.496 259.894 Q138.496 268.621 135.417 273.227 Q132.362 277.811 126.552 277.811 Q120.742 277.811 117.663 273.227 Q114.607 268.621 114.607 259.894 Q114.607 251.144 117.663 246.561 Q120.742 241.954 126.552 241.954 Z" fill="#000000" fill-rule="nonzero" fill-opacity="1" /><path clip-path="url(#clip210)" d="M146.714 271.26 L151.598 271.26 L151.598 277.139 L146.714 277.139 L146.714 271.26 Z" fill="#000000" fill-rule="nonzero" fill-opacity="1" /><path clip-path="url(#clip210)" d="M161.922 276.422 L161.922 272.163 Q163.681 272.996 165.487 273.436 Q167.292 273.876 169.028 273.876 Q173.658 273.876 176.089 270.774 Q178.542 267.649 178.889 261.306 Q177.547 263.297 175.487 264.362 Q173.427 265.427 170.927 265.427 Q165.741 265.427 162.709 262.302 Q159.7 259.153 159.7 253.714 Q159.7 248.39 162.848 245.172 Q165.996 241.954 171.227 241.954 Q177.223 241.954 180.371 246.561 Q183.542 251.144 183.542 259.894 Q183.542 268.065 179.653 272.95 Q175.788 277.811 169.237 277.811 Q167.477 277.811 165.672 277.464 Q163.866 277.116 161.922 276.422 M171.227 261.769 Q174.376 261.769 176.204 259.616 Q178.056 257.464 178.056 253.714 Q178.056 249.987 176.204 247.834 Q174.376 245.658 171.227 245.658 Q168.079 245.658 166.227 247.834 Q164.399 249.987 164.399 253.714 Q164.399 257.464 166.227 259.616 Q168.079 261.769 171.227 261.769 Z" fill="#000000" fill-rule="nonzero" fill-opacity="1" /><path clip-path="url(#clip210)" d="M22.818 999.086 L46.4666 1007.81 L46.4666 990.333 L22.818 999.086 M16.4842 1002.71 L16.4842 995.425 L64.0042 977.315 L64.0042 983.999 L51.8138 988.328 L51.8138 1009.75 L64.0042 1014.08 L64.0042 1020.86 L16.4842 1002.71 Z" fill="#000000" fill-rule="nonzero" fill-opacity="1" /><path clip-path="url(#clip210)" d="M49.9359 971.236 L28.3562 971.236 L28.3562 965.379 L49.7131 965.379 Q54.7739 965.379 57.3202 963.406 Q59.8346 961.433 59.8346 957.486 Q59.8346 952.743 56.8109 950.006 Q53.7872 947.237 48.5673 947.237 L28.3562 947.237 L28.3562 941.381 L64.0042 941.381 L64.0042 947.237 L58.5296 947.237 Q61.7762 949.37 63.3676 952.202 Q64.9272 955.003 64.9272 958.727 Q64.9272 964.87 61.1078 968.053 Q57.2883 971.236 49.9359 971.236 M27.4968 956.499 L27.4968 956.499 Z" fill="#000000" fill-rule="nonzero" fill-opacity="1" /><path clip-path="url(#clip210)" d="M18.2347 923.525 L28.3562 923.525 L28.3562 911.462 L32.9077 911.462 L32.9077 923.525 L52.2594 923.525 Q56.6199 923.525 57.8613 922.347 Q59.1026 921.138 59.1026 917.477 L59.1026 911.462 L64.0042 911.462 L64.0042 917.477 Q64.0042 924.257 61.4897 926.835 Q58.9434 929.413 52.2594 929.413 L32.9077 929.413 L32.9077 933.71 L28.3562 933.71 L28.3562 929.413 L18.2347 929.413 L18.2347 923.525 Z" fill="#000000" fill-rule="nonzero" fill-opacity="1" /><path clip-path="url(#clip210)" d="M32.4621 889.946 Q32.4621 894.656 36.1542 897.394 Q39.8145 900.131 46.212 900.131 Q52.6095 900.131 56.3017 897.425 Q59.9619 894.688 59.9619 889.946 Q59.9619 885.267 56.2698 882.53 Q52.5777 879.792 46.212 879.792 Q39.8781 879.792 36.186 882.53 Q32.4621 885.267 32.4621 889.946 M27.4968 889.946 Q27.4968 882.307 32.4621 877.946 Q37.4273 873.586 46.212 873.586 Q54.9649 873.586 59.9619 877.946 Q64.9272 882.307 64.9272 889.946 Q64.9272 897.616 59.9619 901.977 Q54.9649 906.306 46.212 906.306 Q37.4273 906.306 32.4621 901.977 Q27.4968 897.616 27.4968 889.946 Z" fill="#000000" fill-rule="nonzero" fill-opacity="1" /><path clip-path="url(#clip210)" d="M29.7248 838.224 L35.1993 838.224 Q33.8307 840.707 33.1623 843.221 Q32.4621 845.704 32.4621 848.25 Q32.4621 853.948 36.0905 857.099 Q39.6872 860.25 46.212 860.25 Q52.7369 860.25 56.3653 857.099 Q59.9619 853.948 59.9619 848.25 Q59.9619 845.704 59.2935 843.221 Q58.5933 840.707 57.2247 838.224 L62.6355 838.224 Q63.7814 840.675 64.3543 843.317 Q64.9272 845.927 64.9272 848.887 Q64.9272 856.94 59.8664 861.682 Q54.8057 866.424 46.212 866.424 Q37.491 866.424 32.4939 861.65 Q27.4968 856.844 27.4968 848.505 Q27.4968 845.8 28.0697 843.221 Q28.6108 840.643 29.7248 838.224 Z" fill="#000000" fill-rule="nonzero" fill-opacity="1" /><path clip-path="url(#clip210)" d="M32.4621 814.226 Q32.4621 818.936 36.1542 821.674 Q39.8145 824.411 46.212 824.411 Q52.6095 824.411 56.3017 821.705 Q59.9619 818.968 59.9619 814.226 Q59.9619 809.547 56.2698 806.81 Q52.5777 804.072 46.212 804.072 Q39.8781 804.072 36.186 806.81 Q32.4621 809.547 32.4621 814.226 M27.4968 814.226 Q27.4968 806.587 32.4621 802.226 Q37.4273 797.866 46.212 797.866 Q54.9649 797.866 59.9619 802.226 Q64.9272 806.587 64.9272 814.226 Q64.9272 821.896 59.9619 826.257 Q54.9649 830.586 46.212 830.586 Q37.4273 830.586 32.4621 826.257 Q27.4968 821.896 27.4968 814.226 Z" fill="#000000" fill-rule="nonzero" fill-opacity="1" /><path clip-path="url(#clip210)" d="M33.8307 767.501 Q33.2578 768.488 33.0032 769.666 Q32.7167 770.812 32.7167 772.212 Q32.7167 777.177 35.9632 779.851 Q39.1779 782.493 45.2253 782.493 L64.0042 782.493 L64.0042 788.381 L28.3562 788.381 L28.3562 782.493 L33.8944 782.493 Q30.6479 780.647 29.0883 777.686 Q27.4968 774.726 27.4968 770.493 Q27.4968 769.889 27.5923 769.156 Q27.656 768.424 27.8151 767.533 L33.8307 767.501 Z" fill="#000000" fill-rule="nonzero" fill-opacity="1" /><path clip-path="url(#clip210)" d="M33.8307 741.848 Q33.2578 742.834 33.0032 744.012 Q32.7167 745.158 32.7167 746.558 Q32.7167 751.523 35.9632 754.197 Q39.1779 756.839 45.2253 756.839 L64.0042 756.839 L64.0042 762.727 L28.3562 762.727 L28.3562 756.839 L33.8944 756.839 Q30.6479 754.993 29.0883 752.033 Q27.4968 749.073 27.4968 744.839 Q27.4968 744.235 27.5923 743.503 Q27.656 742.771 27.8151 741.879 L33.8307 741.848 Z" fill="#000000" fill-rule="nonzero" fill-opacity="1" /><path clip-path="url(#clip210)" d="M44.7161 706.645 L47.5806 706.645 L47.5806 733.572 Q53.6281 733.19 56.8109 729.944 Q59.9619 726.665 59.9619 720.841 Q59.9619 717.467 59.1344 714.316 Q58.3069 711.133 56.6518 708.014 L62.1899 708.014 Q63.5267 711.165 64.227 714.475 Q64.9272 717.785 64.9272 721.191 Q64.9272 729.721 59.9619 734.718 Q54.9967 739.683 46.5303 739.683 Q37.7774 739.683 32.6531 734.973 Q27.4968 730.23 27.4968 722.209 Q27.4968 715.016 32.1438 710.847 Q36.7589 706.645 44.7161 706.645 M42.9973 712.502 Q38.1912 712.565 35.3266 715.207 Q32.4621 717.817 32.4621 722.146 Q32.4621 727.047 35.2312 730.007 Q38.0002 732.936 43.0292 733.381 L42.9973 712.502 Z" fill="#000000" fill-rule="nonzero" fill-opacity="1" /><path clip-path="url(#clip210)" d="M14.479 697.033 L14.479 691.177 L64.0042 691.177 L64.0042 697.033 L14.479 697.033 Z" fill="#000000" fill-rule="nonzero" fill-opacity="1" /><path clip-path="url(#clip210)" d="M46.0847 662.722 Q46.0847 669.82 47.7079 672.557 Q49.3312 675.294 53.2461 675.294 Q56.3653 675.294 58.2114 673.257 Q60.0256 671.188 60.0256 667.655 Q60.0256 662.785 56.5881 659.857 Q53.1188 656.897 47.3897 656.897 L46.0847 656.897 L46.0847 662.722 M43.6657 651.041 L64.0042 651.041 L64.0042 656.897 L58.5933 656.897 Q61.8398 658.902 63.3994 661.894 Q64.9272 664.886 64.9272 669.215 Q64.9272 674.689 61.8716 677.936 Q58.7843 681.151 53.6281 681.151 Q47.6125 681.151 44.5569 677.14 Q41.5014 673.098 41.5014 665.109 L41.5014 656.897 L40.9285 656.897 Q36.8862 656.897 34.6901 659.571 Q32.4621 662.213 32.4621 667.019 Q32.4621 670.074 33.1941 672.971 Q33.9262 675.867 35.3903 678.541 L29.9795 678.541 Q28.7381 675.326 28.1334 672.302 Q27.4968 669.279 27.4968 666.414 Q27.4968 658.68 31.5072 654.86 Q35.5176 651.041 43.6657 651.041 Z" fill="#000000" fill-rule="nonzero" fill-opacity="1" /><path clip-path="url(#clip210)" d="M18.2347 633.185 L28.3562 633.185 L28.3562 621.122 L32.9077 621.122 L32.9077 633.185 L52.2594 633.185 Q56.6199 633.185 57.8613 632.007 Q59.1026 630.798 59.1026 627.138 L59.1026 621.122 L64.0042 621.122 L64.0042 627.138 Q64.0042 633.917 61.4897 636.495 Q58.9434 639.073 52.2594 639.073 L32.9077 639.073 L32.9077 643.37 L28.3562 643.37 L28.3562 639.073 L18.2347 639.073 L18.2347 633.185 Z" fill="#000000" fill-rule="nonzero" fill-opacity="1" /><path clip-path="url(#clip210)" d="M28.3562 613.419 L28.3562 607.563 L64.0042 607.563 L64.0042 613.419 L28.3562 613.419 M14.479 613.419 L14.479 607.563 L21.895 607.563 L21.895 613.419 L14.479 613.419 Z" fill="#000000" fill-rule="nonzero" fill-opacity="1" /><path clip-path="url(#clip210)" d="M32.4621 581.495 Q32.4621 586.206 36.1542 588.943 Q39.8145 591.681 46.212 591.681 Q52.6095 591.681 56.3017 588.975 Q59.9619 586.238 59.9619 581.495 Q59.9619 576.817 56.2698 574.079 Q52.5777 571.342 46.212 571.342 Q39.8781 571.342 36.186 574.079 Q32.4621 576.817 32.4621 581.495 M27.4968 581.495 Q27.4968 573.857 32.4621 569.496 Q37.4273 565.136 46.212 565.136 Q54.9649 565.136 59.9619 569.496 Q64.9272 573.857 64.9272 581.495 Q64.9272 589.166 59.9619 593.527 Q54.9649 597.855 46.212 597.855 Q37.4273 597.855 32.4621 593.527 Q27.4968 589.166 27.4968 581.495 Z" fill="#000000" fill-rule="nonzero" fill-opacity="1" /><path clip-path="url(#clip210)" d="M42.4881 525.795 L64.0042 525.795 L64.0042 531.652 L42.679 531.652 Q37.6183 531.652 35.1038 533.625 Q32.5894 535.599 32.5894 539.545 Q32.5894 544.288 35.6131 547.025 Q38.6368 549.762 43.8567 549.762 L64.0042 549.762 L64.0042 555.651 L28.3562 555.651 L28.3562 549.762 L33.8944 549.762 Q30.6797 547.662 29.0883 544.829 Q27.4968 541.964 27.4968 538.24 Q27.4968 532.098 31.3163 528.947 Q35.1038 525.795 42.4881 525.795 Z" fill="#000000" fill-rule="nonzero" fill-opacity="1" /><path clip-path="url(#clip210)" d="M809.196 20.1573 L798.096 50.2555 L820.336 50.2555 L809.196 20.1573 M804.578 12.096 L813.854 12.096 L836.904 72.576 L828.397 72.576 L822.888 57.061 L795.625 57.061 L790.116 72.576 L781.487 72.576 L804.578 12.096 Z" fill="#000000" fill-rule="nonzero" fill-opacity="1" /><path clip-path="url(#clip210)" d="M844.641 54.671 L844.641 27.2059 L852.095 27.2059 L852.095 54.3874 Q852.095 60.8284 854.606 64.0691 Q857.118 67.2693 862.141 67.2693 Q868.177 67.2693 871.661 63.421 Q875.185 59.5726 875.185 52.9291 L875.185 27.2059 L882.638 27.2059 L882.638 72.576 L875.185 72.576 L875.185 65.6084 Q872.471 69.7404 868.865 71.7658 Q865.301 73.7508 860.561 73.7508 Q852.743 73.7508 848.692 68.8897 Q844.641 64.0286 844.641 54.671 M863.397 26.1121 L863.397 26.1121 Z" fill="#000000" fill-rule="nonzero" fill-opacity="1" /><path clip-path="url(#clip210)" d="M905.364 14.324 L905.364 27.2059 L920.717 27.2059 L920.717 32.9987 L905.364 32.9987 L905.364 57.6282 Q905.364 63.1779 906.863 64.7578 Q908.402 66.3376 913.061 66.3376 L920.717 66.3376 L920.717 72.576 L913.061 72.576 Q904.432 72.576 901.151 69.3758 Q897.87 66.1351 897.87 57.6282 L897.87 32.9987 L892.401 32.9987 L892.401 27.2059 L897.87 27.2059 L897.87 14.324 L905.364 14.324 Z" fill="#000000" fill-rule="nonzero" fill-opacity="1" /><path clip-path="url(#clip210)" d="M948.101 32.4315 Q942.106 32.4315 938.622 37.1306 Q935.138 41.7891 935.138 49.9314 Q935.138 58.0738 938.581 62.7728 Q942.065 67.4314 948.101 67.4314 Q954.056 67.4314 957.54 62.7323 Q961.023 58.0333 961.023 49.9314 Q961.023 41.8701 957.54 37.1711 Q954.056 32.4315 948.101 32.4315 M948.101 26.1121 Q957.823 26.1121 963.373 32.4315 Q968.923 38.7509 968.923 49.9314 Q968.923 61.0714 963.373 67.4314 Q957.823 73.7508 948.101 73.7508 Q938.338 73.7508 932.789 67.4314 Q927.279 61.0714 927.279 49.9314 Q927.279 38.7509 932.789 32.4315 Q938.338 26.1121 948.101 26.1121 Z" fill="#000000" fill-rule="nonzero" fill-opacity="1" /><path clip-path="url(#clip210)" d="M1013.93 28.9478 L1013.93 35.9153 Q1010.77 34.1734 1007.57 33.3227 Q1004.41 32.4315 1001.17 32.4315 Q993.917 32.4315 989.906 37.0496 Q985.896 41.6271 985.896 49.9314 Q985.896 58.2358 989.906 62.8538 Q993.917 67.4314 1001.17 67.4314 Q1004.41 67.4314 1007.57 66.5807 Q1010.77 65.6895 1013.93 63.9476 L1013.93 70.8341 Q1010.81 72.2924 1007.45 73.0216 Q1004.13 73.7508 1000.36 73.7508 Q990.109 73.7508 984.073 67.3098 Q978.037 60.8689 978.037 49.9314 Q978.037 38.832 984.114 32.472 Q990.23 26.1121 1000.84 26.1121 Q1004.29 26.1121 1007.57 26.8413 Q1010.85 27.5299 1013.93 28.9478 Z" fill="#000000" fill-rule="nonzero" fill-opacity="1" /><path clip-path="url(#clip210)" d="M1044.47 32.4315 Q1038.48 32.4315 1034.99 37.1306 Q1031.51 41.7891 1031.51 49.9314 Q1031.51 58.0738 1034.95 62.7728 Q1038.44 67.4314 1044.47 67.4314 Q1050.43 67.4314 1053.91 62.7323 Q1057.39 58.0333 1057.39 49.9314 Q1057.39 41.8701 1053.91 37.1711 Q1050.43 32.4315 1044.47 32.4315 M1044.47 26.1121 Q1054.19 26.1121 1059.74 32.4315 Q1065.29 38.7509 1065.29 49.9314 Q1065.29 61.0714 1059.74 67.4314 Q1054.19 73.7508 1044.47 73.7508 Q1034.71 73.7508 1029.16 67.4314 Q1023.65 61.0714 1023.65 49.9314 Q1023.65 38.7509 1029.16 32.4315 Q1034.71 26.1121 1044.47 26.1121 Z" fill="#000000" fill-rule="nonzero" fill-opacity="1" /><path clip-path="url(#clip210)" d="M1103.94 34.1734 Q1102.68 33.4443 1101.18 33.1202 Q1099.73 32.7556 1097.94 32.7556 Q1091.62 32.7556 1088.22 36.8875 Q1084.86 40.9789 1084.86 48.6757 L1084.86 72.576 L1077.37 72.576 L1077.37 27.2059 L1084.86 27.2059 L1084.86 34.2544 Q1087.21 30.1225 1090.98 28.1376 Q1094.74 26.1121 1100.13 26.1121 Q1100.9 26.1121 1101.83 26.2337 Q1102.76 26.3147 1103.9 26.5172 L1103.94 34.1734 Z" fill="#000000" fill-rule="nonzero" fill-opacity="1" /><path clip-path="url(#clip210)" d="M1136.59 34.1734 Q1135.33 33.4443 1133.84 33.1202 Q1132.38 32.7556 1130.59 32.7556 Q1124.27 32.7556 1120.87 36.8875 Q1117.51 40.9789 1117.51 48.6757 L1117.51 72.576 L1110.02 72.576 L1110.02 27.2059 L1117.51 27.2059 L1117.51 34.2544 Q1119.86 30.1225 1123.63 28.1376 Q1127.39 26.1121 1132.78 26.1121 Q1133.55 26.1121 1134.48 26.2337 Q1135.41 26.3147 1136.55 26.5172 L1136.59 34.1734 Z" fill="#000000" fill-rule="nonzero" fill-opacity="1" /><path clip-path="url(#clip210)" d="M1181.39 48.0275 L1181.39 51.6733 L1147.12 51.6733 Q1147.61 59.3701 1151.74 63.421 Q1155.91 67.4314 1163.33 67.4314 Q1167.62 67.4314 1171.63 66.3781 Q1175.68 65.3249 1179.65 63.2184 L1179.65 70.267 Q1175.64 71.9684 1171.43 72.8596 Q1167.21 73.7508 1162.88 73.7508 Q1152.02 73.7508 1145.66 67.4314 Q1139.34 61.1119 1139.34 50.3365 Q1139.34 39.1965 1145.34 32.6746 Q1151.38 26.1121 1161.58 26.1121 Q1170.74 26.1121 1176.05 32.0264 Q1181.39 37.9003 1181.39 48.0275 M1173.94 45.84 Q1173.86 39.7232 1170.5 36.0774 Q1167.17 32.4315 1161.66 32.4315 Q1155.43 32.4315 1151.66 35.9558 Q1147.93 39.4801 1147.37 45.8805 L1173.94 45.84 Z" fill="#000000" fill-rule="nonzero" fill-opacity="1" /><path clip-path="url(#clip210)" d="M1193.63 9.54393 L1201.08 9.54393 L1201.08 72.576 L1193.63 72.576 L1193.63 9.54393 Z" fill="#000000" fill-rule="nonzero" fill-opacity="1" /><path clip-path="url(#clip210)" d="M1237.3 49.7694 Q1228.26 49.7694 1224.78 51.8354 Q1221.29 53.9013 1221.29 58.8839 Q1221.29 62.8538 1223.89 65.2034 Q1226.52 67.5124 1231.02 67.5124 Q1237.21 67.5124 1240.94 63.1374 Q1244.71 58.7219 1244.71 51.4303 L1244.71 49.7694 L1237.3 49.7694 M1252.16 46.6907 L1252.16 72.576 L1244.71 72.576 L1244.71 65.6895 Q1242.16 69.8214 1238.35 71.8063 Q1234.54 73.7508 1229.03 73.7508 Q1222.06 73.7508 1217.93 69.8619 Q1213.84 65.9325 1213.84 59.3701 Q1213.84 51.7138 1218.94 47.825 Q1224.09 43.9361 1234.26 43.9361 L1244.71 43.9361 L1244.71 43.2069 Q1244.71 38.0623 1241.31 35.2672 Q1237.94 32.4315 1231.83 32.4315 Q1227.94 32.4315 1224.25 33.3632 Q1220.56 34.295 1217.16 36.1584 L1217.16 29.2718 Q1221.25 27.692 1225.1 26.9223 Q1228.95 26.1121 1232.6 26.1121 Q1242.44 26.1121 1247.3 31.2163 Q1252.16 36.3204 1252.16 46.6907 Z" fill="#000000" fill-rule="nonzero" fill-opacity="1" /><path clip-path="url(#clip210)" d="M1274.89 14.324 L1274.89 27.2059 L1290.24 27.2059 L1290.24 32.9987 L1274.89 32.9987 L1274.89 57.6282 Q1274.89 63.1779 1276.39 64.7578 Q1277.93 66.3376 1282.58 66.3376 L1290.24 66.3376 L1290.24 72.576 L1282.58 72.576 Q1273.96 72.576 1270.67 69.3758 Q1267.39 66.1351 1267.39 57.6282 L1267.39 32.9987 L1261.92 32.9987 L1261.92 27.2059 L1267.39 27.2059 L1267.39 14.324 L1274.89 14.324 Z" fill="#000000" fill-rule="nonzero" fill-opacity="1" /><path clip-path="url(#clip210)" d="M1300.04 27.2059 L1307.5 27.2059 L1307.5 72.576 L1300.04 72.576 L1300.04 27.2059 M1300.04 9.54393 L1307.5 9.54393 L1307.5 18.9825 L1300.04 18.9825 L1300.04 9.54393 Z" fill="#000000" fill-rule="nonzero" fill-opacity="1" /><path clip-path="url(#clip210)" d="M1340.67 32.4315 Q1334.68 32.4315 1331.2 37.1306 Q1327.71 41.7891 1327.71 49.9314 Q1327.71 58.0738 1331.15 62.7728 Q1334.64 67.4314 1340.67 67.4314 Q1346.63 67.4314 1350.11 62.7323 Q1353.6 58.0333 1353.6 49.9314 Q1353.6 41.8701 1350.11 37.1711 Q1346.63 32.4315 1340.67 32.4315 M1340.67 26.1121 Q1350.4 26.1121 1355.95 32.4315 Q1361.5 38.7509 1361.5 49.9314 Q1361.5 61.0714 1355.95 67.4314 Q1350.4 73.7508 1340.67 73.7508 Q1330.91 73.7508 1325.36 67.4314 Q1319.85 61.0714 1319.85 49.9314 Q1319.85 38.7509 1325.36 32.4315 Q1330.91 26.1121 1340.67 26.1121 Z" fill="#000000" fill-rule="nonzero" fill-opacity="1" /><path clip-path="url(#clip210)" d="M1411.57 45.1919 L1411.57 72.576 L1404.11 72.576 L1404.11 45.4349 Q1404.11 38.994 1401.6 35.7938 Q1399.09 32.5936 1394.07 32.5936 Q1388.03 32.5936 1384.55 36.4419 Q1381.06 40.2903 1381.06 46.9338 L1381.06 72.576 L1373.57 72.576 L1373.57 27.2059 L1381.06 27.2059 L1381.06 34.2544 Q1383.74 30.163 1387.34 28.1376 Q1390.99 26.1121 1395.73 26.1121 Q1403.54 26.1121 1407.55 30.9732 Q1411.57 35.7938 1411.57 45.1919 Z" fill="#000000" fill-rule="nonzero" fill-opacity="1" /><path clip-path="url(#clip210)" d="M1453.13 12.096 L1487.88 12.096 L1487.88 18.9825 L1461.31 18.9825 L1461.31 36.8065 L1485.29 36.8065 L1485.29 43.6931 L1461.31 43.6931 L1461.31 72.576 L1453.13 72.576 L1453.13 12.096 Z" fill="#000000" fill-rule="nonzero" fill-opacity="1" /><path clip-path="url(#clip210)" d="M1495.22 54.671 L1495.22 27.2059 L1502.67 27.2059 L1502.67 54.3874 Q1502.67 60.8284 1505.18 64.0691 Q1507.69 67.2693 1512.72 67.2693 Q1518.75 67.2693 1522.24 63.421 Q1525.76 59.5726 1525.76 52.9291 L1525.76 27.2059 L1533.21 27.2059 L1533.21 72.576 L1525.76 72.576 L1525.76 65.6084 Q1523.05 69.7404 1519.44 71.7658 Q1515.88 73.7508 1511.14 73.7508 Q1503.32 73.7508 1499.27 68.8897 Q1495.22 64.0286 1495.22 54.671 M1513.97 26.1121 L1513.97 26.1121 Z" fill="#000000" fill-rule="nonzero" fill-opacity="1" /><path clip-path="url(#clip210)" d="M1586.28 45.1919 L1586.28 72.576 L1578.83 72.576 L1578.83 45.4349 Q1578.83 38.994 1576.32 35.7938 Q1573.8 32.5936 1568.78 32.5936 Q1562.74 32.5936 1559.26 36.4419 Q1555.78 40.2903 1555.78 46.9338 L1555.78 72.576 L1548.28 72.576 L1548.28 27.2059 L1555.78 27.2059 L1555.78 34.2544 Q1558.45 30.163 1562.06 28.1376 Q1565.7 26.1121 1570.44 26.1121 Q1578.26 26.1121 1582.27 30.9732 Q1586.28 35.7938 1586.28 45.1919 Z" fill="#000000" fill-rule="nonzero" fill-opacity="1" /><path clip-path="url(#clip210)" d="M1633.8 28.9478 L1633.8 35.9153 Q1630.64 34.1734 1627.44 33.3227 Q1624.28 32.4315 1621.04 32.4315 Q1613.79 32.4315 1609.78 37.0496 Q1605.77 41.6271 1605.77 49.9314 Q1605.77 58.2358 1609.78 62.8538 Q1613.79 67.4314 1621.04 67.4314 Q1624.28 67.4314 1627.44 66.5807 Q1630.64 65.6895 1633.8 63.9476 L1633.8 70.8341 Q1630.68 72.2924 1627.32 73.0216 Q1623.99 73.7508 1620.23 73.7508 Q1609.98 73.7508 1603.94 67.3098 Q1597.91 60.8689 1597.91 49.9314 Q1597.91 38.832 1603.98 32.472 Q1610.1 26.1121 1620.71 26.1121 Q1624.16 26.1121 1627.44 26.8413 Q1630.72 27.5299 1633.8 28.9478 Z" fill="#000000" fill-rule="nonzero" fill-opacity="1" /><path clip-path="url(#clip210)" d="M1654.13 14.324 L1654.13 27.2059 L1669.49 27.2059 L1669.49 32.9987 L1654.13 32.9987 L1654.13 57.6282 Q1654.13 63.1779 1655.63 64.7578 Q1657.17 66.3376 1661.83 66.3376 L1669.49 66.3376 L1669.49 72.576 L1661.83 72.576 Q1653.2 72.576 1649.92 69.3758 Q1646.64 66.1351 1646.64 57.6282 L1646.64 32.9987 L1641.17 32.9987 L1641.17 27.2059 L1646.64 27.2059 L1646.64 14.324 L1654.13 14.324 Z" fill="#000000" fill-rule="nonzero" fill-opacity="1" /><path clip-path="url(#clip210)" d="M1679.29 27.2059 L1686.74 27.2059 L1686.74 72.576 L1679.29 72.576 L1679.29 27.2059 M1679.29 9.54393 L1686.74 9.54393 L1686.74 18.9825 L1679.29 18.9825 L1679.29 9.54393 Z" fill="#000000" fill-rule="nonzero" fill-opacity="1" /><path clip-path="url(#clip210)" d="M1719.92 32.4315 Q1713.92 32.4315 1710.44 37.1306 Q1706.96 41.7891 1706.96 49.9314 Q1706.96 58.0738 1710.4 62.7728 Q1713.88 67.4314 1719.92 67.4314 Q1725.87 67.4314 1729.36 62.7323 Q1732.84 58.0333 1732.84 49.9314 Q1732.84 41.8701 1729.36 37.1711 Q1725.87 32.4315 1719.92 32.4315 M1719.92 26.1121 Q1729.64 26.1121 1735.19 32.4315 Q1740.74 38.7509 1740.74 49.9314 Q1740.74 61.0714 1735.19 67.4314 Q1729.64 73.7508 1719.92 73.7508 Q1710.16 73.7508 1704.61 67.4314 Q1699.1 61.0714 1699.1 49.9314 Q1699.1 38.7509 1704.61 32.4315 Q1710.16 26.1121 1719.92 26.1121 Z" fill="#000000" fill-rule="nonzero" fill-opacity="1" /><path clip-path="url(#clip210)" d="M1790.81 45.1919 L1790.81 72.576 L1783.36 72.576 L1783.36 45.4349 Q1783.36 38.994 1780.85 35.7938 Q1778.33 32.5936 1773.31 32.5936 Q1767.27 32.5936 1763.79 36.4419 Q1760.31 40.2903 1760.31 46.9338 L1760.31 72.576 L1752.81 72.576 L1752.81 27.2059 L1760.31 27.2059 L1760.31 34.2544 Q1762.98 30.163 1766.59 28.1376 Q1770.23 26.1121 1774.97 26.1121 Q1782.79 26.1121 1786.8 30.9732 Q1790.81 35.7938 1790.81 45.1919 Z" fill="#000000" fill-rule="nonzero" fill-opacity="1" /><polyline clip-path="url(#clip212)" style="stroke:#cba6f7; stroke-linecap:round; stroke-linejoin:round; stroke-width:4; stroke-opacity:1; fill:none" points="279.916,160.256 481.163,1055.31 682.409,1228.92 883.656,1234.25 1084.9,1299.96 1286.15,1079.13 1487.4,1058.95 1688.64,1152.23 1889.89,1030.11 2091.14,1191.45 2292.38,1229.38 "/>
<polyline clip-path="url(#clip212)" style="stroke:#f38ba8; stroke-linecap:round; stroke-linejoin:round; stroke-width:4; stroke-opacity:1; fill:none" points="279.916,160.256 481.163,1159.04 682.409,1193.58 883.656,1161.02 1084.9,1189.48 1286.15,1083.9 1487.4,1178.74 1688.64,1083.98 1889.89,1156.31 2091.14,1262.86 2292.38,1083.21 "/>
<polyline clip-path="url(#clip212)" style="stroke:#fab387; stroke-linecap:round; stroke-linejoin:round; stroke-width:4; stroke-opacity:1; fill:none" points="279.916,160.256 481.163,1007.93 682.409,1203.32 883.656,1194.93 1084.9,1183.1 1286.15,1159.27 1487.4,1088.15 1688.64,1276.92 1889.89,1183.59 2091.14,1020.31 2292.38,1260.42 "/>
<polyline clip-path="url(#clip212)" style="stroke:#a6e3a1; stroke-linecap:round; stroke-linejoin:round; stroke-width:4; stroke-opacity:1; fill:none" points="279.916,160.256 481.163,931.998 682.409,1130.72 883.656,1182.93 1084.9,1070.54 1286.15,1098.07 1487.4,1190.06 1688.64,1105.55 1889.89,1227.89 2091.14,1152.24 2292.38,1200.66 "/>
<polyline clip-path="url(#clip212)" style="stroke:#f5c2e7; stroke-linecap:round; stroke-linejoin:round; stroke-width:4; stroke-opacity:1; fill:none" points="279.916,160.256 481.163,934.912 682.409,1149.03 883.656,1098.29 1084.9,1218.59 1286.15,1128.95 1487.4,1157.64 1688.64,1228.96 1889.89,1254.29 2091.14,1310.12 2292.38,1266.07 "/>
<polyline clip-path="url(#clip212)" style="stroke:#94e2d5; stroke-linecap:round; stroke-linejoin:round; stroke-width:4; stroke-opacity:1; fill:none" points="279.916,160.256 481.163,979.604 682.409,1055.29 883.656,1133.12 1084.9,1005.2 1286.15,1182.27 1487.4,1188.68 1688.64,1227.34 1889.89,1278.94 2091.14,1231.86 2292.38,1244.4 "/>
<polyline clip-path="url(#clip212)" style="stroke:#89b4fa; stroke-linecap:round; stroke-linejoin:round; stroke-width:4; stroke-opacity:1; fill:none" points="279.916,160.256 481.163,1024.32 682.409,949.588 883.656,1069.47 1084.9,1048.32 1286.15,1066.24 1487.4,1024.65 1688.64,1144.55 1889.89,1142.94 2091.14,1119.38 2292.38,1298.57 "/>
<polyline clip-path="url(#clip212)" style="stroke:#cba6f7; stroke-linecap:round; stroke-linejoin:round; stroke-width:4; stroke-opacity:1; fill:none" points="279.916,160.256 481.163,1117.8 682.409,1126.9 883.656,1154.77 1084.9,1240.49 1286.15,1148.79 1487.4,1002.22 1688.64,1065.05 1889.89,1073.6 2091.14,1135.9 2292.38,1239.17 "/>
<polyline clip-path="url(#clip212)" style="stroke:#f38ba8; stroke-linecap:round; stroke-linejoin:round; stroke-width:4; stroke-opacity:1; fill:none" points="279.916,160.256 481.163,1126.86 682.409,1307.99 883.656,1276.94 1084.9,1150.55 1286.15,1190.29 1487.4,1287.08 1688.64,1075.02 1889.89,1058.29 2091.14,1227.88 2292.38,1173.61 "/>
<polyline clip-path="url(#clip212)" style="stroke:#fab387; stroke-linecap:round; stroke-linejoin:round; stroke-width:4; stroke-opacity:1; fill:none" points="279.916,160.256 481.163,938.383 682.409,1048.79 883.656,1240.37 1084.9,1174 1286.15,1126.08 1487.4,1092.11 1688.64,1169.45 1889.89,1095.94 2091.14,1131.56 2292.38,1148.07 "/>
<polyline clip-path="url(#clip212)" style="stroke:#a6e3a1; stroke-linecap:round; stroke-linejoin:round; stroke-width:4; stroke-opacity:1; fill:none" points="279.916,160.256 481.163,1030.23 682.409,1103.66 883.656,1101.43 1084.9,1220.38 1286.15,1284.78 1487.4,1220.49 1688.64,1286.55 1889.89,1312.18 2091.14,1213.75 2292.38,1085.6 "/>
<polyline clip-path="url(#clip212)" style="stroke:#f5c2e7; stroke-linecap:round; stroke-linejoin:round; stroke-width:4; stroke-opacity:1; fill:none" points="279.916,160.256 481.163,1125.72 682.409,1167.44 883.656,1192.18 1084.9,1086.25 1286.15,1264.52 1487.4,1311.93 1688.64,1205.56 1889.89,1177.89 2091.14,1092.93 2292.38,1117.17 "/>
<polyline clip-path="url(#clip212)" style="stroke:#94e2d5; stroke-linecap:round; stroke-linejoin:round; stroke-width:4; stroke-opacity:1; fill:none" points="279.916,160.256 481.163,1003.06 682.409,1254.44 883.656,1082.51 1084.9,1187.26 1286.15,1110.42 1487.4,1105.54 1688.64,1113.44 1889.89,1232.12 2091.14,1062.27 2292.38,1074.28 "/>
<polyline clip-path="url(#clip212)" style="stroke:#89b4fa; stroke-linecap:round; stroke-linejoin:round; stroke-width:4; stroke-opacity:1; fill:none" points="279.916,160.256 481.163,905.173 682.409,1047.44 883.656,1081.03 1084.9,1082.56 1286.15,1054.54 1487.4,1033.8 1688.64,1098.04 1889.89,1161.29 2091.14,1009.83 2292.38,1045.65 "/>
<polyline clip-path="url(#clip212)" style="stroke:#cba6f7; stroke-linecap:round; stroke-linejoin:round; stroke-width:4; stroke-opacity:1; fill:none" points="279.916,160.256 481.163,1102.36 682.409,1229.72 883.656,1219.06 1084.9,1094.99 1286.15,1160.39 1487.4,1183.62 1688.64,1162.15 1889.89,1093.34 2091.14,1251.16 2292.38,1256.87 "/>
<polyline clip-path="url(#clip212)" style="stroke:#f38ba8; stroke-linecap:round; stroke-linejoin:round; stroke-width:4; stroke-opacity:1; fill:none" points="279.916,160.256 481.163,1053.53 682.409,1249.01 883.656,1103.19 1084.9,1134.94 1286.15,1149.74 1487.4,1199.03 1688.64,1187.66 1889.89,1125.36 2091.14,1194.95 2292.38,1077.42 "/>
<polyline clip-path="url(#clip212)" style="stroke:#fab387; stroke-linecap:round; stroke-linejoin:round; stroke-width:4; stroke-opacity:1; fill:none" points="279.916,160.256 481.163,901.236 682.409,1210.54 883.656,1366.49 1084.9,1243.75 1286.15,1103.1 1487.4,1187.85 1688.64,1251.25 1889.89,1205.22 2091.14,1123.17 2292.38,1031.76 "/>
<polyline clip-path="url(#clip212)" style="stroke:#a6e3a1; stroke-linecap:round; stroke-linejoin:round; stroke-width:4; stroke-opacity:1; fill:none" points="279.916,160.256 481.163,1100.29 682.409,1208.67 883.656,1386.4 1084.9,1224.6 1286.15,1037.5 1487.4,1120.41 1688.64,1305.97 1889.89,1156.67 2091.14,1162.26 2292.38,1071.53 "/>
<polyline clip-path="url(#clip212)" style="stroke:#f5c2e7; stroke-linecap:round; stroke-linejoin:round; stroke-width:4; stroke-opacity:1; fill:none" points="279.916,160.256 481.163,920.667 682.409,1025.38 883.656,1153.19 1084.9,1225.52 1286.15,1046.81 1487.4,1256.37 1688.64,1267.33 1889.89,1194.38 2091.14,1202.68 2292.38,1047.15 "/>
<polyline clip-path="url(#clip212)" style="stroke:#94e2d5; stroke-linecap:round; stroke-linejoin:round; stroke-width:4; stroke-opacity:1; fill:none" points="279.916,160.256 481.163,896.212 682.409,1122.17 883.656,1205.36 1084.9,1206.31 1286.15,1280.1 1487.4,1184.91 1688.64,1212.08 1889.89,1146.8 2091.14,1221.74 2292.38,1155.69 "/>
<polyline clip-path="url(#clip212)" style="stroke:#000000; stroke-linecap:round; stroke-linejoin:round; stroke-width:8; stroke-opacity:1; fill:none" points="279.916,160.256 481.163,1015.73 682.409,1150.63 883.656,1181.85 1084.9,1164.34 1286.15,1137.74 1487.4,1153.61 1688.64,1180.95 1889.89,1165.36 2091.14,1165.91 2292.38,1155.33 "/>
<polyline clip-path="url(#clip212)" style="stroke:#000000; stroke-linecap:round; stroke-linejoin:round; stroke-width:12; stroke-opacity:1; fill:none" points="279.916,2722.89 279.916,-1176.24 "/>
<polyline clip-path="url(#clip212)" style="stroke:#000000; stroke-linecap:round; stroke-linejoin:round; stroke-width:12; stroke-opacity:1; fill:none" points="481.163,2722.89 481.163,-1176.24 "/>
<polyline clip-path="url(#clip212)" style="stroke:#000000; stroke-linecap:round; stroke-linejoin:round; stroke-width:12; stroke-opacity:1; fill:none" points="682.409,2722.89 682.409,-1176.24 "/>
<polyline clip-path="url(#clip212)" style="stroke:#000000; stroke-linecap:round; stroke-linejoin:round; stroke-width:12; stroke-opacity:1; fill:none" points="883.656,2722.89 883.656,-1176.24 "/>
<polyline clip-path="url(#clip212)" style="stroke:#000000; stroke-linecap:round; stroke-linejoin:round; stroke-width:12; stroke-opacity:1; fill:none" points="1084.9,2722.89 1084.9,-1176.24 "/>
<polyline clip-path="url(#clip212)" style="stroke:#000000; stroke-linecap:round; stroke-linejoin:round; stroke-width:12; stroke-opacity:1; fill:none" points="1286.15,2722.89 1286.15,-1176.24 "/>
<polyline clip-path="url(#clip212)" style="stroke:#000000; stroke-linecap:round; stroke-linejoin:round; stroke-width:12; stroke-opacity:1; fill:none" points="1487.4,2722.89 1487.4,-1176.24 "/>
<polyline clip-path="url(#clip212)" style="stroke:#000000; stroke-linecap:round; stroke-linejoin:round; stroke-width:12; stroke-opacity:1; fill:none" points="1688.64,2722.89 1688.64,-1176.24 "/>
<polyline clip-path="url(#clip212)" style="stroke:#000000; stroke-linecap:round; stroke-linejoin:round; stroke-width:12; stroke-opacity:1; fill:none" points="1889.89,2722.89 1889.89,-1176.24 "/>
<polyline clip-path="url(#clip212)" style="stroke:#000000; stroke-linecap:round; stroke-linejoin:round; stroke-width:12; stroke-opacity:1; fill:none" points="2091.14,2722.89 2091.14,-1176.24 "/>
<polyline clip-path="url(#clip212)" style="stroke:#000000; stroke-linecap:round; stroke-linejoin:round; stroke-width:12; stroke-opacity:1; fill:none" points="2292.38,2722.89 2292.38,-1176.24 "/>
</svg>
