<?xml version="1.0" encoding="utf-8"?>
<svg xmlns="http://www.w3.org/2000/svg" xmlns:xlink="http://www.w3.org/1999/xlink" width="600" height="400" viewBox="0 0 2400 1600">
<defs>
  <clipPath id="clip740">
    <rect x="0" y="0" width="2400" height="1600"/>
  </clipPath>
</defs>
<path clip-path="url(#clip740)" d="M0 1600 L2400 1600 L2400 0 L0 0  Z" fill="#ffffff" fill-rule="evenodd" fill-opacity="1"/>
<defs>
  <clipPath id="clip741">
    <rect x="480" y="0" width="1681" height="1600"/>
  </clipPath>
</defs>
<path clip-path="url(#clip740)" d="M47.2441 1552.76 L2352.76 1552.76 L2352.76 47.2441 L47.2441 47.2441  Z" fill="#ffffff" fill-rule="evenodd" fill-opacity="1"/>
<defs>
  <clipPath id="clip742">
    <rect x="47" y="47" width="2307" height="1507"/>
  </clipPath>
</defs>
<polyline clip-path="url(#clip742)" style="stroke:#ca9ee6; stroke-linecap:round; stroke-linejoin:round; stroke-width:8; stroke-opacity:1; fill:none" points="112.494,441.609 113.945,474.838 115.396,422.381 116.847,380.574 118.298,406.486 119.749,326.563 121.2,324.288 122.651,280.158 124.102,328.307 125.553,301.089 127.004,283.187 128.455,260.423 129.906,211.972 131.357,280.656 132.808,237.394 134.259,226.579 135.71,190.565 137.161,263.873 138.612,221.984 140.063,175.258 141.514,216.331 142.965,115.457 144.416,164.278 145.867,187.498 147.318,123.473 148.769,197.257 150.22,168.266 151.671,215.783 153.122,166.371 154.573,198.901 156.024,195.121 157.475,205.459 158.926,219.931 160.377,204.227 161.828,205.097 163.279,184.214 164.73,234.514 166.18,285.865 167.631,285.182 169.082,305.015 170.533,315.584 171.984,312.616 173.435,365.898 174.886,354.518 176.337,336.625 177.788,347.895 179.239,358.232 180.69,441.271 182.141,435.763 183.592,463.775 185.043,489.873 186.494,489.216 187.945,532.985 189.396,565.794 190.847,543.403 192.298,619.741 193.749,550.063 195.2,605.607 196.651,652.568 198.102,651.868 199.553,651.245 201.004,724.821 202.455,692.262 203.906,677.767 205.357,701.463 206.808,790.075 208.259,724.572 209.71,767.885 211.161,762.751 212.612,809.904 214.063,799.521 215.514,736.513 216.965,759.618 218.416,760.877 219.867,768.663 221.318,777.613 222.769,799.163 224.219,764.6 225.67,817.339 227.121,806.136 228.572,723.017 230.023,790.831 231.474,757.943 232.925,711.833 234.376,727.734 235.827,740.788 237.278,695.278 238.729,724.883 240.18,668.019 241.631,682.503 243.082,662.162 244.533,589.927 245.984,632.217 247.435,628.843 248.886,558.532 250.337,518.291 251.788,543.399 253.239,551.179 254.69,522.678 256.141,523.432 257.592,519.249 259.043,396.376 260.494,418.544 261.945,409.952 263.396,393.055 264.847,404.752 266.298,330.481 267.749,341.894 269.2,323.348 270.651,323.928 272.102,292.733 273.553,254.391 275.004,244.76 276.455,229.625 277.906,188.734 279.357,308.467 280.807,272.558 282.258,156.185 283.709,168.868 285.16,184.147 286.611,161.178 288.062,145.943 289.513,155.407 290.964,160.409 292.415,190.465 293.866,207.03 295.317,173.769 296.768,241.279 298.219,193.664 299.67,161.364 301.121,231.859 302.572,176.705 304.023,215.156 305.474,147.449 306.925,213.396 308.376,240.033 309.827,240.526 311.278,233.899 312.729,287.781 314.18,268.916 315.631,350.053 317.082,297.484 318.533,394.122 319.984,364.985 321.435,360.22 322.886,436.305 324.337,433.486 325.788,398.428 327.239,448.382 328.69,440.9 330.141,513.265 331.592,525.895 333.043,553.383 334.494,542.277 335.945,508.986 337.396,576.859 338.846,641.108 340.297,686.985 341.748,691.359 343.199,717.391 344.65,632.484 346.101,712.794 347.552,713.602 349.003,727.159 350.454,779.095 351.905,740.799 353.356,758.111 354.807,807.082 356.258,778.304 357.709,738.913 359.16,820.002 360.611,767.025 362.062,798.351 363.513,780.217 364.964,764.981 366.415,852.137 367.866,781.085 369.317,730.479 370.768,789.503 372.219,704.236 373.67,783.061 375.121,778.152 376.572,774.753 378.023,748.571 379.474,792.823 380.925,722.416 382.376,703.89 383.827,645.953 385.278,709.8 386.729,660.576 388.18,629.752 389.631,637.008 391.082,580.171 392.533,632.232 393.984,560.028 395.435,553.08 396.885,518.958 398.336,497.113 399.787,483.673 401.238,503.827 402.689,463.107 404.14,405.367 405.591,362.873 407.042,416.856 408.493,401.422 409.944,344.069 411.395,416.554 412.846,376.411 414.297,319.172 415.748,298.174 417.199,240.381 418.65,260.571 420.101,274.62 421.552,244.543 423.003,244.276 424.454,191.913 425.905,196.375 427.356,164.551 428.807,206.136 430.258,146.643 431.709,232.93 433.16,164.591 434.611,139.95 436.062,209.062 437.513,238.939 438.964,139.048 440.415,189.679 441.866,194.913 443.317,188.241 444.768,153.033 446.219,142.904 447.67,192.325 449.121,226.655 450.572,288.578 452.023,204.556 453.473,210.695 454.924,250.247 456.375,235.659 457.826,315.056 459.277,303.771 460.728,295.62 462.179,312.126 463.63,388.129 465.081,415.887 466.532,297.882 467.983,378.224 469.434,438.297 470.885,447.109 472.336,545.187 473.787,469.399 475.238,552.104 476.689,525.501 478.14,548.03 479.591,554.523 481.042,557.428 482.493,613.255 483.944,602.986 485.395,603.924 486.846,598.772 488.297,618.583 489.748,689.028 491.199,667.759 492.65,696.2 494.101,696.567 495.552,769.752 497.003,715.866 498.454,724.987 499.905,761.721 501.356,702.873 502.807,801.58 504.258,793.143 505.709,825.324 507.16,796.894 508.611,781.803 510.062,830.675 511.512,762.876 512.963,768.113 514.414,793.515 515.865,829.673 517.316,793.477 518.767,782.182 520.218,714.952 521.669,742.2 523.12,721.163 524.571,757.946 526.022,766.055 527.473,714.262 528.924,653.661 530.375,622.543 531.826,692.781 533.277,661.795 534.728,601.108 536.179,585.766 537.63,552.799 539.081,528.765 540.532,566.392 541.983,498.529 543.434,491.497 544.885,507.437 546.336,517.901 547.787,478.553 549.238,454.105 550.689,416.897 552.14,405.986 553.591,361.707 555.042,353.807 556.493,322.56 557.944,339.719 559.395,395.203 560.846,284.534 562.297,257.308 563.748,255.5 565.199,263.462 566.65,258.707 568.1,209.724 569.551,173.928 571.002,169.166 572.453,190.445 573.904,175.273 575.355,212.768 576.806,218.194 578.257,189.435 579.708,222.075 581.159,208.773 582.61,210.078 584.061,153.505 585.512,141.619 586.963,198.716 588.414,164.356 589.865,182.986 591.316,183.986 592.767,191.45 594.218,216.704 595.669,175.295 597.12,206.692 598.571,262.894 600.022,286.142 601.473,232.978 602.924,266.743 604.375,282.101 605.826,332.53 607.277,374.774 608.728,310.967 610.179,347.393 611.63,367.223 613.081,383.238 614.532,393.142 615.983,437.247 617.434,386.101 618.885,499.055 620.336,513.55 621.787,502.105 623.238,562.546 624.689,526.591 626.139,593.654 627.59,590.61 629.041,591.951 630.492,565.145 631.943,591.313 633.394,709.695 634.845,678.614 636.296,684.829 637.747,739.038 639.198,729.96 640.649,676.248 642.1,713.354 643.551,759.825 645.002,789.239 646.453,774.971 647.904,772.101 649.355,821.094 650.806,770.226 652.257,765.09 653.708,817.253 655.159,764.673 656.61,794.94 658.061,786.204 659.512,831.815 660.963,787.839 662.414,756.486 663.865,784.16 665.316,749.107 666.767,739.912 668.218,750.849 669.669,782.433 671.12,728.599 672.571,693.04 674.022,676.442 675.473,706.591 676.924,648.315 678.375,637.689 679.826,662.562 681.277,629.761 682.728,562.838 684.178,559.067 685.629,557.683 687.08,532.431 688.531,541.529 689.982,464.146 691.433,467.858 692.884,454.818 694.335,470.105 695.786,473.511 697.237,440.496 698.688,344.131 700.139,348.354 701.59,293.118 703.041,342.399 704.492,249.389 705.943,286.198 707.394,251.941 708.845,245.122 710.296,244.984 711.747,212.03 713.198,225.875 714.649,202.522 716.1,194.541 717.551,116.765 719.002,224.115 720.453,178.652 721.904,124.213 723.355,183.766 724.806,178.575 726.257,180.41 727.708,227.437 729.159,179.098 730.61,176.322 732.061,214.887 733.512,199.041 734.963,204.544 736.414,192.393 737.865,167.479 739.316,262.885 740.766,198.829 742.217,218.602 743.668,225.669 745.119,252.586 746.57,234.334 748.021,298.865 749.472,287.435 750.923,283.115 752.374,347.319 753.825,390.061 755.276,340.597 756.727,374.311 758.178,405.838 759.629,430.027 761.08,462.307 762.531,437.034 763.982,508.752 765.433,480.966 766.884,539.17 768.335,540.855 769.786,584.239 771.237,541.929 772.688,607.551 774.139,626.25 775.59,645.507 777.041,676.537 778.492,699.314 779.943,651.364 781.394,704.702 782.845,707.735 784.296,688.47 785.747,733.934 787.198,793.622 788.649,700.942 790.1,740.868 791.551,747.002 793.002,768.637 794.453,783.113 795.904,782.771 797.355,756.358 798.805,833.408 800.256,794.534 801.707,787.039 803.158,782.815 804.609,826.462 806.06,756.501 807.511,793.085 808.962,817.57 810.413,787.206 811.864,747.77 813.315,760.022 814.766,709.618 816.217,686.187 817.668,698.998 819.119,701.597 820.57,658.499 822.021,626.436 823.472,601.61 824.923,630.512 826.374,546.212 827.825,619.877 829.276,573.822 830.727,550.746 832.178,535 833.629,484.207 835.08,520.087 836.531,494.999 837.982,478.642 839.433,395.943 840.884,453.058 842.335,371.319 843.786,329.451 845.237,350.588 846.688,307.836 848.139,314.603 849.59,270.523 851.041,241.943 852.492,291.287 853.943,292.261 855.393,246.631 856.844,217.03 858.295,168.057 859.746,238.316 861.197,271.506 862.648,138.316 864.099,191.32 865.55,217.741 867.001,159.45 868.452,153.316 869.903,157.461 871.354,212.383 872.805,149.381 874.256,210.128 875.707,151.242 877.158,202.111 878.609,158.43 880.06,174.353 881.511,202.583 882.962,181.641 884.413,184.569 885.864,187.033 887.315,228.241 888.766,248.671 890.217,264.981 891.668,269.766 893.119,297.301 894.57,294.123 896.021,317.848 897.472,317.908 898.923,319.79 900.374,340.794 901.825,392.593 903.276,431.147 904.727,410.081 906.178,415.624 907.629,504.917 909.08,487.951 910.531,463.571 911.982,487.892 913.432,562.903 914.883,512.488 916.334,593.983 917.785,570.345 919.236,649.358 920.687,654.468 922.138,667.091 923.589,692.256 925.04,643.739 926.491,676.829 927.942,756.487 929.393,721.569 930.844,715.721 932.295,739.03 933.746,783.482 935.197,763.199 936.648,791.818 938.099,770.565 939.55,761.229 941.001,874.215 942.452,807.667 943.903,779.474 945.354,729.484 946.805,844.743 948.256,754.046 949.707,761.483 951.158,766.091 952.609,823.776 954.06,750.485 955.511,743.5 956.962,798.228 958.413,759.965 959.864,743.593 961.315,719.153 962.766,634.688 964.217,668.358 965.668,701.93 967.119,630.892 968.57,642.467 970.021,626.275 971.471,613.261 972.922,598.79 974.373,582.688 975.824,523.747 977.275,573.381 978.726,546.287 980.177,474.242 981.628,429.212 983.079,521.122 984.53,445.552 985.981,378.248 987.432,413.709 988.883,355.273 990.334,401.833 991.785,355.618 993.236,343.835 994.687,295.223 996.138,306.096 997.589,298.435 999.04,257.955 1000.49,261.245 1001.94,187.421 1003.39,233.062 1004.84,199.045 1006.29,194.474 1007.75,167.603 1009.2,161.63 1010.65,207.647 1012.1,192.161 1013.55,156.34 1015,226.959 1016.45,143.831 1017.9,173.4 1019.35,125.852 1020.8,190.908 1022.26,194.561 1023.71,186.311 1025.16,194.337 1026.61,163.025 1028.06,164.627 1029.51,231.553 1030.96,242.246 1032.41,269.006 1033.86,272.952 1035.31,301.735 1036.77,265.062 1038.22,316.7 1039.67,287.141 1041.12,260.098 1042.57,343.576 1044.02,311.374 1045.47,329.591 1046.92,391.586 1048.37,320.419 1049.82,380.76 1051.28,428.508 1052.73,389.785 1054.18,553.63 1055.63,542.425 1057.08,551.7 1058.53,503.637 1059.98,515.482 1061.43,598.17 1062.88,624.499 1064.33,607.104 1065.78,602.761 1067.24,615.859 1068.69,602.415 1070.14,715.694 1071.59,682.819 1073.04,731.156 1074.49,756.23 1075.94,735.772 1077.39,770.15 1078.84,762.399 1080.29,820.964 1081.75,726.443 1083.2,841.068 1084.65,764.507 1086.1,812.622 1087.55,817.098 1089,819.765 1090.45,784.524 1091.9,782.307 1093.35,801.689 1094.8,777.109 1096.26,786.873 1097.71,756.632 1099.16,744.786 1100.61,808.696 1102.06,714.648 1103.51,731.061 1104.96,720.559 1106.41,685.751 1107.86,651.834 1109.31,677.886 1110.77,705.859 1112.22,669.953 1113.67,641.216 1115.12,639.797 1116.57,662.673 1118.02,588.966 1119.47,544.71 1120.92,560.701 1122.37,539.351 1123.82,511.526 1125.27,523.945 1126.73,444.617 1128.18,450.713 1129.63,460.032 1131.08,410.276 1132.53,369.691 1133.98,434.161 1135.43,371.498 1136.88,381.583 1138.33,369.761 1139.78,333.257 1141.24,334.834 1142.69,271.368 1144.14,265.621 1145.59,221.626 1147.04,243.316 1148.49,165.745 1149.94,227.724 1151.39,197.91 1152.84,236.245 1154.29,190.243 1155.75,119.297 1157.2,214.941 1158.65,101.509 1160.1,176.681 1161.55,170.87 1163,171.545 1164.45,200.173 1165.9,162.346 1167.35,130.929 1168.8,229.162 1170.26,188.725 1171.71,186.521 1173.16,200.709 1174.61,153.941 1176.06,245.923 1177.51,284.255 1178.96,194.362 1180.41,260.278 1181.86,257.657 1183.31,332.486 1184.76,268.949 1186.22,329.341 1187.67,290.779 1189.12,368.683 1190.57,383.974 1192.02,439.057 1193.47,365.811 1194.92,370.57 1196.37,383.814 1197.82,506.312 1199.27,545.015 1200.73,473.895 1202.18,473.165 1203.63,501.998 1205.08,566.845 1206.53,575.239 1207.98,608.178 1209.43,564.462 1210.88,670.303 1212.33,663.161 1213.78,659.858 1215.24,697.313 1216.69,747.656 1218.14,660.934 1219.59,778.764 1221.04,741.228 1222.49,678.697 1223.94,777.696 1225.39,793.212 1226.84,749.897 1228.29,784.186 1229.74,846.796 1231.2,771.989 1232.65,765.121 1234.1,826.642 1235.55,813.019 1237,784.353 1238.45,772.794 1239.9,881.222 1241.35,803.483 1242.8,797.861 1244.25,784.823 1245.71,809.154 1247.16,784.941 1248.61,785.257 1250.06,767.862 1251.51,698.688 1252.96,687.488 1254.41,717.793 1255.86,703.842 1257.31,651.18 1258.76,595.344 1260.22,609.982 1261.67,601.869 1263.12,567.212 1264.57,599.658 1266.02,527.656 1267.47,523.827 1268.92,556.702 1270.37,487.165 1271.82,467.627 1273.27,451.789 1274.73,454.321 1276.18,394.952 1277.63,400.771 1279.08,398.837 1280.53,373.722 1281.98,347.336 1283.43,312.309 1284.88,310.434 1286.33,279.512 1287.78,228.764 1289.23,254.76 1290.69,240.565 1292.14,179.619 1293.59,218.614 1295.04,218.506 1296.49,132.079 1297.94,210.59 1299.39,204.968 1300.84,194.747 1302.29,126.042 1303.74,241.236 1305.2,143.765 1306.65,128.353 1308.1,174.723 1309.55,226.024 1311,197.851 1312.45,188.032 1313.9,223.931 1315.35,170.691 1316.8,164.755 1318.25,211.964 1319.71,223.906 1321.16,245.016 1322.61,162.668 1324.06,237.857 1325.51,249.21 1326.96,266.249 1328.41,229.645 1329.86,342.436 1331.31,344.661 1332.76,333.626 1334.22,321.981 1335.67,374.09 1337.12,398.232 1338.57,448.775 1340.02,434.67 1341.47,475.101 1342.92,488.834 1344.37,507 1345.82,468.964 1347.27,483.12 1348.72,536.359 1350.18,635.918 1351.63,523.514 1353.08,592.883 1354.53,652.035 1355.98,588.848 1357.43,575.047 1358.88,626.429 1360.33,670.072 1361.78,698.561 1363.23,744.478 1364.69,729.244 1366.14,698.115 1367.59,724.796 1369.04,763.316 1370.49,816.852 1371.94,808.791 1373.39,766.032 1374.84,776.966 1376.29,755.277 1377.74,751.208 1379.2,751.295 1380.65,765.29 1382.1,764.636 1383.55,821.072 1385,793.584 1386.45,827.277 1387.9,777.314 1389.35,718.606 1390.8,764.175 1392.25,760.939 1393.71,773.004 1395.16,697.374 1396.61,711.37 1398.06,776.001 1399.51,685.139 1400.96,661.865 1402.41,620.099 1403.86,667.649 1405.31,591.486 1406.76,606.241 1408.21,535.243 1409.67,564.533 1411.12,564.159 1412.57,506.335 1414.02,516.773 1415.47,528.678 1416.92,517.355 1418.37,435.172 1419.82,488.292 1421.27,417.374 1422.72,340.741 1424.18,347.523 1425.63,346.723 1427.08,378.641 1428.53,307.568 1429.98,263.657 1431.43,296.534 1432.88,242.771 1434.33,237.593 1435.78,229.432 1437.23,274.471 1438.69,216.042 1440.14,239.629 1441.59,196.692 1443.04,147.062 1444.49,153.795 1445.94,194.497 1447.39,204.903 1448.84,164.765 1450.29,128.456 1451.74,103.381 1453.2,167.803 1454.65,194.965 1456.1,138.81 1457.55,164.563 1459,179.013 1460.45,89.8529 1461.9,210.44 1463.35,162.64 1464.8,159.898 1466.25,148.55 1467.7,276.109 1469.16,209.229 1470.61,225.523 1472.06,258.312 1473.51,275.046 1474.96,343.141 1476.41,308.472 1477.86,338.745 1479.31,358.176 1480.76,400.374 1482.21,402.027 1483.67,407.032 1485.12,442.119 1486.57,406.936 1488.02,419.113 1489.47,460.178 1490.92,517.031 1492.37,573.741 1493.82,531.378 1495.27,544.268 1496.72,564.242 1498.18,612.368 1499.63,627.288 1501.08,615.357 1502.53,628.74 1503.98,640.994 1505.43,696.071 1506.88,685.406 1508.33,656.926 1509.78,750.519 1511.23,720.607 1512.69,715.92 1514.14,809.365 1515.59,757.195 1517.04,737.135 1518.49,749.326 1519.94,793.605 1521.39,821.123 1522.84,796.286 1524.29,773.814 1525.74,796.17 1527.19,800.656 1528.65,832.82 1530.1,755.228 1531.55,715.453 1533,809.295 1534.45,763.033 1535.9,765.658 1537.35,764.191 1538.8,780.908 1540.25,710.838 1541.7,679.397 1543.16,701.979 1544.61,691.311 1546.06,701.843 1547.51,645.1 1548.96,625.755 1550.41,567.438 1551.86,607.374 1553.31,646.137 1554.76,619.218 1556.21,569.129 1557.67,540.294 1559.12,489.718 1560.57,485.852 1562.02,465.391 "/>
<polyline clip-path="url(#clip742)" style="stroke:#e78284; stroke-linecap:round; stroke-linejoin:round; stroke-width:8; stroke-opacity:1; fill:none" points="837.982,1070.53 839.433,1103.76 840.884,1051.31 842.335,1009.5 843.786,1035.41 845.237,955.488 846.688,953.213 848.139,909.083 849.59,957.232 851.041,930.014 852.492,912.112 853.943,889.348 855.393,840.897 856.844,909.582 858.295,866.319 859.746,855.504 861.197,819.49 862.648,892.798 864.099,850.909 865.55,804.183 867.001,845.256 868.452,744.383 869.903,793.203 871.354,816.423 872.805,752.398 874.256,826.182 875.707,797.191 877.158,844.708 878.609,795.296 880.06,827.826 881.511,824.046 882.962,834.384 884.413,848.856 885.864,833.152 887.315,834.022 888.766,813.14 890.217,863.44 891.668,914.79 893.119,914.108 894.57,933.94 896.021,944.51 897.472,941.541 898.923,994.823 900.374,983.443 901.825,965.55 903.276,976.82 904.727,987.157 906.178,1070.2 907.629,1064.69 909.08,1092.7 910.531,1118.8 911.982,1118.14 913.432,1161.91 914.883,1194.72 916.334,1172.33 917.785,1248.67 919.236,1178.99 920.687,1234.53 922.138,1281.49 923.589,1280.79 925.04,1280.17 926.491,1353.75 927.942,1321.19 929.393,1306.69 930.844,1330.39 932.295,1419 933.746,1353.5 935.197,1396.81 936.648,1391.68 938.099,1438.83 939.55,1428.45 941.001,1365.44 942.452,1388.54 943.903,1389.8 945.354,1397.59 946.805,1406.54 948.256,1428.09 949.707,1393.53 951.158,1446.26 952.609,1435.06 954.06,1351.94 955.511,1419.76 956.962,1386.87 958.413,1340.76 959.864,1356.66 961.315,1369.71 962.766,1324.2 964.217,1353.81 965.668,1296.94 967.119,1311.43 968.57,1291.09 970.021,1218.85 971.471,1261.14 972.922,1257.77 974.373,1187.46 975.824,1147.22 977.275,1172.32 978.726,1180.1 980.177,1151.6 981.628,1152.36 983.079,1148.17 984.53,1025.3 985.981,1047.47 987.432,1038.88 988.883,1021.98 990.334,1033.68 991.785,959.406 993.236,970.819 994.687,952.274 996.138,952.853 997.589,921.658 999.04,883.316 1000.49,873.685 1001.94,858.55 1003.39,817.659 1004.84,937.392 1006.29,901.484 1007.75,785.11 1009.2,797.793 1010.65,813.072 1012.1,790.104 1013.55,774.869 1015,784.333 1016.45,789.334 1017.9,819.39 1019.35,835.955 1020.8,802.695 1022.26,870.204 1023.71,822.589 1025.16,790.29 1026.61,860.784 1028.06,805.63 1029.51,844.082 1030.96,776.374 1032.41,842.321 1033.86,868.959 1035.31,869.451 1036.77,862.824 1038.22,916.706 1039.67,897.841 1041.12,978.978 1042.57,926.409 1044.02,1023.05 1045.47,993.91 1046.92,989.145 1048.37,1065.23 1049.82,1062.41 1051.28,1027.35 1052.73,1077.31 1054.18,1069.83 1055.63,1142.19 1057.08,1154.82 1058.53,1182.31 1059.98,1171.2 1061.43,1137.91 1062.88,1205.78 1064.33,1270.03 1065.78,1315.91 1067.24,1320.28 1068.69,1346.32 1070.14,1261.41 1071.59,1341.72 1073.04,1342.53 1074.49,1356.08 1075.94,1408.02 1077.39,1369.72 1078.84,1387.04 1080.29,1436.01 1081.75,1407.23 1083.2,1367.84 1084.65,1448.93 1086.1,1395.95 1087.55,1427.28 1089,1409.14 1090.45,1393.91 1091.9,1481.06 1093.35,1410.01 1094.8,1359.4 1096.26,1418.43 1097.71,1333.16 1099.16,1411.99 1100.61,1407.08 1102.06,1403.68 1103.51,1377.5 1104.96,1421.75 1106.41,1351.34 1107.86,1332.82 1109.31,1274.88 1110.77,1338.73 1112.22,1289.5 1113.67,1258.68 1115.12,1265.93 1116.57,1209.1 1118.02,1261.16 1119.47,1188.95 1120.92,1182.01 1122.37,1147.88 1123.82,1126.04 1125.27,1112.6 1126.73,1132.75 1128.18,1092.03 1129.63,1034.29 1131.08,991.799 1132.53,1045.78 1133.98,1030.35 1135.43,972.994 1136.88,1045.48 1138.33,1005.34 1139.78,948.097 1141.24,927.099 1142.69,869.307 1144.14,889.496 1145.59,903.546 1147.04,873.468 1148.49,873.201 1149.94,820.838 1151.39,825.3 1152.84,793.476 1154.29,835.061 1155.75,775.568 1157.2,861.855 1158.65,793.516 1160.1,768.876 1161.55,837.987 1163,867.864 1164.45,767.973 1165.9,818.604 1167.35,823.838 1168.8,817.166 1170.26,781.958 1171.71,771.829 1173.16,821.25 1174.61,855.581 1176.06,917.503 1177.51,833.482 1178.96,839.62 1180.41,879.172 1181.86,864.584 1183.31,943.982 1184.76,932.696 1186.22,924.545 1187.67,941.051 1189.12,1017.05 1190.57,1044.81 1192.02,926.807 1193.47,1007.15 1194.92,1067.22 1196.37,1076.03 1197.82,1174.11 1199.27,1098.32 1200.73,1181.03 1202.18,1154.43 1203.63,1176.96 1205.08,1183.45 1206.53,1186.35 1207.98,1242.18 1209.43,1231.91 1210.88,1232.85 1212.33,1227.7 1213.78,1247.51 1215.24,1317.95 1216.69,1296.68 1218.14,1325.12 1219.59,1325.49 1221.04,1398.68 1222.49,1344.79 1223.94,1353.91 1225.39,1390.65 1226.84,1331.8 1228.29,1430.5 1229.74,1422.07 1231.2,1454.25 1232.65,1425.82 1234.1,1410.73 1235.55,1459.6 1237,1391.8 1238.45,1397.04 1239.9,1422.44 1241.35,1458.6 1242.8,1422.4 1244.25,1411.11 1245.71,1343.88 1247.16,1371.12 1248.61,1350.09 1250.06,1386.87 1251.51,1394.98 1252.96,1343.19 1254.41,1282.59 1255.86,1251.47 1257.31,1321.71 1258.76,1290.72 1260.22,1230.03 1261.67,1214.69 1263.12,1181.72 1264.57,1157.69 1266.02,1195.32 1267.47,1127.45 1268.92,1120.42 1270.37,1136.36 1271.82,1146.83 1273.27,1107.48 1274.73,1083.03 1276.18,1045.82 1277.63,1034.91 1279.08,990.632 1280.53,982.732 1281.98,951.486 1283.43,968.644 1284.88,1024.13 1286.33,913.459 1287.78,886.234 1289.23,884.425 1290.69,892.387 1292.14,887.632 1293.59,838.649 1295.04,802.853 1296.49,798.091 1297.94,819.37 1299.39,804.198 1300.84,841.693 1302.29,847.119 1303.74,818.36 1305.2,851 1306.65,837.698 1308.1,839.003 1309.55,782.431 1311,770.544 1312.45,827.641 1313.9,793.281 1315.35,811.911 1316.8,812.911 1318.25,820.375 1319.71,845.629 1321.16,804.22 1322.61,835.617 1324.06,891.819 1325.51,915.067 1326.96,861.903 1328.41,895.668 1329.86,911.027 1331.31,961.455 1332.76,1003.7 1334.22,939.892 1335.67,976.318 1337.12,996.149 1338.57,1012.16 1340.02,1022.07 1341.47,1066.17 1342.92,1015.03 1344.37,1127.98 1345.82,1142.47 1347.27,1131.03 1348.72,1191.47 1350.18,1155.52 1351.63,1222.58 1353.08,1219.54 1354.53,1220.88 1355.98,1194.07 1357.43,1220.24 1358.88,1338.62 1360.33,1307.54 1361.78,1313.75 1363.23,1367.96 1364.69,1358.89 1366.14,1305.17 1367.59,1342.28 1369.04,1388.75 1370.49,1418.16 1371.94,1403.9 1373.39,1401.03 1374.84,1450.02 1376.29,1399.15 1377.74,1394.02 1379.2,1446.18 1380.65,1393.6 1382.1,1423.86 1383.55,1415.13 1385,1460.74 1386.45,1416.76 1387.9,1385.41 1389.35,1413.08 1390.8,1378.03 1392.25,1368.84 1393.71,1379.77 1395.16,1411.36 1396.61,1357.52 1398.06,1321.97 1399.51,1305.37 1400.96,1335.52 1402.41,1277.24 1403.86,1266.61 1405.31,1291.49 1406.76,1258.69 1408.21,1191.76 1409.67,1187.99 1411.12,1186.61 1412.57,1161.36 1414.02,1170.45 1415.47,1093.07 1416.92,1096.78 1418.37,1083.74 1419.82,1099.03 1421.27,1102.44 1422.72,1069.42 1424.18,973.056 1425.63,977.279 1427.08,922.043 1428.53,971.324 1429.98,878.314 1431.43,915.123 1432.88,880.866 1434.33,874.047 1435.78,873.91 1437.23,840.955 1438.69,854.801 1440.14,831.447 1441.59,823.466 1443.04,745.69 1444.49,853.041 1445.94,807.577 1447.39,753.138 1448.84,812.691 1450.29,807.5 1451.74,809.335 1453.2,856.363 1454.65,808.023 1456.1,805.247 1457.55,843.812 1459,827.966 1460.45,833.469 1461.9,821.319 1463.35,796.405 1464.8,891.81 1466.25,827.754 1467.7,847.527 1469.16,854.594 1470.61,881.511 1472.06,863.259 1473.51,927.79 1474.96,916.36 1476.41,912.041 1477.86,976.244 1479.31,1018.99 1480.76,969.522 1482.21,1003.24 1483.67,1034.76 1485.12,1058.95 1486.57,1091.23 1488.02,1065.96 1489.47,1137.68 1490.92,1109.89 1492.37,1168.1 1493.82,1169.78 1495.27,1213.16 1496.72,1170.85 1498.18,1236.48 1499.63,1255.18 1501.08,1274.43 1502.53,1305.46 1503.98,1328.24 1505.43,1280.29 1506.88,1333.63 1508.33,1336.66 1509.78,1317.4 1511.23,1362.86 1512.69,1422.55 1514.14,1329.87 1515.59,1369.79 1517.04,1375.93 1518.49,1397.56 1519.94,1412.04 1521.39,1411.7 1522.84,1385.28 1524.29,1462.33 1525.74,1423.46 1527.19,1415.96 1528.65,1411.74 1530.1,1455.39 1531.55,1385.43 1533,1422.01 1534.45,1446.5 1535.9,1416.13 1537.35,1376.7 1538.8,1388.95 1540.25,1338.54 1541.7,1315.11 1543.16,1327.92 1544.61,1330.52 1546.06,1287.42 1547.51,1255.36 1548.96,1230.54 1550.41,1259.44 1551.86,1175.14 1553.31,1248.8 1554.76,1202.75 1556.21,1179.67 1557.67,1163.92 1559.12,1113.13 1560.57,1149.01 1562.02,1123.92 1563.47,1107.57 1564.92,1024.87 1566.37,1081.98 1567.82,1000.24 1569.27,958.376 1570.72,979.513 1572.18,936.762 1573.63,943.528 1575.08,899.448 1576.53,870.868 1577.98,920.212 1579.43,921.186 1580.88,875.557 1582.33,845.955 1583.78,796.983 1585.23,867.242 1586.68,900.432 1588.14,767.242 1589.59,820.246 1591.04,846.666 1592.49,788.375 1593.94,782.241 1595.39,786.386 1596.84,841.308 1598.29,778.306 1599.74,839.054 1601.19,780.168 1602.65,831.036 1604.1,787.355 1605.55,803.278 1607,831.508 1608.45,810.566 1609.9,813.494 1611.35,815.958 1612.8,857.166 1614.25,877.596 1615.7,893.906 1617.16,898.691 1618.61,926.226 1620.06,923.048 1621.51,946.773 1622.96,946.833 1624.41,948.715 1625.86,969.719 1627.31,1021.52 1628.76,1060.07 1630.21,1039.01 1631.66,1044.55 1633.12,1133.84 1634.57,1116.88 1636.02,1092.5 1637.47,1116.82 1638.92,1191.83 1640.37,1141.41 1641.82,1222.91 1643.27,1199.27 1644.72,1278.28 1646.17,1283.39 1647.63,1296.02 1649.08,1321.18 1650.53,1272.66 1651.98,1305.75 1653.43,1385.41 1654.88,1350.49 1656.33,1344.65 1657.78,1367.96 1659.23,1412.41 1660.68,1392.12 1662.14,1420.74 1663.59,1399.49 1665.04,1390.15 1666.49,1503.14 1667.94,1436.59 1669.39,1408.4 1670.84,1358.41 1672.29,1473.67 1673.74,1382.97 1675.19,1390.41 1676.65,1395.02 1678.1,1452.7 1679.55,1379.41 1681,1372.43 1682.45,1427.15 1683.9,1388.89 1685.35,1372.52 1686.8,1348.08 1688.25,1263.61 1689.7,1297.28 1691.15,1330.86 1692.61,1259.82 1694.06,1271.39 1695.51,1255.2 1696.96,1242.19 1698.41,1227.72 1699.86,1211.61 1701.31,1152.67 1702.76,1202.31 1704.21,1175.21 1705.66,1103.17 1707.12,1058.14 1708.57,1150.05 1710.02,1074.48 1711.47,1007.17 1712.92,1042.63 1714.37,984.198 1715.82,1030.76 1717.27,984.543 1718.72,972.76 1720.17,924.148 1721.63,935.021 1723.08,927.36 1724.53,886.88 1725.98,890.17 1727.43,816.346 1728.88,861.987 1730.33,827.97 1731.78,823.399 1733.23,796.529 1734.68,790.555 1736.14,836.572 1737.59,821.086 1739.04,785.266 1740.49,855.884 1741.94,772.756 1743.39,802.326 1744.84,754.777 1746.29,819.833 1747.74,823.486 1749.19,815.236 1750.64,823.262 1752.1,791.951 1753.55,793.552 1755,860.478 1756.45,871.171 1757.9,897.931 1759.35,901.877 1760.8,930.66 1762.25,893.988 1763.7,945.625 1765.15,916.067 1766.61,889.023 1768.06,972.501 1769.51,940.299 1770.96,958.516 1772.41,1020.51 1773.86,949.345 1775.31,1009.68 1776.76,1057.43 1778.21,1018.71 1779.66,1182.55 1781.12,1171.35 1782.57,1180.63 1784.02,1132.56 1785.47,1144.41 1786.92,1227.1 1788.37,1253.42 1789.82,1236.03 1791.27,1231.69 1792.72,1244.78 1794.17,1231.34 1795.63,1344.62 1797.08,1311.74 1798.53,1360.08 1799.98,1385.16 1801.43,1364.7 1802.88,1399.08 1804.33,1391.32 1805.78,1449.89 1807.23,1355.37 1808.68,1469.99 1810.13,1393.43 1811.59,1441.55 1813.04,1446.02 1814.49,1448.69 1815.94,1413.45 1817.39,1411.23 1818.84,1430.61 1820.29,1406.03 1821.74,1415.8 1823.19,1385.56 1824.64,1373.71 1826.1,1437.62 1827.55,1343.57 1829,1359.99 1830.45,1349.48 1831.9,1314.68 1833.35,1280.76 1834.8,1306.81 1836.25,1334.78 1837.7,1298.88 1839.15,1270.14 1840.61,1268.72 1842.06,1291.6 1843.51,1217.89 1844.96,1173.64 1846.41,1189.63 1847.86,1168.28 1849.31,1140.45 1850.76,1152.87 1852.21,1073.54 1853.66,1079.64 1855.12,1088.96 1856.57,1039.2 1858.02,998.617 1859.47,1063.09 1860.92,1000.42 1862.37,1010.51 1863.82,998.687 1865.27,962.182 1866.72,963.759 1868.17,900.293 1869.62,894.547 1871.08,850.551 1872.53,872.242 1873.98,794.67 1875.43,856.649 1876.88,826.835 1878.33,865.17 1879.78,819.168 1881.23,748.222 1882.68,843.866 1884.13,730.435 1885.59,805.606 1887.04,799.796 1888.49,800.47 1889.94,829.098 1891.39,791.271 1892.84,759.854 1894.29,858.087 1895.74,817.65 1897.19,815.446 1898.64,829.634 1900.1,782.866 1901.55,874.848 1903,913.18 1904.45,823.287 1905.9,889.204 1907.35,886.583 1908.8,961.412 1910.25,897.874 1911.7,958.266 1913.15,919.704 1914.61,997.608 1916.06,1012.9 1917.51,1067.98 1918.96,994.736 1920.41,999.495 1921.86,1012.74 1923.31,1135.24 1924.76,1173.94 1926.21,1102.82 1927.66,1102.09 1929.11,1130.92 1930.57,1195.77 1932.02,1204.16 1933.47,1237.1 1934.92,1193.39 1936.37,1299.23 1937.82,1292.09 1939.27,1288.78 1940.72,1326.24 1942.17,1376.58 1943.62,1289.86 1945.08,1407.69 1946.53,1370.15 1947.98,1307.62 1949.43,1406.62 1950.88,1422.14 1952.33,1378.82 1953.78,1413.11 1955.23,1475.72 1956.68,1400.91 1958.13,1394.05 1959.59,1455.57 1961.04,1441.94 1962.49,1413.28 1963.94,1401.72 1965.39,1510.15 1966.84,1432.41 1968.29,1426.79 1969.74,1413.75 1971.19,1438.08 1972.64,1413.87 1974.1,1414.18 1975.55,1396.79 1977,1327.61 1978.45,1316.41 1979.9,1346.72 1981.35,1332.77 1982.8,1280.11 1984.25,1224.27 1985.7,1238.91 1987.15,1230.79 1988.6,1196.14 1990.06,1228.58 1991.51,1156.58 1992.96,1152.75 1994.41,1185.63 1995.86,1116.09 1997.31,1096.55 1998.76,1080.71 2000.21,1083.25 2001.66,1023.88 2003.11,1029.7 2004.57,1027.76 2006.02,1002.65 2007.47,976.261 2008.92,941.234 2010.37,939.36 2011.82,908.437 2013.27,857.689 2014.72,883.685 2016.17,869.491 2017.62,808.544 2019.08,847.54 2020.53,847.431 2021.98,761.004 2023.43,839.515 2024.88,833.893 2026.33,823.672 2027.78,754.968 2029.23,870.161 2030.68,772.69 2032.13,757.278 2033.58,803.648 2035.04,854.949 2036.49,826.776 2037.94,816.957 2039.39,852.856 2040.84,799.616 2042.29,793.68 2043.74,840.89 2045.19,852.832 2046.64,873.941 2048.09,791.594 2049.55,866.782 2051,878.135 2052.45,895.174 2053.9,858.57 2055.35,971.362 2056.8,973.586 2058.25,962.551 2059.7,950.906 2061.15,1003.01 2062.6,1027.16 2064.06,1077.7 2065.51,1063.6 2066.96,1104.03 2068.41,1117.76 2069.86,1135.93 2071.31,1097.89 2072.76,1112.05 2074.21,1165.28 2075.66,1264.84 2077.11,1152.44 2078.57,1221.81 2080.02,1280.96 2081.47,1217.77 2082.92,1203.97 2084.37,1255.35 2085.82,1299 2087.27,1327.49 2088.72,1373.4 2090.17,1358.17 2091.62,1327.04 2093.07,1353.72 2094.53,1392.24 2095.98,1445.78 2097.43,1437.72 2098.88,1394.96 2100.33,1405.89 2101.78,1384.2 2103.23,1380.13 2104.68,1380.22 2106.13,1394.22 2107.58,1393.56 2109.04,1450 2110.49,1422.51 2111.94,1456.2 2113.39,1406.24 2114.84,1347.53 2116.29,1393.1 2117.74,1389.86 2119.19,1401.93 2120.64,1326.3 2122.09,1340.29 2123.55,1404.93 2125,1314.06 2126.45,1290.79 2127.9,1249.02 2129.35,1296.57 2130.8,1220.41 2132.25,1235.17 2133.7,1164.17 2135.15,1193.46 2136.6,1193.08 2138.06,1135.26 2139.51,1145.7 2140.96,1157.6 2142.41,1146.28 2143.86,1064.1 2145.31,1117.22 2146.76,1046.3 2148.21,969.666 2149.66,976.448 2151.11,975.648 2152.56,1007.57 2154.02,936.493 2155.47,892.583 2156.92,925.459 2158.37,871.696 2159.82,866.518 2161.27,858.357 2162.72,903.396 2164.17,844.967 2165.62,868.554 2167.07,825.618 2168.53,775.987 2169.98,782.721 2171.43,823.423 2172.88,833.828 2174.33,793.69 2175.78,757.381 2177.23,732.306 2178.68,796.728 2180.13,823.89 2181.58,767.735 2183.04,793.488 2184.49,807.938 2185.94,718.778 2187.39,839.365 2188.84,791.565 2190.29,788.824 2191.74,777.476 2193.19,905.035 2194.64,838.154 2196.09,854.449 2197.55,887.237 2199,903.971 2200.45,972.066 2201.9,937.398 2203.35,967.67 2204.8,987.101 2206.25,1029.3 2207.7,1030.95 2209.15,1035.96 2210.6,1071.04 2212.05,1035.86 2213.51,1048.04 2214.96,1089.1 2216.41,1145.96 2217.86,1202.67 2219.31,1160.3 2220.76,1173.19 2222.21,1193.17 2223.66,1241.29 2225.11,1256.21 2226.56,1244.28 2228.02,1257.67 2229.47,1269.92 2230.92,1325 2232.37,1314.33 2233.82,1285.85 2235.27,1379.44 2236.72,1349.53 2238.17,1344.85 2239.62,1438.29 2241.07,1386.12 2242.53,1366.06 2243.98,1378.25 2245.43,1422.53 2246.88,1450.05 2248.33,1425.21 2249.78,1402.74 2251.23,1425.1 2252.68,1429.58 2254.13,1461.74 2255.58,1384.15 2257.04,1344.38 2258.49,1438.22 2259.94,1391.96 2261.39,1394.58 2262.84,1393.12 2264.29,1409.83 2265.74,1339.76 2267.19,1308.32 2268.64,1330.9 2270.09,1320.24 2271.54,1330.77 2273,1274.03 2274.45,1254.68 2275.9,1196.36 2277.35,1236.3 2278.8,1275.06 2280.25,1248.14 2281.7,1198.05 2283.15,1169.22 2284.6,1118.64 2286.05,1114.78 2287.51,1094.32 "/>
<polyline clip-path="url(#clip742)" style="stroke:#000000; stroke-linecap:round; stroke-linejoin:round; stroke-width:12; stroke-opacity:1; fill:none" points="836.531,3058.27 836.531,-1458.27 "/>
<polyline clip-path="url(#clip742)" style="stroke:#000000; stroke-linecap:round; stroke-linejoin:round; stroke-width:12; stroke-opacity:1; fill:none" points="1562.02,3058.27 1562.02,-1458.27 "/>
<path clip-path="url(#clip740)" d="M1791.95 330.708 L2275.91 330.708 L2275.91 97.4278 L1791.95 97.4278  Z" fill="#ffffff" fill-rule="evenodd" fill-opacity="1"/>
<polyline clip-path="url(#clip740)" style="stroke:#000000; stroke-linecap:round; stroke-linejoin:round; stroke-width:4; stroke-opacity:0; fill:none" points="1791.95,330.708 2275.91,330.708 2275.91,97.4278 1791.95,97.4278 1791.95,330.708 "/>
<polyline clip-path="url(#clip740)" style="stroke:#ca9ee6; stroke-linecap:round; stroke-linejoin:round; stroke-width:12; stroke-opacity:1; fill:none" points="1817.57,175.188 1971.27,175.188 "/>
<path clip-path="url(#clip740)" d="M2033.87 162.219 L2019.8 181.143 L2034.6 201.108 L2027.06 201.108 L2015.74 185.83 L2004.42 201.108 L1996.89 201.108 L2011.99 180.761 L1998.17 162.219 L2005.71 162.219 L2016.02 176.073 L2026.33 162.219 L2033.87 162.219 Z" fill="#000000" fill-rule="nonzero" fill-opacity="1" /><path clip-path="url(#clip740)" d="M2058.97 147.15 Q2054.32 155.136 2052.06 162.948 Q2049.8 170.761 2049.8 178.782 Q2049.8 186.802 2052.06 194.684 Q2054.35 202.531 2058.97 210.483 L2053.41 210.483 Q2048.21 202.323 2045.6 194.441 Q2043.03 186.559 2043.03 178.782 Q2043.03 171.039 2045.6 163.191 Q2048.17 155.344 2053.41 147.15 L2058.97 147.15 Z" fill="#000000" fill-rule="nonzero" fill-opacity="1" /><path clip-path="url(#clip740)" d="M2077.69 151.178 L2077.69 162.219 L2090.85 162.219 L2090.85 167.184 L2077.69 167.184 L2077.69 188.295 Q2077.69 193.052 2078.97 194.406 Q2080.29 195.761 2084.28 195.761 L2090.85 195.761 L2090.85 201.108 L2084.28 201.108 Q2076.89 201.108 2074.07 198.365 Q2071.26 195.587 2071.26 188.295 L2071.26 167.184 L2066.57 167.184 L2066.57 162.219 L2071.26 162.219 L2071.26 151.178 L2077.69 151.178 Z" fill="#000000" fill-rule="nonzero" fill-opacity="1" /><path clip-path="url(#clip740)" d="M2098.24 147.15 L2103.8 147.15 Q2109 155.344 2111.57 163.191 Q2114.18 171.039 2114.18 178.782 Q2114.18 186.559 2111.57 194.441 Q2109 202.323 2103.8 210.483 L2098.24 210.483 Q2102.86 202.531 2105.12 194.684 Q2107.41 186.802 2107.41 178.782 Q2107.41 170.761 2105.12 162.948 Q2102.86 155.136 2098.24 147.15 Z" fill="#000000" fill-rule="nonzero" fill-opacity="1" /><polyline clip-path="url(#clip740)" style="stroke:#e78284; stroke-linecap:round; stroke-linejoin:round; stroke-width:12; stroke-opacity:1; fill:none" points="1817.57,252.948 1971.27,252.948 "/>
<path clip-path="url(#clip740)" d="M2033.87 239.979 L2019.8 258.903 L2034.6 278.868 L2027.06 278.868 L2015.74 263.59 L2004.42 278.868 L1996.89 278.868 L2011.99 258.521 L1998.17 239.979 L2005.71 239.979 L2016.02 253.833 L2026.33 239.979 L2033.87 239.979 Z" fill="#000000" fill-rule="nonzero" fill-opacity="1" /><path clip-path="url(#clip740)" d="M2058.97 224.91 Q2054.32 232.896 2052.06 240.708 Q2049.8 248.521 2049.8 256.542 Q2049.8 264.562 2052.06 272.444 Q2054.35 280.291 2058.97 288.243 L2053.41 288.243 Q2048.21 280.083 2045.6 272.201 Q2043.03 264.319 2043.03 256.542 Q2043.03 248.799 2045.6 240.951 Q2048.17 233.104 2053.41 224.91 L2058.97 224.91 Z" fill="#000000" fill-rule="nonzero" fill-opacity="1" /><path clip-path="url(#clip740)" d="M2077.69 228.938 L2077.69 239.979 L2090.85 239.979 L2090.85 244.944 L2077.69 244.944 L2077.69 266.055 Q2077.69 270.812 2078.97 272.166 Q2080.29 273.521 2084.28 273.521 L2090.85 273.521 L2090.85 278.868 L2084.28 278.868 Q2076.89 278.868 2074.07 276.125 Q2071.26 273.347 2071.26 266.055 L2071.26 244.944 L2066.57 244.944 L2066.57 239.979 L2071.26 239.979 L2071.26 228.938 L2077.69 228.938 Z" fill="#000000" fill-rule="nonzero" fill-opacity="1" /><path clip-path="url(#clip740)" d="M2125.25 234.285 L2125.25 253.625 L2144.59 253.625 L2144.59 259.528 L2125.25 259.528 L2125.25 278.868 L2119.42 278.868 L2119.42 259.528 L2100.08 259.528 L2100.08 253.625 L2119.42 253.625 L2119.42 234.285 L2125.25 234.285 Z" fill="#000000" fill-rule="nonzero" fill-opacity="1" /><path clip-path="url(#clip740)" d="M2176.43 233.938 L2162.2 273.035 L2190.71 273.035 L2176.43 233.938 M2152.69 278.868 L2172.48 227.028 L2180.43 227.028 L2200.18 278.868 L2152.69 278.868 Z" fill="#000000" fill-rule="nonzero" fill-opacity="1" /><path clip-path="url(#clip740)" d="M2213.8 228.938 L2213.8 239.979 L2226.96 239.979 L2226.96 244.944 L2213.8 244.944 L2213.8 266.055 Q2213.8 270.812 2215.08 272.166 Q2216.4 273.521 2220.39 273.521 L2226.96 273.521 L2226.96 278.868 L2220.39 278.868 Q2213 278.868 2210.18 276.125 Q2207.37 273.347 2207.37 266.055 L2207.37 244.944 L2202.68 244.944 L2202.68 239.979 L2207.37 239.979 L2207.37 228.938 L2213.8 228.938 Z" fill="#000000" fill-rule="nonzero" fill-opacity="1" /><path clip-path="url(#clip740)" d="M2234.35 224.91 L2239.91 224.91 Q2245.12 233.104 2247.68 240.951 Q2250.29 248.799 2250.29 256.542 Q2250.29 264.319 2247.68 272.201 Q2245.12 280.083 2239.91 288.243 L2234.35 288.243 Q2238.97 280.291 2241.23 272.444 Q2243.52 264.562 2243.52 256.542 Q2243.52 248.521 2241.23 240.708 Q2238.97 232.896 2234.35 224.91 Z" fill="#000000" fill-rule="nonzero" fill-opacity="1" /></svg>
