<?xml version="1.0" encoding="utf-8"?>
<svg xmlns="http://www.w3.org/2000/svg" xmlns:xlink="http://www.w3.org/1999/xlink" width="600" height="400" viewBox="0 0 2400 1600">
<defs>
  <clipPath id="clip140">
    <rect x="0" y="0" width="2400" height="1600"/>
  </clipPath>
</defs>
<path clip-path="url(#clip140)" d="M0 1600 L2400 1600 L2400 0 L0 0  Z" fill="#ffffff" fill-rule="evenodd" fill-opacity="1"/>
<defs>
  <clipPath id="clip141">
    <rect x="480" y="0" width="1681" height="1600"/>
  </clipPath>
</defs>
<path clip-path="url(#clip140)" d="M219.542 1423.18 L2352.76 1423.18 L2352.76 123.472 L219.542 123.472  Z" fill="#ffffff" fill-rule="evenodd" fill-opacity="1"/>
<defs>
  <clipPath id="clip142">
    <rect x="219" y="123" width="2134" height="1301"/>
  </clipPath>
</defs>
<polyline clip-path="url(#clip142)" style="stroke:#000000; stroke-linecap:round; stroke-linejoin:round; stroke-width:2; stroke-opacity:0.1; fill:none" points="279.916,1423.18 279.916,123.472 "/>
<polyline clip-path="url(#clip142)" style="stroke:#000000; stroke-linecap:round; stroke-linejoin:round; stroke-width:2; stroke-opacity:0.1; fill:none" points="639.285,1423.18 639.285,123.472 "/>
<polyline clip-path="url(#clip142)" style="stroke:#000000; stroke-linecap:round; stroke-linejoin:round; stroke-width:2; stroke-opacity:0.1; fill:none" points="998.654,1423.18 998.654,123.472 "/>
<polyline clip-path="url(#clip142)" style="stroke:#000000; stroke-linecap:round; stroke-linejoin:round; stroke-width:2; stroke-opacity:0.1; fill:none" points="1358.02,1423.18 1358.02,123.472 "/>
<polyline clip-path="url(#clip142)" style="stroke:#000000; stroke-linecap:round; stroke-linejoin:round; stroke-width:2; stroke-opacity:0.1; fill:none" points="1717.39,1423.18 1717.39,123.472 "/>
<polyline clip-path="url(#clip142)" style="stroke:#000000; stroke-linecap:round; stroke-linejoin:round; stroke-width:2; stroke-opacity:0.1; fill:none" points="2076.76,1423.18 2076.76,123.472 "/>
<polyline clip-path="url(#clip142)" style="stroke:#000000; stroke-linecap:round; stroke-linejoin:round; stroke-width:2; stroke-opacity:0.1; fill:none" points="219.542,1140.09 2352.76,1140.09 "/>
<polyline clip-path="url(#clip142)" style="stroke:#000000; stroke-linecap:round; stroke-linejoin:round; stroke-width:2; stroke-opacity:0.1; fill:none" points="219.542,846.139 2352.76,846.139 "/>
<polyline clip-path="url(#clip142)" style="stroke:#000000; stroke-linecap:round; stroke-linejoin:round; stroke-width:2; stroke-opacity:0.1; fill:none" points="219.542,552.19 2352.76,552.19 "/>
<polyline clip-path="url(#clip142)" style="stroke:#000000; stroke-linecap:round; stroke-linejoin:round; stroke-width:2; stroke-opacity:0.1; fill:none" points="219.542,258.24 2352.76,258.24 "/>
<polyline clip-path="url(#clip140)" style="stroke:#000000; stroke-linecap:round; stroke-linejoin:round; stroke-width:4; stroke-opacity:1; fill:none" points="219.542,1423.18 2352.76,1423.18 "/>
<polyline clip-path="url(#clip140)" style="stroke:#000000; stroke-linecap:round; stroke-linejoin:round; stroke-width:4; stroke-opacity:1; fill:none" points="279.916,1423.18 279.916,1404.28 "/>
<polyline clip-path="url(#clip140)" style="stroke:#000000; stroke-linecap:round; stroke-linejoin:round; stroke-width:4; stroke-opacity:1; fill:none" points="639.285,1423.18 639.285,1404.28 "/>
<polyline clip-path="url(#clip140)" style="stroke:#000000; stroke-linecap:round; stroke-linejoin:round; stroke-width:4; stroke-opacity:1; fill:none" points="998.654,1423.18 998.654,1404.28 "/>
<polyline clip-path="url(#clip140)" style="stroke:#000000; stroke-linecap:round; stroke-linejoin:round; stroke-width:4; stroke-opacity:1; fill:none" points="1358.02,1423.18 1358.02,1404.28 "/>
<polyline clip-path="url(#clip140)" style="stroke:#000000; stroke-linecap:round; stroke-linejoin:round; stroke-width:4; stroke-opacity:1; fill:none" points="1717.39,1423.18 1717.39,1404.28 "/>
<polyline clip-path="url(#clip140)" style="stroke:#000000; stroke-linecap:round; stroke-linejoin:round; stroke-width:4; stroke-opacity:1; fill:none" points="2076.76,1423.18 2076.76,1404.28 "/>
<path clip-path="url(#clip140)" d="M257.301 1454.1 Q253.689 1454.1 251.861 1457.66 Q250.055 1461.2 250.055 1468.33 Q250.055 1475.44 251.861 1479.01 Q253.689 1482.55 257.301 1482.55 Q260.935 1482.55 262.74 1479.01 Q264.569 1475.44 264.569 1468.33 Q264.569 1461.2 262.74 1457.66 Q260.935 1454.1 257.301 1454.1 M257.301 1450.39 Q263.111 1450.39 266.166 1455 Q269.245 1459.58 269.245 1468.33 Q269.245 1477.06 266.166 1481.67 Q263.111 1486.25 257.301 1486.25 Q251.49 1486.25 248.412 1481.67 Q245.356 1477.06 245.356 1468.33 Q245.356 1459.58 248.412 1455 Q251.49 1450.39 257.301 1450.39 Z" fill="#000000" fill-rule="nonzero" fill-opacity="1" /><path clip-path="url(#clip140)" d="M277.462 1479.7 L282.347 1479.7 L282.347 1485.58 L277.462 1485.58 L277.462 1479.7 Z" fill="#000000" fill-rule="nonzero" fill-opacity="1" /><path clip-path="url(#clip140)" d="M302.532 1454.1 Q298.921 1454.1 297.092 1457.66 Q295.286 1461.2 295.286 1468.33 Q295.286 1475.44 297.092 1479.01 Q298.921 1482.55 302.532 1482.55 Q306.166 1482.55 307.972 1479.01 Q309.8 1475.44 309.8 1468.33 Q309.8 1461.2 307.972 1457.66 Q306.166 1454.1 302.532 1454.1 M302.532 1450.39 Q308.342 1450.39 311.397 1455 Q314.476 1459.58 314.476 1468.33 Q314.476 1477.06 311.397 1481.67 Q308.342 1486.25 302.532 1486.25 Q296.722 1486.25 293.643 1481.67 Q290.587 1477.06 290.587 1468.33 Q290.587 1459.58 293.643 1455 Q296.722 1450.39 302.532 1450.39 Z" fill="#000000" fill-rule="nonzero" fill-opacity="1" /><path clip-path="url(#clip140)" d="M611.021 1481.64 L627.341 1481.64 L627.341 1485.58 L605.396 1485.58 L605.396 1481.64 Q608.058 1478.89 612.642 1474.26 Q617.248 1469.61 618.429 1468.27 Q620.674 1465.74 621.554 1464.01 Q622.456 1462.25 622.456 1460.56 Q622.456 1457.8 620.512 1456.07 Q618.591 1454.33 615.489 1454.33 Q613.29 1454.33 610.836 1455.09 Q608.406 1455.86 605.628 1457.41 L605.628 1452.69 Q608.452 1451.55 610.906 1450.97 Q613.359 1450.39 615.396 1450.39 Q620.767 1450.39 623.961 1453.08 Q627.155 1455.77 627.155 1460.26 Q627.155 1462.39 626.345 1464.31 Q625.558 1466.2 623.452 1468.8 Q622.873 1469.47 619.771 1472.69 Q616.669 1475.88 611.021 1481.64 Z" fill="#000000" fill-rule="nonzero" fill-opacity="1" /><path clip-path="url(#clip140)" d="M637.155 1479.7 L642.04 1479.7 L642.04 1485.58 L637.155 1485.58 L637.155 1479.7 Z" fill="#000000" fill-rule="nonzero" fill-opacity="1" /><path clip-path="url(#clip140)" d="M652.271 1451.02 L670.627 1451.02 L670.627 1454.96 L656.553 1454.96 L656.553 1463.43 Q657.572 1463.08 658.591 1462.92 Q659.609 1462.73 660.628 1462.73 Q666.415 1462.73 669.794 1465.9 Q673.174 1469.08 673.174 1474.49 Q673.174 1480.07 669.702 1483.17 Q666.229 1486.25 659.91 1486.25 Q657.734 1486.25 655.466 1485.88 Q653.22 1485.51 650.813 1484.77 L650.813 1480.07 Q652.896 1481.2 655.118 1481.76 Q657.341 1482.32 659.817 1482.32 Q663.822 1482.32 666.16 1480.21 Q668.498 1478.1 668.498 1474.49 Q668.498 1470.88 666.16 1468.77 Q663.822 1466.67 659.817 1466.67 Q657.942 1466.67 656.067 1467.08 Q654.216 1467.5 652.271 1468.38 L652.271 1451.02 Z" fill="#000000" fill-rule="nonzero" fill-opacity="1" /><path clip-path="url(#clip140)" d="M965.818 1451.02 L984.175 1451.02 L984.175 1454.96 L970.101 1454.96 L970.101 1463.43 Q971.119 1463.08 972.138 1462.92 Q973.156 1462.73 974.175 1462.73 Q979.962 1462.73 983.342 1465.9 Q986.721 1469.08 986.721 1474.49 Q986.721 1480.07 983.249 1483.17 Q979.777 1486.25 973.457 1486.25 Q971.281 1486.25 969.013 1485.88 Q966.768 1485.51 964.36 1484.77 L964.36 1480.07 Q966.443 1481.2 968.666 1481.76 Q970.888 1482.32 973.365 1482.32 Q977.369 1482.32 979.707 1480.21 Q982.045 1478.1 982.045 1474.49 Q982.045 1470.88 979.707 1468.77 Q977.369 1466.67 973.365 1466.67 Q971.49 1466.67 969.615 1467.08 Q967.763 1467.5 965.818 1468.38 L965.818 1451.02 Z" fill="#000000" fill-rule="nonzero" fill-opacity="1" /><path clip-path="url(#clip140)" d="M995.934 1479.7 L1000.82 1479.7 L1000.82 1485.58 L995.934 1485.58 L995.934 1479.7 Z" fill="#000000" fill-rule="nonzero" fill-opacity="1" /><path clip-path="url(#clip140)" d="M1021 1454.1 Q1017.39 1454.1 1015.56 1457.66 Q1013.76 1461.2 1013.76 1468.33 Q1013.76 1475.44 1015.56 1479.01 Q1017.39 1482.55 1021 1482.55 Q1024.64 1482.55 1026.44 1479.01 Q1028.27 1475.44 1028.27 1468.33 Q1028.27 1461.2 1026.44 1457.66 Q1024.64 1454.1 1021 1454.1 M1021 1450.39 Q1026.81 1450.39 1029.87 1455 Q1032.95 1459.58 1032.95 1468.33 Q1032.95 1477.06 1029.87 1481.67 Q1026.81 1486.25 1021 1486.25 Q1015.19 1486.25 1012.11 1481.67 Q1009.06 1477.06 1009.06 1468.33 Q1009.06 1459.58 1012.11 1455 Q1015.19 1450.39 1021 1450.39 Z" fill="#000000" fill-rule="nonzero" fill-opacity="1" /><path clip-path="url(#clip140)" d="M1324.34 1451.02 L1346.56 1451.02 L1346.56 1453.01 L1334.02 1485.58 L1329.13 1485.58 L1340.94 1454.96 L1324.34 1454.96 L1324.34 1451.02 Z" fill="#000000" fill-rule="nonzero" fill-opacity="1" /><path clip-path="url(#clip140)" d="M1355.68 1479.7 L1360.57 1479.7 L1360.57 1485.58 L1355.68 1485.58 L1355.68 1479.7 Z" fill="#000000" fill-rule="nonzero" fill-opacity="1" /><path clip-path="url(#clip140)" d="M1370.8 1451.02 L1389.16 1451.02 L1389.16 1454.96 L1375.08 1454.96 L1375.08 1463.43 Q1376.1 1463.08 1377.12 1462.92 Q1378.14 1462.73 1379.16 1462.73 Q1384.94 1462.73 1388.32 1465.9 Q1391.7 1469.08 1391.7 1474.49 Q1391.7 1480.07 1388.23 1483.17 Q1384.76 1486.25 1378.44 1486.25 Q1376.26 1486.25 1373.99 1485.88 Q1371.75 1485.51 1369.34 1484.77 L1369.34 1480.07 Q1371.43 1481.2 1373.65 1481.76 Q1375.87 1482.32 1378.35 1482.32 Q1382.35 1482.32 1384.69 1480.21 Q1387.03 1478.1 1387.03 1474.49 Q1387.03 1470.88 1384.69 1468.77 Q1382.35 1466.67 1378.35 1466.67 Q1376.47 1466.67 1374.6 1467.08 Q1372.74 1467.5 1370.8 1468.38 L1370.8 1451.02 Z" fill="#000000" fill-rule="nonzero" fill-opacity="1" /><path clip-path="url(#clip140)" d="M1669.46 1481.64 L1677.1 1481.64 L1677.1 1455.28 L1668.79 1456.95 L1668.79 1452.69 L1677.06 1451.02 L1681.73 1451.02 L1681.73 1481.64 L1689.37 1481.64 L1689.37 1485.58 L1669.46 1485.58 L1669.46 1481.64 Z" fill="#000000" fill-rule="nonzero" fill-opacity="1" /><path clip-path="url(#clip140)" d="M1708.82 1454.1 Q1705.2 1454.1 1703.38 1457.66 Q1701.57 1461.2 1701.57 1468.33 Q1701.57 1475.44 1703.38 1479.01 Q1705.2 1482.55 1708.82 1482.55 Q1712.45 1482.55 1714.26 1479.01 Q1716.08 1475.44 1716.08 1468.33 Q1716.08 1461.2 1714.26 1457.66 Q1712.45 1454.1 1708.82 1454.1 M1708.82 1450.39 Q1714.63 1450.39 1717.68 1455 Q1720.76 1459.58 1720.76 1468.33 Q1720.76 1477.06 1717.68 1481.67 Q1714.63 1486.25 1708.82 1486.25 Q1703.01 1486.25 1699.93 1481.67 Q1696.87 1477.06 1696.87 1468.33 Q1696.87 1459.58 1699.93 1455 Q1703.01 1450.39 1708.82 1450.39 Z" fill="#000000" fill-rule="nonzero" fill-opacity="1" /><path clip-path="url(#clip140)" d="M1728.98 1479.7 L1733.86 1479.7 L1733.86 1485.58 L1728.98 1485.58 L1728.98 1479.7 Z" fill="#000000" fill-rule="nonzero" fill-opacity="1" /><path clip-path="url(#clip140)" d="M1754.05 1454.1 Q1750.44 1454.1 1748.61 1457.66 Q1746.8 1461.2 1746.8 1468.33 Q1746.8 1475.44 1748.61 1479.01 Q1750.44 1482.55 1754.05 1482.55 Q1757.68 1482.55 1759.49 1479.01 Q1761.32 1475.44 1761.32 1468.33 Q1761.32 1461.2 1759.49 1457.66 Q1757.68 1454.1 1754.05 1454.1 M1754.05 1450.39 Q1759.86 1450.39 1762.91 1455 Q1765.99 1459.58 1765.99 1468.33 Q1765.99 1477.06 1762.91 1481.67 Q1759.86 1486.25 1754.05 1486.25 Q1748.24 1486.25 1745.16 1481.67 Q1742.1 1477.06 1742.1 1468.33 Q1742.1 1459.58 1745.16 1455 Q1748.24 1450.39 1754.05 1450.39 Z" fill="#000000" fill-rule="nonzero" fill-opacity="1" /><path clip-path="url(#clip140)" d="M2029.33 1481.64 L2036.97 1481.64 L2036.97 1455.28 L2028.66 1456.95 L2028.66 1452.69 L2036.92 1451.02 L2041.6 1451.02 L2041.6 1481.64 L2049.24 1481.64 L2049.24 1485.58 L2029.33 1485.58 L2029.33 1481.64 Z" fill="#000000" fill-rule="nonzero" fill-opacity="1" /><path clip-path="url(#clip140)" d="M2062.71 1481.64 L2079.03 1481.64 L2079.03 1485.58 L2057.08 1485.58 L2057.08 1481.64 Q2059.75 1478.89 2064.33 1474.26 Q2068.94 1469.61 2070.12 1468.27 Q2072.36 1465.74 2073.24 1464.01 Q2074.14 1462.25 2074.14 1460.56 Q2074.14 1457.8 2072.2 1456.07 Q2070.28 1454.33 2067.18 1454.33 Q2064.98 1454.33 2062.52 1455.09 Q2060.09 1455.86 2057.32 1457.41 L2057.32 1452.69 Q2060.14 1451.55 2062.59 1450.97 Q2065.05 1450.39 2067.08 1450.39 Q2072.46 1450.39 2075.65 1453.08 Q2078.84 1455.77 2078.84 1460.26 Q2078.84 1462.39 2078.03 1464.31 Q2077.25 1466.2 2075.14 1468.8 Q2074.56 1469.47 2071.46 1472.69 Q2068.36 1475.88 2062.71 1481.64 Z" fill="#000000" fill-rule="nonzero" fill-opacity="1" /><path clip-path="url(#clip140)" d="M2088.84 1479.7 L2093.73 1479.7 L2093.73 1485.58 L2088.84 1485.58 L2088.84 1479.7 Z" fill="#000000" fill-rule="nonzero" fill-opacity="1" /><path clip-path="url(#clip140)" d="M2103.96 1451.02 L2122.32 1451.02 L2122.32 1454.96 L2108.24 1454.96 L2108.24 1463.43 Q2109.26 1463.08 2110.28 1462.92 Q2111.3 1462.73 2112.32 1462.73 Q2118.1 1462.73 2121.48 1465.9 Q2124.86 1469.08 2124.86 1474.49 Q2124.86 1480.07 2121.39 1483.17 Q2117.92 1486.25 2111.6 1486.25 Q2109.42 1486.25 2107.15 1485.88 Q2104.91 1485.51 2102.5 1484.77 L2102.5 1480.07 Q2104.58 1481.2 2106.81 1481.76 Q2109.03 1482.32 2111.51 1482.32 Q2115.51 1482.32 2117.85 1480.21 Q2120.19 1478.1 2120.19 1474.49 Q2120.19 1470.88 2117.85 1468.77 Q2115.51 1466.67 2111.51 1466.67 Q2109.63 1466.67 2107.76 1467.08 Q2105.9 1467.5 2103.96 1468.38 L2103.96 1451.02 Z" fill="#000000" fill-rule="nonzero" fill-opacity="1" /><path clip-path="url(#clip140)" d="M1180.56 1520.52 L1186.99 1520.52 L1186.99 1562.63 L1210.13 1562.63 L1210.13 1568.04 L1180.56 1568.04 L1180.56 1520.52 Z" fill="#000000" fill-rule="nonzero" fill-opacity="1" /><path clip-path="url(#clip140)" d="M1232.82 1550.12 Q1225.72 1550.12 1222.99 1551.75 Q1220.25 1553.37 1220.25 1557.29 Q1220.25 1560.4 1222.29 1562.25 Q1224.35 1564.07 1227.89 1564.07 Q1232.76 1564.07 1235.68 1560.63 Q1238.64 1557.16 1238.64 1551.43 L1238.64 1550.12 L1232.82 1550.12 M1244.5 1547.71 L1244.5 1568.04 L1238.64 1568.04 L1238.64 1562.63 Q1236.64 1565.88 1233.65 1567.44 Q1230.66 1568.97 1226.33 1568.97 Q1220.85 1568.97 1217.61 1565.91 Q1214.39 1562.82 1214.39 1557.67 Q1214.39 1551.65 1218.4 1548.6 Q1222.44 1545.54 1230.43 1545.54 L1238.64 1545.54 L1238.64 1544.97 Q1238.64 1540.93 1235.97 1538.73 Q1233.33 1536.5 1228.52 1536.5 Q1225.47 1536.5 1222.57 1537.23 Q1219.68 1537.97 1217 1539.43 L1217 1534.02 Q1220.22 1532.78 1223.24 1532.17 Q1226.26 1531.54 1229.13 1531.54 Q1236.86 1531.54 1240.68 1535.55 Q1244.5 1539.56 1244.5 1547.71 Z" fill="#000000" fill-rule="nonzero" fill-opacity="1" /><path clip-path="url(#clip140)" d="M1280.02 1549.81 Q1280.02 1543.44 1277.38 1539.94 Q1274.77 1536.44 1270.03 1536.44 Q1265.32 1536.44 1262.68 1539.94 Q1260.07 1543.44 1260.07 1549.81 Q1260.07 1556.14 1262.68 1559.64 Q1265.32 1563.14 1270.03 1563.14 Q1274.77 1563.14 1277.38 1559.64 Q1280.02 1556.14 1280.02 1549.81 M1285.88 1563.62 Q1285.88 1572.72 1281.84 1577.15 Q1277.79 1581.6 1269.45 1581.6 Q1266.37 1581.6 1263.63 1581.13 Q1260.89 1580.68 1258.31 1579.72 L1258.31 1574.03 Q1260.89 1575.43 1263.41 1576.1 Q1265.92 1576.76 1268.53 1576.76 Q1274.29 1576.76 1277.16 1573.74 Q1280.02 1570.75 1280.02 1564.67 L1280.02 1561.77 Q1278.21 1564.92 1275.38 1566.48 Q1272.54 1568.04 1268.6 1568.04 Q1262.04 1568.04 1258.03 1563.05 Q1254.02 1558.05 1254.02 1549.81 Q1254.02 1541.53 1258.03 1536.53 Q1262.04 1531.54 1268.6 1531.54 Q1272.54 1531.54 1275.38 1533.1 Q1278.21 1534.66 1280.02 1537.81 L1280.02 1532.4 L1285.88 1532.4 L1285.88 1563.62 Z" fill="#000000" fill-rule="nonzero" fill-opacity="1" /><path clip-path="url(#clip140)" d="M1332.73 1518.58 Q1328.47 1525.9 1326.4 1533.06 Q1324.33 1540.23 1324.33 1547.58 Q1324.33 1554.93 1326.4 1562.16 Q1328.5 1569.35 1332.73 1576.64 L1327.64 1576.64 Q1322.86 1569.16 1320.48 1561.93 Q1318.12 1554.71 1318.12 1547.58 Q1318.12 1540.48 1320.48 1533.29 Q1322.83 1526.09 1327.64 1518.58 L1332.73 1518.58 Z" fill="#000000" fill-rule="nonzero" fill-opacity="1" /><path clip-path="url(#clip140)" d="M1366.82 1533.45 L1366.82 1538.98 Q1364.34 1537.71 1361.66 1537.07 Q1358.99 1536.44 1356.12 1536.44 Q1351.76 1536.44 1349.57 1537.77 Q1347.4 1539.11 1347.4 1541.79 Q1347.4 1543.82 1348.96 1545 Q1350.52 1546.15 1355.23 1547.2 L1357.24 1547.64 Q1363.48 1548.98 1366.09 1551.43 Q1368.73 1553.85 1368.73 1558.21 Q1368.73 1563.17 1364.78 1566.07 Q1360.87 1568.97 1353.99 1568.97 Q1351.13 1568.97 1348.01 1568.39 Q1344.92 1567.85 1341.48 1566.74 L1341.48 1560.69 Q1344.73 1562.38 1347.88 1563.24 Q1351.03 1564.07 1354.12 1564.07 Q1358.26 1564.07 1360.48 1562.66 Q1362.71 1561.23 1362.71 1558.65 Q1362.71 1556.27 1361.09 1554.99 Q1359.5 1553.72 1354.06 1552.54 L1352.02 1552.07 Q1346.58 1550.92 1344.16 1548.56 Q1341.74 1546.18 1341.74 1542.04 Q1341.74 1537.01 1345.3 1534.27 Q1348.87 1531.54 1355.42 1531.54 Q1358.67 1531.54 1361.53 1532.01 Q1364.4 1532.49 1366.82 1533.45 Z" fill="#000000" fill-rule="nonzero" fill-opacity="1" /><path clip-path="url(#clip140)" d="M1377.13 1518.58 L1382.22 1518.58 Q1387 1526.09 1389.35 1533.29 Q1391.74 1540.48 1391.74 1547.58 Q1391.74 1554.71 1389.35 1561.93 Q1387 1569.16 1382.22 1576.64 L1377.13 1576.64 Q1381.36 1569.35 1383.43 1562.16 Q1385.53 1554.93 1385.53 1547.58 Q1385.53 1540.23 1383.43 1533.06 Q1381.36 1525.9 1377.13 1518.58 Z" fill="#000000" fill-rule="nonzero" fill-opacity="1" /><polyline clip-path="url(#clip140)" style="stroke:#000000; stroke-linecap:round; stroke-linejoin:round; stroke-width:4; stroke-opacity:1; fill:none" points="219.542,1423.18 219.542,123.472 "/>
<polyline clip-path="url(#clip140)" style="stroke:#000000; stroke-linecap:round; stroke-linejoin:round; stroke-width:4; stroke-opacity:1; fill:none" points="219.542,1140.09 238.44,1140.09 "/>
<polyline clip-path="url(#clip140)" style="stroke:#000000; stroke-linecap:round; stroke-linejoin:round; stroke-width:4; stroke-opacity:1; fill:none" points="219.542,846.139 238.44,846.139 "/>
<polyline clip-path="url(#clip140)" style="stroke:#000000; stroke-linecap:round; stroke-linejoin:round; stroke-width:4; stroke-opacity:1; fill:none" points="219.542,552.19 238.44,552.19 "/>
<polyline clip-path="url(#clip140)" style="stroke:#000000; stroke-linecap:round; stroke-linejoin:round; stroke-width:4; stroke-opacity:1; fill:none" points="219.542,258.24 238.44,258.24 "/>
<path clip-path="url(#clip140)" d="M126.367 1125.89 Q122.755 1125.89 120.927 1129.45 Q119.121 1132.99 119.121 1140.12 Q119.121 1147.23 120.927 1150.8 Q122.755 1154.34 126.367 1154.34 Q130.001 1154.34 131.806 1150.8 Q133.635 1147.23 133.635 1140.12 Q133.635 1132.99 131.806 1129.45 Q130.001 1125.89 126.367 1125.89 M126.367 1122.18 Q132.177 1122.18 135.232 1126.79 Q138.311 1131.37 138.311 1140.12 Q138.311 1148.85 135.232 1153.46 Q132.177 1158.04 126.367 1158.04 Q120.556 1158.04 117.478 1153.46 Q114.422 1148.85 114.422 1140.12 Q114.422 1131.37 117.478 1126.79 Q120.556 1122.18 126.367 1122.18 Z" fill="#000000" fill-rule="nonzero" fill-opacity="1" /><path clip-path="url(#clip140)" d="M146.529 1151.49 L151.413 1151.49 L151.413 1157.37 L146.529 1157.37 L146.529 1151.49 Z" fill="#000000" fill-rule="nonzero" fill-opacity="1" /><path clip-path="url(#clip140)" d="M171.598 1125.89 Q167.987 1125.89 166.158 1129.45 Q164.352 1132.99 164.352 1140.12 Q164.352 1147.23 166.158 1150.8 Q167.987 1154.34 171.598 1154.34 Q175.232 1154.34 177.038 1150.8 Q178.866 1147.23 178.866 1140.12 Q178.866 1132.99 177.038 1129.45 Q175.232 1125.89 171.598 1125.89 M171.598 1122.18 Q177.408 1122.18 180.464 1126.79 Q183.542 1131.37 183.542 1140.12 Q183.542 1148.85 180.464 1153.46 Q177.408 1158.04 171.598 1158.04 Q165.788 1158.04 162.709 1153.46 Q159.653 1148.85 159.653 1140.12 Q159.653 1131.37 162.709 1126.79 Q165.788 1122.18 171.598 1122.18 Z" fill="#000000" fill-rule="nonzero" fill-opacity="1" /><path clip-path="url(#clip140)" d="M127.015 831.938 Q123.404 831.938 121.575 835.503 Q119.769 839.045 119.769 846.174 Q119.769 853.281 121.575 856.845 Q123.404 860.387 127.015 860.387 Q130.649 860.387 132.455 856.845 Q134.283 853.281 134.283 846.174 Q134.283 839.045 132.455 835.503 Q130.649 831.938 127.015 831.938 M127.015 828.234 Q132.825 828.234 135.88 832.841 Q138.959 837.424 138.959 846.174 Q138.959 854.901 135.88 859.507 Q132.825 864.091 127.015 864.091 Q121.205 864.091 118.126 859.507 Q115.07 854.901 115.07 846.174 Q115.07 837.424 118.126 832.841 Q121.205 828.234 127.015 828.234 Z" fill="#000000" fill-rule="nonzero" fill-opacity="1" /><path clip-path="url(#clip140)" d="M147.177 857.54 L152.061 857.54 L152.061 863.419 L147.177 863.419 L147.177 857.54 Z" fill="#000000" fill-rule="nonzero" fill-opacity="1" /><path clip-path="url(#clip140)" d="M176.413 844.785 Q179.769 845.503 181.644 847.771 Q183.542 850.04 183.542 853.373 Q183.542 858.489 180.024 861.29 Q176.505 864.091 170.024 864.091 Q167.848 864.091 165.533 863.651 Q163.241 863.234 160.788 862.378 L160.788 857.864 Q162.732 858.998 165.047 859.577 Q167.362 860.156 169.885 860.156 Q174.283 860.156 176.575 858.42 Q178.889 856.683 178.889 853.373 Q178.889 850.318 176.737 848.605 Q174.607 846.869 170.788 846.869 L166.76 846.869 L166.76 843.026 L170.973 843.026 Q174.422 843.026 176.251 841.66 Q178.079 840.271 178.079 837.679 Q178.079 835.017 176.181 833.605 Q174.306 832.17 170.788 832.17 Q168.866 832.17 166.667 832.586 Q164.468 833.003 161.829 833.883 L161.829 829.716 Q164.491 828.975 166.806 828.605 Q169.144 828.234 171.204 828.234 Q176.528 828.234 179.63 830.665 Q182.732 833.072 182.732 837.193 Q182.732 840.063 181.089 842.054 Q179.445 844.021 176.413 844.785 Z" fill="#000000" fill-rule="nonzero" fill-opacity="1" /><path clip-path="url(#clip140)" d="M126.205 537.988 Q122.593 537.988 120.765 541.553 Q118.959 545.095 118.959 552.224 Q118.959 559.331 120.765 562.896 Q122.593 566.437 126.205 566.437 Q129.839 566.437 131.644 562.896 Q133.473 559.331 133.473 552.224 Q133.473 545.095 131.644 541.553 Q129.839 537.988 126.205 537.988 M126.205 534.285 Q132.015 534.285 135.07 538.891 Q138.149 543.474 138.149 552.224 Q138.149 560.951 135.07 565.558 Q132.015 570.141 126.205 570.141 Q120.394 570.141 117.316 565.558 Q114.26 560.951 114.26 552.224 Q114.26 543.474 117.316 538.891 Q120.394 534.285 126.205 534.285 Z" fill="#000000" fill-rule="nonzero" fill-opacity="1" /><path clip-path="url(#clip140)" d="M146.366 563.59 L151.251 563.59 L151.251 569.47 L146.366 569.47 L146.366 563.59 Z" fill="#000000" fill-rule="nonzero" fill-opacity="1" /><path clip-path="url(#clip140)" d="M172.014 550.326 Q168.866 550.326 167.015 552.479 Q165.186 554.632 165.186 558.382 Q165.186 562.108 167.015 564.284 Q168.866 566.437 172.014 566.437 Q175.163 566.437 176.991 564.284 Q178.843 562.108 178.843 558.382 Q178.843 554.632 176.991 552.479 Q175.163 550.326 172.014 550.326 M181.297 535.673 L181.297 539.933 Q179.538 539.099 177.732 538.66 Q175.95 538.22 174.19 538.22 Q169.561 538.22 167.107 541.345 Q164.677 544.47 164.329 550.789 Q165.695 548.775 167.755 547.71 Q169.815 546.622 172.292 546.622 Q177.501 546.622 180.51 549.794 Q183.542 552.942 183.542 558.382 Q183.542 563.706 180.394 566.923 Q177.246 570.141 172.014 570.141 Q166.019 570.141 162.848 565.558 Q159.677 560.951 159.677 552.224 Q159.677 544.03 163.565 539.169 Q167.454 534.285 174.005 534.285 Q175.764 534.285 177.547 534.632 Q179.352 534.979 181.297 535.673 Z" fill="#000000" fill-rule="nonzero" fill-opacity="1" /><path clip-path="url(#clip140)" d="M126.552 244.038 Q122.941 244.038 121.112 247.603 Q119.306 251.145 119.306 258.274 Q119.306 265.381 121.112 268.946 Q122.941 272.487 126.552 272.487 Q130.186 272.487 131.992 268.946 Q133.82 265.381 133.82 258.274 Q133.82 251.145 131.992 247.603 Q130.186 244.038 126.552 244.038 M126.552 240.335 Q132.362 240.335 135.417 244.941 Q138.496 249.524 138.496 258.274 Q138.496 267.001 135.417 271.608 Q132.362 276.191 126.552 276.191 Q120.742 276.191 117.663 271.608 Q114.607 267.001 114.607 258.274 Q114.607 249.524 117.663 244.941 Q120.742 240.335 126.552 240.335 Z" fill="#000000" fill-rule="nonzero" fill-opacity="1" /><path clip-path="url(#clip140)" d="M146.714 269.64 L151.598 269.64 L151.598 275.52 L146.714 275.52 L146.714 269.64 Z" fill="#000000" fill-rule="nonzero" fill-opacity="1" /><path clip-path="url(#clip140)" d="M161.922 274.802 L161.922 270.543 Q163.681 271.376 165.487 271.816 Q167.292 272.256 169.028 272.256 Q173.658 272.256 176.089 269.154 Q178.542 266.029 178.889 259.686 Q177.547 261.677 175.487 262.742 Q173.427 263.807 170.927 263.807 Q165.741 263.807 162.709 260.682 Q159.7 257.534 159.7 252.094 Q159.7 246.77 162.848 243.552 Q165.996 240.335 171.227 240.335 Q177.223 240.335 180.371 244.941 Q183.542 249.524 183.542 258.274 Q183.542 266.446 179.653 271.33 Q175.788 276.191 169.237 276.191 Q167.477 276.191 165.672 275.844 Q163.866 275.496 161.922 274.802 M171.227 260.149 Q174.376 260.149 176.204 257.997 Q178.056 255.844 178.056 252.094 Q178.056 248.367 176.204 246.214 Q174.376 244.038 171.227 244.038 Q168.079 244.038 166.227 246.214 Q164.399 248.367 164.399 252.094 Q164.399 255.844 166.227 257.997 Q168.079 260.149 171.227 260.149 Z" fill="#000000" fill-rule="nonzero" fill-opacity="1" /><path clip-path="url(#clip140)" d="M22.818 999.086 L46.4666 1007.81 L46.4666 990.333 L22.818 999.086 M16.4842 1002.71 L16.4842 995.425 L64.0042 977.315 L64.0042 983.999 L51.8138 988.328 L51.8138 1009.75 L64.0042 1014.08 L64.0042 1020.86 L16.4842 1002.71 Z" fill="#000000" fill-rule="nonzero" fill-opacity="1" /><path clip-path="url(#clip140)" d="M49.9359 971.236 L28.3562 971.236 L28.3562 965.379 L49.7131 965.379 Q54.7739 965.379 57.3202 963.406 Q59.8346 961.433 59.8346 957.486 Q59.8346 952.743 56.8109 950.006 Q53.7872 947.237 48.5673 947.237 L28.3562 947.237 L28.3562 941.381 L64.0042 941.381 L64.0042 947.237 L58.5296 947.237 Q61.7762 949.37 63.3676 952.202 Q64.9272 955.003 64.9272 958.727 Q64.9272 964.87 61.1078 968.053 Q57.2883 971.236 49.9359 971.236 M27.4968 956.499 L27.4968 956.499 Z" fill="#000000" fill-rule="nonzero" fill-opacity="1" /><path clip-path="url(#clip140)" d="M18.2347 923.525 L28.3562 923.525 L28.3562 911.462 L32.9077 911.462 L32.9077 923.525 L52.2594 923.525 Q56.6199 923.525 57.8613 922.347 Q59.1026 921.138 59.1026 917.477 L59.1026 911.462 L64.0042 911.462 L64.0042 917.477 Q64.0042 924.257 61.4897 926.835 Q58.9434 929.413 52.2594 929.413 L32.9077 929.413 L32.9077 933.71 L28.3562 933.71 L28.3562 929.413 L18.2347 929.413 L18.2347 923.525 Z" fill="#000000" fill-rule="nonzero" fill-opacity="1" /><path clip-path="url(#clip140)" d="M32.4621 889.946 Q32.4621 894.656 36.1542 897.394 Q39.8145 900.131 46.212 900.131 Q52.6095 900.131 56.3017 897.425 Q59.9619 894.688 59.9619 889.946 Q59.9619 885.267 56.2698 882.53 Q52.5777 879.792 46.212 879.792 Q39.8781 879.792 36.186 882.53 Q32.4621 885.267 32.4621 889.946 M27.4968 889.946 Q27.4968 882.307 32.4621 877.946 Q37.4273 873.586 46.212 873.586 Q54.9649 873.586 59.9619 877.946 Q64.9272 882.307 64.9272 889.946 Q64.9272 897.616 59.9619 901.977 Q54.9649 906.306 46.212 906.306 Q37.4273 906.306 32.4621 901.977 Q27.4968 897.616 27.4968 889.946 Z" fill="#000000" fill-rule="nonzero" fill-opacity="1" /><path clip-path="url(#clip140)" d="M29.7248 838.224 L35.1993 838.224 Q33.8307 840.707 33.1623 843.221 Q32.4621 845.704 32.4621 848.25 Q32.4621 853.948 36.0905 857.099 Q39.6872 860.25 46.212 860.25 Q52.7369 860.25 56.3653 857.099 Q59.9619 853.948 59.9619 848.25 Q59.9619 845.704 59.2935 843.221 Q58.5933 840.707 57.2247 838.224 L62.6355 838.224 Q63.7814 840.675 64.3543 843.317 Q64.9272 845.927 64.9272 848.887 Q64.9272 856.94 59.8664 861.682 Q54.8057 866.424 46.212 866.424 Q37.491 866.424 32.4939 861.65 Q27.4968 856.844 27.4968 848.505 Q27.4968 845.8 28.0697 843.221 Q28.6108 840.643 29.7248 838.224 Z" fill="#000000" fill-rule="nonzero" fill-opacity="1" /><path clip-path="url(#clip140)" d="M32.4621 814.226 Q32.4621 818.936 36.1542 821.674 Q39.8145 824.411 46.212 824.411 Q52.6095 824.411 56.3017 821.705 Q59.9619 818.968 59.9619 814.226 Q59.9619 809.547 56.2698 806.81 Q52.5777 804.072 46.212 804.072 Q39.8781 804.072 36.186 806.81 Q32.4621 809.547 32.4621 814.226 M27.4968 814.226 Q27.4968 806.587 32.4621 802.226 Q37.4273 797.866 46.212 797.866 Q54.9649 797.866 59.9619 802.226 Q64.9272 806.587 64.9272 814.226 Q64.9272 821.896 59.9619 826.257 Q54.9649 830.586 46.212 830.586 Q37.4273 830.586 32.4621 826.257 Q27.4968 821.896 27.4968 814.226 Z" fill="#000000" fill-rule="nonzero" fill-opacity="1" /><path clip-path="url(#clip140)" d="M33.8307 767.501 Q33.2578 768.488 33.0032 769.666 Q32.7167 770.812 32.7167 772.212 Q32.7167 777.177 35.9632 779.851 Q39.1779 782.493 45.2253 782.493 L64.0042 782.493 L64.0042 788.381 L28.3562 788.381 L28.3562 782.493 L33.8944 782.493 Q30.6479 780.647 29.0883 777.686 Q27.4968 774.726 27.4968 770.493 Q27.4968 769.889 27.5923 769.156 Q27.656 768.424 27.8151 767.533 L33.8307 767.501 Z" fill="#000000" fill-rule="nonzero" fill-opacity="1" /><path clip-path="url(#clip140)" d="M33.8307 741.848 Q33.2578 742.834 33.0032 744.012 Q32.7167 745.158 32.7167 746.558 Q32.7167 751.523 35.9632 754.197 Q39.1779 756.839 45.2253 756.839 L64.0042 756.839 L64.0042 762.727 L28.3562 762.727 L28.3562 756.839 L33.8944 756.839 Q30.6479 754.993 29.0883 752.033 Q27.4968 749.073 27.4968 744.839 Q27.4968 744.235 27.5923 743.503 Q27.656 742.771 27.8151 741.879 L33.8307 741.848 Z" fill="#000000" fill-rule="nonzero" fill-opacity="1" /><path clip-path="url(#clip140)" d="M44.7161 706.645 L47.5806 706.645 L47.5806 733.572 Q53.6281 733.19 56.8109 729.944 Q59.9619 726.665 59.9619 720.841 Q59.9619 717.467 59.1344 714.316 Q58.3069 711.133 56.6518 708.014 L62.1899 708.014 Q63.5267 711.165 64.227 714.475 Q64.9272 717.785 64.9272 721.191 Q64.9272 729.721 59.9619 734.718 Q54.9967 739.683 46.5303 739.683 Q37.7774 739.683 32.6531 734.973 Q27.4968 730.23 27.4968 722.209 Q27.4968 715.016 32.1438 710.847 Q36.7589 706.645 44.7161 706.645 M42.9973 712.502 Q38.1912 712.565 35.3266 715.207 Q32.4621 717.817 32.4621 722.146 Q32.4621 727.047 35.2312 730.007 Q38.0002 732.936 43.0292 733.381 L42.9973 712.502 Z" fill="#000000" fill-rule="nonzero" fill-opacity="1" /><path clip-path="url(#clip140)" d="M14.479 697.033 L14.479 691.177 L64.0042 691.177 L64.0042 697.033 L14.479 697.033 Z" fill="#000000" fill-rule="nonzero" fill-opacity="1" /><path clip-path="url(#clip140)" d="M46.0847 662.722 Q46.0847 669.82 47.7079 672.557 Q49.3312 675.294 53.2461 675.294 Q56.3653 675.294 58.2114 673.257 Q60.0256 671.188 60.0256 667.655 Q60.0256 662.785 56.5881 659.857 Q53.1188 656.897 47.3897 656.897 L46.0847 656.897 L46.0847 662.722 M43.6657 651.041 L64.0042 651.041 L64.0042 656.897 L58.5933 656.897 Q61.8398 658.902 63.3994 661.894 Q64.9272 664.886 64.9272 669.215 Q64.9272 674.689 61.8716 677.936 Q58.7843 681.151 53.6281 681.151 Q47.6125 681.151 44.5569 677.14 Q41.5014 673.098 41.5014 665.109 L41.5014 656.897 L40.9285 656.897 Q36.8862 656.897 34.6901 659.571 Q32.4621 662.213 32.4621 667.019 Q32.4621 670.074 33.1941 672.971 Q33.9262 675.867 35.3903 678.541 L29.9795 678.541 Q28.7381 675.326 28.1334 672.302 Q27.4968 669.279 27.4968 666.414 Q27.4968 658.68 31.5072 654.86 Q35.5176 651.041 43.6657 651.041 Z" fill="#000000" fill-rule="nonzero" fill-opacity="1" /><path clip-path="url(#clip140)" d="M18.2347 633.185 L28.3562 633.185 L28.3562 621.122 L32.9077 621.122 L32.9077 633.185 L52.2594 633.185 Q56.6199 633.185 57.8613 632.007 Q59.1026 630.798 59.1026 627.138 L59.1026 621.122 L64.0042 621.122 L64.0042 627.138 Q64.0042 633.917 61.4897 636.495 Q58.9434 639.073 52.2594 639.073 L32.9077 639.073 L32.9077 643.37 L28.3562 643.37 L28.3562 639.073 L18.2347 639.073 L18.2347 633.185 Z" fill="#000000" fill-rule="nonzero" fill-opacity="1" /><path clip-path="url(#clip140)" d="M28.3562 613.419 L28.3562 607.563 L64.0042 607.563 L64.0042 613.419 L28.3562 613.419 M14.479 613.419 L14.479 607.563 L21.895 607.563 L21.895 613.419 L14.479 613.419 Z" fill="#000000" fill-rule="nonzero" fill-opacity="1" /><path clip-path="url(#clip140)" d="M32.4621 581.495 Q32.4621 586.206 36.1542 588.943 Q39.8145 591.681 46.212 591.681 Q52.6095 591.681 56.3017 588.975 Q59.9619 586.238 59.9619 581.495 Q59.9619 576.817 56.2698 574.079 Q52.5777 571.342 46.212 571.342 Q39.8781 571.342 36.186 574.079 Q32.4621 576.817 32.4621 581.495 M27.4968 581.495 Q27.4968 573.857 32.4621 569.496 Q37.4273 565.136 46.212 565.136 Q54.9649 565.136 59.9619 569.496 Q64.9272 573.857 64.9272 581.495 Q64.9272 589.166 59.9619 593.527 Q54.9649 597.855 46.212 597.855 Q37.4273 597.855 32.4621 593.527 Q27.4968 589.166 27.4968 581.495 Z" fill="#000000" fill-rule="nonzero" fill-opacity="1" /><path clip-path="url(#clip140)" d="M42.4881 525.795 L64.0042 525.795 L64.0042 531.652 L42.679 531.652 Q37.6183 531.652 35.1038 533.625 Q32.5894 535.599 32.5894 539.545 Q32.5894 544.288 35.6131 547.025 Q38.6368 549.762 43.8567 549.762 L64.0042 549.762 L64.0042 555.651 L28.3562 555.651 L28.3562 549.762 L33.8944 549.762 Q30.6797 547.662 29.0883 544.829 Q27.4968 541.964 27.4968 538.24 Q27.4968 532.098 31.3163 528.947 Q35.1038 525.795 42.4881 525.795 Z" fill="#000000" fill-rule="nonzero" fill-opacity="1" /><path clip-path="url(#clip140)" d="M809.196 20.1573 L798.096 50.2555 L820.336 50.2555 L809.196 20.1573 M804.578 12.096 L813.854 12.096 L836.904 72.576 L828.397 72.576 L822.888 57.061 L795.625 57.061 L790.116 72.576 L781.487 72.576 L804.578 12.096 Z" fill="#000000" fill-rule="nonzero" fill-opacity="1" /><path clip-path="url(#clip140)" d="M844.641 54.671 L844.641 27.2059 L852.095 27.2059 L852.095 54.3874 Q852.095 60.8284 854.606 64.0691 Q857.118 67.2693 862.141 67.2693 Q868.177 67.2693 871.661 63.421 Q875.185 59.5726 875.185 52.9291 L875.185 27.2059 L882.638 27.2059 L882.638 72.576 L875.185 72.576 L875.185 65.6084 Q872.471 69.7404 868.865 71.7658 Q865.301 73.7508 860.561 73.7508 Q852.743 73.7508 848.692 68.8897 Q844.641 64.0286 844.641 54.671 M863.397 26.1121 L863.397 26.1121 Z" fill="#000000" fill-rule="nonzero" fill-opacity="1" /><path clip-path="url(#clip140)" d="M905.364 14.324 L905.364 27.2059 L920.717 27.2059 L920.717 32.9987 L905.364 32.9987 L905.364 57.6282 Q905.364 63.1779 906.863 64.7578 Q908.402 66.3376 913.061 66.3376 L920.717 66.3376 L920.717 72.576 L913.061 72.576 Q904.432 72.576 901.151 69.3758 Q897.87 66.1351 897.87 57.6282 L897.87 32.9987 L892.401 32.9987 L892.401 27.2059 L897.87 27.2059 L897.87 14.324 L905.364 14.324 Z" fill="#000000" fill-rule="nonzero" fill-opacity="1" /><path clip-path="url(#clip140)" d="M948.101 32.4315 Q942.106 32.4315 938.622 37.1306 Q935.138 41.7891 935.138 49.9314 Q935.138 58.0738 938.581 62.7728 Q942.065 67.4314 948.101 67.4314 Q954.056 67.4314 957.54 62.7323 Q961.023 58.0333 961.023 49.9314 Q961.023 41.8701 957.54 37.1711 Q954.056 32.4315 948.101 32.4315 M948.101 26.1121 Q957.823 26.1121 963.373 32.4315 Q968.923 38.7509 968.923 49.9314 Q968.923 61.0714 963.373 67.4314 Q957.823 73.7508 948.101 73.7508 Q938.338 73.7508 932.789 67.4314 Q927.279 61.0714 927.279 49.9314 Q927.279 38.7509 932.789 32.4315 Q938.338 26.1121 948.101 26.1121 Z" fill="#000000" fill-rule="nonzero" fill-opacity="1" /><path clip-path="url(#clip140)" d="M1013.93 28.9478 L1013.93 35.9153 Q1010.77 34.1734 1007.57 33.3227 Q1004.41 32.4315 1001.17 32.4315 Q993.917 32.4315 989.906 37.0496 Q985.896 41.6271 985.896 49.9314 Q985.896 58.2358 989.906 62.8538 Q993.917 67.4314 1001.17 67.4314 Q1004.41 67.4314 1007.57 66.5807 Q1010.77 65.6895 1013.93 63.9476 L1013.93 70.8341 Q1010.81 72.2924 1007.45 73.0216 Q1004.13 73.7508 1000.36 73.7508 Q990.109 73.7508 984.073 67.3098 Q978.037 60.8689 978.037 49.9314 Q978.037 38.832 984.114 32.472 Q990.23 26.1121 1000.84 26.1121 Q1004.29 26.1121 1007.57 26.8413 Q1010.85 27.5299 1013.93 28.9478 Z" fill="#000000" fill-rule="nonzero" fill-opacity="1" /><path clip-path="url(#clip140)" d="M1044.47 32.4315 Q1038.48 32.4315 1034.99 37.1306 Q1031.51 41.7891 1031.51 49.9314 Q1031.51 58.0738 1034.95 62.7728 Q1038.44 67.4314 1044.47 67.4314 Q1050.43 67.4314 1053.91 62.7323 Q1057.39 58.0333 1057.39 49.9314 Q1057.39 41.8701 1053.91 37.1711 Q1050.43 32.4315 1044.47 32.4315 M1044.47 26.1121 Q1054.19 26.1121 1059.74 32.4315 Q1065.29 38.7509 1065.29 49.9314 Q1065.29 61.0714 1059.74 67.4314 Q1054.19 73.7508 1044.47 73.7508 Q1034.71 73.7508 1029.16 67.4314 Q1023.65 61.0714 1023.65 49.9314 Q1023.65 38.7509 1029.16 32.4315 Q1034.71 26.1121 1044.47 26.1121 Z" fill="#000000" fill-rule="nonzero" fill-opacity="1" /><path clip-path="url(#clip140)" d="M1103.94 34.1734 Q1102.68 33.4443 1101.18 33.1202 Q1099.73 32.7556 1097.94 32.7556 Q1091.62 32.7556 1088.22 36.8875 Q1084.86 40.9789 1084.86 48.6757 L1084.86 72.576 L1077.37 72.576 L1077.37 27.2059 L1084.86 27.2059 L1084.86 34.2544 Q1087.21 30.1225 1090.98 28.1376 Q1094.74 26.1121 1100.13 26.1121 Q1100.9 26.1121 1101.83 26.2337 Q1102.76 26.3147 1103.9 26.5172 L1103.94 34.1734 Z" fill="#000000" fill-rule="nonzero" fill-opacity="1" /><path clip-path="url(#clip140)" d="M1136.59 34.1734 Q1135.33 33.4443 1133.84 33.1202 Q1132.38 32.7556 1130.59 32.7556 Q1124.27 32.7556 1120.87 36.8875 Q1117.51 40.9789 1117.51 48.6757 L1117.51 72.576 L1110.02 72.576 L1110.02 27.2059 L1117.51 27.2059 L1117.51 34.2544 Q1119.86 30.1225 1123.63 28.1376 Q1127.39 26.1121 1132.78 26.1121 Q1133.55 26.1121 1134.48 26.2337 Q1135.41 26.3147 1136.55 26.5172 L1136.59 34.1734 Z" fill="#000000" fill-rule="nonzero" fill-opacity="1" /><path clip-path="url(#clip140)" d="M1181.39 48.0275 L1181.39 51.6733 L1147.12 51.6733 Q1147.61 59.3701 1151.74 63.421 Q1155.91 67.4314 1163.33 67.4314 Q1167.62 67.4314 1171.63 66.3781 Q1175.68 65.3249 1179.65 63.2184 L1179.65 70.267 Q1175.64 71.9684 1171.43 72.8596 Q1167.21 73.7508 1162.88 73.7508 Q1152.02 73.7508 1145.66 67.4314 Q1139.34 61.1119 1139.34 50.3365 Q1139.34 39.1965 1145.34 32.6746 Q1151.38 26.1121 1161.58 26.1121 Q1170.74 26.1121 1176.05 32.0264 Q1181.39 37.9003 1181.39 48.0275 M1173.94 45.84 Q1173.86 39.7232 1170.5 36.0774 Q1167.17 32.4315 1161.66 32.4315 Q1155.43 32.4315 1151.66 35.9558 Q1147.93 39.4801 1147.37 45.8805 L1173.94 45.84 Z" fill="#000000" fill-rule="nonzero" fill-opacity="1" /><path clip-path="url(#clip140)" d="M1193.63 9.54393 L1201.08 9.54393 L1201.08 72.576 L1193.63 72.576 L1193.63 9.54393 Z" fill="#000000" fill-rule="nonzero" fill-opacity="1" /><path clip-path="url(#clip140)" d="M1237.3 49.7694 Q1228.26 49.7694 1224.78 51.8354 Q1221.29 53.9013 1221.29 58.8839 Q1221.29 62.8538 1223.89 65.2034 Q1226.52 67.5124 1231.02 67.5124 Q1237.21 67.5124 1240.94 63.1374 Q1244.71 58.7219 1244.71 51.4303 L1244.71 49.7694 L1237.3 49.7694 M1252.16 46.6907 L1252.16 72.576 L1244.71 72.576 L1244.71 65.6895 Q1242.16 69.8214 1238.35 71.8063 Q1234.54 73.7508 1229.03 73.7508 Q1222.06 73.7508 1217.93 69.8619 Q1213.84 65.9325 1213.84 59.3701 Q1213.84 51.7138 1218.94 47.825 Q1224.09 43.9361 1234.26 43.9361 L1244.71 43.9361 L1244.71 43.2069 Q1244.71 38.0623 1241.31 35.2672 Q1237.94 32.4315 1231.83 32.4315 Q1227.94 32.4315 1224.25 33.3632 Q1220.56 34.295 1217.16 36.1584 L1217.16 29.2718 Q1221.25 27.692 1225.1 26.9223 Q1228.95 26.1121 1232.6 26.1121 Q1242.44 26.1121 1247.3 31.2163 Q1252.16 36.3204 1252.16 46.6907 Z" fill="#000000" fill-rule="nonzero" fill-opacity="1" /><path clip-path="url(#clip140)" d="M1274.89 14.324 L1274.89 27.2059 L1290.24 27.2059 L1290.24 32.9987 L1274.89 32.9987 L1274.89 57.6282 Q1274.89 63.1779 1276.39 64.7578 Q1277.93 66.3376 1282.58 66.3376 L1290.24 66.3376 L1290.24 72.576 L1282.58 72.576 Q1273.96 72.576 1270.67 69.3758 Q1267.39 66.1351 1267.39 57.6282 L1267.39 32.9987 L1261.92 32.9987 L1261.92 27.2059 L1267.39 27.2059 L1267.39 14.324 L1274.89 14.324 Z" fill="#000000" fill-rule="nonzero" fill-opacity="1" /><path clip-path="url(#clip140)" d="M1300.04 27.2059 L1307.5 27.2059 L1307.5 72.576 L1300.04 72.576 L1300.04 27.2059 M1300.04 9.54393 L1307.5 9.54393 L1307.5 18.9825 L1300.04 18.9825 L1300.04 9.54393 Z" fill="#000000" fill-rule="nonzero" fill-opacity="1" /><path clip-path="url(#clip140)" d="M1340.67 32.4315 Q1334.68 32.4315 1331.2 37.1306 Q1327.71 41.7891 1327.71 49.9314 Q1327.71 58.0738 1331.15 62.7728 Q1334.64 67.4314 1340.67 67.4314 Q1346.63 67.4314 1350.11 62.7323 Q1353.6 58.0333 1353.6 49.9314 Q1353.6 41.8701 1350.11 37.1711 Q1346.63 32.4315 1340.67 32.4315 M1340.67 26.1121 Q1350.4 26.1121 1355.95 32.4315 Q1361.5 38.7509 1361.5 49.9314 Q1361.5 61.0714 1355.95 67.4314 Q1350.4 73.7508 1340.67 73.7508 Q1330.91 73.7508 1325.36 67.4314 Q1319.85 61.0714 1319.85 49.9314 Q1319.85 38.7509 1325.36 32.4315 Q1330.91 26.1121 1340.67 26.1121 Z" fill="#000000" fill-rule="nonzero" fill-opacity="1" /><path clip-path="url(#clip140)" d="M1411.57 45.1919 L1411.57 72.576 L1404.11 72.576 L1404.11 45.4349 Q1404.11 38.994 1401.6 35.7938 Q1399.09 32.5936 1394.07 32.5936 Q1388.03 32.5936 1384.55 36.4419 Q1381.06 40.2903 1381.06 46.9338 L1381.06 72.576 L1373.57 72.576 L1373.57 27.2059 L1381.06 27.2059 L1381.06 34.2544 Q1383.74 30.163 1387.34 28.1376 Q1390.99 26.1121 1395.73 26.1121 Q1403.54 26.1121 1407.55 30.9732 Q1411.57 35.7938 1411.57 45.1919 Z" fill="#000000" fill-rule="nonzero" fill-opacity="1" /><path clip-path="url(#clip140)" d="M1453.13 12.096 L1487.88 12.096 L1487.88 18.9825 L1461.31 18.9825 L1461.31 36.8065 L1485.29 36.8065 L1485.29 43.6931 L1461.31 43.6931 L1461.31 72.576 L1453.13 72.576 L1453.13 12.096 Z" fill="#000000" fill-rule="nonzero" fill-opacity="1" /><path clip-path="url(#clip140)" d="M1495.22 54.671 L1495.22 27.2059 L1502.67 27.2059 L1502.67 54.3874 Q1502.67 60.8284 1505.18 64.0691 Q1507.69 67.2693 1512.72 67.2693 Q1518.75 67.2693 1522.24 63.421 Q1525.76 59.5726 1525.76 52.9291 L1525.76 27.2059 L1533.21 27.2059 L1533.21 72.576 L1525.76 72.576 L1525.76 65.6084 Q1523.05 69.7404 1519.44 71.7658 Q1515.88 73.7508 1511.14 73.7508 Q1503.32 73.7508 1499.27 68.8897 Q1495.22 64.0286 1495.22 54.671 M1513.97 26.1121 L1513.97 26.1121 Z" fill="#000000" fill-rule="nonzero" fill-opacity="1" /><path clip-path="url(#clip140)" d="M1586.28 45.1919 L1586.28 72.576 L1578.83 72.576 L1578.83 45.4349 Q1578.83 38.994 1576.32 35.7938 Q1573.8 32.5936 1568.78 32.5936 Q1562.74 32.5936 1559.26 36.4419 Q1555.78 40.2903 1555.78 46.9338 L1555.78 72.576 L1548.28 72.576 L1548.28 27.2059 L1555.78 27.2059 L1555.78 34.2544 Q1558.45 30.163 1562.06 28.1376 Q1565.7 26.1121 1570.44 26.1121 Q1578.26 26.1121 1582.27 30.9732 Q1586.28 35.7938 1586.28 45.1919 Z" fill="#000000" fill-rule="nonzero" fill-opacity="1" /><path clip-path="url(#clip140)" d="M1633.8 28.9478 L1633.8 35.9153 Q1630.64 34.1734 1627.44 33.3227 Q1624.28 32.4315 1621.04 32.4315 Q1613.79 32.4315 1609.78 37.0496 Q1605.77 41.6271 1605.77 49.9314 Q1605.77 58.2358 1609.78 62.8538 Q1613.79 67.4314 1621.04 67.4314 Q1624.28 67.4314 1627.44 66.5807 Q1630.64 65.6895 1633.8 63.9476 L1633.8 70.8341 Q1630.68 72.2924 1627.32 73.0216 Q1623.99 73.7508 1620.23 73.7508 Q1609.98 73.7508 1603.94 67.3098 Q1597.91 60.8689 1597.91 49.9314 Q1597.91 38.832 1603.98 32.472 Q1610.1 26.1121 1620.71 26.1121 Q1624.16 26.1121 1627.44 26.8413 Q1630.72 27.5299 1633.8 28.9478 Z" fill="#000000" fill-rule="nonzero" fill-opacity="1" /><path clip-path="url(#clip140)" d="M1654.13 14.324 L1654.13 27.2059 L1669.49 27.2059 L1669.49 32.9987 L1654.13 32.9987 L1654.13 57.6282 Q1654.13 63.1779 1655.63 64.7578 Q1657.17 66.3376 1661.83 66.3376 L1669.49 66.3376 L1669.49 72.576 L1661.83 72.576 Q1653.2 72.576 1649.92 69.3758 Q1646.64 66.1351 1646.64 57.6282 L1646.64 32.9987 L1641.17 32.9987 L1641.17 27.2059 L1646.64 27.2059 L1646.64 14.324 L1654.13 14.324 Z" fill="#000000" fill-rule="nonzero" fill-opacity="1" /><path clip-path="url(#clip140)" d="M1679.29 27.2059 L1686.74 27.2059 L1686.74 72.576 L1679.29 72.576 L1679.29 27.2059 M1679.29 9.54393 L1686.74 9.54393 L1686.74 18.9825 L1679.29 18.9825 L1679.29 9.54393 Z" fill="#000000" fill-rule="nonzero" fill-opacity="1" /><path clip-path="url(#clip140)" d="M1719.92 32.4315 Q1713.92 32.4315 1710.44 37.1306 Q1706.96 41.7891 1706.96 49.9314 Q1706.96 58.0738 1710.4 62.7728 Q1713.88 67.4314 1719.92 67.4314 Q1725.87 67.4314 1729.36 62.7323 Q1732.84 58.0333 1732.84 49.9314 Q1732.84 41.8701 1729.36 37.1711 Q1725.87 32.4315 1719.92 32.4315 M1719.92 26.1121 Q1729.64 26.1121 1735.19 32.4315 Q1740.74 38.7509 1740.74 49.9314 Q1740.74 61.0714 1735.19 67.4314 Q1729.64 73.7508 1719.92 73.7508 Q1710.16 73.7508 1704.61 67.4314 Q1699.1 61.0714 1699.1 49.9314 Q1699.1 38.7509 1704.61 32.4315 Q1710.16 26.1121 1719.92 26.1121 Z" fill="#000000" fill-rule="nonzero" fill-opacity="1" /><path clip-path="url(#clip140)" d="M1790.81 45.1919 L1790.81 72.576 L1783.36 72.576 L1783.36 45.4349 Q1783.36 38.994 1780.85 35.7938 Q1778.33 32.5936 1773.31 32.5936 Q1767.27 32.5936 1763.79 36.4419 Q1760.31 40.2903 1760.31 46.9338 L1760.31 72.576 L1752.81 72.576 L1752.81 27.2059 L1760.31 27.2059 L1760.31 34.2544 Q1762.98 30.163 1766.59 28.1376 Q1770.23 26.1121 1774.97 26.1121 Q1782.79 26.1121 1786.8 30.9732 Q1790.81 35.7938 1790.81 45.1919 Z" fill="#000000" fill-rule="nonzero" fill-opacity="1" /><polyline clip-path="url(#clip142)" style="stroke:#cba6f7; stroke-linecap:round; stroke-linejoin:round; stroke-width:4; stroke-opacity:1; fill:none" points="279.916,160.256 567.411,902.827 854.906,1030.11 1142.4,1126.93 1429.9,1151.96 1717.39,1117.03 2004.89,1188.44 2292.38,1236 "/>
<polyline clip-path="url(#clip142)" style="stroke:#f38ba8; stroke-linecap:round; stroke-linejoin:round; stroke-width:4; stroke-opacity:1; fill:none" points="279.916,160.256 567.411,970.082 854.906,1168.25 1142.4,1251.68 1429.9,1141.65 1717.39,1209.63 2004.89,1283.67 2292.38,1195.87 "/>
<polyline clip-path="url(#clip142)" style="stroke:#fab387; stroke-linecap:round; stroke-linejoin:round; stroke-width:4; stroke-opacity:1; fill:none" points="279.916,160.256 567.411,956.152 854.906,1170.63 1142.4,1178.2 1429.9,1051.15 1717.39,1037.43 2004.89,1160.39 2292.38,1177.91 "/>
<polyline clip-path="url(#clip142)" style="stroke:#a6e3a1; stroke-linecap:round; stroke-linejoin:round; stroke-width:4; stroke-opacity:1; fill:none" points="279.916,160.256 567.411,1027.42 854.906,1166.74 1142.4,1116.04 1429.9,1173.18 1717.39,1141.76 2004.89,1155.42 2292.38,1178.01 "/>
<polyline clip-path="url(#clip142)" style="stroke:#f5c2e7; stroke-linecap:round; stroke-linejoin:round; stroke-width:4; stroke-opacity:1; fill:none" points="279.916,160.256 567.411,972.795 854.906,1153.14 1142.4,1118.81 1429.9,1169.37 1717.39,1099.83 2004.89,1173.98 2292.38,1285.63 "/>
<polyline clip-path="url(#clip142)" style="stroke:#94e2d5; stroke-linecap:round; stroke-linejoin:round; stroke-width:4; stroke-opacity:1; fill:none" points="279.916,160.256 567.411,1047.33 854.906,1222.94 1142.4,1093.71 1429.9,1222.87 1717.39,1214.02 2004.89,1143.03 2292.38,1063.4 "/>
<polyline clip-path="url(#clip142)" style="stroke:#89b4fa; stroke-linecap:round; stroke-linejoin:round; stroke-width:4; stroke-opacity:1; fill:none" points="279.916,160.256 567.411,1015.57 854.906,1061.96 1142.4,1060.46 1429.9,1074.78 1717.39,1116.16 2004.89,1028.35 2292.38,1171.77 "/>
<polyline clip-path="url(#clip142)" style="stroke:#cba6f7; stroke-linecap:round; stroke-linejoin:round; stroke-width:4; stroke-opacity:1; fill:none" points="279.916,160.256 567.411,919.779 854.906,1121.67 1142.4,1160.02 1429.9,1214.66 1717.39,1205.11 2004.89,1140.47 2292.38,1041.76 "/>
<polyline clip-path="url(#clip142)" style="stroke:#f38ba8; stroke-linecap:round; stroke-linejoin:round; stroke-width:4; stroke-opacity:1; fill:none" points="279.916,160.256 567.411,987.486 854.906,1191.21 1142.4,1190.44 1429.9,1090.86 1717.39,1155.18 2004.89,1130.58 2292.38,1252.44 "/>
<polyline clip-path="url(#clip142)" style="stroke:#fab387; stroke-linecap:round; stroke-linejoin:round; stroke-width:4; stroke-opacity:1; fill:none" points="279.916,160.256 567.411,982.291 854.906,1066.45 1142.4,1157.73 1429.9,1213.55 1717.39,1255.52 2004.89,1100.85 2292.38,1310.63 "/>
<polyline clip-path="url(#clip142)" style="stroke:#a6e3a1; stroke-linecap:round; stroke-linejoin:round; stroke-width:4; stroke-opacity:1; fill:none" points="279.916,160.256 567.411,1030.95 854.906,1165.51 1142.4,1151.21 1429.9,1167.76 1717.39,1119.57 2004.89,1105.98 2292.38,1082.56 "/>
<polyline clip-path="url(#clip142)" style="stroke:#f5c2e7; stroke-linecap:round; stroke-linejoin:round; stroke-width:4; stroke-opacity:1; fill:none" points="279.916,160.256 567.411,1018.52 854.906,1035.85 1142.4,1095.92 1429.9,1156.3 1717.39,943.234 2004.89,1167.42 2292.38,1031.92 "/>
<polyline clip-path="url(#clip142)" style="stroke:#94e2d5; stroke-linecap:round; stroke-linejoin:round; stroke-width:4; stroke-opacity:1; fill:none" points="279.916,160.256 567.411,951.441 854.906,1083.76 1142.4,1095.69 1429.9,1221.21 1717.39,1260.11 2004.89,1295.35 2292.38,1206.61 "/>
<polyline clip-path="url(#clip142)" style="stroke:#89b4fa; stroke-linecap:round; stroke-linejoin:round; stroke-width:4; stroke-opacity:1; fill:none" points="279.916,160.256 567.411,1031.66 854.906,1087.33 1142.4,1101.44 1429.9,1382.26 1717.39,1119.44 2004.89,1194.04 2292.38,1202.64 "/>
<polyline clip-path="url(#clip142)" style="stroke:#cba6f7; stroke-linecap:round; stroke-linejoin:round; stroke-width:4; stroke-opacity:1; fill:none" points="279.916,160.256 567.411,934.52 854.906,1127.11 1142.4,1101.32 1429.9,1257.05 1717.39,1161.68 2004.89,1343.87 2292.38,1318.59 "/>
<polyline clip-path="url(#clip142)" style="stroke:#f38ba8; stroke-linecap:round; stroke-linejoin:round; stroke-width:4; stroke-opacity:1; fill:none" points="279.916,160.256 567.411,1014.64 854.906,1066.93 1142.4,1092.26 1429.9,1198.69 1717.39,1233.47 2004.89,1114.64 2292.38,1196.2 "/>
<polyline clip-path="url(#clip142)" style="stroke:#fab387; stroke-linecap:round; stroke-linejoin:round; stroke-width:4; stroke-opacity:1; fill:none" points="279.916,160.256 567.411,963.437 854.906,1162.59 1142.4,1218.81 1429.9,1196.83 1717.39,1168.34 2004.89,1216.25 2292.38,1131.45 "/>
<polyline clip-path="url(#clip142)" style="stroke:#a6e3a1; stroke-linecap:round; stroke-linejoin:round; stroke-width:4; stroke-opacity:1; fill:none" points="279.916,160.256 567.411,955.039 854.906,1082 1142.4,1170.17 1429.9,1216.16 1717.39,1292.27 2004.89,1153.81 2292.38,1101.7 "/>
<polyline clip-path="url(#clip142)" style="stroke:#f5c2e7; stroke-linecap:round; stroke-linejoin:round; stroke-width:4; stroke-opacity:1; fill:none" points="279.916,160.256 567.411,998.486 854.906,1378.68 1142.4,1237.71 1429.9,1107.8 1717.39,1072.44 2004.89,1053.18 2292.38,1077.01 "/>
<polyline clip-path="url(#clip142)" style="stroke:#94e2d5; stroke-linecap:round; stroke-linejoin:round; stroke-width:4; stroke-opacity:1; fill:none" points="279.916,160.256 567.411,1029.93 854.906,1136.35 1142.4,1386.4 1429.9,1197.73 1717.39,1200.61 2004.89,1152.52 2292.38,1172.7 "/>
<polyline clip-path="url(#clip142)" style="stroke:#000000; stroke-linecap:round; stroke-linejoin:round; stroke-width:8; stroke-opacity:1; fill:none" points="279.916,160.256 567.411,985.517 854.906,1133.96 1142.4,1155.25 1429.9,1180.29 1717.39,1156.14 2004.89,1165.11 2292.38,1171.74 "/>
<polyline clip-path="url(#clip142)" style="stroke:#000000; stroke-linecap:round; stroke-linejoin:round; stroke-width:12; stroke-opacity:1; fill:none" points="279.916,2722.89 279.916,-1176.24 "/>
<polyline clip-path="url(#clip142)" style="stroke:#000000; stroke-linecap:round; stroke-linejoin:round; stroke-width:12; stroke-opacity:1; fill:none" points="567.411,2722.89 567.411,-1176.24 "/>
<polyline clip-path="url(#clip142)" style="stroke:#000000; stroke-linecap:round; stroke-linejoin:round; stroke-width:12; stroke-opacity:1; fill:none" points="854.906,2722.89 854.906,-1176.24 "/>
<polyline clip-path="url(#clip142)" style="stroke:#000000; stroke-linecap:round; stroke-linejoin:round; stroke-width:12; stroke-opacity:1; fill:none" points="1142.4,2722.89 1142.4,-1176.24 "/>
<polyline clip-path="url(#clip142)" style="stroke:#000000; stroke-linecap:round; stroke-linejoin:round; stroke-width:12; stroke-opacity:1; fill:none" points="1429.9,2722.89 1429.9,-1176.24 "/>
<polyline clip-path="url(#clip142)" style="stroke:#000000; stroke-linecap:round; stroke-linejoin:round; stroke-width:12; stroke-opacity:1; fill:none" points="1717.39,2722.89 1717.39,-1176.24 "/>
<polyline clip-path="url(#clip142)" style="stroke:#000000; stroke-linecap:round; stroke-linejoin:round; stroke-width:12; stroke-opacity:1; fill:none" points="2004.89,2722.89 2004.89,-1176.24 "/>
<polyline clip-path="url(#clip142)" style="stroke:#000000; stroke-linecap:round; stroke-linejoin:round; stroke-width:12; stroke-opacity:1; fill:none" points="2292.38,2722.89 2292.38,-1176.24 "/>
</svg>
