<?xml version="1.0" encoding="utf-8"?>
<svg xmlns="http://www.w3.org/2000/svg" xmlns:xlink="http://www.w3.org/1999/xlink" width="800" height="400" viewBox="0 0 3200 1600">
<defs>
  <clipPath id="clip490">
    <rect x="0" y="0" width="3200" height="1600"/>
  </clipPath>
</defs>
<path clip-path="url(#clip490)" d="M0 1600 L3200 1600 L3200 0 L0 0  Z" fill="#ffffff" fill-rule="evenodd" fill-opacity="1"/>
<defs>
  <clipPath id="clip491">
    <rect x="640" y="0" width="2241" height="1600"/>
  </clipPath>
</defs>
<path clip-path="url(#clip490)" d="M215.662 1443.7 L1537.93 1443.7 L1537.93 47.2441 L215.662 47.2441  Z" fill="#ffffff" fill-rule="evenodd" fill-opacity="1"/>
<defs>
  <clipPath id="clip492">
    <rect x="215" y="47" width="1323" height="1397"/>
  </clipPath>
</defs>
<polyline clip-path="url(#clip492)" style="stroke:#000000; stroke-linecap:round; stroke-linejoin:round; stroke-width:2; stroke-opacity:0.1; fill:none" points="251.836,1443.7 251.836,47.2441 "/>
<polyline clip-path="url(#clip492)" style="stroke:#000000; stroke-linecap:round; stroke-linejoin:round; stroke-width:2; stroke-opacity:0.1; fill:none" points="564.004,1443.7 564.004,47.2441 "/>
<polyline clip-path="url(#clip492)" style="stroke:#000000; stroke-linecap:round; stroke-linejoin:round; stroke-width:2; stroke-opacity:0.1; fill:none" points="876.172,1443.7 876.172,47.2441 "/>
<polyline clip-path="url(#clip492)" style="stroke:#000000; stroke-linecap:round; stroke-linejoin:round; stroke-width:2; stroke-opacity:0.1; fill:none" points="1188.34,1443.7 1188.34,47.2441 "/>
<polyline clip-path="url(#clip492)" style="stroke:#000000; stroke-linecap:round; stroke-linejoin:round; stroke-width:2; stroke-opacity:0.1; fill:none" points="1500.51,1443.7 1500.51,47.2441 "/>
<polyline clip-path="url(#clip492)" style="stroke:#000000; stroke-linecap:round; stroke-linejoin:round; stroke-width:2; stroke-opacity:0.1; fill:none" points="215.662,1404.18 1537.93,1404.18 "/>
<polyline clip-path="url(#clip492)" style="stroke:#000000; stroke-linecap:round; stroke-linejoin:round; stroke-width:2; stroke-opacity:0.1; fill:none" points="215.662,1112.71 1537.93,1112.71 "/>
<polyline clip-path="url(#clip492)" style="stroke:#000000; stroke-linecap:round; stroke-linejoin:round; stroke-width:2; stroke-opacity:0.1; fill:none" points="215.662,821.252 1537.93,821.252 "/>
<polyline clip-path="url(#clip492)" style="stroke:#000000; stroke-linecap:round; stroke-linejoin:round; stroke-width:2; stroke-opacity:0.1; fill:none" points="215.662,529.79 1537.93,529.79 "/>
<polyline clip-path="url(#clip492)" style="stroke:#000000; stroke-linecap:round; stroke-linejoin:round; stroke-width:2; stroke-opacity:0.1; fill:none" points="215.662,238.327 1537.93,238.327 "/>
<polyline clip-path="url(#clip490)" style="stroke:#000000; stroke-linecap:round; stroke-linejoin:round; stroke-width:4; stroke-opacity:1; fill:none" points="215.662,1443.7 1537.93,1443.7 "/>
<polyline clip-path="url(#clip490)" style="stroke:#000000; stroke-linecap:round; stroke-linejoin:round; stroke-width:4; stroke-opacity:1; fill:none" points="251.836,1443.7 251.836,1424.8 "/>
<polyline clip-path="url(#clip490)" style="stroke:#000000; stroke-linecap:round; stroke-linejoin:round; stroke-width:4; stroke-opacity:1; fill:none" points="564.004,1443.7 564.004,1424.8 "/>
<polyline clip-path="url(#clip490)" style="stroke:#000000; stroke-linecap:round; stroke-linejoin:round; stroke-width:4; stroke-opacity:1; fill:none" points="876.172,1443.7 876.172,1424.8 "/>
<polyline clip-path="url(#clip490)" style="stroke:#000000; stroke-linecap:round; stroke-linejoin:round; stroke-width:4; stroke-opacity:1; fill:none" points="1188.34,1443.7 1188.34,1424.8 "/>
<polyline clip-path="url(#clip490)" style="stroke:#000000; stroke-linecap:round; stroke-linejoin:round; stroke-width:4; stroke-opacity:1; fill:none" points="1500.51,1443.7 1500.51,1424.8 "/>
<path clip-path="url(#clip490)" d="M251.836 1481.02 Q248.225 1481.02 246.396 1484.58 Q244.591 1488.12 244.591 1495.25 Q244.591 1502.36 246.396 1505.93 Q248.225 1509.47 251.836 1509.47 Q255.47 1509.47 257.276 1505.93 Q259.105 1502.36 259.105 1495.25 Q259.105 1488.12 257.276 1484.58 Q255.47 1481.02 251.836 1481.02 M251.836 1477.31 Q257.646 1477.31 260.702 1481.92 Q263.781 1486.5 263.781 1495.25 Q263.781 1503.98 260.702 1508.59 Q257.646 1513.17 251.836 1513.17 Q246.026 1513.17 242.947 1508.59 Q239.892 1503.98 239.892 1495.25 Q239.892 1486.5 242.947 1481.92 Q246.026 1477.31 251.836 1477.31 Z" fill="#000000" fill-rule="nonzero" fill-opacity="1" /><path clip-path="url(#clip490)" d="M527.696 1508.56 L544.016 1508.56 L544.016 1512.5 L522.071 1512.5 L522.071 1508.56 Q524.733 1505.81 529.317 1501.18 Q533.923 1496.53 535.104 1495.19 Q537.349 1492.66 538.229 1490.93 Q539.131 1489.17 539.131 1487.48 Q539.131 1484.72 537.187 1482.99 Q535.266 1481.25 532.164 1481.25 Q529.965 1481.25 527.511 1482.01 Q525.08 1482.78 522.303 1484.33 L522.303 1479.61 Q525.127 1478.47 527.58 1477.89 Q530.034 1477.31 532.071 1477.31 Q537.442 1477.31 540.636 1480 Q543.83 1482.69 543.83 1487.18 Q543.83 1489.31 543.02 1491.23 Q542.233 1493.12 540.127 1495.72 Q539.548 1496.39 536.446 1499.61 Q533.344 1502.8 527.696 1508.56 Z" fill="#000000" fill-rule="nonzero" fill-opacity="1" /><path clip-path="url(#clip490)" d="M553.877 1477.94 L572.233 1477.94 L572.233 1481.88 L558.159 1481.88 L558.159 1490.35 Q559.178 1490 560.196 1489.84 Q561.215 1489.65 562.233 1489.65 Q568.02 1489.65 571.4 1492.82 Q574.779 1496 574.779 1501.41 Q574.779 1506.99 571.307 1510.09 Q567.835 1513.17 561.515 1513.17 Q559.34 1513.17 557.071 1512.8 Q554.826 1512.43 552.418 1511.69 L552.418 1506.99 Q554.502 1508.12 556.724 1508.68 Q558.946 1509.24 561.423 1509.24 Q565.427 1509.24 567.765 1507.13 Q570.103 1505.02 570.103 1501.41 Q570.103 1497.8 567.765 1495.69 Q565.427 1493.59 561.423 1493.59 Q559.548 1493.59 557.673 1494 Q555.821 1494.42 553.877 1495.3 L553.877 1477.94 Z" fill="#000000" fill-rule="nonzero" fill-opacity="1" /><path clip-path="url(#clip490)" d="M593.992 1481.02 Q590.381 1481.02 588.552 1484.58 Q586.747 1488.12 586.747 1495.25 Q586.747 1502.36 588.552 1505.93 Q590.381 1509.47 593.992 1509.47 Q597.626 1509.47 599.432 1505.93 Q601.261 1502.36 601.261 1495.25 Q601.261 1488.12 599.432 1484.58 Q597.626 1481.02 593.992 1481.02 M593.992 1477.31 Q599.802 1477.31 602.858 1481.92 Q605.937 1486.5 605.937 1495.25 Q605.937 1503.98 602.858 1508.59 Q599.802 1513.17 593.992 1513.17 Q588.182 1513.17 585.103 1508.59 Q582.048 1503.98 582.048 1495.25 Q582.048 1486.5 585.103 1481.92 Q588.182 1477.31 593.992 1477.31 Z" fill="#000000" fill-rule="nonzero" fill-opacity="1" /><path clip-path="url(#clip490)" d="M835.79 1477.94 L854.146 1477.94 L854.146 1481.88 L840.072 1481.88 L840.072 1490.35 Q841.091 1490 842.109 1489.84 Q843.128 1489.65 844.146 1489.65 Q849.933 1489.65 853.313 1492.82 Q856.692 1496 856.692 1501.41 Q856.692 1506.99 853.22 1510.09 Q849.748 1513.17 843.429 1513.17 Q841.253 1513.17 838.984 1512.8 Q836.739 1512.43 834.332 1511.69 L834.332 1506.99 Q836.415 1508.12 838.637 1508.68 Q840.859 1509.24 843.336 1509.24 Q847.341 1509.24 849.679 1507.13 Q852.017 1505.02 852.017 1501.41 Q852.017 1497.8 849.679 1495.69 Q847.341 1493.59 843.336 1493.59 Q841.461 1493.59 839.586 1494 Q837.734 1494.42 835.79 1495.3 L835.79 1477.94 Z" fill="#000000" fill-rule="nonzero" fill-opacity="1" /><path clip-path="url(#clip490)" d="M875.905 1481.02 Q872.294 1481.02 870.466 1484.58 Q868.66 1488.12 868.66 1495.25 Q868.66 1502.36 870.466 1505.93 Q872.294 1509.47 875.905 1509.47 Q879.54 1509.47 881.345 1505.93 Q883.174 1502.36 883.174 1495.25 Q883.174 1488.12 881.345 1484.58 Q879.54 1481.02 875.905 1481.02 M875.905 1477.31 Q881.716 1477.31 884.771 1481.92 Q887.85 1486.5 887.85 1495.25 Q887.85 1503.98 884.771 1508.59 Q881.716 1513.17 875.905 1513.17 Q870.095 1513.17 867.017 1508.59 Q863.961 1503.98 863.961 1495.25 Q863.961 1486.5 867.017 1481.92 Q870.095 1477.31 875.905 1477.31 Z" fill="#000000" fill-rule="nonzero" fill-opacity="1" /><path clip-path="url(#clip490)" d="M906.067 1481.02 Q902.456 1481.02 900.627 1484.58 Q898.822 1488.12 898.822 1495.25 Q898.822 1502.36 900.627 1505.93 Q902.456 1509.47 906.067 1509.47 Q909.701 1509.47 911.507 1505.93 Q913.336 1502.36 913.336 1495.25 Q913.336 1488.12 911.507 1484.58 Q909.701 1481.02 906.067 1481.02 M906.067 1477.31 Q911.877 1477.31 914.933 1481.92 Q918.012 1486.5 918.012 1495.25 Q918.012 1503.98 914.933 1508.59 Q911.877 1513.17 906.067 1513.17 Q900.257 1513.17 897.178 1508.59 Q894.123 1503.98 894.123 1495.25 Q894.123 1486.5 897.178 1481.92 Q900.257 1477.31 906.067 1477.31 Z" fill="#000000" fill-rule="nonzero" fill-opacity="1" /><path clip-path="url(#clip490)" d="M1146.61 1477.94 L1168.84 1477.94 L1168.84 1479.93 L1156.29 1512.5 L1151.41 1512.5 L1163.21 1481.88 L1146.61 1481.88 L1146.61 1477.94 Z" fill="#000000" fill-rule="nonzero" fill-opacity="1" /><path clip-path="url(#clip490)" d="M1178 1477.94 L1196.36 1477.94 L1196.36 1481.88 L1182.29 1481.88 L1182.29 1490.35 Q1183.3 1490 1184.32 1489.84 Q1185.34 1489.65 1186.36 1489.65 Q1192.15 1489.65 1195.53 1492.82 Q1198.91 1496 1198.91 1501.41 Q1198.91 1506.99 1195.43 1510.09 Q1191.96 1513.17 1185.64 1513.17 Q1183.47 1513.17 1181.2 1512.8 Q1178.95 1512.43 1176.55 1511.69 L1176.55 1506.99 Q1178.63 1508.12 1180.85 1508.68 Q1183.07 1509.24 1185.55 1509.24 Q1189.55 1509.24 1191.89 1507.13 Q1194.23 1505.02 1194.23 1501.41 Q1194.23 1497.8 1191.89 1495.69 Q1189.55 1493.59 1185.55 1493.59 Q1183.67 1493.59 1181.8 1494 Q1179.95 1494.42 1178 1495.3 L1178 1477.94 Z" fill="#000000" fill-rule="nonzero" fill-opacity="1" /><path clip-path="url(#clip490)" d="M1218.12 1481.02 Q1214.51 1481.02 1212.68 1484.58 Q1210.87 1488.12 1210.87 1495.25 Q1210.87 1502.36 1212.68 1505.93 Q1214.51 1509.47 1218.12 1509.47 Q1221.75 1509.47 1223.56 1505.93 Q1225.39 1502.36 1225.39 1495.25 Q1225.39 1488.12 1223.56 1484.58 Q1221.75 1481.02 1218.12 1481.02 M1218.12 1477.31 Q1223.93 1477.31 1226.98 1481.92 Q1230.06 1486.5 1230.06 1495.25 Q1230.06 1503.98 1226.98 1508.59 Q1223.93 1513.17 1218.12 1513.17 Q1212.31 1513.17 1209.23 1508.59 Q1206.17 1503.98 1206.17 1495.25 Q1206.17 1486.5 1209.23 1481.92 Q1212.31 1477.31 1218.12 1477.31 Z" fill="#000000" fill-rule="nonzero" fill-opacity="1" /><path clip-path="url(#clip490)" d="M1445.03 1508.56 L1452.67 1508.56 L1452.67 1482.2 L1444.36 1483.87 L1444.36 1479.61 L1452.63 1477.94 L1457.3 1477.94 L1457.3 1508.56 L1464.94 1508.56 L1464.94 1512.5 L1445.03 1512.5 L1445.03 1508.56 Z" fill="#000000" fill-rule="nonzero" fill-opacity="1" /><path clip-path="url(#clip490)" d="M1484.38 1481.02 Q1480.77 1481.02 1478.94 1484.58 Q1477.14 1488.12 1477.14 1495.25 Q1477.14 1502.36 1478.94 1505.93 Q1480.77 1509.47 1484.38 1509.47 Q1488.02 1509.47 1489.82 1505.93 Q1491.65 1502.36 1491.65 1495.25 Q1491.65 1488.12 1489.82 1484.58 Q1488.02 1481.02 1484.38 1481.02 M1484.38 1477.31 Q1490.19 1477.31 1493.25 1481.92 Q1496.33 1486.5 1496.33 1495.25 Q1496.33 1503.98 1493.25 1508.59 Q1490.19 1513.17 1484.38 1513.17 Q1478.57 1513.17 1475.5 1508.59 Q1472.44 1503.98 1472.44 1495.25 Q1472.44 1486.5 1475.5 1481.92 Q1478.57 1477.31 1484.38 1477.31 Z" fill="#000000" fill-rule="nonzero" fill-opacity="1" /><path clip-path="url(#clip490)" d="M1514.55 1481.02 Q1510.94 1481.02 1509.11 1484.58 Q1507.3 1488.12 1507.3 1495.25 Q1507.3 1502.36 1509.11 1505.93 Q1510.94 1509.47 1514.55 1509.47 Q1518.18 1509.47 1519.99 1505.93 Q1521.81 1502.36 1521.81 1495.25 Q1521.81 1488.12 1519.99 1484.58 Q1518.18 1481.02 1514.55 1481.02 M1514.55 1477.31 Q1520.36 1477.31 1523.41 1481.92 Q1526.49 1486.5 1526.49 1495.25 Q1526.49 1503.98 1523.41 1508.59 Q1520.36 1513.17 1514.55 1513.17 Q1508.74 1513.17 1505.66 1508.59 Q1502.6 1503.98 1502.6 1495.25 Q1502.6 1486.5 1505.66 1481.92 Q1508.74 1477.31 1514.55 1477.31 Z" fill="#000000" fill-rule="nonzero" fill-opacity="1" /><path clip-path="url(#clip490)" d="M1544.71 1481.02 Q1541.1 1481.02 1539.27 1484.58 Q1537.46 1488.12 1537.46 1495.25 Q1537.46 1502.36 1539.27 1505.93 Q1541.1 1509.47 1544.71 1509.47 Q1548.34 1509.47 1550.15 1505.93 Q1551.98 1502.36 1551.98 1495.25 Q1551.98 1488.12 1550.15 1484.58 Q1548.34 1481.02 1544.71 1481.02 M1544.71 1477.31 Q1550.52 1477.31 1553.57 1481.92 Q1556.65 1486.5 1556.65 1495.25 Q1556.65 1503.98 1553.57 1508.59 Q1550.52 1513.17 1544.71 1513.17 Q1538.9 1513.17 1535.82 1508.59 Q1532.76 1503.98 1532.76 1495.25 Q1532.76 1486.5 1535.82 1481.92 Q1538.9 1477.31 1544.71 1477.31 Z" fill="#000000" fill-rule="nonzero" fill-opacity="1" /><path clip-path="url(#clip490)" d="M726.358 1553.04 L732.788 1553.04 L732.788 1600.56 L726.358 1600.56 L726.358 1553.04 Z" fill="#000000" fill-rule="nonzero" fill-opacity="1" /><path clip-path="url(#clip490)" d="M751.121 1554.79 L751.121 1564.92 L763.184 1564.92 L763.184 1569.47 L751.121 1569.47 L751.121 1588.82 Q751.121 1593.18 752.299 1594.42 Q753.508 1595.66 757.168 1595.66 L763.184 1595.66 L763.184 1600.56 L757.168 1600.56 Q750.389 1600.56 747.811 1598.05 Q745.233 1595.5 745.233 1588.82 L745.233 1569.47 L740.936 1569.47 L740.936 1564.92 L745.233 1564.92 L745.233 1554.79 L751.121 1554.79 Z" fill="#000000" fill-rule="nonzero" fill-opacity="1" /><path clip-path="url(#clip490)" d="M801.378 1581.28 L801.378 1584.14 L774.451 1584.14 Q774.833 1590.19 778.08 1593.37 Q781.358 1596.52 787.183 1596.52 Q790.556 1596.52 793.708 1595.69 Q796.89 1594.87 800.01 1593.21 L800.01 1598.75 Q796.859 1600.09 793.548 1600.79 Q790.238 1601.49 786.833 1601.49 Q778.302 1601.49 773.305 1596.52 Q768.34 1591.56 768.34 1583.09 Q768.34 1574.34 773.051 1569.21 Q777.793 1564.06 785.814 1564.06 Q793.007 1564.06 797.177 1568.7 Q801.378 1573.32 801.378 1581.28 M795.522 1579.56 Q795.458 1574.75 792.816 1571.89 Q790.206 1569.02 785.878 1569.02 Q780.976 1569.02 778.016 1571.79 Q775.088 1574.56 774.642 1579.59 L795.522 1579.56 Z" fill="#000000" fill-rule="nonzero" fill-opacity="1" /><path clip-path="url(#clip490)" d="M831.647 1570.39 Q830.66 1569.82 829.483 1569.56 Q828.337 1569.28 826.936 1569.28 Q821.971 1569.28 819.298 1572.52 Q816.656 1575.74 816.656 1581.79 L816.656 1600.56 L810.768 1600.56 L810.768 1564.92 L816.656 1564.92 L816.656 1570.45 Q818.502 1567.21 821.462 1565.65 Q824.422 1564.06 828.655 1564.06 Q829.26 1564.06 829.992 1564.15 Q830.724 1564.22 831.615 1564.37 L831.647 1570.39 Z" fill="#000000" fill-rule="nonzero" fill-opacity="1" /><path clip-path="url(#clip490)" d="M853.991 1582.64 Q846.893 1582.64 844.156 1584.27 Q841.418 1585.89 841.418 1589.81 Q841.418 1592.92 843.456 1594.77 Q845.524 1596.59 849.057 1596.59 Q853.927 1596.59 856.855 1593.15 Q859.815 1589.68 859.815 1583.95 L859.815 1582.64 L853.991 1582.64 M865.672 1580.23 L865.672 1600.56 L859.815 1600.56 L859.815 1595.15 Q857.81 1598.4 854.818 1599.96 Q851.826 1601.49 847.498 1601.49 Q842.023 1601.49 838.777 1598.43 Q835.562 1595.34 835.562 1590.19 Q835.562 1584.17 839.572 1581.12 Q843.615 1578.06 851.604 1578.06 L859.815 1578.06 L859.815 1577.49 Q859.815 1573.45 857.142 1571.25 Q854.5 1569.02 849.694 1569.02 Q846.638 1569.02 843.742 1569.75 Q840.846 1570.49 838.172 1571.95 L838.172 1566.54 Q841.387 1565.3 844.41 1564.69 Q847.434 1564.06 850.299 1564.06 Q858.033 1564.06 861.852 1568.07 Q865.672 1572.08 865.672 1580.23 Z" fill="#000000" fill-rule="nonzero" fill-opacity="1" /><path clip-path="url(#clip490)" d="M883.528 1554.79 L883.528 1564.92 L895.591 1564.92 L895.591 1569.47 L883.528 1569.47 L883.528 1588.82 Q883.528 1593.18 884.705 1594.42 Q885.915 1595.66 889.575 1595.66 L895.591 1595.66 L895.591 1600.56 L889.575 1600.56 Q882.796 1600.56 880.217 1598.05 Q877.639 1595.5 877.639 1588.82 L877.639 1569.47 L873.342 1569.47 L873.342 1564.92 L877.639 1564.92 L877.639 1554.79 L883.528 1554.79 Z" fill="#000000" fill-rule="nonzero" fill-opacity="1" /><path clip-path="url(#clip490)" d="M903.293 1564.92 L909.15 1564.92 L909.15 1600.56 L903.293 1600.56 L903.293 1564.92 M903.293 1551.04 L909.15 1551.04 L909.15 1558.45 L903.293 1558.45 L903.293 1551.04 Z" fill="#000000" fill-rule="nonzero" fill-opacity="1" /><path clip-path="url(#clip490)" d="M935.217 1569.02 Q930.507 1569.02 927.769 1572.71 Q925.032 1576.37 925.032 1582.77 Q925.032 1589.17 927.737 1592.86 Q930.475 1596.52 935.217 1596.52 Q939.896 1596.52 942.633 1592.83 Q945.37 1589.14 945.37 1582.77 Q945.37 1576.44 942.633 1572.75 Q939.896 1569.02 935.217 1569.02 M935.217 1564.06 Q942.856 1564.06 947.217 1569.02 Q951.577 1573.99 951.577 1582.77 Q951.577 1591.52 947.217 1596.52 Q942.856 1601.49 935.217 1601.49 Q927.546 1601.49 923.186 1596.52 Q918.857 1591.52 918.857 1582.77 Q918.857 1573.99 923.186 1569.02 Q927.546 1564.06 935.217 1564.06 Z" fill="#000000" fill-rule="nonzero" fill-opacity="1" /><path clip-path="url(#clip490)" d="M990.917 1579.05 L990.917 1600.56 L985.061 1600.56 L985.061 1579.24 Q985.061 1574.18 983.087 1571.66 Q981.114 1569.15 977.167 1569.15 Q972.425 1569.15 969.687 1572.17 Q966.95 1575.2 966.95 1580.42 L966.95 1600.56 L961.062 1600.56 L961.062 1564.92 L966.95 1564.92 L966.95 1570.45 Q969.051 1567.24 971.884 1565.65 Q974.748 1564.06 978.472 1564.06 Q984.615 1564.06 987.766 1567.88 Q990.917 1571.66 990.917 1579.05 Z" fill="#000000" fill-rule="nonzero" fill-opacity="1" /><path clip-path="url(#clip490)" d="M1025.32 1565.97 L1025.32 1571.5 Q1022.84 1570.23 1020.17 1569.59 Q1017.49 1568.96 1014.63 1568.96 Q1010.27 1568.96 1008.07 1570.29 Q1005.91 1571.63 1005.91 1574.31 Q1005.91 1576.34 1007.47 1577.52 Q1009.03 1578.67 1013.74 1579.72 L1015.74 1580.16 Q1021.98 1581.5 1024.59 1583.95 Q1027.23 1586.37 1027.23 1590.73 Q1027.23 1595.69 1023.29 1598.59 Q1019.37 1601.49 1012.5 1601.49 Q1009.63 1601.49 1006.51 1600.91 Q1003.43 1600.37 999.988 1599.26 L999.988 1593.21 Q1003.23 1594.9 1006.39 1595.76 Q1009.54 1596.59 1012.62 1596.59 Q1016.76 1596.59 1018.99 1595.18 Q1021.22 1593.75 1021.22 1591.17 Q1021.22 1588.79 1019.59 1587.51 Q1018 1586.24 1012.56 1585.06 L1010.52 1584.59 Q1005.08 1583.44 1002.66 1581.08 Q1000.24 1578.7 1000.24 1574.56 Q1000.24 1569.53 1003.81 1566.79 Q1007.37 1564.06 1013.93 1564.06 Q1017.18 1564.06 1020.04 1564.53 Q1022.9 1565.01 1025.32 1565.97 Z" fill="#000000" fill-rule="nonzero" fill-opacity="1" /><polyline clip-path="url(#clip490)" style="stroke:#000000; stroke-linecap:round; stroke-linejoin:round; stroke-width:4; stroke-opacity:1; fill:none" points="215.662,1443.7 215.662,47.2441 "/>
<polyline clip-path="url(#clip490)" style="stroke:#000000; stroke-linecap:round; stroke-linejoin:round; stroke-width:4; stroke-opacity:1; fill:none" points="215.662,1404.18 234.56,1404.18 "/>
<polyline clip-path="url(#clip490)" style="stroke:#000000; stroke-linecap:round; stroke-linejoin:round; stroke-width:4; stroke-opacity:1; fill:none" points="215.662,1112.71 234.56,1112.71 "/>
<polyline clip-path="url(#clip490)" style="stroke:#000000; stroke-linecap:round; stroke-linejoin:round; stroke-width:4; stroke-opacity:1; fill:none" points="215.662,821.252 234.56,821.252 "/>
<polyline clip-path="url(#clip490)" style="stroke:#000000; stroke-linecap:round; stroke-linejoin:round; stroke-width:4; stroke-opacity:1; fill:none" points="215.662,529.79 234.56,529.79 "/>
<polyline clip-path="url(#clip490)" style="stroke:#000000; stroke-linecap:round; stroke-linejoin:round; stroke-width:4; stroke-opacity:1; fill:none" points="215.662,238.327 234.56,238.327 "/>
<path clip-path="url(#clip490)" d="M110.325 1389.98 Q106.713 1389.98 104.885 1393.54 Q103.079 1397.08 103.079 1404.21 Q103.079 1411.32 104.885 1414.88 Q106.713 1418.43 110.325 1418.43 Q113.959 1418.43 115.764 1414.88 Q117.593 1411.32 117.593 1404.21 Q117.593 1397.08 115.764 1393.54 Q113.959 1389.98 110.325 1389.98 M110.325 1386.27 Q116.135 1386.27 119.19 1390.88 Q122.269 1395.46 122.269 1404.21 Q122.269 1412.94 119.19 1417.55 Q116.135 1422.13 110.325 1422.13 Q104.514 1422.13 101.436 1417.55 Q98.3802 1412.94 98.3802 1404.21 Q98.3802 1395.46 101.436 1390.88 Q104.514 1386.27 110.325 1386.27 Z" fill="#000000" fill-rule="nonzero" fill-opacity="1" /><path clip-path="url(#clip490)" d="M130.486 1415.58 L135.371 1415.58 L135.371 1421.46 L130.486 1421.46 L130.486 1415.58 Z" fill="#000000" fill-rule="nonzero" fill-opacity="1" /><path clip-path="url(#clip490)" d="M156.134 1402.31 Q152.986 1402.31 151.135 1404.47 Q149.306 1406.62 149.306 1410.37 Q149.306 1414.1 151.135 1416.27 Q152.986 1418.43 156.134 1418.43 Q159.283 1418.43 161.111 1416.27 Q162.963 1414.1 162.963 1410.37 Q162.963 1406.62 161.111 1404.47 Q159.283 1402.31 156.134 1402.31 M165.417 1387.66 L165.417 1391.92 Q163.658 1391.09 161.852 1390.65 Q160.07 1390.21 158.31 1390.21 Q153.681 1390.21 151.227 1393.33 Q148.797 1396.46 148.449 1402.78 Q149.815 1400.76 151.875 1399.7 Q153.935 1398.61 156.412 1398.61 Q161.621 1398.61 164.63 1401.78 Q167.662 1404.93 167.662 1410.37 Q167.662 1415.69 164.514 1418.91 Q161.366 1422.13 156.134 1422.13 Q150.139 1422.13 146.968 1417.55 Q143.797 1412.94 143.797 1404.21 Q143.797 1396.02 147.685 1391.16 Q151.574 1386.27 158.125 1386.27 Q159.884 1386.27 161.667 1386.62 Q163.472 1386.97 165.417 1387.66 Z" fill="#000000" fill-rule="nonzero" fill-opacity="1" /><path clip-path="url(#clip490)" d="M111.389 1098.51 Q107.778 1098.51 105.95 1102.08 Q104.144 1105.62 104.144 1112.75 Q104.144 1119.86 105.95 1123.42 Q107.778 1126.96 111.389 1126.96 Q115.024 1126.96 116.829 1123.42 Q118.658 1119.86 118.658 1112.75 Q118.658 1105.62 116.829 1102.08 Q115.024 1098.51 111.389 1098.51 M111.389 1094.81 Q117.2 1094.81 120.255 1099.42 Q123.334 1104 123.334 1112.75 Q123.334 1121.48 120.255 1126.08 Q117.2 1130.67 111.389 1130.67 Q105.579 1130.67 102.501 1126.08 Q99.445 1121.48 99.445 1112.75 Q99.445 1104 102.501 1099.42 Q105.579 1094.81 111.389 1094.81 Z" fill="#000000" fill-rule="nonzero" fill-opacity="1" /><path clip-path="url(#clip490)" d="M131.551 1124.12 L136.436 1124.12 L136.436 1129.99 L131.551 1129.99 L131.551 1124.12 Z" fill="#000000" fill-rule="nonzero" fill-opacity="1" /><path clip-path="url(#clip490)" d="M145.44 1095.43 L167.662 1095.43 L167.662 1097.43 L155.116 1129.99 L150.232 1129.99 L162.037 1099.37 L145.44 1099.37 L145.44 1095.43 Z" fill="#000000" fill-rule="nonzero" fill-opacity="1" /><path clip-path="url(#clip490)" d="M110.579 807.051 Q106.968 807.051 105.139 810.616 Q103.334 814.157 103.334 821.287 Q103.334 828.393 105.139 831.958 Q106.968 835.5 110.579 835.5 Q114.213 835.5 116.019 831.958 Q117.848 828.393 117.848 821.287 Q117.848 814.157 116.019 810.616 Q114.213 807.051 110.579 807.051 M110.579 803.347 Q116.389 803.347 119.445 807.954 Q122.524 812.537 122.524 821.287 Q122.524 830.014 119.445 834.62 Q116.389 839.204 110.579 839.204 Q104.769 839.204 101.69 834.62 Q98.6348 830.014 98.6348 821.287 Q98.6348 812.537 101.69 807.954 Q104.769 803.347 110.579 803.347 Z" fill="#000000" fill-rule="nonzero" fill-opacity="1" /><path clip-path="url(#clip490)" d="M130.741 832.653 L135.625 832.653 L135.625 838.532 L130.741 838.532 L130.741 832.653 Z" fill="#000000" fill-rule="nonzero" fill-opacity="1" /><path clip-path="url(#clip490)" d="M155.81 822.12 Q152.477 822.12 150.556 823.903 Q148.658 825.685 148.658 828.81 Q148.658 831.935 150.556 833.717 Q152.477 835.5 155.81 835.5 Q159.144 835.5 161.065 833.717 Q162.986 831.912 162.986 828.81 Q162.986 825.685 161.065 823.903 Q159.167 822.12 155.81 822.12 M151.135 820.13 Q148.125 819.389 146.435 817.329 Q144.769 815.268 144.769 812.306 Q144.769 808.162 147.709 805.755 Q150.672 803.347 155.81 803.347 Q160.972 803.347 163.912 805.755 Q166.852 808.162 166.852 812.306 Q166.852 815.268 165.162 817.329 Q163.496 819.389 160.509 820.13 Q163.889 820.917 165.764 823.208 Q167.662 825.5 167.662 828.81 Q167.662 833.833 164.584 836.518 Q161.528 839.204 155.81 839.204 Q150.093 839.204 147.014 836.518 Q143.959 833.833 143.959 828.81 Q143.959 825.5 145.857 823.208 Q147.755 820.917 151.135 820.13 M149.422 812.745 Q149.422 815.431 151.088 816.935 Q152.778 818.44 155.81 818.44 Q158.82 818.44 160.509 816.935 Q162.222 815.431 162.222 812.745 Q162.222 810.06 160.509 808.556 Q158.82 807.051 155.81 807.051 Q152.778 807.051 151.088 808.556 Q149.422 810.06 149.422 812.745 Z" fill="#000000" fill-rule="nonzero" fill-opacity="1" /><path clip-path="url(#clip490)" d="M110.672 515.588 Q107.061 515.588 105.232 519.153 Q103.426 522.695 103.426 529.824 Q103.426 536.931 105.232 540.496 Q107.061 544.037 110.672 544.037 Q114.306 544.037 116.112 540.496 Q117.94 536.931 117.94 529.824 Q117.94 522.695 116.112 519.153 Q114.306 515.588 110.672 515.588 M110.672 511.885 Q116.482 511.885 119.537 516.491 Q122.616 521.074 122.616 529.824 Q122.616 538.551 119.537 543.158 Q116.482 547.741 110.672 547.741 Q104.862 547.741 101.783 543.158 Q98.7274 538.551 98.7274 529.824 Q98.7274 521.074 101.783 516.491 Q104.862 511.885 110.672 511.885 Z" fill="#000000" fill-rule="nonzero" fill-opacity="1" /><path clip-path="url(#clip490)" d="M130.834 541.19 L135.718 541.19 L135.718 547.07 L130.834 547.07 L130.834 541.19 Z" fill="#000000" fill-rule="nonzero" fill-opacity="1" /><path clip-path="url(#clip490)" d="M146.042 546.352 L146.042 542.093 Q147.801 542.926 149.607 543.366 Q151.412 543.806 153.148 543.806 Q157.778 543.806 160.209 540.704 Q162.662 537.579 163.009 531.236 Q161.667 533.227 159.607 534.292 Q157.547 535.357 155.047 535.357 Q149.861 535.357 146.829 532.232 Q143.82 529.084 143.82 523.644 Q143.82 518.32 146.968 515.102 Q150.116 511.885 155.347 511.885 Q161.343 511.885 164.491 516.491 Q167.662 521.074 167.662 529.824 Q167.662 537.996 163.773 542.88 Q159.908 547.741 153.357 547.741 Q151.597 547.741 149.792 547.394 Q147.986 547.046 146.042 546.352 M155.347 531.699 Q158.496 531.699 160.324 529.547 Q162.176 527.394 162.176 523.644 Q162.176 519.917 160.324 517.764 Q158.496 515.588 155.347 515.588 Q152.199 515.588 150.347 517.764 Q148.519 519.917 148.519 523.644 Q148.519 527.394 150.347 529.547 Q152.199 531.699 155.347 531.699 Z" fill="#000000" fill-rule="nonzero" fill-opacity="1" /><path clip-path="url(#clip490)" d="M101.297 251.672 L108.936 251.672 L108.936 225.306 L100.626 226.973 L100.626 222.714 L108.889 221.047 L113.565 221.047 L113.565 251.672 L121.204 251.672 L121.204 255.607 L101.297 255.607 L101.297 251.672 Z" fill="#000000" fill-rule="nonzero" fill-opacity="1" /><path clip-path="url(#clip490)" d="M130.649 249.727 L135.533 249.727 L135.533 255.607 L130.649 255.607 L130.649 249.727 Z" fill="#000000" fill-rule="nonzero" fill-opacity="1" /><path clip-path="url(#clip490)" d="M155.718 224.126 Q152.107 224.126 150.278 227.69 Q148.472 231.232 148.472 238.362 Q148.472 245.468 150.278 249.033 Q152.107 252.575 155.718 252.575 Q159.352 252.575 161.158 249.033 Q162.986 245.468 162.986 238.362 Q162.986 231.232 161.158 227.69 Q159.352 224.126 155.718 224.126 M155.718 220.422 Q161.528 220.422 164.584 225.028 Q167.662 229.612 167.662 238.362 Q167.662 247.089 164.584 251.695 Q161.528 256.278 155.718 256.278 Q149.908 256.278 146.829 251.695 Q143.773 247.089 143.773 238.362 Q143.773 229.612 146.829 225.028 Q149.908 220.422 155.718 220.422 Z" fill="#000000" fill-rule="nonzero" fill-opacity="1" /><path clip-path="url(#clip490)" d="M-5.06196 799.087 L18.5866 807.808 L18.5866 790.334 L-5.06196 799.087 M-11.3958 802.716 L-11.3958 795.427 L36.1242 777.316 L36.1242 784 L23.9338 788.329 L23.9338 809.75 L36.1242 814.078 L36.1242 820.858 L-11.3958 802.716 Z" fill="#000000" fill-rule="nonzero" fill-opacity="1" /><path clip-path="url(#clip490)" d="M-7.73556 735.939 L-0.956084 735.939 Q-3.97979 739.186 -5.47574 742.878 Q-6.97168 746.538 -6.97168 750.676 Q-6.97168 758.824 -1.9746 763.153 Q2.99065 767.481 12.4119 767.481 Q21.8013 767.481 26.7984 763.153 Q31.7636 758.824 31.7636 750.676 Q31.7636 746.538 30.2677 742.878 Q28.7718 739.186 25.7481 735.939 L32.4639 735.939 Q34.7555 739.313 35.9014 743.101 Q37.0472 746.857 37.0472 751.058 Q37.0472 761.848 30.4587 768.054 Q23.8383 774.261 12.4119 774.261 Q0.953628 774.261 -5.63488 768.054 Q-12.2552 761.848 -12.2552 751.058 Q-12.2552 746.793 -11.1094 743.037 Q-9.99539 739.249 -7.73556 735.939 Z" fill="#000000" fill-rule="nonzero" fill-opacity="1" /><path clip-path="url(#clip490)" d="M-11.3958 730.242 L-11.3958 723.749 L28.7718 713.755 L-11.3958 703.793 L-11.3958 696.567 L28.7718 686.573 L-11.3958 676.611 L-11.3958 670.086 L36.1242 682.022 L36.1242 690.106 L-5.12562 700.132 L36.1242 710.254 L36.1242 718.338 L-11.3958 730.242 Z" fill="#000000" fill-rule="nonzero" fill-opacity="1" /><polyline clip-path="url(#clip492)" style="stroke:#009af9; stroke-linecap:round; stroke-linejoin:round; stroke-width:4; stroke-opacity:1; fill:none" points="253.085,86.7664 254.334,1060.25 255.582,1098.14 256.831,1086.48 258.08,1404.18 259.328,1325.48 260.577,1071.91 261.826,1194.32 263.074,1162.26 264.323,1156.43 265.572,981.557 266.82,1057.34 268.069,984.471 269.318,1013.62 270.566,891.203 271.815,1103.97 273.064,1162.26 274.312,1089.4 275.561,1083.57 276.81,1034.02 278.058,1080.65 279.307,1098.14 280.556,1042.76 281.804,1063.17 283.053,1095.23 284.302,1057.34 285.55,1080.65 286.799,1057.34 288.048,1066.08 289.296,1138.95 290.545,1171.01 291.794,1191.41 293.042,1188.5 294.291,1214.73 295.54,1249.7 296.788,1267.19 298.037,1255.53 299.286,1246.79 300.534,1284.68 301.783,1307.99 303.032,1302.17 304.28,1284.68 305.529,1281.76 306.778,1296.34 308.026,1273.02 309.275,1281.76 310.524,1264.28 311.772,1240.96 313.021,1255.53 314.27,1258.45 315.518,1258.45 316.767,1238.04 318.016,1211.81 319.264,1229.3 320.513,1249.7 321.762,1252.62 323.01,1252.62 324.259,1246.79 325.508,1238.04 326.756,1238.04 328.005,1229.3 329.254,1208.9 330.502,1200.15 331.751,1176.84 333,1203.07 334.248,1208.9 335.497,1217.64 336.746,1226.39 337.994,1255.53 339.243,1293.42 340.492,1284.68 341.74,1270.1 342.989,1267.19 344.238,1261.36 345.486,1267.19 346.735,1275.93 347.984,1278.85 349.233,1278.85 350.481,1275.93 351.73,1281.76 352.979,1270.1 354.227,1261.36 355.476,1255.53 356.725,1240.96 357.973,1232.21 359.222,1264.28 360.471,1255.53 361.719,1243.87 362.968,1261.36 364.217,1258.45 365.465,1261.36 366.714,1249.7 367.963,1264.28 369.211,1255.53 370.46,1264.28 371.709,1270.1 372.957,1273.02 374.206,1278.85 375.455,1284.68 376.703,1287.59 377.952,1290.51 379.201,1293.42 380.449,1281.76 381.698,1275.93 382.947,1270.1 384.195,1267.19 385.444,1264.28 386.693,1258.45 387.941,1270.1 389.19,1275.93 390.439,1275.93 391.687,1278.85 392.936,1275.93 394.185,1278.85 395.433,1275.93 396.682,1264.28 397.931,1281.76 399.179,1296.34 400.428,1293.42 401.677,1293.42 402.925,1290.51 404.174,1284.68 405.423,1284.68 406.671,1278.85 407.92,1270.1 409.169,1267.19 410.417,1273.02 411.666,1270.1 412.915,1278.85 414.163,1278.85 415.412,1267.19 416.661,1273.02 417.909,1278.85 419.158,1278.85 420.407,1275.93 421.655,1284.68 422.904,1278.85 424.153,1275.93 425.401,1273.02 426.65,1264.28 427.899,1281.76 429.147,1290.51 430.396,1293.42 431.645,1287.59 432.893,1296.34 434.142,1296.34 435.391,1296.34 436.639,1290.51 437.888,1284.68 439.137,1290.51 440.385,1290.51 441.634,1293.42 442.883,1281.76 444.131,1275.93 445.38,1270.1 446.629,1273.02 447.877,1261.36 449.126,1255.53 450.375,1264.28 451.624,1258.45 452.872,1255.53 454.121,1252.62 455.37,1246.79 456.618,1258.45 457.867,1249.7 459.116,1249.7 460.364,1246.79 461.613,1246.79 462.862,1240.96 464.11,1243.87 465.359,1243.87 466.608,1249.7 467.856,1249.7 469.105,1243.87 470.354,1240.96 471.602,1243.87 472.851,1246.79 474.1,1246.79 475.348,1252.62 476.597,1249.7 477.846,1249.7 479.094,1243.87 480.343,1243.87 481.592,1246.79 482.84,1261.36 484.089,1264.28 485.338,1264.28 486.586,1270.1 487.835,1270.1 489.084,1264.28 490.332,1267.19 491.581,1261.36 492.83,1267.19 494.078,1273.02 495.327,1275.93 496.576,1278.85 497.824,1287.59 499.073,1281.76 500.322,1275.93 501.57,1284.68 502.819,1281.76 504.068,1275.93 505.316,1273.02 506.565,1270.1 507.814,1273.02 509.062,1267.19 510.311,1264.28 511.56,1264.28 512.808,1255.53 514.057,1249.7 515.306,1246.79 516.554,1243.87 517.803,1240.96 519.052,1235.13 520.3,1240.96 521.549,1240.96 522.798,1238.04 524.046,1243.87 525.295,1243.87 526.544,1249.7 527.792,1252.62 529.041,1246.79 530.29,1240.96 531.538,1240.96 532.787,1255.53 534.036,1255.53 535.284,1255.53 536.533,1258.45 537.782,1255.53 539.03,1258.45 540.279,1255.53 541.528,1246.79 542.776,1240.96 544.025,1243.87 545.274,1243.87 546.522,1252.62 547.771,1252.62 549.02,1246.79 550.268,1249.7 551.517,1246.79 552.766,1243.87 554.015,1238.04 555.263,1235.13 556.512,1232.21 557.761,1229.3 559.009,1232.21 560.258,1226.39 561.507,1232.21 562.755,1232.21 564.004,1229.3 565.253,1232.21 566.501,1238.04 567.75,1240.96 568.999,1238.04 570.247,1238.04 571.496,1235.13 572.745,1238.04 573.993,1235.13 575.242,1229.3 576.491,1232.21 577.739,1232.21 578.988,1232.21 580.237,1226.39 581.485,1220.56 582.734,1220.56 583.983,1229.3 585.231,1229.3 586.48,1223.47 587.729,1229.3 588.977,1235.13 590.226,1232.21 591.475,1232.21 592.723,1229.3 593.972,1229.3 595.221,1235.13 596.469,1232.21 597.718,1235.13 598.967,1235.13 600.215,1232.21 601.464,1238.04 602.713,1238.04 603.961,1238.04 605.21,1238.04 606.459,1238.04 607.707,1238.04 608.956,1240.96 610.205,1238.04 611.453,1238.04 612.702,1240.96 613.951,1240.96 615.199,1246.79 616.448,1246.79 617.697,1243.87 618.945,1243.87 620.194,1240.96 621.443,1240.96 622.691,1240.96 623.94,1238.04 625.189,1238.04 626.437,1240.96 627.686,1240.96 628.935,1238.04 630.183,1238.04 631.432,1238.04 632.681,1235.13 633.929,1243.87 635.178,1240.96 636.427,1238.04 637.675,1232.21 638.924,1232.21 640.173,1226.39 641.421,1223.47 642.67,1226.39 643.919,1232.21 645.167,1232.21 646.416,1235.13 647.665,1238.04 648.913,1240.96 650.162,1240.96 651.411,1240.96 652.659,1240.96 653.908,1243.87 655.157,1240.96 656.406,1243.87 657.654,1238.04 658.903,1243.87 660.152,1243.87 661.4,1240.96 662.649,1238.04 663.898,1238.04 665.146,1238.04 666.395,1238.04 667.644,1235.13 668.892,1232.21 670.141,1226.39 671.39,1229.3 672.638,1229.3 673.887,1232.21 675.136,1235.13 676.384,1238.04 677.633,1243.87 678.882,1243.87 680.13,1246.79 681.379,1246.79 682.628,1246.79 683.876,1249.7 685.125,1249.7 686.374,1249.7 687.622,1246.79 688.871,1255.53 690.12,1255.53 691.368,1252.62 692.617,1249.7 693.866,1252.62 695.114,1252.62 696.363,1252.62 697.612,1252.62 698.86,1249.7 700.109,1249.7 701.358,1246.79 702.606,1246.79 703.855,1243.87 705.104,1246.79 706.352,1246.79 707.601,1243.87 708.85,1246.79 710.098,1243.87 711.347,1246.79 712.596,1243.87 713.844,1243.87 715.093,1249.7 716.342,1249.7 717.59,1255.53 718.839,1258.45 720.088,1258.45 721.336,1258.45 722.585,1258.45 723.834,1255.53 725.082,1255.53 726.331,1252.62 727.58,1252.62 728.828,1249.7 730.077,1246.79 731.326,1249.7 732.574,1255.53 733.823,1255.53 735.072,1258.45 736.32,1258.45 737.569,1255.53 738.818,1258.45 740.066,1258.45 741.315,1261.36 742.564,1264.28 743.812,1264.28 745.061,1261.36 746.31,1261.36 747.558,1258.45 748.807,1258.45 750.056,1258.45 751.304,1258.45 752.553,1258.45 753.802,1261.36 755.05,1258.45 756.299,1258.45 757.548,1255.53 758.797,1255.53 760.045,1252.62 761.294,1255.53 762.543,1255.53 763.791,1264.28 765.04,1258.45 766.289,1258.45 767.537,1255.53 768.786,1252.62 770.035,1252.62 771.283,1252.62 772.532,1252.62 773.781,1252.62 775.029,1252.62 776.278,1252.62 777.527,1255.53 778.775,1252.62 780.024,1249.7 781.273,1249.7 782.521,1249.7 783.77,1249.7 785.019,1249.7 786.267,1246.79 787.516,1246.79 788.765,1243.87 790.013,1243.87 791.262,1240.96 792.511,1238.04 793.759,1238.04 795.008,1240.96 796.257,1238.04 797.505,1238.04 798.754,1235.13 800.003,1232.21 801.251,1232.21 802.5,1229.3 803.749,1229.3 804.997,1232.21 806.246,1229.3 807.495,1232.21 808.743,1232.21 809.992,1232.21 811.241,1232.21 812.489,1232.21 813.738,1229.3 814.987,1232.21 816.235,1235.13 817.484,1235.13 818.733,1232.21 819.981,1229.3 821.23,1232.21 822.479,1232.21 823.727,1232.21 824.976,1229.3 826.225,1226.39 827.473,1226.39 828.722,1229.3 829.971,1232.21 831.219,1238.04 832.468,1238.04 833.717,1238.04 834.965,1238.04 836.214,1235.13 837.463,1238.04 838.711,1240.96 839.96,1243.87 841.209,1243.87 842.457,1240.96 843.706,1240.96 844.955,1238.04 846.203,1238.04 847.452,1240.96 848.701,1240.96 849.949,1240.96 851.198,1238.04 852.447,1238.04 853.695,1243.87 854.944,1243.87 856.193,1243.87 857.441,1243.87 858.69,1243.87 859.939,1243.87 861.188,1243.87 862.436,1243.87 863.685,1243.87 864.934,1243.87 866.182,1246.79 867.431,1243.87 868.68,1243.87 869.928,1240.96 871.177,1240.96 872.426,1240.96 873.674,1238.04 874.923,1235.13 876.172,1238.04 877.42,1235.13 878.669,1235.13 879.918,1235.13 881.166,1232.21 882.415,1232.21 883.664,1232.21 884.912,1229.3 886.161,1229.3 887.41,1229.3 888.658,1232.21 889.907,1232.21 891.156,1232.21 892.404,1229.3 893.653,1229.3 894.902,1226.39 896.15,1226.39 897.399,1226.39 898.648,1226.39 899.896,1223.47 901.145,1223.47 902.394,1223.47 903.642,1223.47 904.891,1226.39 906.14,1226.39 907.388,1226.39 908.637,1223.47 909.886,1223.47 911.134,1223.47 912.383,1223.47 913.632,1229.3 914.88,1229.3 916.129,1229.3 917.378,1226.39 918.626,1226.39 919.875,1226.39 921.124,1226.39 922.372,1229.3 923.621,1226.39 924.87,1226.39 926.118,1226.39 927.367,1229.3 928.616,1232.21 929.864,1229.3 931.113,1229.3 932.362,1229.3 933.61,1229.3 934.859,1229.3 936.108,1229.3 937.356,1232.21 938.605,1232.21 939.854,1232.21 941.102,1229.3 942.351,1232.21 943.6,1229.3 944.848,1229.3 946.097,1229.3 947.346,1229.3 948.594,1229.3 949.843,1229.3 951.092,1232.21 952.34,1229.3 953.589,1229.3 954.838,1229.3 956.086,1229.3 957.335,1232.21 958.584,1232.21 959.832,1232.21 961.081,1235.13 962.33,1238.04 963.579,1238.04 964.827,1240.96 966.076,1240.96 967.325,1238.04 968.573,1238.04 969.822,1240.96 971.071,1240.96 972.319,1240.96 973.568,1240.96 974.817,1240.96 976.065,1238.04 977.314,1238.04 978.563,1238.04 979.811,1238.04 981.06,1235.13 982.309,1238.04 983.557,1238.04 984.806,1238.04 986.055,1235.13 987.303,1235.13 988.552,1235.13 989.801,1232.21 991.049,1232.21 992.298,1235.13 993.547,1232.21 994.795,1232.21 996.044,1232.21 997.293,1232.21 998.541,1232.21 999.79,1232.21 1001.04,1235.13 1002.29,1235.13 1003.54,1235.13 1004.78,1232.21 1006.03,1235.13 1007.28,1235.13 1008.53,1235.13 1009.78,1240.96 1011.03,1240.96 1012.28,1240.96 1013.53,1238.04 1014.77,1238.04 1016.02,1235.13 1017.27,1238.04 1018.52,1235.13 1019.77,1232.21 1021.02,1235.13 1022.27,1235.13 1023.51,1235.13 1024.76,1235.13 1026.01,1232.21 1027.26,1232.21 1028.51,1232.21 1029.76,1232.21 1031.01,1232.21 1032.26,1232.21 1033.5,1229.3 1034.75,1229.3 1036,1229.3 1037.25,1229.3 1038.5,1229.3 1039.75,1232.21 1041,1229.3 1042.24,1235.13 1043.49,1232.21 1044.74,1235.13 1045.99,1232.21 1047.24,1232.21 1048.49,1232.21 1049.74,1232.21 1050.99,1232.21 1052.23,1232.21 1053.48,1229.3 1054.73,1229.3 1055.98,1232.21 1057.23,1232.21 1058.48,1232.21 1059.73,1229.3 1060.97,1229.3 1062.22,1232.21 1063.47,1232.21 1064.72,1232.21 1065.97,1232.21 1067.22,1232.21 1068.47,1232.21 1069.72,1232.21 1070.96,1235.13 1072.21,1235.13 1073.46,1235.13 1074.71,1232.21 1075.96,1235.13 1077.21,1238.04 1078.46,1238.04 1079.7,1238.04 1080.95,1238.04 1082.2,1238.04 1083.45,1238.04 1084.7,1240.96 1085.95,1240.96 1087.2,1240.96 1088.45,1243.87 1089.69,1240.96 1090.94,1243.87 1092.19,1243.87 1093.44,1240.96 1094.69,1240.96 1095.94,1238.04 1097.19,1240.96 1098.43,1240.96 1099.68,1243.87 1100.93,1240.96 1102.18,1240.96 1103.43,1238.04 1104.68,1238.04 1105.93,1235.13 1107.18,1235.13 1108.42,1235.13 1109.67,1238.04 1110.92,1235.13 1112.17,1235.13 1113.42,1235.13 1114.67,1238.04 1115.92,1235.13 1117.17,1235.13 1118.41,1238.04 1119.66,1235.13 1120.91,1238.04 1122.16,1240.96 1123.41,1238.04 1124.66,1240.96 1125.91,1238.04 1127.15,1238.04 1128.4,1238.04 1129.65,1235.13 1130.9,1235.13 1132.15,1238.04 1133.4,1238.04 1134.65,1238.04 1135.9,1238.04 1137.14,1238.04 1138.39,1235.13 1139.64,1238.04 1140.89,1240.96 1142.14,1238.04 1143.39,1240.96 1144.64,1240.96 1145.88,1240.96 1147.13,1240.96 1148.38,1240.96 1149.63,1240.96 1150.88,1238.04 1152.13,1238.04 1153.38,1238.04 1154.63,1238.04 1155.87,1238.04 1157.12,1238.04 1158.37,1238.04 1159.62,1238.04 1160.87,1240.96 1162.12,1240.96 1163.37,1238.04 1164.61,1235.13 1165.86,1235.13 1167.11,1235.13 1168.36,1235.13 1169.61,1238.04 1170.86,1238.04 1172.11,1235.13 1173.36,1235.13 1174.6,1238.04 1175.85,1235.13 1177.1,1235.13 1178.35,1235.13 1179.6,1238.04 1180.85,1238.04 1182.1,1238.04 1183.34,1238.04 1184.59,1238.04 1185.84,1235.13 1187.09,1238.04 1188.34,1238.04 1189.59,1240.96 1190.84,1238.04 1192.09,1238.04 1193.33,1238.04 1194.58,1240.96 1195.83,1243.87 1197.08,1243.87 1198.33,1243.87 1199.58,1243.87 1200.83,1240.96 1202.07,1243.87 1203.32,1243.87 1204.57,1243.87 1205.82,1243.87 1207.07,1243.87 1208.32,1243.87 1209.57,1240.96 1210.82,1240.96 1212.06,1240.96 1213.31,1238.04 1214.56,1238.04 1215.81,1238.04 1217.06,1238.04 1218.31,1238.04 1219.56,1238.04 1220.8,1235.13 1222.05,1240.96 1223.3,1238.04 1224.55,1238.04 1225.8,1238.04 1227.05,1238.04 1228.3,1235.13 1229.55,1235.13 1230.79,1235.13 1232.04,1235.13 1233.29,1235.13 1234.54,1235.13 1235.79,1235.13 1237.04,1238.04 1238.29,1235.13 1239.53,1235.13 1240.78,1238.04 1242.03,1235.13 1243.28,1238.04 1244.53,1238.04 1245.78,1238.04 1247.03,1238.04 1248.28,1238.04 1249.52,1240.96 1250.77,1240.96 1252.02,1240.96 1253.27,1240.96 1254.52,1240.96 1255.77,1238.04 1257.02,1240.96 1258.26,1240.96 1259.51,1238.04 1260.76,1240.96 1262.01,1238.04 1263.26,1238.04 1264.51,1238.04 1265.76,1238.04 1267.01,1238.04 1268.25,1238.04 1269.5,1240.96 1270.75,1238.04 1272,1238.04 1273.25,1238.04 1274.5,1238.04 1275.75,1238.04 1276.99,1235.13 1278.24,1235.13 1279.49,1235.13 1280.74,1235.13 1281.99,1238.04 1283.24,1238.04 1284.49,1238.04 1285.74,1238.04 1286.98,1240.96 1288.23,1240.96 1289.48,1240.96 1290.73,1240.96 1291.98,1240.96 1293.23,1240.96 1294.48,1240.96 1295.72,1243.87 1296.97,1243.87 1298.22,1246.79 1299.47,1246.79 1300.72,1243.87 1301.97,1243.87 1303.22,1243.87 1304.47,1243.87 1305.71,1243.87 1306.96,1243.87 1308.21,1243.87 1309.46,1246.79 1310.71,1246.79 1311.96,1246.79 1313.21,1246.79 1314.45,1246.79 1315.7,1246.79 1316.95,1243.87 1318.2,1243.87 1319.45,1243.87 1320.7,1243.87 1321.95,1243.87 1323.2,1240.96 1324.44,1240.96 1325.69,1240.96 1326.94,1240.96 1328.19,1243.87 1329.44,1243.87 1330.69,1243.87 1331.94,1243.87 1333.19,1243.87 1334.43,1246.79 1335.68,1243.87 1336.93,1249.7 1338.18,1246.79 1339.43,1246.79 1340.68,1246.79 1341.93,1246.79 1343.17,1243.87 1344.42,1246.79 1345.67,1243.87 1346.92,1243.87 1348.17,1243.87 1349.42,1243.87 1350.67,1243.87 1351.92,1243.87 1353.16,1243.87 1354.41,1243.87 1355.66,1243.87 1356.91,1243.87 1358.16,1243.87 1359.41,1246.79 1360.66,1246.79 1361.9,1246.79 1363.15,1243.87 1364.4,1243.87 1365.65,1243.87 1366.9,1243.87 1368.15,1243.87 1369.4,1243.87 1370.65,1243.87 1371.89,1240.96 1373.14,1240.96 1374.39,1240.96 1375.64,1240.96 1376.89,1240.96 1378.14,1240.96 1379.39,1240.96 1380.63,1240.96 1381.88,1240.96 1383.13,1240.96 1384.38,1240.96 1385.63,1243.87 1386.88,1243.87 1388.13,1243.87 1389.38,1240.96 1390.62,1240.96 1391.87,1240.96 1393.12,1240.96 1394.37,1240.96 1395.62,1240.96 1396.87,1240.96 1398.12,1240.96 1399.36,1238.04 1400.61,1238.04 1401.86,1238.04 1403.11,1238.04 1404.36,1240.96 1405.61,1240.96 1406.86,1240.96 1408.11,1240.96 1409.35,1240.96 1410.6,1243.87 1411.85,1243.87 1413.1,1243.87 1414.35,1243.87 1415.6,1246.79 1416.85,1246.79 1418.09,1246.79 1419.34,1246.79 1420.59,1246.79 1421.84,1246.79 1423.09,1246.79 1424.34,1249.7 1425.59,1249.7 1426.84,1249.7 1428.08,1249.7 1429.33,1249.7 1430.58,1249.7 1431.83,1249.7 1433.08,1249.7 1434.33,1249.7 1435.58,1249.7 1436.82,1246.79 1438.07,1246.79 1439.32,1246.79 1440.57,1246.79 1441.82,1249.7 1443.07,1249.7 1444.32,1249.7 1445.57,1249.7 1446.81,1246.79 1448.06,1246.79 1449.31,1246.79 1450.56,1246.79 1451.81,1246.79 1453.06,1246.79 1454.31,1246.79 1455.55,1246.79 1456.8,1246.79 1458.05,1246.79 1459.3,1246.79 1460.55,1243.87 1461.8,1243.87 1463.05,1243.87 1464.3,1243.87 1465.54,1240.96 1466.79,1243.87 1468.04,1243.87 1469.29,1243.87 1470.54,1243.87 1471.79,1243.87 1473.04,1240.96 1474.28,1243.87 1475.53,1240.96 1476.78,1243.87 1478.03,1243.87 1479.28,1243.87 1480.53,1243.87 1481.78,1243.87 1483.03,1240.96 1484.27,1240.96 1485.52,1240.96 1486.77,1240.96 1488.02,1240.96 1489.27,1238.04 1490.52,1238.04 1491.77,1238.04 1493.01,1238.04 1494.26,1238.04 1495.51,1238.04 1496.76,1238.04 1498.01,1238.04 1499.26,1238.04 1500.51,1238.04 "/>
<path clip-path="url(#clip490)" d="M1178.06 197.473 L1493.85 197.473 L1493.85 93.7926 L1178.06 93.7926  Z" fill="#ffffff" fill-rule="evenodd" fill-opacity="1"/>
<polyline clip-path="url(#clip490)" style="stroke:#000000; stroke-linecap:round; stroke-linejoin:round; stroke-width:4; stroke-opacity:1; fill:none" points="1178.06,197.473 1493.85,197.473 1493.85,93.7926 1178.06,93.7926 1178.06,197.473 "/>
<polyline clip-path="url(#clip490)" style="stroke:#009af9; stroke-linecap:round; stroke-linejoin:round; stroke-width:4; stroke-opacity:1; fill:none" points="1192.76,145.633 1280.91,145.633 "/>
<path clip-path="url(#clip490)" d="M1311.43 132.959 L1305.09 150.158 L1317.8 150.158 L1311.43 132.959 M1308.79 128.353 L1314.09 128.353 L1327.26 162.913 L1322.4 162.913 L1319.26 154.047 L1303.68 154.047 L1300.53 162.913 L1295.6 162.913 L1308.79 128.353 Z" fill="#000000" fill-rule="nonzero" fill-opacity="1" /><path clip-path="url(#clip490)" d="M1357.36 131.015 L1357.36 135.945 Q1355 133.746 1352.31 132.658 Q1349.65 131.57 1346.64 131.57 Q1340.71 131.57 1337.57 135.204 Q1334.42 138.816 1334.42 145.667 Q1334.42 152.496 1337.57 156.13 Q1340.71 159.741 1346.64 159.741 Q1349.65 159.741 1352.31 158.653 Q1355 157.565 1357.36 155.366 L1357.36 160.251 Q1354.9 161.917 1352.15 162.751 Q1349.42 163.584 1346.36 163.584 Q1338.51 163.584 1334 158.792 Q1329.49 153.977 1329.49 145.667 Q1329.49 137.334 1334 132.542 Q1338.51 127.728 1346.36 127.728 Q1349.46 127.728 1352.2 128.561 Q1354.95 129.371 1357.36 131.015 Z" fill="#000000" fill-rule="nonzero" fill-opacity="1" /><path clip-path="url(#clip490)" d="M1361.5 128.353 L1366.22 128.353 L1373.49 157.565 L1380.74 128.353 L1385.99 128.353 L1393.26 157.565 L1400.51 128.353 L1405.25 128.353 L1396.57 162.913 L1390.69 162.913 L1383.4 132.913 L1376.04 162.913 L1370.16 162.913 L1361.5 128.353 Z" fill="#000000" fill-rule="nonzero" fill-opacity="1" /><path clip-path="url(#clip490)" d="M1407.19 148.028 L1419.67 148.028 L1419.67 151.825 L1407.19 151.825 L1407.19 148.028 Z" fill="#000000" fill-rule="nonzero" fill-opacity="1" /><path clip-path="url(#clip490)" d="M1427.1 128.353 L1445.46 128.353 L1445.46 132.288 L1431.38 132.288 L1431.38 140.76 Q1432.4 140.413 1433.42 140.251 Q1434.44 140.066 1435.46 140.066 Q1441.25 140.066 1444.63 143.237 Q1448 146.408 1448 151.825 Q1448 157.403 1444.53 160.505 Q1441.06 163.584 1434.74 163.584 Q1432.57 163.584 1430.3 163.214 Q1428.05 162.843 1425.64 162.102 L1425.64 157.403 Q1427.73 158.538 1429.95 159.093 Q1432.17 159.649 1434.65 159.649 Q1438.65 159.649 1440.99 157.542 Q1443.33 155.436 1443.33 151.825 Q1443.33 148.214 1440.99 146.107 Q1438.65 144.001 1434.65 144.001 Q1432.77 144.001 1430.9 144.417 Q1429.05 144.834 1427.1 145.714 L1427.1 128.353 Z" fill="#000000" fill-rule="nonzero" fill-opacity="1" /><path clip-path="url(#clip490)" d="M1467.22 131.431 Q1463.61 131.431 1461.78 134.996 Q1459.97 138.538 1459.97 145.667 Q1459.97 152.774 1461.78 156.339 Q1463.61 159.88 1467.22 159.88 Q1470.85 159.88 1472.66 156.339 Q1474.49 152.774 1474.49 145.667 Q1474.49 138.538 1472.66 134.996 Q1470.85 131.431 1467.22 131.431 M1467.22 127.728 Q1473.03 127.728 1476.08 132.334 Q1479.16 136.917 1479.16 145.667 Q1479.16 154.394 1476.08 159.001 Q1473.03 163.584 1467.22 163.584 Q1461.41 163.584 1458.33 159.001 Q1455.27 154.394 1455.27 145.667 Q1455.27 136.917 1458.33 132.334 Q1461.41 127.728 1467.22 127.728 Z" fill="#000000" fill-rule="nonzero" fill-opacity="1" /><path clip-path="url(#clip490)" d="M1830.49 1443.7 L3152.76 1443.7 L3152.76 47.2441 L1830.49 47.2441  Z" fill="#ffffff" fill-rule="evenodd" fill-opacity="1"/>
<defs>
  <clipPath id="clip493">
    <rect x="1830" y="47" width="1323" height="1397"/>
  </clipPath>
</defs>
<polyline clip-path="url(#clip493)" style="stroke:#000000; stroke-linecap:round; stroke-linejoin:round; stroke-width:2; stroke-opacity:0.1; fill:none" points="1866.66,1443.7 1866.66,47.2441 "/>
<polyline clip-path="url(#clip493)" style="stroke:#000000; stroke-linecap:round; stroke-linejoin:round; stroke-width:2; stroke-opacity:0.1; fill:none" points="2178.83,1443.7 2178.83,47.2441 "/>
<polyline clip-path="url(#clip493)" style="stroke:#000000; stroke-linecap:round; stroke-linejoin:round; stroke-width:2; stroke-opacity:0.1; fill:none" points="2491,1443.7 2491,47.2441 "/>
<polyline clip-path="url(#clip493)" style="stroke:#000000; stroke-linecap:round; stroke-linejoin:round; stroke-width:2; stroke-opacity:0.1; fill:none" points="2803.17,1443.7 2803.17,47.2441 "/>
<polyline clip-path="url(#clip493)" style="stroke:#000000; stroke-linecap:round; stroke-linejoin:round; stroke-width:2; stroke-opacity:0.1; fill:none" points="3115.33,1443.7 3115.33,47.2441 "/>
<polyline clip-path="url(#clip493)" style="stroke:#000000; stroke-linecap:round; stroke-linejoin:round; stroke-width:2; stroke-opacity:0.1; fill:none" points="1830.49,1343.11 3152.76,1343.11 "/>
<polyline clip-path="url(#clip493)" style="stroke:#000000; stroke-linecap:round; stroke-linejoin:round; stroke-width:2; stroke-opacity:0.1; fill:none" points="1830.49,1031.51 3152.76,1031.51 "/>
<polyline clip-path="url(#clip493)" style="stroke:#000000; stroke-linecap:round; stroke-linejoin:round; stroke-width:2; stroke-opacity:0.1; fill:none" points="1830.49,719.921 3152.76,719.921 "/>
<polyline clip-path="url(#clip493)" style="stroke:#000000; stroke-linecap:round; stroke-linejoin:round; stroke-width:2; stroke-opacity:0.1; fill:none" points="1830.49,408.329 3152.76,408.329 "/>
<polyline clip-path="url(#clip493)" style="stroke:#000000; stroke-linecap:round; stroke-linejoin:round; stroke-width:2; stroke-opacity:0.1; fill:none" points="1830.49,96.7374 3152.76,96.7374 "/>
<polyline clip-path="url(#clip490)" style="stroke:#000000; stroke-linecap:round; stroke-linejoin:round; stroke-width:4; stroke-opacity:1; fill:none" points="1830.49,1443.7 3152.76,1443.7 "/>
<polyline clip-path="url(#clip490)" style="stroke:#000000; stroke-linecap:round; stroke-linejoin:round; stroke-width:4; stroke-opacity:1; fill:none" points="1866.66,1443.7 1866.66,1424.8 "/>
<polyline clip-path="url(#clip490)" style="stroke:#000000; stroke-linecap:round; stroke-linejoin:round; stroke-width:4; stroke-opacity:1; fill:none" points="2178.83,1443.7 2178.83,1424.8 "/>
<polyline clip-path="url(#clip490)" style="stroke:#000000; stroke-linecap:round; stroke-linejoin:round; stroke-width:4; stroke-opacity:1; fill:none" points="2491,1443.7 2491,1424.8 "/>
<polyline clip-path="url(#clip490)" style="stroke:#000000; stroke-linecap:round; stroke-linejoin:round; stroke-width:4; stroke-opacity:1; fill:none" points="2803.17,1443.7 2803.17,1424.8 "/>
<polyline clip-path="url(#clip490)" style="stroke:#000000; stroke-linecap:round; stroke-linejoin:round; stroke-width:4; stroke-opacity:1; fill:none" points="3115.33,1443.7 3115.33,1424.8 "/>
<path clip-path="url(#clip490)" d="M1866.66 1481.02 Q1863.05 1481.02 1861.22 1484.58 Q1859.42 1488.12 1859.42 1495.25 Q1859.42 1502.36 1861.22 1505.93 Q1863.05 1509.47 1866.66 1509.47 Q1870.3 1509.47 1872.1 1505.93 Q1873.93 1502.36 1873.93 1495.25 Q1873.93 1488.12 1872.1 1484.58 Q1870.3 1481.02 1866.66 1481.02 M1866.66 1477.31 Q1872.47 1477.31 1875.53 1481.92 Q1878.61 1486.5 1878.61 1495.25 Q1878.61 1503.98 1875.53 1508.59 Q1872.47 1513.17 1866.66 1513.17 Q1860.85 1513.17 1857.77 1508.59 Q1854.72 1503.98 1854.72 1495.25 Q1854.72 1486.5 1857.77 1481.92 Q1860.85 1477.31 1866.66 1477.31 Z" fill="#000000" fill-rule="nonzero" fill-opacity="1" /><path clip-path="url(#clip490)" d="M2142.52 1508.56 L2158.84 1508.56 L2158.84 1512.5 L2136.9 1512.5 L2136.9 1508.56 Q2139.56 1505.81 2144.14 1501.18 Q2148.75 1496.53 2149.93 1495.19 Q2152.18 1492.66 2153.05 1490.93 Q2153.96 1489.17 2153.96 1487.48 Q2153.96 1484.72 2152.01 1482.99 Q2150.09 1481.25 2146.99 1481.25 Q2144.79 1481.25 2142.34 1482.01 Q2139.91 1482.78 2137.13 1484.33 L2137.13 1479.61 Q2139.95 1478.47 2142.41 1477.89 Q2144.86 1477.31 2146.9 1477.31 Q2152.27 1477.31 2155.46 1480 Q2158.66 1482.69 2158.66 1487.18 Q2158.66 1489.31 2157.85 1491.23 Q2157.06 1493.12 2154.95 1495.72 Q2154.37 1496.39 2151.27 1499.61 Q2148.17 1502.8 2142.52 1508.56 Z" fill="#000000" fill-rule="nonzero" fill-opacity="1" /><path clip-path="url(#clip490)" d="M2168.7 1477.94 L2187.06 1477.94 L2187.06 1481.88 L2172.99 1481.88 L2172.99 1490.35 Q2174 1490 2175.02 1489.84 Q2176.04 1489.65 2177.06 1489.65 Q2182.85 1489.65 2186.23 1492.82 Q2189.61 1496 2189.61 1501.41 Q2189.61 1506.99 2186.13 1510.09 Q2182.66 1513.17 2176.34 1513.17 Q2174.17 1513.17 2171.9 1512.8 Q2169.65 1512.43 2167.24 1511.69 L2167.24 1506.99 Q2169.33 1508.12 2171.55 1508.68 Q2173.77 1509.24 2176.25 1509.24 Q2180.25 1509.24 2182.59 1507.13 Q2184.93 1505.02 2184.93 1501.41 Q2184.93 1497.8 2182.59 1495.69 Q2180.25 1493.59 2176.25 1493.59 Q2174.37 1493.59 2172.5 1494 Q2170.65 1494.42 2168.7 1495.3 L2168.7 1477.94 Z" fill="#000000" fill-rule="nonzero" fill-opacity="1" /><path clip-path="url(#clip490)" d="M2208.82 1481.02 Q2205.21 1481.02 2203.38 1484.58 Q2201.57 1488.12 2201.57 1495.25 Q2201.57 1502.36 2203.38 1505.93 Q2205.21 1509.47 2208.82 1509.47 Q2212.45 1509.47 2214.26 1505.93 Q2216.09 1502.36 2216.09 1495.25 Q2216.09 1488.12 2214.26 1484.58 Q2212.45 1481.02 2208.82 1481.02 M2208.82 1477.31 Q2214.63 1477.31 2217.68 1481.92 Q2220.76 1486.5 2220.76 1495.25 Q2220.76 1503.98 2217.68 1508.59 Q2214.63 1513.17 2208.82 1513.17 Q2203.01 1513.17 2199.93 1508.59 Q2196.87 1503.98 2196.87 1495.25 Q2196.87 1486.5 2199.93 1481.92 Q2203.01 1477.31 2208.82 1477.31 Z" fill="#000000" fill-rule="nonzero" fill-opacity="1" /><path clip-path="url(#clip490)" d="M2450.62 1477.94 L2468.97 1477.94 L2468.97 1481.88 L2454.9 1481.88 L2454.9 1490.35 Q2455.92 1490 2456.94 1489.84 Q2457.95 1489.65 2458.97 1489.65 Q2464.76 1489.65 2468.14 1492.82 Q2471.52 1496 2471.52 1501.41 Q2471.52 1506.99 2468.05 1510.09 Q2464.57 1513.17 2458.25 1513.17 Q2456.08 1513.17 2453.81 1512.8 Q2451.57 1512.43 2449.16 1511.69 L2449.16 1506.99 Q2451.24 1508.12 2453.46 1508.68 Q2455.69 1509.24 2458.16 1509.24 Q2462.17 1509.24 2464.5 1507.13 Q2466.84 1505.02 2466.84 1501.41 Q2466.84 1497.8 2464.5 1495.69 Q2462.17 1493.59 2458.16 1493.59 Q2456.29 1493.59 2454.41 1494 Q2452.56 1494.42 2450.62 1495.3 L2450.62 1477.94 Z" fill="#000000" fill-rule="nonzero" fill-opacity="1" /><path clip-path="url(#clip490)" d="M2490.73 1481.02 Q2487.12 1481.02 2485.29 1484.58 Q2483.49 1488.12 2483.49 1495.25 Q2483.49 1502.36 2485.29 1505.93 Q2487.12 1509.47 2490.73 1509.47 Q2494.37 1509.47 2496.17 1505.93 Q2498 1502.36 2498 1495.25 Q2498 1488.12 2496.17 1484.58 Q2494.37 1481.02 2490.73 1481.02 M2490.73 1477.31 Q2496.54 1477.31 2499.6 1481.92 Q2502.68 1486.5 2502.68 1495.25 Q2502.68 1503.98 2499.6 1508.59 Q2496.54 1513.17 2490.73 1513.17 Q2484.92 1513.17 2481.84 1508.59 Q2478.79 1503.98 2478.79 1495.25 Q2478.79 1486.5 2481.84 1481.92 Q2484.92 1477.31 2490.73 1477.31 Z" fill="#000000" fill-rule="nonzero" fill-opacity="1" /><path clip-path="url(#clip490)" d="M2520.89 1481.02 Q2517.28 1481.02 2515.45 1484.58 Q2513.65 1488.12 2513.65 1495.25 Q2513.65 1502.36 2515.45 1505.93 Q2517.28 1509.47 2520.89 1509.47 Q2524.53 1509.47 2526.33 1505.93 Q2528.16 1502.36 2528.16 1495.25 Q2528.16 1488.12 2526.33 1484.58 Q2524.53 1481.02 2520.89 1481.02 M2520.89 1477.31 Q2526.7 1477.31 2529.76 1481.92 Q2532.84 1486.5 2532.84 1495.25 Q2532.84 1503.98 2529.76 1508.59 Q2526.7 1513.17 2520.89 1513.17 Q2515.08 1513.17 2512 1508.59 Q2508.95 1503.98 2508.95 1495.25 Q2508.95 1486.5 2512 1481.92 Q2515.08 1477.31 2520.89 1477.31 Z" fill="#000000" fill-rule="nonzero" fill-opacity="1" /><path clip-path="url(#clip490)" d="M2761.44 1477.94 L2783.66 1477.94 L2783.66 1479.93 L2771.12 1512.5 L2766.23 1512.5 L2778.04 1481.88 L2761.44 1481.88 L2761.44 1477.94 Z" fill="#000000" fill-rule="nonzero" fill-opacity="1" /><path clip-path="url(#clip490)" d="M2792.83 1477.94 L2811.19 1477.94 L2811.19 1481.88 L2797.11 1481.88 L2797.11 1490.35 Q2798.13 1490 2799.15 1489.84 Q2800.17 1489.65 2801.19 1489.65 Q2806.97 1489.65 2810.35 1492.82 Q2813.73 1496 2813.73 1501.41 Q2813.73 1506.99 2810.26 1510.09 Q2806.79 1513.17 2800.47 1513.17 Q2798.29 1513.17 2796.02 1512.8 Q2793.78 1512.43 2791.37 1511.69 L2791.37 1506.99 Q2793.45 1508.12 2795.68 1508.68 Q2797.9 1509.24 2800.38 1509.24 Q2804.38 1509.24 2806.72 1507.13 Q2809.06 1505.02 2809.06 1501.41 Q2809.06 1497.8 2806.72 1495.69 Q2804.38 1493.59 2800.38 1493.59 Q2798.5 1493.59 2796.63 1494 Q2794.77 1494.42 2792.83 1495.3 L2792.83 1477.94 Z" fill="#000000" fill-rule="nonzero" fill-opacity="1" /><path clip-path="url(#clip490)" d="M2832.95 1481.02 Q2829.33 1481.02 2827.51 1484.58 Q2825.7 1488.12 2825.7 1495.25 Q2825.7 1502.36 2827.51 1505.93 Q2829.33 1509.47 2832.95 1509.47 Q2836.58 1509.47 2838.39 1505.93 Q2840.21 1502.36 2840.21 1495.25 Q2840.21 1488.12 2838.39 1484.58 Q2836.58 1481.02 2832.95 1481.02 M2832.95 1477.31 Q2838.76 1477.31 2841.81 1481.92 Q2844.89 1486.5 2844.89 1495.25 Q2844.89 1503.98 2841.81 1508.59 Q2838.76 1513.17 2832.95 1513.17 Q2827.14 1513.17 2824.06 1508.59 Q2821 1503.98 2821 1495.25 Q2821 1486.5 2824.06 1481.92 Q2827.14 1477.31 2832.95 1477.31 Z" fill="#000000" fill-rule="nonzero" fill-opacity="1" /><path clip-path="url(#clip490)" d="M3059.86 1508.56 L3067.5 1508.56 L3067.5 1482.2 L3059.19 1483.87 L3059.19 1479.61 L3067.45 1477.94 L3072.13 1477.94 L3072.13 1508.56 L3079.77 1508.56 L3079.77 1512.5 L3059.86 1512.5 L3059.86 1508.56 Z" fill="#000000" fill-rule="nonzero" fill-opacity="1" /><path clip-path="url(#clip490)" d="M3099.21 1481.02 Q3095.6 1481.02 3093.77 1484.58 Q3091.97 1488.12 3091.97 1495.25 Q3091.97 1502.36 3093.77 1505.93 Q3095.6 1509.47 3099.21 1509.47 Q3102.84 1509.47 3104.65 1505.93 Q3106.48 1502.36 3106.48 1495.25 Q3106.48 1488.12 3104.65 1484.58 Q3102.84 1481.02 3099.21 1481.02 M3099.21 1477.31 Q3105.02 1477.31 3108.08 1481.92 Q3111.16 1486.5 3111.16 1495.25 Q3111.16 1503.98 3108.08 1508.59 Q3105.02 1513.17 3099.21 1513.17 Q3093.4 1513.17 3090.32 1508.59 Q3087.27 1503.98 3087.27 1495.25 Q3087.27 1486.5 3090.32 1481.92 Q3093.4 1477.31 3099.21 1477.31 Z" fill="#000000" fill-rule="nonzero" fill-opacity="1" /><path clip-path="url(#clip490)" d="M3129.37 1481.02 Q3125.76 1481.02 3123.93 1484.58 Q3122.13 1488.12 3122.13 1495.25 Q3122.13 1502.36 3123.93 1505.93 Q3125.76 1509.47 3129.37 1509.47 Q3133.01 1509.47 3134.81 1505.93 Q3136.64 1502.36 3136.64 1495.25 Q3136.64 1488.12 3134.81 1484.58 Q3133.01 1481.02 3129.37 1481.02 M3129.37 1477.31 Q3135.18 1477.31 3138.24 1481.92 Q3141.32 1486.5 3141.32 1495.25 Q3141.32 1503.98 3138.24 1508.59 Q3135.18 1513.17 3129.37 1513.17 Q3123.56 1513.17 3120.48 1508.59 Q3117.43 1503.98 3117.43 1495.25 Q3117.43 1486.5 3120.48 1481.92 Q3123.56 1477.31 3129.37 1477.31 Z" fill="#000000" fill-rule="nonzero" fill-opacity="1" /><path clip-path="url(#clip490)" d="M3159.53 1481.02 Q3155.92 1481.02 3154.09 1484.58 Q3152.29 1488.12 3152.29 1495.25 Q3152.29 1502.36 3154.09 1505.93 Q3155.92 1509.47 3159.53 1509.47 Q3163.17 1509.47 3164.97 1505.93 Q3166.8 1502.36 3166.8 1495.25 Q3166.8 1488.12 3164.97 1484.58 Q3163.17 1481.02 3159.53 1481.02 M3159.53 1477.31 Q3165.34 1477.31 3168.4 1481.92 Q3171.48 1486.5 3171.48 1495.25 Q3171.48 1503.98 3168.4 1508.59 Q3165.34 1513.17 3159.53 1513.17 Q3153.72 1513.17 3150.65 1508.59 Q3147.59 1503.98 3147.59 1495.25 Q3147.59 1486.5 3150.65 1481.92 Q3153.72 1477.31 3159.53 1477.31 Z" fill="#000000" fill-rule="nonzero" fill-opacity="1" /><path clip-path="url(#clip490)" d="M2341.18 1553.04 L2347.61 1553.04 L2347.61 1600.56 L2341.18 1600.56 L2341.18 1553.04 Z" fill="#000000" fill-rule="nonzero" fill-opacity="1" /><path clip-path="url(#clip490)" d="M2365.95 1554.79 L2365.95 1564.92 L2378.01 1564.92 L2378.01 1569.47 L2365.95 1569.47 L2365.95 1588.82 Q2365.95 1593.18 2367.12 1594.42 Q2368.33 1595.66 2371.99 1595.66 L2378.01 1595.66 L2378.01 1600.56 L2371.99 1600.56 Q2365.22 1600.56 2362.64 1598.05 Q2360.06 1595.5 2360.06 1588.82 L2360.06 1569.47 L2355.76 1569.47 L2355.76 1564.92 L2360.06 1564.92 L2360.06 1554.79 L2365.95 1554.79 Z" fill="#000000" fill-rule="nonzero" fill-opacity="1" /><path clip-path="url(#clip490)" d="M2416.2 1581.28 L2416.2 1584.14 L2389.28 1584.14 Q2389.66 1590.19 2392.91 1593.37 Q2396.18 1596.52 2402.01 1596.52 Q2405.38 1596.52 2408.53 1595.69 Q2411.72 1594.87 2414.84 1593.21 L2414.84 1598.75 Q2411.68 1600.09 2408.37 1600.79 Q2405.06 1601.49 2401.66 1601.49 Q2393.13 1601.49 2388.13 1596.52 Q2383.17 1591.56 2383.17 1583.09 Q2383.17 1574.34 2387.88 1569.21 Q2392.62 1564.06 2400.64 1564.06 Q2407.83 1564.06 2412 1568.7 Q2416.2 1573.32 2416.2 1581.28 M2410.35 1579.56 Q2410.28 1574.75 2407.64 1571.89 Q2405.03 1569.02 2400.7 1569.02 Q2395.8 1569.02 2392.84 1571.79 Q2389.91 1574.56 2389.47 1579.59 L2410.35 1579.56 Z" fill="#000000" fill-rule="nonzero" fill-opacity="1" /><path clip-path="url(#clip490)" d="M2446.47 1570.39 Q2445.49 1569.82 2444.31 1569.56 Q2443.16 1569.28 2441.76 1569.28 Q2436.8 1569.28 2434.12 1572.52 Q2431.48 1575.74 2431.48 1581.79 L2431.48 1600.56 L2425.59 1600.56 L2425.59 1564.92 L2431.48 1564.92 L2431.48 1570.45 Q2433.33 1567.21 2436.29 1565.65 Q2439.25 1564.06 2443.48 1564.06 Q2444.09 1564.06 2444.82 1564.15 Q2445.55 1564.22 2446.44 1564.37 L2446.47 1570.39 Z" fill="#000000" fill-rule="nonzero" fill-opacity="1" /><path clip-path="url(#clip490)" d="M2468.82 1582.64 Q2461.72 1582.64 2458.98 1584.27 Q2456.24 1585.89 2456.24 1589.81 Q2456.24 1592.92 2458.28 1594.77 Q2460.35 1596.59 2463.88 1596.59 Q2468.75 1596.59 2471.68 1593.15 Q2474.64 1589.68 2474.64 1583.95 L2474.64 1582.64 L2468.82 1582.64 M2480.5 1580.23 L2480.5 1600.56 L2474.64 1600.56 L2474.64 1595.15 Q2472.64 1598.4 2469.64 1599.96 Q2466.65 1601.49 2462.32 1601.49 Q2456.85 1601.49 2453.6 1598.43 Q2450.39 1595.34 2450.39 1590.19 Q2450.39 1584.17 2454.4 1581.12 Q2458.44 1578.06 2466.43 1578.06 L2474.64 1578.06 L2474.64 1577.49 Q2474.64 1573.45 2471.97 1571.25 Q2469.33 1569.02 2464.52 1569.02 Q2461.46 1569.02 2458.57 1569.75 Q2455.67 1570.49 2453 1571.95 L2453 1566.54 Q2456.21 1565.3 2459.24 1564.69 Q2462.26 1564.06 2465.12 1564.06 Q2472.86 1564.06 2476.68 1568.07 Q2480.5 1572.08 2480.5 1580.23 Z" fill="#000000" fill-rule="nonzero" fill-opacity="1" /><path clip-path="url(#clip490)" d="M2498.35 1554.79 L2498.35 1564.92 L2510.42 1564.92 L2510.42 1569.47 L2498.35 1569.47 L2498.35 1588.82 Q2498.35 1593.18 2499.53 1594.42 Q2500.74 1595.66 2504.4 1595.66 L2510.42 1595.66 L2510.42 1600.56 L2504.4 1600.56 Q2497.62 1600.56 2495.04 1598.05 Q2492.47 1595.5 2492.47 1588.82 L2492.47 1569.47 L2488.17 1569.47 L2488.17 1564.92 L2492.47 1564.92 L2492.47 1554.79 L2498.35 1554.79 Z" fill="#000000" fill-rule="nonzero" fill-opacity="1" /><path clip-path="url(#clip490)" d="M2518.12 1564.92 L2523.98 1564.92 L2523.98 1600.56 L2518.12 1600.56 L2518.12 1564.92 M2518.12 1551.04 L2523.98 1551.04 L2523.98 1558.45 L2518.12 1558.45 L2518.12 1551.04 Z" fill="#000000" fill-rule="nonzero" fill-opacity="1" /><path clip-path="url(#clip490)" d="M2550.04 1569.02 Q2545.33 1569.02 2542.6 1572.71 Q2539.86 1576.37 2539.86 1582.77 Q2539.86 1589.17 2542.56 1592.86 Q2545.3 1596.52 2550.04 1596.52 Q2554.72 1596.52 2557.46 1592.83 Q2560.2 1589.14 2560.2 1582.77 Q2560.2 1576.44 2557.46 1572.75 Q2554.72 1569.02 2550.04 1569.02 M2550.04 1564.06 Q2557.68 1564.06 2562.04 1569.02 Q2566.4 1573.99 2566.4 1582.77 Q2566.4 1591.52 2562.04 1596.52 Q2557.68 1601.49 2550.04 1601.49 Q2542.37 1601.49 2538.01 1596.52 Q2533.68 1591.52 2533.68 1582.77 Q2533.68 1573.99 2538.01 1569.02 Q2542.37 1564.06 2550.04 1564.06 Z" fill="#000000" fill-rule="nonzero" fill-opacity="1" /><path clip-path="url(#clip490)" d="M2605.74 1579.05 L2605.74 1600.56 L2599.89 1600.56 L2599.89 1579.24 Q2599.89 1574.18 2597.91 1571.66 Q2595.94 1569.15 2591.99 1569.15 Q2587.25 1569.15 2584.51 1572.17 Q2581.78 1575.2 2581.78 1580.42 L2581.78 1600.56 L2575.89 1600.56 L2575.89 1564.92 L2581.78 1564.92 L2581.78 1570.45 Q2583.88 1567.24 2586.71 1565.65 Q2589.57 1564.06 2593.3 1564.06 Q2599.44 1564.06 2602.59 1567.88 Q2605.74 1571.66 2605.74 1579.05 Z" fill="#000000" fill-rule="nonzero" fill-opacity="1" /><path clip-path="url(#clip490)" d="M2640.15 1565.97 L2640.15 1571.5 Q2637.67 1570.23 2634.99 1569.59 Q2632.32 1568.96 2629.46 1568.96 Q2625.1 1568.96 2622.9 1570.29 Q2620.73 1571.63 2620.73 1574.31 Q2620.73 1576.34 2622.29 1577.52 Q2623.85 1578.67 2628.56 1579.72 L2630.57 1580.16 Q2636.81 1581.5 2639.42 1583.95 Q2642.06 1586.37 2642.06 1590.73 Q2642.06 1595.69 2638.11 1598.59 Q2634.2 1601.49 2627.32 1601.49 Q2624.46 1601.49 2621.34 1600.91 Q2618.25 1600.37 2614.81 1599.26 L2614.81 1593.21 Q2618.06 1594.9 2621.21 1595.76 Q2624.36 1596.59 2627.45 1596.59 Q2631.59 1596.59 2633.82 1595.18 Q2636.04 1593.75 2636.04 1591.17 Q2636.04 1588.79 2634.42 1587.51 Q2632.83 1586.24 2627.39 1585.06 L2625.35 1584.59 Q2619.91 1583.44 2617.49 1581.08 Q2615.07 1578.7 2615.07 1574.56 Q2615.07 1569.53 2618.63 1566.79 Q2622.2 1564.06 2628.76 1564.06 Q2632 1564.06 2634.87 1564.53 Q2637.73 1565.01 2640.15 1565.97 Z" fill="#000000" fill-rule="nonzero" fill-opacity="1" /><polyline clip-path="url(#clip490)" style="stroke:#000000; stroke-linecap:round; stroke-linejoin:round; stroke-width:4; stroke-opacity:1; fill:none" points="1830.49,1443.7 1830.49,47.2441 "/>
<polyline clip-path="url(#clip490)" style="stroke:#000000; stroke-linecap:round; stroke-linejoin:round; stroke-width:4; stroke-opacity:1; fill:none" points="1830.49,1343.11 1849.39,1343.11 "/>
<polyline clip-path="url(#clip490)" style="stroke:#000000; stroke-linecap:round; stroke-linejoin:round; stroke-width:4; stroke-opacity:1; fill:none" points="1830.49,1031.51 1849.39,1031.51 "/>
<polyline clip-path="url(#clip490)" style="stroke:#000000; stroke-linecap:round; stroke-linejoin:round; stroke-width:4; stroke-opacity:1; fill:none" points="1830.49,719.921 1849.39,719.921 "/>
<polyline clip-path="url(#clip490)" style="stroke:#000000; stroke-linecap:round; stroke-linejoin:round; stroke-width:4; stroke-opacity:1; fill:none" points="1830.49,408.329 1849.39,408.329 "/>
<polyline clip-path="url(#clip490)" style="stroke:#000000; stroke-linecap:round; stroke-linejoin:round; stroke-width:4; stroke-opacity:1; fill:none" points="1830.49,96.7374 1849.39,96.7374 "/>
<path clip-path="url(#clip490)" d="M1689.18 1356.45 L1705.5 1356.45 L1705.5 1360.39 L1683.55 1360.39 L1683.55 1356.45 Q1686.22 1353.7 1690.8 1349.07 Q1695.41 1344.41 1696.59 1343.07 Q1698.83 1340.55 1699.71 1338.81 Q1700.61 1337.05 1700.61 1335.36 Q1700.61 1332.61 1698.67 1330.87 Q1696.75 1329.14 1693.65 1329.14 Q1691.45 1329.14 1688.99 1329.9 Q1686.56 1330.66 1683.79 1332.21 L1683.79 1327.49 Q1686.61 1326.36 1689.06 1325.78 Q1691.52 1325.2 1693.55 1325.2 Q1698.92 1325.2 1702.12 1327.89 Q1705.31 1330.57 1705.31 1335.06 Q1705.31 1337.19 1704.5 1339.11 Q1703.72 1341.01 1701.61 1343.6 Q1701.03 1344.27 1697.93 1347.49 Q1694.83 1350.69 1689.18 1356.45 Z" fill="#000000" fill-rule="nonzero" fill-opacity="1" /><path clip-path="url(#clip490)" d="M1715.31 1354.51 L1720.2 1354.51 L1720.2 1360.39 L1715.31 1360.39 L1715.31 1354.51 Z" fill="#000000" fill-rule="nonzero" fill-opacity="1" /><path clip-path="url(#clip490)" d="M1740.38 1328.9 Q1736.77 1328.9 1734.94 1332.47 Q1733.14 1336.01 1733.14 1343.14 Q1733.14 1350.25 1734.94 1353.81 Q1736.77 1357.35 1740.38 1357.35 Q1744.02 1357.35 1745.82 1353.81 Q1747.65 1350.25 1747.65 1343.14 Q1747.65 1336.01 1745.82 1332.47 Q1744.02 1328.9 1740.38 1328.9 M1740.38 1325.2 Q1746.19 1325.2 1749.25 1329.81 Q1752.33 1334.39 1752.33 1343.14 Q1752.33 1351.87 1749.25 1356.47 Q1746.19 1361.06 1740.38 1361.06 Q1734.57 1361.06 1731.49 1356.47 Q1728.44 1351.87 1728.44 1343.14 Q1728.44 1334.39 1731.49 1329.81 Q1734.57 1325.2 1740.38 1325.2 Z" fill="#000000" fill-rule="nonzero" fill-opacity="1" /><path clip-path="url(#clip490)" d="M1770.54 1328.9 Q1766.93 1328.9 1765.1 1332.47 Q1763.3 1336.01 1763.3 1343.14 Q1763.3 1350.25 1765.1 1353.81 Q1766.93 1357.35 1770.54 1357.35 Q1774.18 1357.35 1775.98 1353.81 Q1777.81 1350.25 1777.81 1343.14 Q1777.81 1336.01 1775.98 1332.47 Q1774.18 1328.9 1770.54 1328.9 M1770.54 1325.2 Q1776.35 1325.2 1779.41 1329.81 Q1782.49 1334.39 1782.49 1343.14 Q1782.49 1351.87 1779.41 1356.47 Q1776.35 1361.06 1770.54 1361.06 Q1764.73 1361.06 1761.66 1356.47 Q1758.6 1351.87 1758.6 1343.14 Q1758.6 1334.39 1761.66 1329.81 Q1764.73 1325.2 1770.54 1325.2 Z" fill="#000000" fill-rule="nonzero" fill-opacity="1" /><path clip-path="url(#clip490)" d="M1690.17 1044.86 L1706.49 1044.86 L1706.49 1048.79 L1684.55 1048.79 L1684.55 1044.86 Q1687.21 1042.1 1691.79 1037.47 Q1696.4 1032.82 1697.58 1031.48 Q1699.83 1028.96 1700.71 1027.22 Q1701.61 1025.46 1701.61 1023.77 Q1701.61 1021.02 1699.66 1019.28 Q1697.74 1017.54 1694.64 1017.54 Q1692.44 1017.54 1689.99 1018.31 Q1687.56 1019.07 1684.78 1020.62 L1684.78 1015.9 Q1687.6 1014.77 1690.06 1014.19 Q1692.51 1013.61 1694.55 1013.61 Q1699.92 1013.61 1703.11 1016.29 Q1706.31 1018.98 1706.31 1023.47 Q1706.31 1025.6 1705.5 1027.52 Q1704.71 1029.42 1702.6 1032.01 Q1702.03 1032.68 1698.92 1035.9 Q1695.82 1039.09 1690.17 1044.86 Z" fill="#000000" fill-rule="nonzero" fill-opacity="1" /><path clip-path="url(#clip490)" d="M1716.31 1042.91 L1721.19 1042.91 L1721.19 1048.79 L1716.31 1048.79 L1716.31 1042.91 Z" fill="#000000" fill-rule="nonzero" fill-opacity="1" /><path clip-path="url(#clip490)" d="M1735.41 1044.86 L1751.72 1044.86 L1751.72 1048.79 L1729.78 1048.79 L1729.78 1044.86 Q1732.44 1042.1 1737.03 1037.47 Q1741.63 1032.82 1742.81 1031.48 Q1745.06 1028.96 1745.94 1027.22 Q1746.84 1025.46 1746.84 1023.77 Q1746.84 1021.02 1744.9 1019.28 Q1742.97 1017.54 1739.87 1017.54 Q1737.67 1017.54 1735.22 1018.31 Q1732.79 1019.07 1730.01 1020.62 L1730.01 1015.9 Q1732.84 1014.77 1735.29 1014.19 Q1737.74 1013.61 1739.78 1013.61 Q1745.15 1013.61 1748.35 1016.29 Q1751.54 1018.98 1751.54 1023.47 Q1751.54 1025.6 1750.73 1027.52 Q1749.94 1029.42 1747.84 1032.01 Q1747.26 1032.68 1744.16 1035.9 Q1741.05 1039.09 1735.41 1044.86 Z" fill="#000000" fill-rule="nonzero" fill-opacity="1" /><path clip-path="url(#clip490)" d="M1761.59 1014.23 L1779.94 1014.23 L1779.94 1018.17 L1765.87 1018.17 L1765.87 1026.64 Q1766.89 1026.29 1767.91 1026.13 Q1768.92 1025.95 1769.94 1025.95 Q1775.73 1025.95 1779.11 1029.12 Q1782.49 1032.29 1782.49 1037.71 Q1782.49 1043.28 1779.02 1046.39 Q1775.54 1049.46 1769.22 1049.46 Q1767.05 1049.46 1764.78 1049.09 Q1762.53 1048.72 1760.13 1047.98 L1760.13 1043.28 Q1762.21 1044.42 1764.43 1044.97 Q1766.66 1045.53 1769.13 1045.53 Q1773.14 1045.53 1775.47 1043.42 Q1777.81 1041.32 1777.81 1037.71 Q1777.81 1034.09 1775.47 1031.99 Q1773.14 1029.88 1769.13 1029.88 Q1767.26 1029.88 1765.38 1030.3 Q1763.53 1030.71 1761.59 1031.59 L1761.59 1014.23 Z" fill="#000000" fill-rule="nonzero" fill-opacity="1" /><path clip-path="url(#clip490)" d="M1689.18 733.266 L1705.5 733.266 L1705.5 737.201 L1683.55 737.201 L1683.55 733.266 Q1686.22 730.512 1690.8 725.882 Q1695.41 721.229 1696.59 719.887 Q1698.83 717.364 1699.71 715.627 Q1700.61 713.868 1700.61 712.178 Q1700.61 709.424 1698.67 707.688 Q1696.75 705.952 1693.65 705.952 Q1691.45 705.952 1688.99 706.715 Q1686.56 707.479 1683.79 709.03 L1683.79 704.308 Q1686.61 703.174 1689.06 702.595 Q1691.52 702.016 1693.55 702.016 Q1698.92 702.016 1702.12 704.702 Q1705.31 707.387 1705.31 711.877 Q1705.31 714.007 1704.5 715.928 Q1703.72 717.827 1701.61 720.419 Q1701.03 721.09 1697.93 724.308 Q1694.83 727.502 1689.18 733.266 Z" fill="#000000" fill-rule="nonzero" fill-opacity="1" /><path clip-path="url(#clip490)" d="M1715.31 731.322 L1720.2 731.322 L1720.2 737.201 L1715.31 737.201 L1715.31 731.322 Z" fill="#000000" fill-rule="nonzero" fill-opacity="1" /><path clip-path="url(#clip490)" d="M1730.43 702.641 L1748.78 702.641 L1748.78 706.577 L1734.71 706.577 L1734.71 715.049 Q1735.73 714.702 1736.75 714.54 Q1737.77 714.354 1738.79 714.354 Q1744.57 714.354 1747.95 717.526 Q1751.33 720.697 1751.33 726.114 Q1751.33 731.692 1747.86 734.794 Q1744.39 737.873 1738.07 737.873 Q1735.89 737.873 1733.62 737.502 Q1731.38 737.132 1728.97 736.391 L1728.97 731.692 Q1731.05 732.826 1733.28 733.382 Q1735.5 733.938 1737.97 733.938 Q1741.98 733.938 1744.32 731.831 Q1746.66 729.725 1746.66 726.114 Q1746.66 722.502 1744.32 720.396 Q1741.98 718.289 1737.97 718.289 Q1736.1 718.289 1734.22 718.706 Q1732.37 719.123 1730.43 720.002 L1730.43 702.641 Z" fill="#000000" fill-rule="nonzero" fill-opacity="1" /><path clip-path="url(#clip490)" d="M1770.54 705.72 Q1766.93 705.72 1765.1 709.285 Q1763.3 712.827 1763.3 719.956 Q1763.3 727.063 1765.1 730.627 Q1766.93 734.169 1770.54 734.169 Q1774.18 734.169 1775.98 730.627 Q1777.81 727.063 1777.81 719.956 Q1777.81 712.827 1775.98 709.285 Q1774.18 705.72 1770.54 705.72 M1770.54 702.016 Q1776.35 702.016 1779.41 706.623 Q1782.49 711.206 1782.49 719.956 Q1782.49 728.683 1779.41 733.289 Q1776.35 737.873 1770.54 737.873 Q1764.73 737.873 1761.66 733.289 Q1758.6 728.683 1758.6 719.956 Q1758.6 711.206 1761.66 706.623 Q1764.73 702.016 1770.54 702.016 Z" fill="#000000" fill-rule="nonzero" fill-opacity="1" /><path clip-path="url(#clip490)" d="M1690.17 421.674 L1706.49 421.674 L1706.49 425.609 L1684.55 425.609 L1684.55 421.674 Q1687.21 418.92 1691.79 414.29 Q1696.4 409.637 1697.58 408.295 Q1699.83 405.772 1700.71 404.035 Q1701.61 402.276 1701.61 400.586 Q1701.61 397.832 1699.66 396.096 Q1697.74 394.36 1694.64 394.36 Q1692.44 394.36 1689.99 395.123 Q1687.56 395.887 1684.78 397.438 L1684.78 392.716 Q1687.6 391.582 1690.06 391.003 Q1692.51 390.424 1694.55 390.424 Q1699.92 390.424 1703.11 393.11 Q1706.31 395.795 1706.31 400.285 Q1706.31 402.415 1705.5 404.336 Q1704.71 406.235 1702.6 408.827 Q1702.03 409.498 1698.92 412.716 Q1695.82 415.91 1690.17 421.674 Z" fill="#000000" fill-rule="nonzero" fill-opacity="1" /><path clip-path="url(#clip490)" d="M1716.31 419.73 L1721.19 419.73 L1721.19 425.609 L1716.31 425.609 L1716.31 419.73 Z" fill="#000000" fill-rule="nonzero" fill-opacity="1" /><path clip-path="url(#clip490)" d="M1730.2 391.049 L1752.42 391.049 L1752.42 393.04 L1739.87 425.609 L1734.99 425.609 L1746.79 394.985 L1730.2 394.985 L1730.2 391.049 Z" fill="#000000" fill-rule="nonzero" fill-opacity="1" /><path clip-path="url(#clip490)" d="M1761.59 391.049 L1779.94 391.049 L1779.94 394.985 L1765.87 394.985 L1765.87 403.457 Q1766.89 403.11 1767.91 402.947 Q1768.92 402.762 1769.94 402.762 Q1775.73 402.762 1779.11 405.934 Q1782.49 409.105 1782.49 414.521 Q1782.49 420.1 1779.02 423.202 Q1775.54 426.281 1769.22 426.281 Q1767.05 426.281 1764.78 425.91 Q1762.53 425.54 1760.13 424.799 L1760.13 420.1 Q1762.21 421.234 1764.43 421.79 Q1766.66 422.346 1769.13 422.346 Q1773.14 422.346 1775.47 420.239 Q1777.81 418.133 1777.81 414.521 Q1777.81 410.91 1775.47 408.804 Q1773.14 406.697 1769.13 406.697 Q1767.26 406.697 1765.38 407.114 Q1763.53 407.531 1761.59 408.41 L1761.59 391.049 Z" fill="#000000" fill-rule="nonzero" fill-opacity="1" /><path clip-path="url(#clip490)" d="M1699.32 95.3832 Q1702.67 96.1008 1704.55 98.3693 Q1706.45 100.638 1706.45 103.971 Q1706.45 109.087 1702.93 111.888 Q1699.41 114.689 1692.93 114.689 Q1690.75 114.689 1688.44 114.249 Q1686.15 113.832 1683.69 112.976 L1683.69 108.462 Q1685.64 109.596 1687.95 110.175 Q1690.27 110.754 1692.79 110.754 Q1697.19 110.754 1699.48 109.017 Q1701.79 107.281 1701.79 103.971 Q1701.79 100.916 1699.64 99.2026 Q1697.51 97.4665 1693.69 97.4665 L1689.66 97.4665 L1689.66 93.624 L1693.88 93.624 Q1697.33 93.624 1699.16 92.2582 Q1700.98 90.8693 1700.98 88.2768 Q1700.98 85.6147 1699.09 84.2027 Q1697.21 82.7675 1693.69 82.7675 Q1691.77 82.7675 1689.57 83.1842 Q1687.37 83.6009 1684.73 84.4805 L1684.73 80.3138 Q1687.4 79.5731 1689.71 79.2027 Q1692.05 78.8324 1694.11 78.8324 Q1699.43 78.8324 1702.54 81.2629 Q1705.64 83.6703 1705.64 87.7907 Q1705.64 90.661 1703.99 92.6517 Q1702.35 94.6193 1699.32 95.3832 Z" fill="#000000" fill-rule="nonzero" fill-opacity="1" /><path clip-path="url(#clip490)" d="M1715.31 108.138 L1720.2 108.138 L1720.2 114.017 L1715.31 114.017 L1715.31 108.138 Z" fill="#000000" fill-rule="nonzero" fill-opacity="1" /><path clip-path="url(#clip490)" d="M1740.38 82.5361 Q1736.77 82.5361 1734.94 86.1009 Q1733.14 89.6425 1733.14 96.7721 Q1733.14 103.879 1734.94 107.443 Q1736.77 110.985 1740.38 110.985 Q1744.02 110.985 1745.82 107.443 Q1747.65 103.879 1747.65 96.7721 Q1747.65 89.6425 1745.82 86.1009 Q1744.02 82.5361 1740.38 82.5361 M1740.38 78.8324 Q1746.19 78.8324 1749.25 83.4388 Q1752.33 88.0221 1752.33 96.7721 Q1752.33 105.499 1749.25 110.105 Q1746.19 114.689 1740.38 114.689 Q1734.57 114.689 1731.49 110.105 Q1728.44 105.499 1728.44 96.7721 Q1728.44 88.0221 1731.49 83.4388 Q1734.57 78.8324 1740.38 78.8324 Z" fill="#000000" fill-rule="nonzero" fill-opacity="1" /><path clip-path="url(#clip490)" d="M1770.54 82.5361 Q1766.93 82.5361 1765.1 86.1009 Q1763.3 89.6425 1763.3 96.7721 Q1763.3 103.879 1765.1 107.443 Q1766.93 110.985 1770.54 110.985 Q1774.18 110.985 1775.98 107.443 Q1777.81 103.879 1777.81 96.7721 Q1777.81 89.6425 1775.98 86.1009 Q1774.18 82.5361 1770.54 82.5361 M1770.54 78.8324 Q1776.35 78.8324 1779.41 83.4388 Q1782.49 88.0221 1782.49 96.7721 Q1782.49 105.499 1779.41 110.105 Q1776.35 114.689 1770.54 114.689 Q1764.73 114.689 1761.66 110.105 Q1758.6 105.499 1758.6 96.7721 Q1758.6 88.0221 1761.66 83.4388 Q1764.73 78.8324 1770.54 78.8324 Z" fill="#000000" fill-rule="nonzero" fill-opacity="1" /><path clip-path="url(#clip490)" d="M1580.11 799.087 L1603.76 807.808 L1603.76 790.334 L1580.11 799.087 M1573.78 802.716 L1573.78 795.427 L1621.3 777.316 L1621.3 784 L1609.11 788.329 L1609.11 809.75 L1621.3 814.078 L1621.3 820.858 L1573.78 802.716 Z" fill="#000000" fill-rule="nonzero" fill-opacity="1" /><path clip-path="url(#clip490)" d="M1577.44 735.939 L1584.22 735.939 Q1581.19 739.186 1579.7 742.878 Q1578.2 746.538 1578.2 750.676 Q1578.2 758.824 1583.2 763.153 Q1588.16 767.481 1597.59 767.481 Q1606.98 767.481 1611.97 763.153 Q1616.94 758.824 1616.94 750.676 Q1616.94 746.538 1615.44 742.878 Q1613.95 739.186 1610.92 735.939 L1617.64 735.939 Q1619.93 739.313 1621.08 743.101 Q1622.22 746.857 1622.22 751.058 Q1622.22 761.848 1615.63 768.054 Q1609.01 774.261 1597.59 774.261 Q1586.13 774.261 1579.54 768.054 Q1572.92 761.848 1572.92 751.058 Q1572.92 746.793 1574.06 743.037 Q1575.18 739.249 1577.44 735.939 Z" fill="#000000" fill-rule="nonzero" fill-opacity="1" /><path clip-path="url(#clip490)" d="M1573.78 730.242 L1573.78 723.749 L1613.95 713.755 L1573.78 703.793 L1573.78 696.567 L1613.95 686.573 L1573.78 676.611 L1573.78 670.086 L1621.3 682.022 L1621.3 690.106 L1580.05 700.132 L1621.3 710.254 L1621.3 718.338 L1573.78 730.242 Z" fill="#000000" fill-rule="nonzero" fill-opacity="1" /><polyline clip-path="url(#clip493)" style="stroke:#009af9; stroke-linecap:round; stroke-linejoin:round; stroke-width:4; stroke-opacity:1; fill:none" points="1867.91,86.7664 1869.16,441.981 1870.41,859.515 1871.66,881.949 1872.91,637.661 1874.15,439.489 1875.4,441.981 1876.65,754.82 1877.9,608.995 1879.15,862.007 1880.4,716.182 1881.65,788.472 1882.9,687.516 1884.14,785.979 1885.39,773.515 1886.64,794.704 1887.89,1012.82 1889.14,938.036 1890.39,885.688 1891.64,778.501 1892.88,810.906 1894.13,913.108 1895.38,853.283 1896.63,1066.41 1897.88,1156.15 1899.13,1126.24 1900.38,1172.35 1901.63,1107.54 1902.87,1210.99 1904.12,1213.48 1905.37,1182.32 1906.62,1203.51 1907.87,1164.87 1909.12,1115.02 1910.37,1131.22 1911.61,1142.44 1912.86,1172.35 1914.11,1126.24 1915.36,1184.82 1916.61,1172.35 1917.86,1151.16 1919.11,1173.6 1920.36,1193.54 1921.6,1234.67 1922.85,1194.79 1924.1,1178.58 1925.35,1193.54 1926.6,1213.48 1927.85,1238.41 1929.1,1239.66 1930.34,1280.79 1931.59,1272.06 1932.84,1267.08 1934.09,1300.73 1935.34,1369.28 1936.59,1390.47 1937.84,1404.18 1939.09,1397.95 1940.33,1396.7 1941.58,1397.95 1942.83,1378 1944.08,1348.09 1945.33,1340.61 1946.58,1305.71 1947.83,1318.18 1949.07,1301.98 1950.32,1298.24 1951.57,1301.98 1952.82,1306.96 1954.07,1284.53 1955.32,1298.24 1956.57,1308.21 1957.82,1299.48 1959.06,1270.82 1960.31,1269.57 1961.56,1292 1962.81,1315.69 1964.06,1309.45 1965.31,1288.27 1966.56,1292 1967.8,1284.53 1969.05,1272.06 1970.3,1274.56 1971.55,1253.37 1972.8,1232.18 1974.05,1254.61 1975.3,1238.41 1976.55,1222.21 1977.79,1250.87 1979.04,1222.21 1980.29,1237.16 1981.54,1235.92 1982.79,1227.19 1984.04,1217.22 1985.29,1210.99 1986.53,1219.72 1987.78,1209.74 1989.03,1207.25 1990.28,1213.48 1991.53,1227.19 1992.78,1245.89 1994.03,1268.32 1995.28,1255.86 1996.52,1252.12 1997.77,1258.35 1999.02,1247.14 2000.27,1275.8 2001.52,1250.87 2002.77,1244.64 2004.02,1244.64 2005.26,1260.85 2006.51,1284.53 2007.76,1282.03 2009.01,1296.99 2010.26,1292 2011.51,1277.05 2012.76,1277.05 2014.01,1278.29 2015.25,1279.54 2016.5,1296.99 2017.75,1296.99 2019,1289.51 2020.25,1304.47 2021.5,1289.51 2022.75,1273.31 2024,1270.82 2025.24,1278.29 2026.49,1282.03 2027.74,1293.25 2028.99,1301.98 2030.24,1278.29 2031.49,1288.27 2032.74,1298.24 2033.98,1316.93 2035.23,1316.93 2036.48,1330.64 2037.73,1320.67 2038.98,1320.67 2040.23,1324.41 2041.48,1313.19 2042.73,1308.21 2043.97,1298.24 2045.22,1313.19 2046.47,1310.7 2047.72,1328.15 2048.97,1309.45 2050.22,1310.7 2051.47,1300.73 2052.71,1295.74 2053.96,1303.22 2055.21,1308.21 2056.46,1316.93 2057.71,1308.21 2058.96,1303.22 2060.21,1306.96 2061.46,1305.71 2062.7,1287.02 2063.95,1280.79 2065.2,1289.51 2066.45,1277.05 2067.7,1257.11 2068.95,1248.38 2070.2,1250.87 2071.44,1253.37 2072.69,1239.66 2073.94,1243.4 2075.19,1263.34 2076.44,1274.56 2077.69,1283.28 2078.94,1280.79 2080.19,1289.51 2081.43,1294.5 2082.68,1301.98 2083.93,1296.99 2085.18,1298.24 2086.43,1301.98 2087.68,1313.19 2088.93,1316.93 2090.17,1313.19 2091.42,1321.92 2092.67,1318.18 2093.92,1304.47 2095.17,1321.92 2096.42,1326.9 2097.67,1329.4 2098.92,1335.63 2100.16,1324.41 2101.41,1324.41 2102.66,1321.92 2103.91,1311.95 2105.16,1311.95 2106.41,1305.71 2107.66,1310.7 2108.9,1316.93 2110.15,1314.44 2111.4,1324.41 2112.65,1326.9 2113.9,1321.92 2115.15,1306.96 2116.4,1309.45 2117.65,1303.22 2118.89,1305.71 2120.14,1304.47 2121.39,1295.74 2122.64,1296.99 2123.89,1294.5 2125.14,1295.74 2126.39,1298.24 2127.63,1288.27 2128.88,1280.79 2130.13,1280.79 2131.38,1279.54 2132.63,1278.29 2133.88,1274.56 2135.13,1269.57 2136.38,1269.57 2137.62,1260.85 2138.87,1260.85 2140.12,1269.57 2141.37,1275.8 2142.62,1277.05 2143.87,1273.31 2145.12,1268.32 2146.36,1259.6 2147.61,1263.34 2148.86,1272.06 2150.11,1270.82 2151.36,1269.57 2152.61,1273.31 2153.86,1269.57 2155.11,1262.09 2156.35,1250.87 2157.6,1247.14 2158.85,1248.38 2160.1,1254.61 2161.35,1254.61 2162.6,1260.85 2163.85,1254.61 2165.09,1260.85 2166.34,1259.6 2167.59,1263.34 2168.84,1254.61 2170.09,1249.63 2171.34,1243.4 2172.59,1239.66 2173.84,1240.9 2175.08,1238.41 2176.33,1239.66 2177.58,1235.92 2178.83,1239.66 2180.08,1240.9 2181.33,1240.9 2182.58,1248.38 2183.82,1247.14 2185.07,1247.14 2186.32,1245.89 2187.57,1245.89 2188.82,1250.87 2190.07,1243.4 2191.32,1250.87 2192.57,1248.38 2193.81,1253.37 2195.06,1244.64 2196.31,1239.66 2197.56,1237.16 2198.81,1243.4 2200.06,1247.14 2201.31,1239.66 2202.55,1244.64 2203.8,1244.64 2205.05,1237.16 2206.3,1230.93 2207.55,1228.44 2208.8,1227.19 2210.05,1227.19 2211.3,1223.45 2212.54,1234.67 2213.79,1235.92 2215.04,1228.44 2216.29,1233.43 2217.54,1234.67 2218.79,1232.18 2220.04,1234.67 2221.28,1228.44 2222.53,1229.69 2223.78,1234.67 2225.03,1243.4 2226.28,1240.9 2227.53,1245.89 2228.78,1244.64 2230.03,1249.63 2231.27,1250.87 2232.52,1253.37 2233.77,1252.12 2235.02,1254.61 2236.27,1257.11 2237.52,1258.35 2238.77,1254.61 2240.02,1255.86 2241.26,1263.34 2242.51,1263.34 2243.76,1265.83 2245.01,1264.58 2246.26,1267.08 2247.51,1265.83 2248.76,1268.32 2250,1274.56 2251.25,1270.82 2252.5,1265.83 2253.75,1267.08 2255,1264.58 2256.25,1259.6 2257.5,1258.35 2258.75,1263.34 2259.99,1272.06 2261.24,1275.8 2262.49,1273.31 2263.74,1272.06 2264.99,1272.06 2266.24,1270.82 2267.49,1270.82 2268.73,1273.31 2269.98,1272.06 2271.23,1279.54 2272.48,1275.8 2273.73,1275.8 2274.98,1275.8 2276.23,1274.56 2277.48,1269.57 2278.72,1268.32 2279.97,1267.08 2281.22,1268.32 2282.47,1263.34 2283.72,1265.83 2284.97,1258.35 2286.22,1262.09 2287.46,1260.85 2288.71,1267.08 2289.96,1269.57 2291.21,1265.83 2292.46,1264.58 2293.71,1268.32 2294.96,1273.31 2296.21,1273.31 2297.45,1272.06 2298.7,1275.8 2299.95,1277.05 2301.2,1277.05 2302.45,1273.31 2303.7,1273.31 2304.95,1270.82 2306.19,1272.06 2307.44,1269.57 2308.69,1272.06 2309.94,1272.06 2311.19,1274.56 2312.44,1279.54 2313.69,1272.06 2314.94,1272.06 2316.18,1272.06 2317.43,1273.31 2318.68,1274.56 2319.93,1273.31 2321.18,1270.82 2322.43,1273.31 2323.68,1278.29 2324.92,1282.03 2326.17,1285.77 2327.42,1282.03 2328.67,1284.53 2329.92,1285.77 2331.17,1289.51 2332.42,1289.51 2333.67,1287.02 2334.91,1290.76 2336.16,1292 2337.41,1295.74 2338.66,1299.48 2339.91,1300.73 2341.16,1299.48 2342.41,1298.24 2343.65,1292 2344.9,1287.02 2346.15,1288.27 2347.4,1288.27 2348.65,1289.51 2349.9,1290.76 2351.15,1293.25 2352.4,1295.74 2353.64,1295.74 2354.89,1295.74 2356.14,1303.22 2357.39,1305.71 2358.64,1305.71 2359.89,1305.71 2361.14,1304.47 2362.38,1301.98 2363.63,1309.45 2364.88,1314.44 2366.13,1314.44 2367.38,1316.93 2368.63,1316.93 2369.88,1314.44 2371.13,1316.93 2372.37,1311.95 2373.62,1313.19 2374.87,1309.45 2376.12,1308.21 2377.37,1310.7 2378.62,1311.95 2379.87,1306.96 2381.11,1308.21 2382.36,1311.95 2383.61,1308.21 2384.86,1308.21 2386.11,1310.7 2387.36,1313.19 2388.61,1311.95 2389.86,1309.45 2391.1,1314.44 2392.35,1314.44 2393.6,1310.7 2394.85,1308.21 2396.1,1306.96 2397.35,1306.96 2398.6,1311.95 2399.84,1309.45 2401.09,1306.96 2402.34,1308.21 2403.59,1309.45 2404.84,1313.19 2406.09,1311.95 2407.34,1306.96 2408.59,1303.22 2409.83,1310.7 2411.08,1306.96 2412.33,1310.7 2413.58,1310.7 2414.83,1305.71 2416.08,1305.71 2417.33,1305.71 2418.57,1301.98 2419.82,1301.98 2421.07,1299.48 2422.32,1300.73 2423.57,1300.73 2424.82,1296.99 2426.07,1298.24 2427.32,1296.99 2428.56,1293.25 2429.81,1298.24 2431.06,1296.99 2432.31,1298.24 2433.56,1295.74 2434.81,1293.25 2436.06,1293.25 2437.31,1294.5 2438.55,1293.25 2439.8,1295.74 2441.05,1293.25 2442.3,1293.25 2443.55,1294.5 2444.8,1295.74 2446.05,1294.5 2447.29,1292 2448.54,1292 2449.79,1294.5 2451.04,1294.5 2452.29,1293.25 2453.54,1290.76 2454.79,1294.5 2456.04,1296.99 2457.28,1295.74 2458.53,1295.74 2459.78,1292 2461.03,1293.25 2462.28,1296.99 2463.53,1300.73 2464.78,1295.74 2466.02,1293.25 2467.27,1296.99 2468.52,1298.24 2469.77,1300.73 2471.02,1299.48 2472.27,1298.24 2473.52,1294.5 2474.77,1300.73 2476.01,1299.48 2477.26,1300.73 2478.51,1305.71 2479.76,1305.71 2481.01,1304.47 2482.26,1305.71 2483.51,1310.7 2484.75,1309.45 2486,1309.45 2487.25,1310.7 2488.5,1308.21 2489.75,1306.96 2491,1308.21 2492.25,1304.47 2493.5,1301.98 2494.74,1301.98 2495.99,1299.48 2497.24,1300.73 2498.49,1299.48 2499.74,1299.48 2500.99,1299.48 2502.24,1300.73 2503.48,1299.48 2504.73,1296.99 2505.98,1300.73 2507.23,1296.99 2508.48,1294.5 2509.73,1292 2510.98,1290.76 2512.23,1292 2513.47,1292 2514.72,1293.25 2515.97,1293.25 2517.22,1298.24 2518.47,1296.99 2519.72,1299.48 2520.97,1299.48 2522.21,1301.98 2523.46,1301.98 2524.71,1298.24 2525.96,1299.48 2527.21,1296.99 2528.46,1294.5 2529.71,1292 2530.96,1294.5 2532.2,1292 2533.45,1292 2534.7,1293.25 2535.95,1289.51 2537.2,1290.76 2538.45,1289.51 2539.7,1288.27 2540.94,1289.51 2542.19,1288.27 2543.44,1289.51 2544.69,1289.51 2545.94,1289.51 2547.19,1287.02 2548.44,1287.02 2549.69,1288.27 2550.93,1285.77 2552.18,1283.28 2553.43,1283.28 2554.68,1285.77 2555.93,1284.53 2557.18,1285.77 2558.43,1282.03 2559.67,1278.29 2560.92,1280.79 2562.17,1284.53 2563.42,1284.53 2564.67,1282.03 2565.92,1287.02 2567.17,1285.77 2568.42,1285.77 2569.66,1282.03 2570.91,1280.79 2572.16,1282.03 2573.41,1285.77 2574.66,1283.28 2575.91,1285.77 2577.16,1283.28 2578.4,1284.53 2579.65,1285.77 2580.9,1284.53 2582.15,1283.28 2583.4,1287.02 2584.65,1284.53 2585.9,1285.77 2587.15,1285.77 2588.39,1289.51 2589.64,1290.76 2590.89,1290.76 2592.14,1295.74 2593.39,1294.5 2594.64,1295.74 2595.89,1293.25 2597.13,1293.25 2598.38,1298.24 2599.63,1296.99 2600.88,1293.25 2602.13,1290.76 2603.38,1290.76 2604.63,1292 2605.88,1289.51 2607.12,1288.27 2608.37,1287.02 2609.62,1287.02 2610.87,1287.02 2612.12,1288.27 2613.37,1285.77 2614.62,1285.77 2615.86,1288.27 2617.11,1290.76 2618.36,1290.76 2619.61,1287.02 2620.86,1288.27 2622.11,1289.51 2623.36,1290.76 2624.61,1290.76 2625.85,1289.51 2627.1,1290.76 2628.35,1290.76 2629.6,1293.25 2630.85,1293.25 2632.1,1295.74 2633.35,1292 2634.6,1290.76 2635.84,1288.27 2637.09,1289.51 2638.34,1292 2639.59,1292 2640.84,1294.5 2642.09,1295.74 2643.34,1296.99 2644.58,1295.74 2645.83,1298.24 2647.08,1299.48 2648.33,1298.24 2649.58,1299.48 2650.83,1299.48 2652.08,1299.48 2653.33,1301.98 2654.57,1303.22 2655.82,1305.71 2657.07,1305.71 2658.32,1305.71 2659.57,1308.21 2660.82,1304.47 2662.07,1305.71 2663.31,1304.47 2664.56,1306.96 2665.81,1303.22 2667.06,1301.98 2668.31,1299.48 2669.56,1298.24 2670.81,1299.48 2672.06,1300.73 2673.3,1299.48 2674.55,1298.24 2675.8,1296.99 2677.05,1298.24 2678.3,1295.74 2679.55,1293.25 2680.8,1293.25 2682.04,1294.5 2683.29,1298.24 2684.54,1296.99 2685.79,1298.24 2687.04,1298.24 2688.29,1296.99 2689.54,1295.74 2690.79,1300.73 2692.03,1299.48 2693.28,1300.73 2694.53,1300.73 2695.78,1299.48 2697.03,1298.24 2698.28,1298.24 2699.53,1299.48 2700.77,1303.22 2702.02,1303.22 2703.27,1306.96 2704.52,1308.21 2705.77,1308.21 2707.02,1309.45 2708.27,1306.96 2709.52,1304.47 2710.76,1303.22 2712.01,1304.47 2713.26,1303.22 2714.51,1303.22 2715.76,1301.98 2717.01,1300.73 2718.26,1298.24 2719.5,1296.99 2720.75,1294.5 2722,1295.74 2723.25,1294.5 2724.5,1294.5 2725.75,1293.25 2727,1292 2728.25,1293.25 2729.49,1294.5 2730.74,1293.25 2731.99,1295.74 2733.24,1299.48 2734.49,1298.24 2735.74,1296.99 2736.99,1298.24 2738.23,1296.99 2739.48,1300.73 2740.73,1298.24 2741.98,1300.73 2743.23,1300.73 2744.48,1299.48 2745.73,1298.24 2746.98,1298.24 2748.22,1295.74 2749.47,1296.99 2750.72,1296.99 2751.97,1295.74 2753.22,1293.25 2754.47,1293.25 2755.72,1293.25 2756.96,1292 2758.21,1294.5 2759.46,1292 2760.71,1292 2761.96,1293.25 2763.21,1289.51 2764.46,1288.27 2765.71,1288.27 2766.95,1288.27 2768.2,1287.02 2769.45,1289.51 2770.7,1289.51 2771.95,1289.51 2773.2,1288.27 2774.45,1289.51 2775.69,1288.27 2776.94,1287.02 2778.19,1287.02 2779.44,1284.53 2780.69,1282.03 2781.94,1284.53 2783.19,1285.77 2784.44,1287.02 2785.68,1287.02 2786.93,1285.77 2788.18,1284.53 2789.43,1287.02 2790.68,1284.53 2791.93,1288.27 2793.18,1287.02 2794.42,1290.76 2795.67,1293.25 2796.92,1294.5 2798.17,1294.5 2799.42,1290.76 2800.67,1289.51 2801.92,1289.51 2803.17,1292 2804.41,1293.25 2805.66,1292 2806.91,1290.76 2808.16,1293.25 2809.41,1295.74 2810.66,1295.74 2811.91,1295.74 2813.15,1296.99 2814.4,1294.5 2815.65,1292 2816.9,1290.76 2818.15,1290.76 2819.4,1293.25 2820.65,1292 2821.9,1293.25 2823.14,1290.76 2824.39,1292 2825.64,1292 2826.89,1290.76 2828.14,1290.76 2829.39,1292 2830.64,1289.51 2831.88,1292 2833.13,1293.25 2834.38,1289.51 2835.63,1288.27 2836.88,1289.51 2838.13,1288.27 2839.38,1288.27 2840.63,1287.02 2841.87,1288.27 2843.12,1289.51 2844.37,1293.25 2845.62,1296.99 2846.87,1299.48 2848.12,1296.99 2849.37,1298.24 2850.62,1300.73 2851.86,1301.98 2853.11,1301.98 2854.36,1299.48 2855.61,1299.48 2856.86,1299.48 2858.11,1298.24 2859.36,1298.24 2860.6,1298.24 2861.85,1303.22 2863.1,1303.22 2864.35,1303.22 2865.6,1304.47 2866.85,1306.96 2868.1,1309.45 2869.35,1305.71 2870.59,1306.96 2871.84,1306.96 2873.09,1309.45 2874.34,1308.21 2875.59,1308.21 2876.84,1309.45 2878.09,1311.95 2879.33,1309.45 2880.58,1309.45 2881.83,1308.21 2883.08,1308.21 2884.33,1308.21 2885.58,1308.21 2886.83,1305.71 2888.08,1306.96 2889.32,1304.47 2890.57,1304.47 2891.82,1303.22 2893.07,1304.47 2894.32,1305.71 2895.57,1304.47 2896.82,1304.47 2898.06,1303.22 2899.31,1306.96 2900.56,1304.47 2901.81,1306.96 2903.06,1306.96 2904.31,1306.96 2905.56,1305.71 2906.81,1304.47 2908.05,1304.47 2909.3,1306.96 2910.55,1305.71 2911.8,1306.96 2913.05,1306.96 2914.3,1306.96 2915.55,1304.47 2916.79,1301.98 2918.04,1300.73 2919.29,1301.98 2920.54,1303.22 2921.79,1303.22 2923.04,1303.22 2924.29,1301.98 2925.54,1300.73 2926.78,1301.98 2928.03,1299.48 2929.28,1296.99 2930.53,1299.48 2931.78,1298.24 2933.03,1296.99 2934.28,1298.24 2935.52,1296.99 2936.77,1294.5 2938.02,1295.74 2939.27,1294.5 2940.52,1294.5 2941.77,1294.5 2943.02,1295.74 2944.27,1295.74 2945.51,1296.99 2946.76,1296.99 2948.01,1300.73 2949.26,1298.24 2950.51,1299.48 2951.76,1300.73 2953.01,1299.48 2954.25,1296.99 2955.5,1294.5 2956.75,1295.74 2958,1296.99 2959.25,1296.99 2960.5,1296.99 2961.75,1298.24 2963,1298.24 2964.24,1299.48 2965.49,1298.24 2966.74,1296.99 2967.99,1295.74 2969.24,1295.74 2970.49,1296.99 2971.74,1298.24 2972.98,1298.24 2974.23,1298.24 2975.48,1299.48 2976.73,1296.99 2977.98,1296.99 2979.23,1296.99 2980.48,1295.74 2981.73,1293.25 2982.97,1293.25 2984.22,1292 2985.47,1294.5 2986.72,1292 2987.97,1295.74 2989.22,1294.5 2990.47,1293.25 2991.71,1293.25 2992.96,1292 2994.21,1295.74 2995.46,1295.74 2996.71,1293.25 2997.96,1294.5 2999.21,1293.25 3000.46,1293.25 3001.7,1292 3002.95,1293.25 3004.2,1293.25 3005.45,1290.76 3006.7,1289.51 3007.95,1289.51 3009.2,1289.51 3010.44,1288.27 3011.69,1288.27 3012.94,1288.27 3014.19,1288.27 3015.44,1289.51 3016.69,1290.76 3017.94,1292 3019.19,1293.25 3020.43,1292 3021.68,1293.25 3022.93,1292 3024.18,1293.25 3025.43,1294.5 3026.68,1296.99 3027.93,1295.74 3029.17,1295.74 3030.42,1295.74 3031.67,1296.99 3032.92,1298.24 3034.17,1298.24 3035.42,1298.24 3036.67,1296.99 3037.92,1296.99 3039.16,1298.24 3040.41,1299.48 3041.66,1300.73 3042.91,1303.22 3044.16,1300.73 3045.41,1300.73 3046.66,1299.48 3047.91,1299.48 3049.15,1301.98 3050.4,1301.98 3051.65,1299.48 3052.9,1299.48 3054.15,1299.48 3055.4,1296.99 3056.65,1299.48 3057.89,1298.24 3059.14,1296.99 3060.39,1299.48 3061.64,1296.99 3062.89,1299.48 3064.14,1298.24 3065.39,1298.24 3066.64,1298.24 3067.88,1299.48 3069.13,1296.99 3070.38,1296.99 3071.63,1296.99 3072.88,1296.99 3074.13,1298.24 3075.38,1295.74 3076.62,1296.99 3077.87,1298.24 3079.12,1298.24 3080.37,1295.74 3081.62,1295.74 3082.87,1295.74 3084.12,1296.99 3085.37,1295.74 3086.61,1294.5 3087.86,1296.99 3089.11,1298.24 3090.36,1296.99 3091.61,1296.99 3092.86,1295.74 3094.11,1293.25 3095.35,1294.5 3096.6,1293.25 3097.85,1290.76 3099.1,1289.51 3100.35,1290.76 3101.6,1288.27 3102.85,1288.27 3104.1,1288.27 3105.34,1288.27 3106.59,1289.51 3107.84,1288.27 3109.09,1288.27 3110.34,1288.27 3111.59,1290.76 3112.84,1292 3114.08,1290.76 3115.33,1292 "/>
<path clip-path="url(#clip490)" d="M2823.05 197.473 L3108.68 197.473 L3108.68 93.7926 L2823.05 93.7926  Z" fill="#ffffff" fill-rule="evenodd" fill-opacity="1"/>
<polyline clip-path="url(#clip490)" style="stroke:#000000; stroke-linecap:round; stroke-linejoin:round; stroke-width:4; stroke-opacity:1; fill:none" points="2823.05,197.473 3108.68,197.473 3108.68,93.7926 2823.05,93.7926 2823.05,197.473 "/>
<polyline clip-path="url(#clip490)" style="stroke:#009af9; stroke-linecap:round; stroke-linejoin:round; stroke-width:4; stroke-opacity:1; fill:none" points="2837.74,145.633 2925.89,145.633 "/>
<path clip-path="url(#clip490)" d="M2956.42 132.959 L2950.08 150.158 L2962.79 150.158 L2956.42 132.959 M2953.78 128.353 L2959.08 128.353 L2972.25 162.913 L2967.39 162.913 L2964.24 154.047 L2948.67 154.047 L2945.52 162.913 L2940.59 162.913 L2953.78 128.353 Z" fill="#000000" fill-rule="nonzero" fill-opacity="1" /><path clip-path="url(#clip490)" d="M3002.35 131.015 L3002.35 135.945 Q2999.98 133.746 2997.3 132.658 Q2994.64 131.57 2991.63 131.57 Q2985.7 131.57 2982.55 135.204 Q2979.41 138.816 2979.41 145.667 Q2979.41 152.496 2982.55 156.13 Q2985.7 159.741 2991.63 159.741 Q2994.64 159.741 2997.3 158.653 Q2999.98 157.565 3002.35 155.366 L3002.35 160.251 Q2999.89 161.917 2997.14 162.751 Q2994.41 163.584 2991.35 163.584 Q2983.5 163.584 2978.99 158.792 Q2974.48 153.977 2974.48 145.667 Q2974.48 137.334 2978.99 132.542 Q2983.5 127.728 2991.35 127.728 Q2994.45 127.728 2997.18 128.561 Q2999.94 129.371 3002.35 131.015 Z" fill="#000000" fill-rule="nonzero" fill-opacity="1" /><path clip-path="url(#clip490)" d="M3006.49 128.353 L3011.21 128.353 L3018.48 157.565 L3025.72 128.353 L3030.98 128.353 L3038.25 157.565 L3045.49 128.353 L3050.24 128.353 L3041.56 162.913 L3035.68 162.913 L3028.39 132.913 L3021.03 162.913 L3015.15 162.913 L3006.49 128.353 Z" fill="#000000" fill-rule="nonzero" fill-opacity="1" /><path clip-path="url(#clip490)" d="M3052.18 148.028 L3064.66 148.028 L3064.66 151.825 L3052.18 151.825 L3052.18 148.028 Z" fill="#000000" fill-rule="nonzero" fill-opacity="1" /><path clip-path="url(#clip490)" d="M3082.04 131.431 Q3078.43 131.431 3076.6 134.996 Q3074.8 138.538 3074.8 145.667 Q3074.8 152.774 3076.6 156.339 Q3078.43 159.88 3082.04 159.88 Q3085.68 159.88 3087.48 156.339 Q3089.31 152.774 3089.31 145.667 Q3089.31 138.538 3087.48 134.996 Q3085.68 131.431 3082.04 131.431 M3082.04 127.728 Q3087.85 127.728 3090.91 132.334 Q3093.99 136.917 3093.99 145.667 Q3093.99 154.394 3090.91 159.001 Q3087.85 163.584 3082.04 163.584 Q3076.23 163.584 3073.16 159.001 Q3070.1 154.394 3070.1 145.667 Q3070.1 136.917 3073.16 132.334 Q3076.23 127.728 3082.04 127.728 Z" fill="#000000" fill-rule="nonzero" fill-opacity="1" /></svg>
